G04*
G04 #@! TF.GenerationSoftware,Altium Limited,Altium Designer,25.4.2 (15)*
G04*
G04 Layer_Physical_Order=1*
G04 Layer_Color=255*
%FSLAX44Y44*%
%MOMM*%
G71*
G04*
G04 #@! TF.SameCoordinates,CE68B810-5A0D-45E5-B586-DEE00FE4B9C3*
G04*
G04*
G04 #@! TF.FilePolarity,Positive*
G04*
G01*
G75*
%ADD29R,0.6500X1.0500*%
%ADD30R,3.1000X1.0000*%
%ADD31C,1.0000*%
%ADD32R,3.0000X2.0000*%
%ADD33C,0.8000*%
%ADD34C,2.0000*%
%ADD35C,1.0160*%
%ADD36C,0.2540*%
%ADD37C,0.7620*%
%ADD38C,0.5080*%
%ADD39C,0.5000*%
%ADD40C,1.0000*%
%ADD41C,5.5000*%
%ADD42C,8.0000*%
%ADD43C,1.7000*%
%ADD44C,0.6000*%
%ADD45C,6.6000*%
%ADD46C,1.5240*%
%ADD47O,3.0000X4.0000*%
%ADD48C,1.5000*%
%ADD49C,1.5700*%
%ADD50C,0.9700*%
G36*
X14711Y902672D02*
X13966Y901870D01*
X13280Y901015D01*
X12653Y900105D01*
X12084Y899140D01*
X11574Y898120D01*
X11122Y897046D01*
X10728Y895918D01*
X10394Y894734D01*
X10117Y893496D01*
X9900Y892204D01*
X-1414Y903517D01*
X-121Y903735D01*
X1116Y904011D01*
X2300Y904346D01*
X3428Y904739D01*
X4503Y905191D01*
X5522Y905702D01*
X6487Y906271D01*
X7397Y906898D01*
X8253Y907584D01*
X9054Y908328D01*
X14711Y902672D01*
D02*
G37*
G36*
X22570Y905352D02*
X28083Y900472D01*
X30665Y898490D01*
X33130Y896813D01*
X35479Y895440D01*
X37711Y894372D01*
X39826Y893610D01*
X41825Y893152D01*
X43707Y893000D01*
Y885000D01*
X41825Y884847D01*
X39826Y884390D01*
X37711Y883627D01*
X35479Y882560D01*
X33130Y881188D01*
X30665Y879510D01*
X28083Y877527D01*
X22570Y872647D01*
X19639Y869750D01*
Y908250D01*
X22570Y905352D01*
D02*
G37*
G36*
X1979790Y890500D02*
X1980823Y888589D01*
X1982400Y884542D01*
X1983466Y880331D01*
X1984002Y876021D01*
X1984001Y871678D01*
X1983464Y867367D01*
X1982398Y863157D01*
X1980819Y859110D01*
X1979786Y857200D01*
X1979786Y857200D01*
X1918210D01*
X1918213Y857202D01*
X1917180Y859112D01*
X1915602Y863158D01*
X1914537Y867369D01*
X1914000Y871678D01*
Y876021D01*
X1914537Y880331D01*
X1915602Y884542D01*
X1917180Y888588D01*
X1918213Y890498D01*
X1918210Y890500D01*
X1979790D01*
X1979790Y890500D01*
D02*
G37*
G36*
X1379790D02*
X1380823Y888589D01*
X1382400Y884542D01*
X1383466Y880331D01*
X1384002Y876021D01*
X1384001Y871678D01*
X1383464Y867367D01*
X1382398Y863157D01*
X1380819Y859110D01*
X1379786Y857200D01*
X1379786Y857200D01*
X1318210D01*
X1318213Y857202D01*
X1317180Y859112D01*
X1315602Y863158D01*
X1314537Y867369D01*
X1314000Y871678D01*
Y876021D01*
X1314537Y880331D01*
X1315602Y884542D01*
X1317180Y888588D01*
X1318213Y890498D01*
X1318210Y890500D01*
X1379790D01*
X1379790Y890500D01*
D02*
G37*
G36*
X779790D02*
X780823Y888589D01*
X782400Y884542D01*
X783466Y880331D01*
X784002Y876021D01*
X784001Y871678D01*
X783464Y867367D01*
X782398Y863157D01*
X780819Y859110D01*
X779786Y857200D01*
X779786Y857200D01*
X718210D01*
X718213Y857202D01*
X717180Y859112D01*
X715602Y863158D01*
X714537Y867369D01*
X714000Y871678D01*
Y876021D01*
X714537Y880331D01*
X715602Y884542D01*
X717180Y888588D01*
X718213Y890498D01*
X718210Y890500D01*
X779790D01*
X779790Y890500D01*
D02*
G37*
G36*
X179790D02*
X180823Y888589D01*
X182400Y884542D01*
X183466Y880331D01*
X184002Y876021D01*
X184002Y871678D01*
X183464Y867367D01*
X182398Y863157D01*
X180819Y859110D01*
X179786Y857200D01*
X179786Y857200D01*
X118210D01*
X118213Y857202D01*
X117180Y859112D01*
X115602Y863158D01*
X114537Y867369D01*
X114000Y871678D01*
Y876021D01*
X114537Y880331D01*
X115602Y884542D01*
X117180Y888588D01*
X118213Y890498D01*
X118210Y890500D01*
X179790D01*
X179790Y890500D01*
D02*
G37*
G36*
X2134391Y-27910D02*
X15868D01*
X15380Y-25878D01*
X15744Y-25693D01*
X19570Y-22913D01*
X22913Y-19570D01*
X24448Y-17457D01*
X29402Y-13072D01*
X31880Y-11169D01*
X34237Y-9565D01*
X36450Y-8272D01*
X38511Y-7286D01*
X40411Y-6602D01*
X40433Y-6596D01*
X71664D01*
X73372Y-6372D01*
X74963Y-5713D01*
X76329Y-4664D01*
X89547Y8554D01*
X112463D01*
X112481Y8413D01*
X112522Y8290D01*
X112528Y8160D01*
X113594Y3950D01*
X113650Y3833D01*
X113672Y3706D01*
X115250Y-341D01*
X115320Y-450D01*
X115358Y-574D01*
X116382Y-2468D01*
X116388Y-2486D01*
X116579Y-2716D01*
X116745Y-2965D01*
X116835Y-3025D01*
X116904Y-3108D01*
X117168Y-3248D01*
X117417Y-3414D01*
X117523Y-3435D01*
X117619Y-3486D01*
X117917Y-3513D01*
X118210Y-3572D01*
X179786D01*
X179986Y-3532D01*
X180192Y-3532D01*
X180281Y-3495D01*
X180377Y-3486D01*
X180473Y-3435D01*
X180578Y-3414D01*
X180748Y-3301D01*
X180939Y-3222D01*
X181007Y-3153D01*
X181092Y-3108D01*
X181162Y-3025D01*
X181251Y-2965D01*
X181364Y-2795D01*
X181510Y-2649D01*
X181547Y-2560D01*
X181608Y-2486D01*
X182642Y-576D01*
X182680Y-452D01*
X182749Y-343D01*
X183859Y2502D01*
X714141D01*
X715250Y-341D01*
X715320Y-450D01*
X715358Y-574D01*
X716382Y-2468D01*
X716388Y-2486D01*
X716579Y-2716D01*
X716745Y-2965D01*
X716835Y-3025D01*
X716904Y-3108D01*
X717168Y-3248D01*
X717417Y-3414D01*
X717523Y-3435D01*
X717618Y-3486D01*
X717916Y-3513D01*
X718210Y-3572D01*
X779786D01*
X779986Y-3532D01*
X780192Y-3532D01*
X780281Y-3495D01*
X780377Y-3486D01*
X780473Y-3435D01*
X780579Y-3414D01*
X780748Y-3301D01*
X780939Y-3222D01*
X781007Y-3153D01*
X781092Y-3108D01*
X781162Y-3025D01*
X781251Y-2965D01*
X781364Y-2795D01*
X781510Y-2649D01*
X781547Y-2560D01*
X781608Y-2486D01*
X782642Y-576D01*
X782680Y-452D01*
X782749Y-343D01*
X783859Y2502D01*
X1314142D01*
X1315250Y-341D01*
X1315320Y-450D01*
X1315358Y-574D01*
X1316382Y-2468D01*
X1316388Y-2486D01*
X1316579Y-2716D01*
X1316745Y-2965D01*
X1316835Y-3025D01*
X1316904Y-3108D01*
X1317168Y-3248D01*
X1317417Y-3414D01*
X1317523Y-3435D01*
X1317619Y-3486D01*
X1317917Y-3513D01*
X1318210Y-3572D01*
X1379786D01*
X1379986Y-3532D01*
X1380192Y-3532D01*
X1380281Y-3495D01*
X1380377Y-3486D01*
X1380473Y-3435D01*
X1380578Y-3414D01*
X1380748Y-3301D01*
X1380939Y-3222D01*
X1381007Y-3153D01*
X1381092Y-3108D01*
X1381162Y-3025D01*
X1381251Y-2965D01*
X1381364Y-2795D01*
X1381510Y-2649D01*
X1381547Y-2560D01*
X1381608Y-2486D01*
X1382641Y-576D01*
X1382680Y-452D01*
X1382749Y-343D01*
X1383859Y2502D01*
X1914142D01*
X1915250Y-341D01*
X1915320Y-450D01*
X1915358Y-574D01*
X1916382Y-2468D01*
X1916388Y-2486D01*
X1916579Y-2716D01*
X1916745Y-2965D01*
X1916835Y-3025D01*
X1916904Y-3108D01*
X1917168Y-3248D01*
X1917417Y-3414D01*
X1917523Y-3435D01*
X1917619Y-3486D01*
X1917917Y-3513D01*
X1918210Y-3572D01*
X1979786D01*
X1979986Y-3532D01*
X1980192Y-3532D01*
X1980281Y-3495D01*
X1980377Y-3486D01*
X1980473Y-3435D01*
X1980578Y-3414D01*
X1980748Y-3301D01*
X1980939Y-3222D01*
X1981007Y-3153D01*
X1981092Y-3108D01*
X1981162Y-3025D01*
X1981251Y-2965D01*
X1981364Y-2795D01*
X1981510Y-2649D01*
X1981547Y-2560D01*
X1981608Y-2486D01*
X1982641Y-576D01*
X1982680Y-452D01*
X1982749Y-343D01*
X1984328Y3704D01*
X1984351Y3831D01*
X1984406Y3948D01*
X1985472Y8159D01*
X1985479Y8288D01*
X1985520Y8411D01*
X1986057Y12721D01*
X1986048Y12850D01*
X1986073Y12977D01*
X1986074Y17321D01*
X1986049Y17448D01*
X1986058Y17577D01*
X1985522Y21887D01*
X1985481Y22010D01*
X1985474Y22140D01*
X1984409Y26351D01*
X1984353Y26467D01*
X1984331Y26595D01*
X1982753Y30642D01*
X1982684Y30751D01*
X1982645Y30875D01*
X1981613Y32785D01*
X1981422Y33016D01*
X1981255Y33265D01*
X1981165Y33325D01*
X1981097Y33408D01*
X1980832Y33547D01*
X1980583Y33714D01*
X1980477Y33735D01*
X1980382Y33785D01*
X1980084Y33813D01*
X1979790Y33872D01*
X1979790Y33872D01*
X1918210D01*
X1917923Y33815D01*
X1917631Y33789D01*
X1917529Y33736D01*
X1917417Y33714D01*
X1917174Y33551D01*
X1916914Y33416D01*
X1916840Y33329D01*
X1916745Y33265D01*
X1916582Y33021D01*
X1916394Y32797D01*
X1916388Y32780D01*
X1915358Y30874D01*
X1915320Y30750D01*
X1915250Y30641D01*
X1914142Y27798D01*
X1383862D01*
X1382753Y30642D01*
X1382684Y30751D01*
X1382645Y30875D01*
X1381613Y32785D01*
X1381422Y33016D01*
X1381255Y33265D01*
X1381165Y33325D01*
X1381097Y33408D01*
X1380832Y33547D01*
X1380583Y33714D01*
X1380477Y33735D01*
X1380382Y33785D01*
X1380084Y33813D01*
X1379790Y33872D01*
X1379790Y33872D01*
X1318210D01*
X1317923Y33815D01*
X1317631Y33789D01*
X1317529Y33736D01*
X1317417Y33714D01*
X1317174Y33551D01*
X1316914Y33416D01*
X1316840Y33329D01*
X1316745Y33265D01*
X1316582Y33021D01*
X1316394Y32797D01*
X1316389Y32780D01*
X1315358Y30874D01*
X1315320Y30750D01*
X1315250Y30641D01*
X1314142Y27798D01*
X783862D01*
X782753Y30642D01*
X782684Y30751D01*
X782645Y30875D01*
X781612Y32785D01*
X781422Y33016D01*
X781255Y33265D01*
X781165Y33325D01*
X781097Y33408D01*
X780832Y33547D01*
X780583Y33714D01*
X780477Y33735D01*
X780382Y33785D01*
X780084Y33813D01*
X779790Y33872D01*
X779790Y33872D01*
X718210D01*
X717923Y33815D01*
X717631Y33789D01*
X717529Y33736D01*
X717417Y33714D01*
X717174Y33551D01*
X716914Y33416D01*
X716840Y33329D01*
X716745Y33265D01*
X716582Y33021D01*
X716394Y32797D01*
X716388Y32780D01*
X715358Y30874D01*
X715320Y30750D01*
X715250Y30641D01*
X714141Y27798D01*
X444249D01*
X443310Y27964D01*
X440625Y28859D01*
X438358Y30080D01*
X436472Y31622D01*
X434930Y33508D01*
X433709Y35775D01*
X432814Y38460D01*
X432648Y39399D01*
Y44604D01*
X433178Y46925D01*
X434039Y49580D01*
X435150Y52207D01*
X436513Y54807D01*
X438132Y57382D01*
X440010Y59932D01*
X441503Y61693D01*
X442020Y62068D01*
X444143Y63882D01*
X447108Y66847D01*
X450396Y71373D01*
X452936Y76357D01*
X454665Y81678D01*
X455540Y87203D01*
Y92797D01*
X455221Y94811D01*
X455411Y97112D01*
X455886Y100243D01*
X456562Y103209D01*
X457436Y106011D01*
X458508Y108654D01*
X459777Y111140D01*
X461044Y113156D01*
X500973Y153086D01*
X502850Y152308D01*
Y65150D01*
X1465750D01*
Y827150D01*
X502850D01*
Y784187D01*
X500973Y783409D01*
X475439Y808943D01*
X475439Y808944D01*
X472819Y810954D01*
X469769Y812217D01*
X466495Y812648D01*
X466495Y812648D01*
X458773D01*
X457270Y812938D01*
X455586Y813405D01*
X454158Y813957D01*
X452985Y814577D01*
X452152Y815182D01*
X450396Y818627D01*
X447108Y823153D01*
X443153Y827108D01*
X443096Y827150D01*
X442935D01*
X442020Y827932D01*
X439760Y829573D01*
X437379Y831032D01*
X434891Y832300D01*
X432310Y833369D01*
X429654Y834232D01*
X426939Y834884D01*
X424180Y835321D01*
X421396Y835540D01*
X418604D01*
X415820Y835321D01*
X413061Y834884D01*
X410346Y834232D01*
X407690Y833369D01*
X405109Y832300D01*
X402621Y831032D01*
X400240Y829573D01*
X397980Y827932D01*
X397065Y827150D01*
X396904D01*
X396847Y827108D01*
X392892Y823153D01*
X389604Y818627D01*
X387064Y813643D01*
X385335Y808322D01*
X384460Y802797D01*
Y797203D01*
X385335Y791678D01*
X387064Y786357D01*
X389604Y781373D01*
X392892Y776847D01*
X396847Y772892D01*
X401373Y769604D01*
X406357Y767064D01*
X411678Y765335D01*
X417203Y764460D01*
X422797D01*
X428322Y765335D01*
X433643Y767064D01*
X438627Y769604D01*
X443153Y772892D01*
X447108Y776847D01*
X450396Y781373D01*
X452152Y784818D01*
X452985Y785423D01*
X454158Y786043D01*
X455586Y786595D01*
X457270Y787062D01*
X458773Y787352D01*
X461256D01*
X485852Y762756D01*
Y173739D01*
X443156Y131044D01*
X441140Y129777D01*
X438654Y128508D01*
X436011Y127436D01*
X433209Y126562D01*
X430243Y125886D01*
X427112Y125411D01*
X424811Y125221D01*
X422797Y125540D01*
X417203D01*
X411678Y124665D01*
X406357Y122936D01*
X401373Y120396D01*
X396847Y117108D01*
X392892Y113153D01*
X389604Y108627D01*
X387064Y103643D01*
X385335Y98322D01*
X384460Y92797D01*
Y87203D01*
X385335Y81678D01*
X387064Y76357D01*
X389604Y71373D01*
X392892Y66847D01*
X395857Y63882D01*
X397980Y62068D01*
X398497Y61693D01*
X399990Y59932D01*
X401868Y57381D01*
X403487Y54807D01*
X404850Y52206D01*
X405961Y49580D01*
X406822Y46925D01*
X407352Y44604D01*
Y39399D01*
X407186Y38460D01*
X406291Y35775D01*
X405070Y33508D01*
X403528Y31622D01*
X401642Y30080D01*
X399375Y28859D01*
X396690Y27964D01*
X395751Y27798D01*
X183862D01*
X182753Y30642D01*
X182684Y30751D01*
X182645Y30875D01*
X181612Y32785D01*
X181422Y33016D01*
X181255Y33265D01*
X181165Y33325D01*
X181097Y33408D01*
X180832Y33547D01*
X180583Y33714D01*
X180477Y33735D01*
X180382Y33785D01*
X180084Y33813D01*
X179790Y33872D01*
X179790Y33872D01*
X118210D01*
X117923Y33815D01*
X117631Y33789D01*
X117529Y33736D01*
X117417Y33714D01*
X117174Y33551D01*
X116914Y33416D01*
X116840Y33329D01*
X116745Y33265D01*
X116582Y33021D01*
X116394Y32797D01*
X116389Y32780D01*
X115358Y30874D01*
X115320Y30750D01*
X115250Y30641D01*
X113672Y26594D01*
X113650Y26467D01*
X113594Y26350D01*
X112528Y22140D01*
X112522Y22010D01*
X112481Y21888D01*
X112463Y21746D01*
X86814D01*
X85107Y21522D01*
X83516Y20863D01*
X82150Y19814D01*
X68932Y6596D01*
X40433D01*
X40411Y6602D01*
X38511Y7286D01*
X36450Y8272D01*
X34237Y9565D01*
X31879Y11170D01*
X29402Y13072D01*
X24448Y17457D01*
X22913Y19570D01*
X19570Y22913D01*
X15744Y25693D01*
X11531Y27839D01*
X7034Y29300D01*
X2364Y30040D01*
X-2364D01*
X-7034Y29300D01*
X-11531Y27839D01*
X-15744Y25693D01*
X-19570Y22913D01*
X-22913Y19570D01*
X-25693Y15744D01*
X-27839Y11531D01*
X-29300Y7034D01*
X-30040Y2364D01*
Y-2364D01*
X-29300Y-7034D01*
X-27839Y-11531D01*
X-25693Y-15744D01*
X-22913Y-19570D01*
X-19570Y-22913D01*
X-15744Y-25693D01*
X-15380Y-25878D01*
X-15868Y-27910D01*
X-32410D01*
Y38000D01*
X-32608Y38991D01*
X-33169Y39831D01*
X-57410Y64073D01*
X-57410Y147794D01*
X-55378Y148199D01*
X-55309Y148031D01*
X-53299Y145412D01*
X-21044Y113156D01*
X-19777Y111140D01*
X-18508Y108654D01*
X-17436Y106011D01*
X-16562Y103209D01*
X-15886Y100243D01*
X-15411Y97112D01*
X-15221Y94811D01*
X-15540Y92797D01*
Y87203D01*
X-14665Y81678D01*
X-12936Y76357D01*
X-10396Y71373D01*
X-7108Y66847D01*
X-3153Y62892D01*
X1373Y59604D01*
X6357Y57064D01*
X11678Y55335D01*
X17203Y54460D01*
X22797D01*
X28322Y55335D01*
X33643Y57064D01*
X38627Y59604D01*
X43153Y62892D01*
X47108Y66847D01*
X50396Y71373D01*
X52936Y76357D01*
X54665Y81678D01*
X55540Y87203D01*
Y92797D01*
X54665Y98322D01*
X52936Y103643D01*
X50396Y108627D01*
X47108Y113153D01*
X43153Y117108D01*
X38627Y120396D01*
X33643Y122936D01*
X28322Y124665D01*
X22797Y125540D01*
X17203D01*
X15189Y125221D01*
X12888Y125411D01*
X9757Y125886D01*
X6791Y126562D01*
X3989Y127436D01*
X1346Y128508D01*
X-1140Y129777D01*
X-3156Y131044D01*
X-31707Y159594D01*
Y291205D01*
X-29675Y291894D01*
X-29489Y291652D01*
X-27914Y290443D01*
X-26080Y289683D01*
X-24111Y289424D01*
X-22143Y289683D01*
X-20309Y290443D01*
X-18734Y291652D01*
X-18672Y291713D01*
X-17464Y293288D01*
X-17149Y294048D01*
X-16704Y295122D01*
X-16445Y297090D01*
Y337000D01*
X-16445Y337000D01*
Y377000D01*
Y417000D01*
Y457000D01*
Y497000D01*
Y537000D01*
Y577000D01*
Y617000D01*
Y657000D01*
Y697000D01*
X-16704Y698968D01*
X-17464Y700803D01*
X-18672Y702378D01*
X-20247Y703586D01*
X-22082Y704346D01*
X-24050Y704605D01*
X-26018Y704346D01*
X-27852Y703586D01*
X-29428Y702378D01*
X-29675Y702055D01*
X-31707Y702745D01*
Y737317D01*
X-9074Y759950D01*
X-6981Y761235D01*
X-4512Y762443D01*
X-1900Y763430D01*
X861Y764197D01*
X3776Y764741D01*
X6847Y765061D01*
X9010Y765124D01*
X13203Y764460D01*
X18797D01*
X24322Y765335D01*
X29643Y767064D01*
X34627Y769604D01*
X39153Y772892D01*
X43108Y776847D01*
X46396Y781373D01*
X48936Y786357D01*
X50665Y791678D01*
X51540Y797203D01*
Y802797D01*
X50665Y808322D01*
X48936Y813643D01*
X46396Y818627D01*
X43108Y823153D01*
X39153Y827108D01*
X34627Y830396D01*
X29643Y832936D01*
X24322Y834665D01*
X18797Y835540D01*
X13203D01*
X7678Y834665D01*
X2357Y832936D01*
X-2627Y830396D01*
X-7153Y827108D01*
X-11108Y823153D01*
X-14397Y818627D01*
X-16936Y813643D01*
X-18665Y808322D01*
X-19540Y802797D01*
Y797203D01*
X-19495Y796919D01*
X-19763Y794963D01*
X-20399Y791786D01*
X-21211Y788782D01*
X-22197Y785950D01*
X-23356Y783288D01*
X-24687Y780792D01*
X-25918Y778881D01*
X-53299Y751500D01*
X-55309Y748880D01*
X-55378Y748714D01*
X-57410Y749118D01*
X-57410Y824928D01*
X-33169Y849169D01*
X-32608Y850009D01*
X-32411Y851001D01*
Y916910D01*
X-15868D01*
X-15380Y914878D01*
X-15744Y914693D01*
X-19570Y911913D01*
X-22913Y908570D01*
X-25693Y904744D01*
X-27839Y900531D01*
X-29300Y896034D01*
X-30040Y891364D01*
Y886636D01*
X-29300Y881966D01*
X-27839Y877469D01*
X-25693Y873256D01*
X-22913Y869430D01*
X-19570Y866087D01*
X-15744Y863307D01*
X-11531Y861161D01*
X-7034Y859700D01*
X-2364Y858960D01*
X2364D01*
X7034Y859700D01*
X11531Y861161D01*
X15744Y863307D01*
X19570Y866087D01*
X22913Y869430D01*
X24448Y871543D01*
X29402Y875928D01*
X31880Y877831D01*
X34237Y879435D01*
X36450Y880728D01*
X38511Y881714D01*
X40411Y882398D01*
X40433Y882404D01*
X68018D01*
X81236Y869186D01*
X82602Y868137D01*
X84193Y867478D01*
X85900Y867254D01*
X112463D01*
X112481Y867113D01*
X112522Y866990D01*
X112528Y866860D01*
X113594Y862650D01*
X113650Y862533D01*
X113672Y862406D01*
X115250Y858359D01*
X115320Y858250D01*
X115358Y858126D01*
X116382Y856232D01*
X116388Y856214D01*
X116579Y855984D01*
X116745Y855735D01*
X116835Y855675D01*
X116904Y855592D01*
X117168Y855452D01*
X117417Y855286D01*
X117523Y855265D01*
X117619Y855214D01*
X117917Y855187D01*
X118210Y855128D01*
X179786D01*
X179986Y855168D01*
X180192Y855168D01*
X180281Y855205D01*
X180377Y855214D01*
X180473Y855265D01*
X180578Y855286D01*
X180748Y855399D01*
X180939Y855478D01*
X181007Y855547D01*
X181092Y855592D01*
X181162Y855676D01*
X181251Y855735D01*
X181364Y855904D01*
X181510Y856051D01*
X181547Y856140D01*
X181608Y856214D01*
X182642Y858124D01*
X182680Y858248D01*
X182749Y858357D01*
X183859Y861202D01*
X714141D01*
X715250Y858359D01*
X715320Y858250D01*
X715358Y858126D01*
X716382Y856232D01*
X716388Y856214D01*
X716579Y855984D01*
X716745Y855735D01*
X716835Y855675D01*
X716904Y855592D01*
X717168Y855452D01*
X717417Y855286D01*
X717523Y855265D01*
X717618Y855214D01*
X717916Y855187D01*
X718210Y855128D01*
X779786D01*
X779986Y855168D01*
X780192Y855168D01*
X780281Y855205D01*
X780377Y855214D01*
X780473Y855265D01*
X780579Y855286D01*
X780748Y855399D01*
X780939Y855478D01*
X781007Y855547D01*
X781092Y855592D01*
X781162Y855676D01*
X781251Y855735D01*
X781364Y855904D01*
X781510Y856051D01*
X781547Y856140D01*
X781608Y856214D01*
X782642Y858124D01*
X782680Y858248D01*
X782749Y858357D01*
X783859Y861202D01*
X1314142D01*
X1315250Y858359D01*
X1315320Y858250D01*
X1315358Y858126D01*
X1316382Y856232D01*
X1316388Y856214D01*
X1316579Y855984D01*
X1316745Y855735D01*
X1316835Y855675D01*
X1316904Y855592D01*
X1317168Y855452D01*
X1317417Y855286D01*
X1317523Y855265D01*
X1317619Y855214D01*
X1317917Y855187D01*
X1318210Y855128D01*
X1379786D01*
X1379986Y855168D01*
X1380192Y855168D01*
X1380281Y855205D01*
X1380377Y855214D01*
X1380473Y855265D01*
X1380578Y855286D01*
X1380748Y855399D01*
X1380939Y855478D01*
X1381007Y855547D01*
X1381092Y855592D01*
X1381162Y855676D01*
X1381251Y855735D01*
X1381364Y855904D01*
X1381510Y856051D01*
X1381547Y856140D01*
X1381608Y856214D01*
X1382641Y858124D01*
X1382680Y858248D01*
X1382749Y858357D01*
X1383859Y861202D01*
X1914142D01*
X1915250Y858359D01*
X1915320Y858250D01*
X1915358Y858126D01*
X1916382Y856232D01*
X1916388Y856214D01*
X1916579Y855984D01*
X1916745Y855735D01*
X1916835Y855675D01*
X1916904Y855592D01*
X1917168Y855452D01*
X1917417Y855286D01*
X1917523Y855265D01*
X1917619Y855214D01*
X1917917Y855187D01*
X1918210Y855128D01*
X1979786D01*
X1979986Y855168D01*
X1980192Y855168D01*
X1980281Y855205D01*
X1980377Y855214D01*
X1980473Y855265D01*
X1980578Y855286D01*
X1980748Y855399D01*
X1980939Y855478D01*
X1981007Y855547D01*
X1981092Y855592D01*
X1981162Y855676D01*
X1981251Y855735D01*
X1981364Y855904D01*
X1981510Y856051D01*
X1981547Y856140D01*
X1981608Y856214D01*
X1982641Y858124D01*
X1982680Y858248D01*
X1982749Y858357D01*
X1984328Y862404D01*
X1984351Y862531D01*
X1984406Y862648D01*
X1985472Y866859D01*
X1985479Y866988D01*
X1985520Y867111D01*
X1986057Y871421D01*
X1986048Y871550D01*
X1986073Y871677D01*
X1986074Y876021D01*
X1986049Y876148D01*
X1986058Y876277D01*
X1985522Y880587D01*
X1985481Y880710D01*
X1985474Y880840D01*
X1984409Y885051D01*
X1984353Y885167D01*
X1984331Y885295D01*
X1982753Y889342D01*
X1982684Y889451D01*
X1982645Y889575D01*
X1981613Y891485D01*
X1981422Y891716D01*
X1981255Y891965D01*
X1981165Y892025D01*
X1981097Y892108D01*
X1980832Y892247D01*
X1980583Y892414D01*
X1980477Y892435D01*
X1980382Y892485D01*
X1980084Y892513D01*
X1979790Y892572D01*
X1979790Y892572D01*
X1918210D01*
X1917923Y892515D01*
X1917631Y892489D01*
X1917529Y892436D01*
X1917417Y892414D01*
X1917174Y892251D01*
X1916914Y892116D01*
X1916840Y892029D01*
X1916745Y891965D01*
X1916582Y891721D01*
X1916394Y891497D01*
X1916388Y891480D01*
X1915358Y889574D01*
X1915320Y889450D01*
X1915250Y889341D01*
X1914142Y886498D01*
X1383862D01*
X1382753Y889342D01*
X1382684Y889451D01*
X1382645Y889575D01*
X1381613Y891485D01*
X1381422Y891716D01*
X1381255Y891965D01*
X1381165Y892025D01*
X1381097Y892108D01*
X1380832Y892247D01*
X1380583Y892414D01*
X1380477Y892435D01*
X1380382Y892485D01*
X1380084Y892513D01*
X1379790Y892572D01*
X1379790Y892572D01*
X1318210D01*
X1317923Y892515D01*
X1317631Y892489D01*
X1317529Y892436D01*
X1317417Y892414D01*
X1317174Y892251D01*
X1316914Y892116D01*
X1316840Y892029D01*
X1316745Y891965D01*
X1316582Y891721D01*
X1316394Y891497D01*
X1316389Y891480D01*
X1315358Y889574D01*
X1315320Y889450D01*
X1315250Y889341D01*
X1314142Y886498D01*
X783862D01*
X782753Y889342D01*
X782684Y889451D01*
X782645Y889575D01*
X781612Y891485D01*
X781422Y891716D01*
X781255Y891965D01*
X781165Y892025D01*
X781097Y892108D01*
X780832Y892247D01*
X780583Y892414D01*
X780477Y892435D01*
X780382Y892485D01*
X780084Y892513D01*
X779790Y892572D01*
X779790Y892572D01*
X718210D01*
X717923Y892515D01*
X717631Y892489D01*
X717529Y892436D01*
X717417Y892414D01*
X717174Y892251D01*
X716914Y892116D01*
X716840Y892029D01*
X716745Y891965D01*
X716582Y891721D01*
X716394Y891497D01*
X716388Y891480D01*
X715358Y889574D01*
X715320Y889450D01*
X715250Y889341D01*
X714141Y886498D01*
X183862D01*
X182753Y889342D01*
X182684Y889451D01*
X182645Y889575D01*
X181612Y891485D01*
X181422Y891716D01*
X181255Y891965D01*
X181165Y892025D01*
X181097Y892108D01*
X180832Y892247D01*
X180583Y892414D01*
X180477Y892435D01*
X180382Y892485D01*
X180084Y892513D01*
X179790Y892572D01*
X179790Y892572D01*
X118210D01*
X117923Y892515D01*
X117631Y892489D01*
X117529Y892436D01*
X117417Y892414D01*
X117174Y892251D01*
X116914Y892116D01*
X116840Y892029D01*
X116745Y891965D01*
X116582Y891721D01*
X116394Y891497D01*
X116389Y891480D01*
X115358Y889574D01*
X115320Y889450D01*
X115250Y889341D01*
X113672Y885294D01*
X113650Y885167D01*
X113594Y885050D01*
X112528Y880840D01*
X112522Y880710D01*
X112481Y880587D01*
X112463Y880446D01*
X88632D01*
X75414Y893664D01*
X74048Y894713D01*
X72457Y895372D01*
X70750Y895596D01*
X40433D01*
X40411Y895602D01*
X38511Y896286D01*
X36450Y897272D01*
X34237Y898565D01*
X31879Y900170D01*
X29402Y902072D01*
X24448Y906457D01*
X22913Y908570D01*
X19570Y911913D01*
X15744Y914693D01*
X15380Y914878D01*
X15868Y916910D01*
X2134391D01*
Y-27910D01*
D02*
G37*
G36*
X449738Y814653D02*
X450700Y813676D01*
X451886Y812815D01*
X453298Y812068D01*
X454935Y811436D01*
X456796Y810919D01*
X458883Y810517D01*
X461195Y810230D01*
X463733Y810058D01*
X466495Y810000D01*
Y790000D01*
X463733Y789942D01*
X458883Y789483D01*
X456796Y789081D01*
X454935Y788564D01*
X453298Y787932D01*
X451886Y787185D01*
X450700Y786324D01*
X449738Y785347D01*
X449002Y784256D01*
Y815744D01*
X449738Y814653D01*
D02*
G37*
G36*
X13612Y767086D02*
X10087Y767228D01*
X6709Y767130D01*
X3478Y766793D01*
X393Y766217D01*
X-2544Y765401D01*
X-5336Y764347D01*
X-7980Y763053D01*
X-10478Y761519D01*
X-12830Y759747D01*
X-15034Y757735D01*
X-28249Y772805D01*
X-26278Y774952D01*
X-24495Y777264D01*
X-22899Y779742D01*
X-21489Y782386D01*
X-20266Y785195D01*
X-19230Y788170D01*
X-18381Y791311D01*
X-17719Y794618D01*
X-17243Y798091D01*
X-16955Y801729D01*
X13612Y767086D01*
D02*
G37*
G36*
X463309Y119167D02*
X461317Y116990D01*
X459539Y114655D01*
X457974Y112164D01*
X456622Y109516D01*
X455484Y106711D01*
X454560Y103749D01*
X453849Y100629D01*
X453352Y97353D01*
X453068Y93920D01*
X452998Y90330D01*
X420330Y122998D01*
X423920Y123068D01*
X427353Y123352D01*
X430629Y123849D01*
X433749Y124560D01*
X436711Y125484D01*
X439516Y126622D01*
X442164Y127974D01*
X444655Y129539D01*
X446990Y131317D01*
X449167Y133309D01*
X463309Y119167D01*
D02*
G37*
G36*
X-6990Y131317D02*
X-4655Y129539D01*
X-2164Y127974D01*
X484Y126622D01*
X3289Y125484D01*
X6252Y124560D01*
X9371Y123849D01*
X12647Y123352D01*
X16080Y123068D01*
X19670Y122998D01*
X-12998Y90330D01*
X-13068Y93920D01*
X-13352Y97353D01*
X-13849Y100629D01*
X-14560Y103749D01*
X-15484Y106711D01*
X-16622Y109516D01*
X-17974Y112164D01*
X-19539Y114655D01*
X-21317Y116990D01*
X-23309Y119167D01*
X-9167Y133309D01*
X-6990Y131317D01*
D02*
G37*
G36*
X1463160Y67739D02*
X505440D01*
Y152308D01*
X505243Y153299D01*
X504682Y154139D01*
X503842Y154701D01*
X502955Y155068D01*
X507444Y159556D01*
X507444Y159556D01*
X509454Y162176D01*
X510431Y164535D01*
X510717Y165226D01*
X511148Y168500D01*
Y767995D01*
X511148Y767995D01*
X510717Y771269D01*
X509454Y774319D01*
X507444Y776939D01*
X502955Y781427D01*
X503842Y781794D01*
X504682Y782356D01*
X505243Y783196D01*
X505440Y784187D01*
Y824560D01*
X1463160D01*
Y67739D01*
D02*
G37*
G36*
X440611Y63845D02*
X438384Y61217D01*
X436419Y58549D01*
X434716Y55841D01*
X433275Y53093D01*
X432096Y50304D01*
X431179Y47476D01*
X430524Y44608D01*
X430167Y41969D01*
X430200Y41350D01*
X430800Y37950D01*
X431800Y34950D01*
X433200Y32350D01*
X435000Y30150D01*
X437200Y28350D01*
X439800Y26950D01*
X442800Y25950D01*
X446200Y25350D01*
X450000Y25150D01*
X420000Y5150D01*
X390000Y25150D01*
X393800Y25350D01*
X397200Y25950D01*
X400200Y26950D01*
X402800Y28350D01*
X405000Y30150D01*
X406800Y32350D01*
X408200Y34950D01*
X409200Y37950D01*
X409800Y41350D01*
X409833Y41969D01*
X409476Y44608D01*
X408821Y47476D01*
X407904Y50304D01*
X406725Y53093D01*
X405284Y55841D01*
X403581Y58549D01*
X401616Y61217D01*
X399389Y63845D01*
X396900Y66433D01*
X443100D01*
X440611Y63845D01*
D02*
G37*
G36*
X1979790Y31800D02*
X1980823Y29890D01*
X1982400Y25842D01*
X1983466Y21632D01*
X1984002Y17321D01*
X1984001Y12978D01*
X1983464Y8667D01*
X1982398Y4457D01*
X1980819Y410D01*
X1979786Y-1500D01*
X1979786Y-1500D01*
X1918210D01*
X1918213Y-1498D01*
X1917180Y412D01*
X1915602Y4458D01*
X1914537Y8669D01*
X1914000Y12978D01*
Y17322D01*
X1914537Y21631D01*
X1915602Y25842D01*
X1917180Y29888D01*
X1918213Y31798D01*
X1918210Y31800D01*
X1979790D01*
X1979790Y31800D01*
D02*
G37*
G36*
X1379790D02*
X1380823Y29890D01*
X1382400Y25842D01*
X1383466Y21632D01*
X1384002Y17321D01*
X1384001Y12978D01*
X1383464Y8667D01*
X1382398Y4457D01*
X1380819Y410D01*
X1379786Y-1500D01*
X1379786Y-1500D01*
X1318210D01*
X1318213Y-1498D01*
X1317180Y412D01*
X1315602Y4458D01*
X1314537Y8669D01*
X1314000Y12978D01*
Y17322D01*
X1314537Y21631D01*
X1315602Y25842D01*
X1317180Y29888D01*
X1318213Y31798D01*
X1318210Y31800D01*
X1379790D01*
X1379790Y31800D01*
D02*
G37*
G36*
X779790D02*
X780823Y29890D01*
X782400Y25842D01*
X783466Y21632D01*
X784002Y17321D01*
X784001Y12978D01*
X783464Y8667D01*
X782398Y4457D01*
X780819Y410D01*
X779786Y-1500D01*
X779786Y-1500D01*
X718210D01*
X718213Y-1498D01*
X717180Y412D01*
X715602Y4458D01*
X714537Y8669D01*
X714000Y12978D01*
Y17322D01*
X714537Y21631D01*
X715602Y25842D01*
X717180Y29888D01*
X718213Y31798D01*
X718210Y31800D01*
X779790D01*
X779790Y31800D01*
D02*
G37*
G36*
X179790D02*
X180823Y29890D01*
X182400Y25842D01*
X183466Y21632D01*
X184002Y17321D01*
X184002Y12978D01*
X183464Y8667D01*
X182398Y4457D01*
X180819Y410D01*
X179786Y-1500D01*
X179786Y-1500D01*
X118210D01*
X118213Y-1498D01*
X117180Y412D01*
X115602Y4458D01*
X114537Y8669D01*
X114000Y12978D01*
Y17322D01*
X114537Y21631D01*
X115602Y25842D01*
X117180Y29888D01*
X118213Y31798D01*
X118210Y31800D01*
X179790D01*
X179790Y31800D01*
D02*
G37*
G36*
X22570Y16352D02*
X28083Y11473D01*
X30665Y9490D01*
X33130Y7812D01*
X35479Y6440D01*
X37711Y5372D01*
X39826Y4610D01*
X41825Y4153D01*
X43707Y4000D01*
Y-4000D01*
X41825Y-4153D01*
X39826Y-4610D01*
X37711Y-5372D01*
X35479Y-6440D01*
X33130Y-7812D01*
X30665Y-9490D01*
X28083Y-11473D01*
X22570Y-16352D01*
X19639Y-19250D01*
Y19250D01*
X22570Y16352D01*
D02*
G37*
%LPC*%
G36*
X1989000Y852153D02*
X1985596Y851704D01*
X1982424Y850390D01*
X1979700Y848300D01*
X1977610Y845576D01*
X1976296Y842404D01*
X1975847Y839000D01*
X1976296Y835596D01*
X1977610Y832424D01*
X1979700Y829700D01*
X1982424Y827610D01*
X1985596Y826296D01*
X1989000Y825847D01*
X1992404Y826296D01*
X1995576Y827610D01*
X1998300Y829700D01*
X2000390Y832424D01*
X2001704Y835596D01*
X2002153Y839000D01*
X2001704Y842404D01*
X2000390Y845576D01*
X1998300Y848300D01*
X1995576Y850390D01*
X1992404Y851704D01*
X1989000Y852153D01*
D02*
G37*
G36*
X2068000Y887181D02*
X2062435Y886817D01*
X2056966Y885729D01*
X2051686Y883936D01*
X2046684Y881470D01*
X2042048Y878372D01*
X2037855Y874695D01*
X2034178Y870502D01*
X2031080Y865866D01*
X2028614Y860864D01*
X2026821Y855584D01*
X2025733Y850115D01*
X2025369Y844550D01*
X2025733Y838986D01*
X2026821Y833516D01*
X2028614Y828236D01*
X2031080Y823234D01*
X2034178Y818598D01*
X2037855Y814405D01*
X2042048Y810728D01*
X2046684Y807630D01*
X2051686Y805164D01*
X2056966Y803371D01*
X2062435Y802283D01*
X2068000Y801919D01*
X2073564Y802283D01*
X2079034Y803371D01*
X2084314Y805164D01*
X2089316Y807630D01*
X2093952Y810728D01*
X2098145Y814405D01*
X2101822Y818598D01*
X2104920Y823234D01*
X2107386Y828236D01*
X2109179Y833516D01*
X2110267Y838986D01*
X2110631Y844550D01*
X2110267Y850115D01*
X2109179Y855584D01*
X2107386Y860864D01*
X2104920Y865866D01*
X2101822Y870502D01*
X2098145Y874695D01*
X2093952Y878372D01*
X2089316Y881470D01*
X2084314Y883936D01*
X2079034Y885729D01*
X2073564Y886817D01*
X2068000Y887181D01*
D02*
G37*
G36*
X1799218Y846135D02*
X237987D01*
X236500Y845839D01*
X235240Y844997D01*
X234793Y844550D01*
X217393Y827150D01*
X190079Y799836D01*
X189237Y798576D01*
X188941Y797089D01*
Y401685D01*
X153003Y365747D01*
X108141Y320885D01*
X-2050D01*
X-2862Y321697D01*
X-4898Y322540D01*
X-7102D01*
X-9138Y321697D01*
X-10697Y320138D01*
X-11540Y318102D01*
Y315898D01*
X-10697Y313862D01*
X-9138Y312303D01*
X-7102Y311460D01*
X-4898D01*
X-2862Y312303D01*
X-2050Y313115D01*
X109750D01*
X111237Y313411D01*
X112497Y314253D01*
X158497Y360253D01*
X195573Y397329D01*
X196415Y398589D01*
X196710Y400076D01*
Y795480D01*
X239596Y838365D01*
X1797609D01*
X1816115Y819859D01*
Y800479D01*
X1815944Y800174D01*
X1815572Y799610D01*
X1815128Y799018D01*
X1815074Y798957D01*
X1814876Y798875D01*
X1812754Y797246D01*
X1811125Y795124D01*
X1811100Y795062D01*
X1808900D01*
X1808875Y795124D01*
X1807246Y797246D01*
X1805124Y798875D01*
X1804250Y799237D01*
Y790000D01*
X1800000D01*
Y785750D01*
X1790763D01*
X1791125Y784876D01*
X1792754Y782754D01*
X1794876Y781125D01*
X1794938Y781100D01*
Y778900D01*
X1794876Y778875D01*
X1792754Y777246D01*
X1791125Y775124D01*
X1790101Y772652D01*
X1789752Y770000D01*
X1790101Y767348D01*
X1791125Y764876D01*
X1792754Y762754D01*
X1794876Y761125D01*
X1797348Y760101D01*
X1800000Y759752D01*
X1802652Y760101D01*
X1802850Y760184D01*
X1802932Y760178D01*
X1803665Y760074D01*
X1804326Y759938D01*
X1804663Y759844D01*
X1817253Y747253D01*
X1818513Y746411D01*
X1820000Y746116D01*
X1977966D01*
X1985387Y738695D01*
Y460196D01*
X1985683Y458710D01*
X1986525Y457449D01*
X2002221Y441753D01*
X2003481Y440911D01*
X2004968Y440615D01*
X2006766D01*
X2006898Y440522D01*
X2007557Y438932D01*
X2009326Y436626D01*
X2011632Y434857D01*
X2014318Y433744D01*
X2017200Y433365D01*
X2020082Y433744D01*
X2022768Y434857D01*
X2023212Y435198D01*
X2025136Y434317D01*
X2025312Y432706D01*
X2022840Y430234D01*
X2022240Y430075D01*
X2021468Y429925D01*
X2020607Y429811D01*
X2020245Y429788D01*
X2020082Y429856D01*
X2017200Y430235D01*
X2014318Y429856D01*
X2011632Y428743D01*
X2009326Y426974D01*
X2007557Y424668D01*
X2006444Y421982D01*
X2006065Y419100D01*
X2006444Y416218D01*
X2007557Y413532D01*
X2009326Y411226D01*
X2011632Y409457D01*
X2014318Y408344D01*
X2017200Y407965D01*
X2020082Y408344D01*
X2022768Y409457D01*
X2025074Y411226D01*
X2026843Y413532D01*
X2027956Y416218D01*
X2028335Y419100D01*
X2027956Y421982D01*
X2027888Y422145D01*
X2027911Y422507D01*
X2028025Y423368D01*
X2028174Y424140D01*
X2028334Y424740D01*
X2032351Y428757D01*
X2033193Y430018D01*
X2033489Y431504D01*
Y453372D01*
X2033193Y454858D01*
X2032351Y456119D01*
X2027223Y461247D01*
X2025963Y462089D01*
X2024476Y462385D01*
X2009359D01*
X2001341Y470403D01*
Y746381D01*
X2001045Y747868D01*
X2000203Y749128D01*
X1987921Y761411D01*
X1986660Y762253D01*
X1985174Y762549D01*
X1832945D01*
X1830157Y765337D01*
X1830062Y765674D01*
X1829926Y766335D01*
X1829822Y767068D01*
X1829816Y767150D01*
X1829899Y767348D01*
X1830248Y770000D01*
X1829899Y772652D01*
X1828875Y775124D01*
X1827246Y777246D01*
X1825124Y778875D01*
X1825062Y778900D01*
Y781100D01*
X1825124Y781125D01*
X1827246Y782754D01*
X1828875Y784876D01*
X1829899Y787348D01*
X1830248Y790000D01*
X1829899Y792652D01*
X1828875Y795124D01*
X1827246Y797246D01*
X1825124Y798875D01*
X1824926Y798957D01*
X1824872Y799018D01*
X1824428Y799610D01*
X1824056Y800174D01*
X1823885Y800479D01*
Y821468D01*
X1823589Y822954D01*
X1822747Y824215D01*
X1801965Y844997D01*
X1800704Y845839D01*
X1799218Y846135D01*
D02*
G37*
G36*
X1795750Y799237D02*
X1794876Y798875D01*
X1792754Y797246D01*
X1791125Y795124D01*
X1790763Y794250D01*
X1795750D01*
Y799237D01*
D02*
G37*
G36*
X2093400Y792235D02*
X2093055Y792190D01*
X2068345D01*
X2068000Y792235D01*
X2067655Y792190D01*
X2042946D01*
X2042600Y792235D01*
X2042254Y792190D01*
X2017545D01*
X2017200Y792235D01*
X2016855Y792190D01*
X2008700D01*
X2007709Y791993D01*
X2006869Y791431D01*
X2006307Y790591D01*
X2006110Y789600D01*
Y781446D01*
X2006065Y781100D01*
X2006110Y780754D01*
Y756046D01*
X2006065Y755700D01*
X2006110Y755355D01*
Y747200D01*
X2006307Y746209D01*
X2006869Y745369D01*
X2007709Y744807D01*
X2008700Y744610D01*
X2016855D01*
X2017200Y744565D01*
X2017545Y744610D01*
X2042254D01*
X2042600Y744565D01*
X2042946Y744610D01*
X2067655D01*
X2068000Y744565D01*
X2068345Y744610D01*
X2093055D01*
X2093400Y744565D01*
X2093746Y744610D01*
X2101900D01*
X2102891Y744807D01*
X2103731Y745369D01*
X2104293Y746209D01*
X2104490Y747200D01*
Y755355D01*
X2104535Y755700D01*
X2104490Y756046D01*
Y780754D01*
X2104535Y781100D01*
X2104490Y781446D01*
Y789600D01*
X2104293Y790591D01*
X2103731Y791431D01*
X2102891Y791993D01*
X2101900Y792190D01*
X2093746D01*
X2093400Y792235D01*
D02*
G37*
G36*
X446000Y762224D02*
X443522Y761732D01*
X441422Y760328D01*
X440018Y758228D01*
X439526Y755750D01*
Y748750D01*
X439526Y748750D01*
Y748340D01*
X437960D01*
Y733260D01*
X474040D01*
Y748340D01*
X454458D01*
X452474Y748750D01*
Y755750D01*
X451982Y758228D01*
X450578Y760328D01*
X448478Y761732D01*
X446000Y762224D01*
D02*
G37*
G36*
X420040Y748340D02*
X383960D01*
Y744685D01*
X234025D01*
X232538Y744389D01*
X231278Y743547D01*
X206079Y718347D01*
X205236Y717087D01*
X204941Y715601D01*
Y398685D01*
X84453Y278197D01*
X46877D01*
X45638Y279435D01*
X43602Y280279D01*
X41398D01*
X39362Y279435D01*
X37803Y277877D01*
X36960Y275841D01*
Y273637D01*
X37803Y271600D01*
X39362Y270042D01*
X41398Y269199D01*
X43602D01*
X45638Y270042D01*
X46024Y270427D01*
X82177D01*
Y197979D01*
X82473Y196492D01*
X83315Y195232D01*
X124794Y153753D01*
X126054Y152911D01*
X127541Y152615D01*
X391050D01*
X391862Y151803D01*
X393898Y150960D01*
X396102D01*
X398138Y151803D01*
X399697Y153362D01*
X400540Y155398D01*
Y157602D01*
X399697Y159638D01*
X398138Y161197D01*
X396102Y162040D01*
X393898D01*
X391862Y161197D01*
X391050Y160385D01*
X129150D01*
X89947Y199588D01*
Y272703D01*
X123583Y306339D01*
X124779Y305869D01*
X125460Y305343D01*
Y303398D01*
X126303Y301362D01*
X127862Y299803D01*
X129898Y298960D01*
X132102D01*
X134138Y299803D01*
X134950Y300615D01*
X161050D01*
X161862Y299803D01*
X163898Y298960D01*
X166102D01*
X168138Y299803D01*
X169697Y301362D01*
X170540Y303398D01*
Y305602D01*
X169697Y307638D01*
X168138Y309197D01*
X166102Y310040D01*
X163898D01*
X161862Y309197D01*
X161050Y308385D01*
X134950D01*
X134138Y309197D01*
X132102Y310040D01*
X130157D01*
X129631Y310721D01*
X129161Y311917D01*
X211572Y394328D01*
X212414Y395589D01*
X212710Y397075D01*
Y713992D01*
X235634Y736915D01*
X383960D01*
Y733260D01*
X420040D01*
Y748340D01*
D02*
G37*
G36*
X475564Y724464D02*
X461000D01*
Y720400D01*
X475564D01*
Y724464D01*
D02*
G37*
G36*
X421564D02*
X407000D01*
Y720400D01*
X421564D01*
Y724464D01*
D02*
G37*
G36*
X451000D02*
X436436D01*
Y720400D01*
X451000D01*
Y724464D01*
D02*
G37*
G36*
X397000D02*
X382436D01*
Y720400D01*
X397000D01*
Y724464D01*
D02*
G37*
G36*
X2093400Y716035D02*
X2093055Y715990D01*
X2068345D01*
X2068000Y716035D01*
X2067655Y715990D01*
X2042946D01*
X2042600Y716035D01*
X2042254Y715990D01*
X2017545D01*
X2017200Y716035D01*
X2016855Y715990D01*
X2008700D01*
X2007709Y715793D01*
X2006869Y715231D01*
X2006307Y714391D01*
X2006110Y713400D01*
Y705246D01*
X2006065Y704900D01*
X2006110Y704555D01*
Y679846D01*
X2006065Y679500D01*
X2006110Y679155D01*
Y671000D01*
X2006307Y670009D01*
X2006869Y669169D01*
X2007709Y668607D01*
X2008700Y668410D01*
X2016855D01*
X2017200Y668365D01*
X2017545Y668410D01*
X2042254D01*
X2042600Y668365D01*
X2042946Y668410D01*
X2067655D01*
X2068000Y668365D01*
X2068345Y668410D01*
X2093055D01*
X2093400Y668365D01*
X2093746Y668410D01*
X2101900D01*
X2102891Y668607D01*
X2103731Y669169D01*
X2104293Y670009D01*
X2104490Y671000D01*
Y679155D01*
X2104535Y679500D01*
X2104490Y679846D01*
Y704555D01*
X2104535Y704900D01*
X2104490Y705246D01*
Y713400D01*
X2104293Y714391D01*
X2103731Y715231D01*
X2102891Y715793D01*
X2101900Y715990D01*
X2093746D01*
X2093400Y716035D01*
D02*
G37*
G36*
X1888500Y735944D02*
X1885668Y735571D01*
X1883028Y734477D01*
X1880762Y732738D01*
X1879023Y730472D01*
X1877929Y727832D01*
X1877556Y725000D01*
X1877929Y722168D01*
X1879023Y719528D01*
X1880762Y717262D01*
X1883028Y715523D01*
X1885668Y714429D01*
X1888500Y714056D01*
X1891332Y714429D01*
X1893972Y715523D01*
X1896238Y717262D01*
X1897977Y719528D01*
X1899071Y722168D01*
X1899444Y725000D01*
X1899071Y727832D01*
X1897977Y730472D01*
X1896238Y732738D01*
X1893972Y734477D01*
X1891332Y735571D01*
X1888500Y735944D01*
D02*
G37*
G36*
X475564Y710400D02*
X456000D01*
X436436D01*
Y708340D01*
X421564D01*
Y710400D01*
X402000D01*
X382436D01*
Y708340D01*
X350000D01*
X349009Y708143D01*
X348169Y707581D01*
X347607Y706741D01*
X347410Y705750D01*
Y650750D01*
X347607Y649759D01*
X348169Y648919D01*
X349009Y648357D01*
X350000Y648160D01*
X382436D01*
Y644200D01*
X402000D01*
X421564D01*
Y648160D01*
X436436D01*
Y644200D01*
X456000D01*
X475564D01*
Y648160D01*
X477750D01*
X478741Y648357D01*
X479581Y648919D01*
X480143Y649759D01*
X480340Y650750D01*
Y705750D01*
X480143Y706741D01*
X479581Y707581D01*
X478741Y708143D01*
X477750Y708340D01*
X475564D01*
Y710400D01*
D02*
G37*
G36*
X126102Y695540D02*
X123898D01*
X121862Y694697D01*
X121050Y693885D01*
X115000D01*
X113513Y693589D01*
X112253Y692747D01*
X97253Y677747D01*
X96411Y676487D01*
X96115Y675000D01*
Y573950D01*
X95303Y573138D01*
X94460Y571102D01*
Y568898D01*
X95303Y566862D01*
X96862Y565303D01*
X98898Y564460D01*
X101102D01*
X103138Y565303D01*
X104697Y566862D01*
X105540Y568898D01*
Y571102D01*
X104697Y573138D01*
X103885Y573950D01*
Y673391D01*
X116609Y686115D01*
X121050D01*
X121862Y685303D01*
X123898Y684460D01*
X126102D01*
X128138Y685303D01*
X129697Y686862D01*
X130540Y688898D01*
Y691102D01*
X129697Y693138D01*
X128138Y694697D01*
X126102Y695540D01*
D02*
G37*
G36*
X1933000Y660127D02*
X1930379Y659782D01*
X1927937Y658770D01*
X1925839Y657161D01*
X1924230Y655063D01*
X1923218Y652621D01*
X1922873Y650000D01*
X1923218Y647379D01*
X1924230Y644937D01*
X1925839Y642839D01*
X1927937Y641230D01*
X1930379Y640219D01*
X1933000Y639873D01*
X1935621Y640219D01*
X1938063Y641230D01*
X1940161Y642839D01*
X1941770Y644937D01*
X1942782Y647379D01*
X1943127Y650000D01*
X1942782Y652621D01*
X1941770Y655063D01*
X1940161Y657161D01*
X1938063Y658770D01*
X1935621Y659782D01*
X1933000Y660127D01*
D02*
G37*
G36*
X2093400Y639835D02*
X2093055Y639790D01*
X2068345D01*
X2068000Y639835D01*
X2067655Y639790D01*
X2042946D01*
X2042600Y639835D01*
X2042254Y639790D01*
X2017545D01*
X2017200Y639835D01*
X2016855Y639790D01*
X2008700D01*
X2007709Y639593D01*
X2006869Y639031D01*
X2006307Y638191D01*
X2006110Y637200D01*
Y629046D01*
X2006065Y628700D01*
X2006110Y628354D01*
Y603646D01*
X2006065Y603300D01*
X2006110Y602954D01*
Y594800D01*
X2006307Y593809D01*
X2006869Y592969D01*
X2007709Y592407D01*
X2008700Y592210D01*
X2016855D01*
X2017200Y592165D01*
X2017545Y592210D01*
X2042254D01*
X2042600Y592165D01*
X2042946Y592210D01*
X2067655D01*
X2068000Y592165D01*
X2068345Y592210D01*
X2093055D01*
X2093400Y592165D01*
X2093746Y592210D01*
X2101900D01*
X2102891Y592407D01*
X2103731Y592969D01*
X2104293Y593809D01*
X2104490Y594800D01*
Y602954D01*
X2104535Y603300D01*
X2104490Y603646D01*
Y628354D01*
X2104535Y628700D01*
X2104490Y629046D01*
Y637200D01*
X2104293Y638191D01*
X2103731Y639031D01*
X2102891Y639593D01*
X2101900Y639790D01*
X2093746D01*
X2093400Y639835D01*
D02*
G37*
G36*
X1765000Y698148D02*
X1762838Y697719D01*
X1761006Y696494D01*
X1759781Y694662D01*
X1759352Y692500D01*
X1759781Y690338D01*
X1761006Y688506D01*
X1761115Y688433D01*
Y655500D01*
X1761411Y654013D01*
X1762253Y652753D01*
X1773503Y641503D01*
X1773767Y641327D01*
X1773151Y639295D01*
X1769817D01*
X1769744Y639404D01*
X1767912Y640629D01*
X1765750Y641059D01*
X1763588Y640629D01*
X1761756Y639404D01*
X1760531Y637572D01*
X1760101Y635410D01*
X1760531Y633248D01*
X1761756Y631416D01*
X1763588Y630191D01*
X1765750Y629762D01*
X1767912Y630191D01*
X1769744Y631416D01*
X1769817Y631525D01*
X1874231D01*
X1888503Y617253D01*
X1889763Y616411D01*
X1891250Y616115D01*
X1892994D01*
X1893150Y616030D01*
X1893631Y615714D01*
X1894038Y615400D01*
X1894230Y614937D01*
X1895839Y612839D01*
X1897937Y611230D01*
X1900379Y610218D01*
X1903000Y609873D01*
X1905621Y610218D01*
X1908063Y611230D01*
X1910161Y612839D01*
X1911770Y614937D01*
X1912782Y617379D01*
X1913127Y620000D01*
X1912782Y622621D01*
X1911770Y625063D01*
X1910161Y627161D01*
X1908632Y628333D01*
X1909322Y630365D01*
X1917141D01*
X1922977Y624529D01*
X1923063Y624227D01*
X1923196Y623582D01*
X1923299Y622867D01*
X1923302Y622823D01*
X1923218Y622621D01*
X1922873Y620000D01*
X1923218Y617379D01*
X1924230Y614937D01*
X1925839Y612839D01*
X1927937Y611230D01*
X1930379Y610218D01*
X1933000Y609873D01*
X1935621Y610218D01*
X1938063Y611230D01*
X1940161Y612839D01*
X1941770Y614937D01*
X1942782Y617379D01*
X1943127Y620000D01*
X1942782Y622621D01*
X1941770Y625063D01*
X1940161Y627161D01*
X1938063Y628770D01*
X1935621Y629782D01*
X1933000Y630127D01*
X1930379Y629782D01*
X1930177Y629698D01*
X1930133Y629701D01*
X1929418Y629804D01*
X1928772Y629937D01*
X1928471Y630023D01*
X1921497Y636997D01*
X1920237Y637839D01*
X1918750Y638135D01*
X1905361D01*
X1905227Y640167D01*
X1905621Y640219D01*
X1908063Y641230D01*
X1910161Y642839D01*
X1911770Y644937D01*
X1912782Y647379D01*
X1913127Y650000D01*
X1912782Y652621D01*
X1911770Y655063D01*
X1910161Y657161D01*
X1908063Y658770D01*
X1905621Y659782D01*
X1903000Y660127D01*
X1900379Y659782D01*
X1897937Y658770D01*
X1895839Y657161D01*
X1894230Y655063D01*
X1893218Y652621D01*
X1892873Y650000D01*
X1893218Y647379D01*
X1894230Y644937D01*
X1895839Y642839D01*
X1897937Y641230D01*
X1900379Y640219D01*
X1900773Y640167D01*
X1900639Y638135D01*
X1893813D01*
X1884950Y646997D01*
X1883690Y647839D01*
X1882204Y648135D01*
X1777859D01*
X1768885Y657109D01*
Y688433D01*
X1768994Y688506D01*
X1770219Y690338D01*
X1770648Y692500D01*
X1770219Y694662D01*
X1768994Y696494D01*
X1767162Y697719D01*
X1765000Y698148D01*
D02*
G37*
G36*
X475564Y634200D02*
X461000D01*
Y630136D01*
X475564D01*
Y634200D01*
D02*
G37*
G36*
X451000D02*
X436436D01*
Y630136D01*
X451000D01*
Y634200D01*
D02*
G37*
G36*
X421564D02*
X407000D01*
Y630136D01*
X421564D01*
Y634200D01*
D02*
G37*
G36*
X397000D02*
X382436D01*
Y630136D01*
X397000D01*
Y634200D01*
D02*
G37*
G36*
X2093400Y576335D02*
X2093055Y576290D01*
X2068345D01*
X2068000Y576335D01*
X2067655Y576290D01*
X2042946D01*
X2042600Y576335D01*
X2042254Y576290D01*
X2017545D01*
X2017200Y576335D01*
X2016855Y576290D01*
X2008700D01*
X2007709Y576093D01*
X2006869Y575531D01*
X2006307Y574691D01*
X2006110Y573700D01*
Y565546D01*
X2006065Y565200D01*
X2006110Y564855D01*
Y540146D01*
X2006065Y539800D01*
X2006110Y539454D01*
Y531300D01*
X2006307Y530309D01*
X2006869Y529469D01*
X2007709Y528907D01*
X2008700Y528710D01*
X2016855D01*
X2017200Y528665D01*
X2017545Y528710D01*
X2042254D01*
X2042600Y528665D01*
X2042946Y528710D01*
X2067655D01*
X2068000Y528665D01*
X2068345Y528710D01*
X2093055D01*
X2093400Y528665D01*
X2093746Y528710D01*
X2101900D01*
X2102891Y528907D01*
X2103731Y529469D01*
X2104293Y530309D01*
X2104490Y531300D01*
Y539454D01*
X2104535Y539800D01*
X2104490Y540146D01*
Y564855D01*
X2104535Y565200D01*
X2104490Y565546D01*
Y573700D01*
X2104293Y574691D01*
X2103731Y575531D01*
X2102891Y576093D01*
X2101900Y576290D01*
X2093746D01*
X2093400Y576335D01*
D02*
G37*
G36*
X1625750Y577898D02*
X1623588Y577469D01*
X1621756Y576244D01*
X1621683Y576135D01*
X1595821D01*
X1595757Y576232D01*
X1593924Y577456D01*
X1591763Y577886D01*
X1589601Y577456D01*
X1587768Y576232D01*
X1586544Y574399D01*
X1586114Y572238D01*
X1586544Y570076D01*
X1587768Y568243D01*
X1589601Y567019D01*
X1590113Y566917D01*
Y564845D01*
X1589601Y564743D01*
X1587768Y563519D01*
X1586544Y561687D01*
X1586114Y559525D01*
X1586544Y557363D01*
X1587768Y555531D01*
X1589601Y554306D01*
X1591763Y553876D01*
X1592288Y553981D01*
X1602191Y544078D01*
X1603451Y543236D01*
X1604937Y542940D01*
X1639304D01*
X1639377Y542831D01*
X1641210Y541606D01*
X1643371Y541176D01*
X1645533Y541606D01*
X1647365Y542831D01*
X1648590Y544663D01*
X1649020Y546825D01*
X1648590Y548987D01*
X1647365Y550819D01*
X1645533Y552043D01*
X1643371Y552473D01*
X1641210Y552043D01*
X1639377Y550819D01*
X1639304Y550710D01*
X1606547D01*
X1597332Y559925D01*
X1596981Y561687D01*
X1595757Y563519D01*
X1593924Y564743D01*
X1593412Y564845D01*
Y566917D01*
X1593924Y567019D01*
X1595757Y568243D01*
X1595838Y568365D01*
X1621683D01*
X1621756Y568256D01*
X1623588Y567032D01*
X1625750Y566601D01*
X1627912Y567032D01*
X1629744Y568256D01*
X1630969Y570088D01*
X1631398Y572250D01*
X1630969Y574412D01*
X1629744Y576244D01*
X1627912Y577469D01*
X1625750Y577898D01*
D02*
G37*
G36*
X1869820Y627520D02*
X1848099D01*
X1847108Y627323D01*
X1846268Y626761D01*
X1845707Y625921D01*
X1845510Y624930D01*
Y563687D01*
X1845707Y562696D01*
X1846268Y561855D01*
X1862205Y545919D01*
X1863045Y545357D01*
X1864036Y545160D01*
X1955337D01*
X1956328Y545357D01*
X1957168Y545919D01*
X1957730Y546759D01*
X1957927Y547750D01*
Y578713D01*
X1957730Y579704D01*
X1957168Y580544D01*
X1956328Y581105D01*
X1955337Y581302D01*
X1891926D01*
X1888109Y585120D01*
X1888109Y609231D01*
X1887912Y610222D01*
X1887350Y611062D01*
X1871651Y626761D01*
X1870811Y627323D01*
X1869820Y627520D01*
D02*
G37*
G36*
X1706000Y574898D02*
X1703838Y574468D01*
X1702006Y573244D01*
X1700781Y571412D01*
X1700352Y569250D01*
X1700781Y567088D01*
X1702006Y565256D01*
X1702115Y565183D01*
Y545250D01*
X1702411Y543764D01*
X1703253Y542503D01*
X1725003Y520753D01*
X1726263Y519911D01*
X1727750Y519615D01*
X1886641D01*
X1891003Y515253D01*
X1892263Y514411D01*
X1893750Y514115D01*
X1921000D01*
X1922487Y514411D01*
X1923747Y515253D01*
X1928471Y519977D01*
X1928772Y520063D01*
X1929418Y520196D01*
X1930133Y520299D01*
X1930177Y520302D01*
X1930379Y520218D01*
X1933000Y519873D01*
X1935621Y520218D01*
X1938063Y521230D01*
X1940161Y522839D01*
X1941770Y524937D01*
X1942782Y527379D01*
X1943127Y530000D01*
X1942782Y532621D01*
X1941770Y535063D01*
X1940161Y537161D01*
X1938063Y538770D01*
X1935621Y539782D01*
X1933000Y540127D01*
X1930379Y539782D01*
X1927937Y538770D01*
X1925839Y537161D01*
X1924230Y535063D01*
X1923218Y532621D01*
X1922873Y530000D01*
X1923218Y527379D01*
X1923302Y527177D01*
X1923299Y527133D01*
X1923196Y526418D01*
X1923063Y525773D01*
X1922977Y525471D01*
X1919391Y521885D01*
X1911989D01*
X1910987Y523917D01*
X1911770Y524937D01*
X1912782Y527379D01*
X1913127Y530000D01*
X1912782Y532621D01*
X1911770Y535063D01*
X1910161Y537161D01*
X1908063Y538770D01*
X1905621Y539782D01*
X1903000Y540127D01*
X1900379Y539782D01*
X1897937Y538770D01*
X1895839Y537161D01*
X1894230Y535063D01*
X1894146Y534861D01*
X1894114Y534832D01*
X1893535Y534400D01*
X1892984Y534037D01*
X1892711Y533885D01*
X1738609D01*
X1727873Y544621D01*
X1727899Y544750D01*
X1727469Y546912D01*
X1726244Y548744D01*
X1724412Y549968D01*
X1722250Y550398D01*
X1720088Y549968D01*
X1718256Y548744D01*
X1717031Y546912D01*
X1716602Y544750D01*
X1717031Y542588D01*
X1717036Y542581D01*
X1715458Y541286D01*
X1709885Y546859D01*
Y565183D01*
X1709994Y565256D01*
X1711219Y567088D01*
X1711649Y569250D01*
X1711219Y571412D01*
X1709994Y573244D01*
X1708162Y574468D01*
X1706000Y574898D01*
D02*
G37*
G36*
X2093400Y512835D02*
X2090518Y512456D01*
X2087832Y511343D01*
X2085526Y509574D01*
X2083757Y507268D01*
X2082644Y504582D01*
X2082265Y501700D01*
X2082644Y498818D01*
X2083757Y496132D01*
X2085526Y493826D01*
X2087832Y492057D01*
X2090518Y490944D01*
X2093400Y490565D01*
X2096282Y490944D01*
X2098968Y492057D01*
X2101274Y493826D01*
X2103043Y496132D01*
X2104156Y498818D01*
X2104535Y501700D01*
X2104156Y504582D01*
X2103043Y507268D01*
X2101274Y509574D01*
X2098968Y511343D01*
X2096282Y512456D01*
X2093400Y512835D01*
D02*
G37*
G36*
X2068000D02*
X2065118Y512456D01*
X2062432Y511343D01*
X2060126Y509574D01*
X2058357Y507268D01*
X2057244Y504582D01*
X2056865Y501700D01*
X2057244Y498818D01*
X2058357Y496132D01*
X2060126Y493826D01*
X2062432Y492057D01*
X2065118Y490944D01*
X2068000Y490565D01*
X2070882Y490944D01*
X2073568Y492057D01*
X2075874Y493826D01*
X2077643Y496132D01*
X2078756Y498818D01*
X2079135Y501700D01*
X2078756Y504582D01*
X2077643Y507268D01*
X2075874Y509574D01*
X2073568Y511343D01*
X2070882Y512456D01*
X2068000Y512835D01*
D02*
G37*
G36*
X2042600D02*
X2039718Y512456D01*
X2037032Y511343D01*
X2034726Y509574D01*
X2032957Y507268D01*
X2031844Y504582D01*
X2031465Y501700D01*
X2031844Y498818D01*
X2032957Y496132D01*
X2034726Y493826D01*
X2037032Y492057D01*
X2039718Y490944D01*
X2042600Y490565D01*
X2045482Y490944D01*
X2048168Y492057D01*
X2050474Y493826D01*
X2052243Y496132D01*
X2053356Y498818D01*
X2053735Y501700D01*
X2053356Y504582D01*
X2052243Y507268D01*
X2050474Y509574D01*
X2048168Y511343D01*
X2045482Y512456D01*
X2042600Y512835D01*
D02*
G37*
G36*
X2017200D02*
X2014318Y512456D01*
X2011632Y511343D01*
X2009326Y509574D01*
X2007557Y507268D01*
X2006444Y504582D01*
X2006065Y501700D01*
X2006444Y498818D01*
X2007557Y496132D01*
X2009326Y493826D01*
X2011632Y492057D01*
X2014318Y490944D01*
X2017200Y490565D01*
X2020082Y490944D01*
X2022768Y492057D01*
X2025074Y493826D01*
X2026843Y496132D01*
X2027956Y498818D01*
X2028335Y501700D01*
X2027956Y504582D01*
X2026843Y507268D01*
X2025074Y509574D01*
X2022768Y511343D01*
X2020082Y512456D01*
X2017200Y512835D01*
D02*
G37*
G36*
X2093400Y487435D02*
X2090518Y487056D01*
X2087832Y485943D01*
X2085526Y484174D01*
X2083757Y481868D01*
X2082644Y479182D01*
X2082265Y476300D01*
X2082644Y473418D01*
X2083757Y470732D01*
X2085526Y468426D01*
X2087832Y466657D01*
X2090518Y465544D01*
X2093400Y465165D01*
X2096282Y465544D01*
X2098968Y466657D01*
X2101274Y468426D01*
X2103043Y470732D01*
X2104156Y473418D01*
X2104535Y476300D01*
X2104156Y479182D01*
X2103043Y481868D01*
X2101274Y484174D01*
X2098968Y485943D01*
X2096282Y487056D01*
X2093400Y487435D01*
D02*
G37*
G36*
X2068000D02*
X2065118Y487056D01*
X2062432Y485943D01*
X2060126Y484174D01*
X2058357Y481868D01*
X2057244Y479182D01*
X2056865Y476300D01*
X2057244Y473418D01*
X2058357Y470732D01*
X2060126Y468426D01*
X2062432Y466657D01*
X2065118Y465544D01*
X2068000Y465165D01*
X2070882Y465544D01*
X2073568Y466657D01*
X2075874Y468426D01*
X2077643Y470732D01*
X2078756Y473418D01*
X2079135Y476300D01*
X2078756Y479182D01*
X2077643Y481868D01*
X2075874Y484174D01*
X2073568Y485943D01*
X2070882Y487056D01*
X2068000Y487435D01*
D02*
G37*
G36*
X2042600D02*
X2039718Y487056D01*
X2037032Y485943D01*
X2034726Y484174D01*
X2032957Y481868D01*
X2031844Y479182D01*
X2031465Y476300D01*
X2031844Y473418D01*
X2032957Y470732D01*
X2034726Y468426D01*
X2037032Y466657D01*
X2039718Y465544D01*
X2042600Y465165D01*
X2045482Y465544D01*
X2048168Y466657D01*
X2050474Y468426D01*
X2052243Y470732D01*
X2053356Y473418D01*
X2053735Y476300D01*
X2053356Y479182D01*
X2052243Y481868D01*
X2050474Y484174D01*
X2048168Y485943D01*
X2045482Y487056D01*
X2042600Y487435D01*
D02*
G37*
G36*
X2017200D02*
X2014318Y487056D01*
X2011632Y485943D01*
X2009326Y484174D01*
X2007557Y481868D01*
X2006444Y479182D01*
X2006065Y476300D01*
X2006444Y473418D01*
X2007557Y470732D01*
X2009326Y468426D01*
X2011632Y466657D01*
X2014318Y465544D01*
X2017200Y465165D01*
X2020082Y465544D01*
X2022768Y466657D01*
X2025074Y468426D01*
X2026843Y470732D01*
X2027956Y473418D01*
X2028335Y476300D01*
X2027956Y479182D01*
X2026843Y481868D01*
X2025074Y484174D01*
X2022768Y485943D01*
X2020082Y487056D01*
X2017200Y487435D01*
D02*
G37*
G36*
X108482Y535578D02*
X106278D01*
X104242Y534734D01*
X102684Y533176D01*
X101840Y531140D01*
Y529991D01*
X96984Y525135D01*
X96142Y523874D01*
X95846Y522388D01*
Y455668D01*
X95034Y454856D01*
X94191Y452820D01*
Y450616D01*
X95034Y448580D01*
X96592Y447022D01*
X98629Y446178D01*
X100833D01*
X102869Y447022D01*
X104427Y448580D01*
X105271Y450616D01*
Y452820D01*
X104427Y454856D01*
X103615Y455668D01*
Y520779D01*
X107334Y524498D01*
X108482D01*
X110518Y525341D01*
X112077Y526899D01*
X112920Y528936D01*
Y531140D01*
X112077Y533176D01*
X110518Y534734D01*
X108482Y535578D01*
D02*
G37*
G36*
X2068000Y455635D02*
X2065118Y455256D01*
X2062432Y454143D01*
X2060126Y452374D01*
X2058357Y450068D01*
X2057244Y447382D01*
X2056865Y444500D01*
X2057244Y441618D01*
X2058357Y438932D01*
X2060126Y436626D01*
X2062432Y434857D01*
X2065118Y433744D01*
X2068000Y433365D01*
X2070882Y433744D01*
X2073568Y434857D01*
X2075874Y436626D01*
X2077643Y438932D01*
X2078756Y441618D01*
X2079135Y444500D01*
X2078756Y447382D01*
X2077643Y450068D01*
X2075874Y452374D01*
X2073568Y454143D01*
X2070882Y455256D01*
X2068000Y455635D01*
D02*
G37*
G36*
X1888500Y435944D02*
X1885668Y435571D01*
X1883028Y434478D01*
X1880762Y432738D01*
X1879023Y430472D01*
X1877929Y427832D01*
X1877556Y425000D01*
X1877929Y422168D01*
X1879023Y419528D01*
X1880762Y417262D01*
X1883028Y415523D01*
X1885668Y414429D01*
X1888500Y414056D01*
X1891332Y414429D01*
X1893972Y415523D01*
X1896238Y417262D01*
X1897977Y419528D01*
X1899071Y422168D01*
X1899444Y425000D01*
X1899071Y427832D01*
X1897977Y430472D01*
X1896238Y432738D01*
X1893972Y434478D01*
X1891332Y435571D01*
X1888500Y435944D01*
D02*
G37*
G36*
X2093400Y430235D02*
X2090518Y429856D01*
X2087832Y428743D01*
X2085526Y426974D01*
X2083757Y424668D01*
X2082644Y421982D01*
X2082265Y419100D01*
X2082644Y416218D01*
X2083757Y413532D01*
X2085526Y411226D01*
X2087832Y409457D01*
X2090518Y408344D01*
X2093400Y407965D01*
X2096282Y408344D01*
X2098968Y409457D01*
X2101274Y411226D01*
X2103043Y413532D01*
X2104156Y416218D01*
X2104535Y419100D01*
X2104156Y421982D01*
X2103043Y424668D01*
X2101274Y426974D01*
X2098968Y428743D01*
X2096282Y429856D01*
X2093400Y430235D01*
D02*
G37*
G36*
X2068000D02*
X2065118Y429856D01*
X2062432Y428743D01*
X2060126Y426974D01*
X2058357Y424668D01*
X2057244Y421982D01*
X2056865Y419100D01*
X2057244Y416218D01*
X2058357Y413532D01*
X2060126Y411226D01*
X2062432Y409457D01*
X2065118Y408344D01*
X2068000Y407965D01*
X2070882Y408344D01*
X2073568Y409457D01*
X2075874Y411226D01*
X2077643Y413532D01*
X2078756Y416218D01*
X2079135Y419100D01*
X2078756Y421982D01*
X2077643Y424668D01*
X2075874Y426974D01*
X2073568Y428743D01*
X2070882Y429856D01*
X2068000Y430235D01*
D02*
G37*
G36*
X2042600D02*
X2039718Y429856D01*
X2037032Y428743D01*
X2034726Y426974D01*
X2032957Y424668D01*
X2031844Y421982D01*
X2031465Y419100D01*
X2031844Y416218D01*
X2032957Y413532D01*
X2034726Y411226D01*
X2037032Y409457D01*
X2039718Y408344D01*
X2042600Y407965D01*
X2045482Y408344D01*
X2048168Y409457D01*
X2050474Y411226D01*
X2052243Y413532D01*
X2053356Y416218D01*
X2053735Y419100D01*
X2053356Y421982D01*
X2052243Y424668D01*
X2050474Y426974D01*
X2048168Y428743D01*
X2045482Y429856D01*
X2042600Y430235D01*
D02*
G37*
G36*
X2068000Y404835D02*
X2065118Y404456D01*
X2062432Y403343D01*
X2060126Y401574D01*
X2058357Y399268D01*
X2057244Y396582D01*
X2056865Y393700D01*
X2057244Y390818D01*
X2058357Y388132D01*
X2060126Y385826D01*
X2062432Y384057D01*
X2065118Y382944D01*
X2068000Y382565D01*
X2070882Y382944D01*
X2073568Y384057D01*
X2075874Y385826D01*
X2077643Y388132D01*
X2078756Y390818D01*
X2079135Y393700D01*
X2078756Y396582D01*
X2077643Y399268D01*
X2075874Y401574D01*
X2073568Y403343D01*
X2070882Y404456D01*
X2068000Y404835D01*
D02*
G37*
G36*
X2017200D02*
X2014318Y404456D01*
X2011632Y403343D01*
X2009326Y401574D01*
X2007557Y399268D01*
X2006444Y396582D01*
X2006065Y393700D01*
X2006444Y390818D01*
X2007557Y388132D01*
X2009326Y385826D01*
X2011632Y384057D01*
X2014318Y382944D01*
X2017200Y382565D01*
X2020082Y382944D01*
X2022768Y384057D01*
X2025074Y385826D01*
X2026843Y388132D01*
X2027956Y390818D01*
X2028335Y393700D01*
X2027956Y396582D01*
X2026843Y399268D01*
X2025074Y401574D01*
X2022768Y403343D01*
X2020082Y404456D01*
X2017200Y404835D01*
D02*
G37*
G36*
X1604000Y369398D02*
X1601838Y368969D01*
X1600006Y367744D01*
X1599866Y367535D01*
X1582817D01*
X1582744Y367644D01*
X1580912Y368869D01*
X1578750Y369299D01*
X1576588Y368869D01*
X1574756Y367644D01*
X1573531Y365812D01*
X1573102Y363650D01*
X1573531Y361488D01*
X1574756Y359656D01*
X1576588Y358431D01*
X1578750Y358002D01*
X1580912Y358431D01*
X1582744Y359656D01*
X1582817Y359765D01*
X1600000D01*
X1600006Y359756D01*
X1601838Y358531D01*
X1604000Y358102D01*
X1606162Y358531D01*
X1607994Y359756D01*
X1609218Y361588D01*
X1609648Y363750D01*
X1609218Y365912D01*
X1607994Y367744D01*
X1606162Y368969D01*
X1604000Y369398D01*
D02*
G37*
G36*
X2093400Y379435D02*
X2090518Y379056D01*
X2087832Y377943D01*
X2085526Y376174D01*
X2083757Y373868D01*
X2082644Y371182D01*
X2082265Y368300D01*
X2082644Y365418D01*
X2083757Y362732D01*
X2085526Y360426D01*
X2087832Y358657D01*
X2090518Y357544D01*
X2093400Y357165D01*
X2096282Y357544D01*
X2098968Y358657D01*
X2101274Y360426D01*
X2103043Y362732D01*
X2104156Y365418D01*
X2104535Y368300D01*
X2104156Y371182D01*
X2103043Y373868D01*
X2101274Y376174D01*
X2098968Y377943D01*
X2096282Y379056D01*
X2093400Y379435D01*
D02*
G37*
G36*
X2068000D02*
X2065118Y379056D01*
X2062432Y377943D01*
X2060126Y376174D01*
X2058357Y373868D01*
X2057244Y371182D01*
X2056865Y368300D01*
X2057244Y365418D01*
X2058357Y362732D01*
X2060126Y360426D01*
X2062432Y358657D01*
X2065118Y357544D01*
X2068000Y357165D01*
X2070882Y357544D01*
X2073568Y358657D01*
X2075874Y360426D01*
X2077643Y362732D01*
X2078756Y365418D01*
X2079135Y368300D01*
X2078756Y371182D01*
X2077643Y373868D01*
X2075874Y376174D01*
X2073568Y377943D01*
X2070882Y379056D01*
X2068000Y379435D01*
D02*
G37*
G36*
X2042600D02*
X2039718Y379056D01*
X2037032Y377943D01*
X2034726Y376174D01*
X2032957Y373868D01*
X2031844Y371182D01*
X2031465Y368300D01*
X2031844Y365418D01*
X2032957Y362732D01*
X2034726Y360426D01*
X2037032Y358657D01*
X2039718Y357544D01*
X2042600Y357165D01*
X2045482Y357544D01*
X2048168Y358657D01*
X2050474Y360426D01*
X2052243Y362732D01*
X2053356Y365418D01*
X2053735Y368300D01*
X2053356Y371182D01*
X2052243Y373868D01*
X2050474Y376174D01*
X2048168Y377943D01*
X2045482Y379056D01*
X2042600Y379435D01*
D02*
G37*
G36*
X2017200D02*
X2014318Y379056D01*
X2011632Y377943D01*
X2009326Y376174D01*
X2007557Y373868D01*
X2006444Y371182D01*
X2006065Y368300D01*
X2006444Y365418D01*
X2007557Y362732D01*
X2009326Y360426D01*
X2011632Y358657D01*
X2014318Y357544D01*
X2017200Y357165D01*
X2020082Y357544D01*
X2022768Y358657D01*
X2025074Y360426D01*
X2026843Y362732D01*
X2027956Y365418D01*
X2028335Y368300D01*
X2027956Y371182D01*
X2026843Y373868D01*
X2025074Y376174D01*
X2022768Y377943D01*
X2020082Y379056D01*
X2017200Y379435D01*
D02*
G37*
G36*
X2068000Y354035D02*
X2065118Y353656D01*
X2062432Y352543D01*
X2060126Y350774D01*
X2058357Y348468D01*
X2057244Y345782D01*
X2056865Y342900D01*
X2057244Y340018D01*
X2058357Y337332D01*
X2060126Y335026D01*
X2062432Y333257D01*
X2065118Y332144D01*
X2068000Y331765D01*
X2070882Y332144D01*
X2073568Y333257D01*
X2075874Y335026D01*
X2077643Y337332D01*
X2078756Y340018D01*
X2079135Y342900D01*
X2078756Y345782D01*
X2077643Y348468D01*
X2075874Y350774D01*
X2073568Y352543D01*
X2070882Y353656D01*
X2068000Y354035D01*
D02*
G37*
G36*
X2017200D02*
X2014318Y353656D01*
X2011632Y352543D01*
X2009326Y350774D01*
X2007557Y348468D01*
X2006444Y345782D01*
X2006065Y342900D01*
X2006444Y340018D01*
X2007557Y337332D01*
X2009326Y335026D01*
X2011632Y333257D01*
X2014318Y332144D01*
X2017200Y331765D01*
X2020082Y332144D01*
X2022768Y333257D01*
X2025074Y335026D01*
X2026843Y337332D01*
X2027956Y340018D01*
X2028335Y342900D01*
X2027956Y345782D01*
X2026843Y348468D01*
X2025074Y350774D01*
X2022768Y352543D01*
X2020082Y353656D01*
X2017200Y354035D01*
D02*
G37*
G36*
X2093400Y328635D02*
X2090518Y328256D01*
X2087832Y327143D01*
X2085526Y325374D01*
X2083757Y323068D01*
X2082644Y320382D01*
X2082265Y317500D01*
X2082644Y314618D01*
X2083757Y311932D01*
X2085526Y309626D01*
X2087832Y307857D01*
X2090518Y306744D01*
X2093400Y306365D01*
X2096282Y306744D01*
X2098968Y307857D01*
X2101274Y309626D01*
X2103043Y311932D01*
X2104156Y314618D01*
X2104535Y317500D01*
X2104156Y320382D01*
X2103043Y323068D01*
X2101274Y325374D01*
X2098968Y327143D01*
X2096282Y328256D01*
X2093400Y328635D01*
D02*
G37*
G36*
X2042600D02*
X2039718Y328256D01*
X2037032Y327143D01*
X2034726Y325374D01*
X2032957Y323068D01*
X2031844Y320382D01*
X2031465Y317500D01*
X2031844Y314618D01*
X2032957Y311932D01*
X2034726Y309626D01*
X2037032Y307857D01*
X2039718Y306744D01*
X2042600Y306365D01*
X2045482Y306744D01*
X2048168Y307857D01*
X2050474Y309626D01*
X2052243Y311932D01*
X2053356Y314618D01*
X2053735Y317500D01*
X2053356Y320382D01*
X2052243Y323068D01*
X2050474Y325374D01*
X2048168Y327143D01*
X2045482Y328256D01*
X2042600Y328635D01*
D02*
G37*
G36*
X2017200D02*
X2014318Y328256D01*
X2011632Y327143D01*
X2009326Y325374D01*
X2007557Y323068D01*
X2006444Y320382D01*
X2006065Y317500D01*
X2006444Y314618D01*
X2007557Y311932D01*
X2009326Y309626D01*
X2011632Y307857D01*
X2014318Y306744D01*
X2017200Y306365D01*
X2020082Y306744D01*
X2022768Y307857D01*
X2025074Y309626D01*
X2026843Y311932D01*
X2027956Y314618D01*
X2028335Y317500D01*
X2027956Y320382D01*
X2026843Y323068D01*
X2025074Y325374D01*
X2022768Y327143D01*
X2020082Y328256D01*
X2017200Y328635D01*
D02*
G37*
G36*
X1582500Y308148D02*
X1580338Y307719D01*
X1578506Y306494D01*
X1578433Y306385D01*
X1567500D01*
X1566013Y306089D01*
X1564753Y305247D01*
X1554753Y295247D01*
X1553911Y293987D01*
X1553615Y292500D01*
Y151567D01*
X1553506Y151494D01*
X1552281Y149662D01*
X1551852Y147500D01*
X1552281Y145338D01*
X1553506Y143506D01*
X1555338Y142282D01*
X1557500Y141852D01*
X1559662Y142282D01*
X1561494Y143506D01*
X1562719Y145338D01*
X1563148Y147500D01*
X1562719Y149662D01*
X1561494Y151494D01*
X1561385Y151567D01*
Y290891D01*
X1569109Y298615D01*
X1578433D01*
X1578506Y298506D01*
X1580338Y297281D01*
X1582500Y296852D01*
X1584662Y297281D01*
X1586494Y298506D01*
X1587719Y300338D01*
X1588148Y302500D01*
X1587719Y304662D01*
X1586494Y306494D01*
X1584662Y307719D01*
X1582500Y308148D01*
D02*
G37*
G36*
X1590000Y727648D02*
X1587838Y727219D01*
X1586006Y725994D01*
X1584781Y724162D01*
X1584352Y722000D01*
X1584614Y720680D01*
X1583319Y718648D01*
X1558500D01*
X1555226Y718217D01*
X1552176Y716954D01*
X1549556Y714944D01*
X1547546Y712324D01*
X1546283Y709274D01*
X1545852Y706000D01*
X1546283Y702726D01*
X1547546Y699676D01*
X1549556Y697056D01*
X1552176Y695046D01*
X1555226Y693783D01*
X1558500Y693352D01*
X1635734D01*
X1658352Y670734D01*
Y636500D01*
Y515402D01*
X1658352Y515402D01*
X1658783Y512128D01*
X1660046Y509078D01*
X1662056Y506458D01*
X1675219Y493296D01*
Y486472D01*
X1674794Y485445D01*
X1674532Y483456D01*
Y476806D01*
X1674794Y474817D01*
X1675561Y472964D01*
X1676783Y471372D01*
X1678375Y470150D01*
X1680181Y469402D01*
Y267133D01*
X1680443Y265144D01*
X1681211Y263290D01*
X1682433Y261698D01*
X1682565Y261565D01*
X1684157Y260344D01*
X1686011Y259576D01*
X1688000Y259314D01*
X1689989Y259576D01*
X1691843Y260344D01*
X1693435Y261565D01*
X1694656Y263157D01*
X1695424Y265011D01*
X1695686Y267000D01*
X1695553Y268008D01*
Y469260D01*
X1696482Y469383D01*
X1698336Y470150D01*
X1699927Y471372D01*
X1701149Y472964D01*
X1701917Y474817D01*
X1702178Y476806D01*
Y483456D01*
X1701917Y485445D01*
X1701149Y487299D01*
X1700515Y488124D01*
Y498535D01*
X1700085Y501808D01*
X1698821Y504859D01*
X1696811Y507478D01*
X1696811Y507479D01*
X1683648Y520641D01*
Y536922D01*
X1684006Y537193D01*
X1686760Y536730D01*
X1686766Y536721D01*
X1686875Y536648D01*
Y535240D01*
X1687171Y533753D01*
X1688013Y532493D01*
X1716115Y504391D01*
Y284317D01*
X1716006Y284244D01*
X1714781Y282412D01*
X1714352Y280250D01*
X1714781Y278088D01*
X1716006Y276256D01*
X1717838Y275032D01*
X1720000Y274601D01*
X1722162Y275032D01*
X1723994Y276256D01*
X1725219Y278088D01*
X1725648Y280250D01*
X1725219Y282412D01*
X1723994Y284244D01*
X1723885Y284317D01*
Y506000D01*
X1723589Y507487D01*
X1722747Y508747D01*
X1694762Y536732D01*
X1695979Y538553D01*
X1696409Y540715D01*
X1695979Y542877D01*
X1694885Y544514D01*
Y649933D01*
X1694994Y650006D01*
X1696219Y651838D01*
X1696649Y654000D01*
X1696219Y656162D01*
X1694994Y657994D01*
X1694885Y658067D01*
Y682679D01*
X1694589Y684166D01*
X1693747Y685426D01*
X1654426Y724747D01*
X1653166Y725589D01*
X1651679Y725885D01*
X1594067D01*
X1593994Y725994D01*
X1592162Y727219D01*
X1590000Y727648D01*
D02*
G37*
G36*
X1585000Y258149D02*
X1582838Y257719D01*
X1581006Y256494D01*
X1579781Y254662D01*
X1579352Y252500D01*
X1579377Y252371D01*
X1574753Y247747D01*
X1573911Y246487D01*
X1573615Y245000D01*
Y140500D01*
X1573911Y139013D01*
X1574753Y137753D01*
X1588253Y124253D01*
X1589513Y123411D01*
X1591000Y123115D01*
X1594683D01*
X1594756Y123006D01*
X1596588Y121781D01*
X1598750Y121351D01*
X1600912Y121781D01*
X1602744Y123006D01*
X1603969Y124838D01*
X1604398Y127000D01*
X1603969Y129162D01*
X1602744Y130994D01*
X1600912Y132219D01*
X1598750Y132648D01*
X1596588Y132219D01*
X1594756Y130994D01*
X1594683Y130885D01*
X1592609D01*
X1581385Y142109D01*
Y243391D01*
X1584871Y246877D01*
X1585000Y246852D01*
X1587162Y247281D01*
X1588994Y248506D01*
X1590219Y250338D01*
X1590648Y252500D01*
X1590219Y254662D01*
X1588994Y256494D01*
X1587162Y257719D01*
X1585000Y258149D01*
D02*
G37*
G36*
X178352Y247540D02*
X176148D01*
X174112Y246697D01*
X173300Y245885D01*
X115450D01*
X114638Y246697D01*
X112602Y247540D01*
X110398D01*
X108362Y246697D01*
X106803Y245138D01*
X105960Y243102D01*
Y240898D01*
X106803Y238862D01*
X108362Y237303D01*
X110398Y236460D01*
X112602D01*
X114638Y237303D01*
X115450Y238115D01*
X173300D01*
X174112Y237303D01*
X176148Y236460D01*
X178352D01*
X180388Y237303D01*
X181947Y238862D01*
X182790Y240898D01*
Y243102D01*
X181947Y245138D01*
X180388Y246697D01*
X178352Y247540D01*
D02*
G37*
G36*
X1938000Y285625D02*
X1934561Y285286D01*
X1931255Y284283D01*
X1928208Y282654D01*
X1925537Y280463D01*
X1923345Y277792D01*
X1921717Y274745D01*
X1920714Y271438D01*
X1920375Y268000D01*
Y258000D01*
X1920714Y254562D01*
X1921717Y251255D01*
X1923345Y248208D01*
X1925537Y245537D01*
X1928208Y243346D01*
X1931255Y241717D01*
X1934561Y240714D01*
X1938000Y240375D01*
X1941438Y240714D01*
X1944745Y241717D01*
X1947792Y243346D01*
X1950463Y245537D01*
X1952655Y248208D01*
X1954283Y251255D01*
X1955286Y254562D01*
X1955625Y258000D01*
Y268000D01*
X1955286Y271438D01*
X1954283Y274745D01*
X1952655Y277792D01*
X1950463Y280463D01*
X1947792Y282654D01*
X1944745Y284283D01*
X1941438Y285286D01*
X1938000Y285625D01*
D02*
G37*
G36*
X1858000D02*
X1854561Y285286D01*
X1851255Y284283D01*
X1848208Y282654D01*
X1845537Y280463D01*
X1843345Y277792D01*
X1841717Y274745D01*
X1840714Y271438D01*
X1840375Y268000D01*
Y258000D01*
X1840714Y254562D01*
X1841717Y251255D01*
X1843345Y248208D01*
X1845537Y245537D01*
X1848208Y243346D01*
X1851255Y241717D01*
X1854561Y240714D01*
X1858000Y240375D01*
X1861438Y240714D01*
X1864745Y241717D01*
X1867792Y243346D01*
X1870463Y245537D01*
X1872655Y248208D01*
X1874283Y251255D01*
X1875286Y254562D01*
X1875625Y258000D01*
Y268000D01*
X1875286Y271438D01*
X1874283Y274745D01*
X1872655Y277792D01*
X1870463Y280463D01*
X1867792Y282654D01*
X1864745Y284283D01*
X1861438Y285286D01*
X1858000Y285625D01*
D02*
G37*
G36*
X1938000Y235625D02*
X1934561Y235286D01*
X1931255Y234283D01*
X1928208Y232654D01*
X1925537Y230463D01*
X1923345Y227792D01*
X1921717Y224745D01*
X1920714Y221438D01*
X1920375Y218000D01*
Y208000D01*
X1920714Y204562D01*
X1921717Y201255D01*
X1923345Y198208D01*
X1925537Y195537D01*
X1928208Y193346D01*
X1931255Y191717D01*
X1934561Y190714D01*
X1938000Y190375D01*
X1941438Y190714D01*
X1944745Y191717D01*
X1947792Y193346D01*
X1950463Y195537D01*
X1952655Y198208D01*
X1954283Y201255D01*
X1955286Y204562D01*
X1955625Y208000D01*
Y218000D01*
X1955286Y221438D01*
X1954283Y224745D01*
X1952655Y227792D01*
X1950463Y230463D01*
X1947792Y232654D01*
X1944745Y234283D01*
X1941438Y235286D01*
X1938000Y235625D01*
D02*
G37*
G36*
X1858000D02*
X1854561Y235286D01*
X1851255Y234283D01*
X1848208Y232654D01*
X1845537Y230463D01*
X1843345Y227792D01*
X1841717Y224745D01*
X1840714Y221438D01*
X1840375Y218000D01*
Y208000D01*
X1840714Y204562D01*
X1841717Y201255D01*
X1843345Y198208D01*
X1845537Y195537D01*
X1848208Y193346D01*
X1851255Y191717D01*
X1854561Y190714D01*
X1858000Y190375D01*
X1861438Y190714D01*
X1864745Y191717D01*
X1867792Y193346D01*
X1870463Y195537D01*
X1872655Y198208D01*
X1874283Y201255D01*
X1875286Y204562D01*
X1875625Y208000D01*
Y218000D01*
X1875286Y221438D01*
X1874283Y224745D01*
X1872655Y227792D01*
X1870463Y230463D01*
X1867792Y232654D01*
X1864745Y234283D01*
X1861438Y235286D01*
X1858000Y235625D01*
D02*
G37*
G36*
X1649545Y426731D02*
X1633546D01*
X1631556Y426469D01*
X1629703Y425702D01*
X1628111Y424480D01*
X1628065Y424435D01*
X1626844Y422843D01*
X1626076Y420989D01*
X1625814Y419000D01*
X1626076Y417011D01*
X1626844Y415157D01*
X1628065Y413565D01*
X1629657Y412344D01*
X1631511Y411576D01*
X1633500Y411314D01*
X1633860Y409312D01*
Y358536D01*
X1633642Y357883D01*
X1633110Y356895D01*
X1632453Y356092D01*
X1631650Y355435D01*
X1630662Y354903D01*
X1630009Y354686D01*
X1526000D01*
X1524011Y354424D01*
X1522157Y353656D01*
X1520565Y352435D01*
X1508335Y340205D01*
X1507114Y338613D01*
X1506346Y336759D01*
X1506084Y334770D01*
Y305186D01*
X1489500D01*
X1487511Y304924D01*
X1485657Y304156D01*
X1484065Y302935D01*
X1482844Y301343D01*
X1482076Y299489D01*
X1481814Y297500D01*
X1482076Y295511D01*
X1482844Y293657D01*
X1484065Y292065D01*
X1485657Y290844D01*
X1487511Y290076D01*
X1489500Y289814D01*
X1506084D01*
Y277500D01*
Y257500D01*
Y201230D01*
X1506346Y199241D01*
X1507114Y197387D01*
X1508335Y195795D01*
X1517315Y186815D01*
X1518907Y185594D01*
X1520761Y184826D01*
X1522750Y184564D01*
X1522750Y184564D01*
X1540000D01*
X1541989Y184826D01*
X1543843Y185594D01*
X1545435Y186815D01*
X1546656Y188407D01*
X1547424Y190261D01*
X1547686Y192250D01*
X1547424Y194239D01*
X1546656Y196093D01*
X1545435Y197685D01*
X1543843Y198906D01*
X1541989Y199674D01*
X1540000Y199936D01*
X1525934D01*
X1521456Y204414D01*
Y257500D01*
Y277500D01*
Y297500D01*
Y331586D01*
X1529184Y339314D01*
X1630010D01*
X1630662Y339097D01*
X1631650Y338565D01*
X1632453Y337908D01*
X1633110Y337105D01*
X1633642Y336117D01*
X1633860Y335464D01*
Y190186D01*
X1600500D01*
X1598511Y189924D01*
X1596657Y189156D01*
X1595065Y187935D01*
X1593844Y186343D01*
X1593076Y184489D01*
X1592814Y182500D01*
X1593076Y180511D01*
X1593844Y178657D01*
X1595065Y177065D01*
X1596657Y175844D01*
X1598511Y175076D01*
X1600500Y174814D01*
X1640175D01*
X1640860Y174904D01*
X1641546Y174814D01*
X1649500D01*
X1651489Y175076D01*
X1653343Y175844D01*
X1654935Y177065D01*
X1656156Y178657D01*
X1656924Y180511D01*
X1657186Y182500D01*
X1656924Y184489D01*
X1656156Y186343D01*
X1654935Y187935D01*
X1653343Y189156D01*
X1651489Y189924D01*
X1649500Y190186D01*
X1649231D01*
Y347000D01*
X1649231Y347000D01*
Y411360D01*
X1649545D01*
X1651535Y411622D01*
X1653388Y412389D01*
X1654980Y413611D01*
X1656202Y415203D01*
X1656969Y417056D01*
X1657231Y419045D01*
X1656969Y421035D01*
X1656202Y422888D01*
X1654980Y424480D01*
X1653388Y425702D01*
X1651535Y426469D01*
X1649545Y426731D01*
D02*
G37*
G36*
X1690750Y212649D02*
X1688588Y212218D01*
X1686756Y210994D01*
X1685531Y209162D01*
X1685101Y207000D01*
X1685531Y204838D01*
X1686756Y203006D01*
X1688588Y201781D01*
X1690750Y201352D01*
X1690879Y201377D01*
X1742253Y150003D01*
X1743513Y149161D01*
X1745000Y148865D01*
X1794683D01*
X1794756Y148756D01*
X1796588Y147531D01*
X1798750Y147101D01*
X1800912Y147531D01*
X1802744Y148756D01*
X1803969Y150588D01*
X1804398Y152750D01*
X1803969Y154912D01*
X1802744Y156744D01*
X1800912Y157969D01*
X1798750Y158399D01*
X1796588Y157969D01*
X1794756Y156744D01*
X1794683Y156635D01*
X1746609D01*
X1696373Y206871D01*
X1696398Y207000D01*
X1695969Y209162D01*
X1694744Y210994D01*
X1692912Y212218D01*
X1690750Y212649D01*
D02*
G37*
G36*
X70000Y83153D02*
X66596Y82704D01*
X63424Y81390D01*
X60700Y79300D01*
X58610Y76576D01*
X57296Y73404D01*
X56848Y70000D01*
X57296Y66596D01*
X58610Y63424D01*
X60700Y60700D01*
X63424Y58610D01*
X66596Y57296D01*
X70000Y56848D01*
X73404Y57296D01*
X76576Y58610D01*
X79300Y60700D01*
X81390Y63424D01*
X82105Y65150D01*
X82704Y66596D01*
X83153Y70000D01*
X82704Y73404D01*
X81390Y76576D01*
X79300Y79300D01*
X76576Y81390D01*
X73404Y82704D01*
X70000Y83153D01*
D02*
G37*
G36*
X1808750Y115436D02*
X1806761Y115174D01*
X1804907Y114406D01*
X1803315Y113185D01*
X1802094Y111593D01*
X1801326Y109739D01*
X1801064Y107750D01*
Y101250D01*
Y66684D01*
X1784316Y49936D01*
X1694250D01*
X1692261Y49674D01*
X1690407Y48906D01*
X1688815Y47685D01*
X1687594Y46093D01*
X1686826Y44239D01*
X1686564Y42250D01*
X1686826Y40261D01*
X1687594Y38407D01*
X1688815Y36815D01*
X1690407Y35594D01*
X1692261Y34826D01*
X1694250Y34564D01*
X1787499D01*
X1789489Y34826D01*
X1791342Y35594D01*
X1792934Y36815D01*
X1814185Y58066D01*
X1814185Y58066D01*
X1815406Y59658D01*
X1816174Y61512D01*
X1816436Y63501D01*
Y101250D01*
Y107750D01*
X1816174Y109739D01*
X1815406Y111593D01*
X1814185Y113185D01*
X1812593Y114406D01*
X1810739Y115174D01*
X1808750Y115436D01*
D02*
G37*
G36*
X1910741Y511340D02*
X1802750D01*
X1801759Y511143D01*
X1800919Y510581D01*
X1781669Y491331D01*
X1781107Y490491D01*
X1780910Y489500D01*
X1780910Y184054D01*
X1781107Y183063D01*
X1781669Y182223D01*
X1876223Y87669D01*
X1877063Y87107D01*
X1878054Y86910D01*
X2054420Y86910D01*
X2054755Y84878D01*
X2051686Y83836D01*
X2046684Y81370D01*
X2042048Y78272D01*
X2037855Y74595D01*
X2034178Y70402D01*
X2031080Y65766D01*
X2028614Y60764D01*
X2026821Y55484D01*
X2025733Y50015D01*
X2025369Y44450D01*
X2025733Y38886D01*
X2026821Y33416D01*
X2028614Y28136D01*
X2031080Y23134D01*
X2034178Y18498D01*
X2037855Y14305D01*
X2042048Y10628D01*
X2046684Y7530D01*
X2051686Y5064D01*
X2056966Y3271D01*
X2062435Y2183D01*
X2068000Y1819D01*
X2073564Y2183D01*
X2079034Y3271D01*
X2084314Y5064D01*
X2089316Y7530D01*
X2093952Y10628D01*
X2098145Y14305D01*
X2101822Y18498D01*
X2104920Y23134D01*
X2107386Y28136D01*
X2109179Y33416D01*
X2110267Y38886D01*
X2110631Y44450D01*
X2110267Y50015D01*
X2109179Y55484D01*
X2107386Y60764D01*
X2104920Y65766D01*
X2101822Y70402D01*
X2098145Y74595D01*
X2093952Y78272D01*
X2089316Y81370D01*
X2084314Y83836D01*
X2081245Y84878D01*
X2081580Y86910D01*
X2107807D01*
X2108798Y87107D01*
X2109638Y87669D01*
X2110199Y88509D01*
X2110397Y89500D01*
Y193797D01*
X2110199Y194788D01*
X2109638Y195628D01*
X2108798Y196190D01*
X2107807Y196387D01*
X2008302D01*
X2007311Y196190D01*
X2006471Y195628D01*
X1996682Y185840D01*
X1850216Y185840D01*
X1837590Y198466D01*
Y417927D01*
X1865573Y445910D01*
X1910250D01*
X1911241Y446107D01*
X1912081Y446669D01*
X1919831Y454419D01*
X1920393Y455259D01*
X1920590Y456250D01*
Y501491D01*
X1920393Y502482D01*
X1919831Y503322D01*
X1912572Y510581D01*
X1911732Y511143D01*
X1910741Y511340D01*
D02*
G37*
%LPD*%
G36*
X1821311Y801540D02*
X1821433Y800968D01*
X1821636Y800370D01*
X1821920Y799746D01*
X1822286Y799094D01*
X1822733Y798417D01*
X1823261Y797713D01*
X1824562Y796225D01*
X1825334Y795442D01*
X1814666D01*
X1815438Y796225D01*
X1816739Y797713D01*
X1817267Y798417D01*
X1817714Y799094D01*
X1818080Y799746D01*
X1818364Y800370D01*
X1818568Y800968D01*
X1818689Y801540D01*
X1818730Y802085D01*
X1821270D01*
X1821311Y801540D01*
D02*
G37*
G36*
X1827628Y768824D02*
X1827760Y766852D01*
X1827884Y765981D01*
X1828047Y765186D01*
X1828249Y764467D01*
X1828490Y763824D01*
X1828769Y763257D01*
X1829087Y762767D01*
X1829444Y762352D01*
X1827648Y760556D01*
X1827233Y760913D01*
X1826743Y761231D01*
X1826176Y761510D01*
X1825533Y761751D01*
X1824814Y761953D01*
X1824019Y762116D01*
X1823148Y762240D01*
X1821176Y762372D01*
X1820076Y762380D01*
X1827620Y769924D01*
X1827628Y768824D01*
D02*
G37*
G36*
X1807628D02*
X1807760Y766852D01*
X1807884Y765981D01*
X1808047Y765186D01*
X1808249Y764467D01*
X1808490Y763824D01*
X1808769Y763257D01*
X1809087Y762767D01*
X1809444Y762352D01*
X1807648Y760556D01*
X1807233Y760913D01*
X1806743Y761231D01*
X1806176Y761510D01*
X1805533Y761751D01*
X1804814Y761953D01*
X1804019Y762116D01*
X1803148Y762240D01*
X1801176Y762372D01*
X1800076Y762380D01*
X1807620Y769924D01*
X1807628Y768824D01*
D02*
G37*
G36*
X2009900Y440146D02*
X2009520Y440732D01*
X2009114Y441256D01*
X2008683Y441719D01*
X2008228Y442120D01*
X2007747Y442459D01*
X2007241Y442737D01*
X2006711Y442952D01*
X2006155Y443107D01*
X2005574Y443199D01*
X2004968Y443230D01*
Y445770D01*
X2005574Y445801D01*
X2006155Y445893D01*
X2006711Y446048D01*
X2007241Y446264D01*
X2007747Y446541D01*
X2008228Y446880D01*
X2008683Y447281D01*
X2009114Y447744D01*
X2009520Y448268D01*
X2009900Y448854D01*
Y440146D01*
D02*
G37*
G36*
X2027647Y427751D02*
X2027265Y427303D01*
X2026925Y426764D01*
X2026626Y426135D01*
X2026369Y425414D01*
X2026154Y424603D01*
X2025980Y423701D01*
X2025847Y422708D01*
X2025707Y420450D01*
X2025700Y419185D01*
X2017285Y427600D01*
X2018550Y427607D01*
X2020808Y427747D01*
X2021801Y427880D01*
X2022703Y428054D01*
X2023514Y428269D01*
X2024235Y428526D01*
X2024864Y428825D01*
X2025403Y429165D01*
X2025851Y429547D01*
X2027647Y427751D01*
D02*
G37*
G36*
X-3687Y318942D02*
X-3502Y318801D01*
X-3302Y318677D01*
X-3087Y318569D01*
X-2857Y318477D01*
X-2612Y318403D01*
X-2352Y318345D01*
X-2077Y318303D01*
X-1787Y318278D01*
X-1482Y318270D01*
Y315730D01*
X-1787Y315722D01*
X-2077Y315697D01*
X-2352Y315655D01*
X-2612Y315597D01*
X-2857Y315522D01*
X-3087Y315431D01*
X-3302Y315323D01*
X-3502Y315199D01*
X-3687Y315058D01*
X-3858Y314900D01*
Y319100D01*
X-3687Y318942D01*
D02*
G37*
G36*
X2101900Y747200D02*
X2008700D01*
Y789600D01*
X2101900D01*
Y747200D01*
D02*
G37*
G36*
X386561Y738260D02*
X386530Y738501D01*
X386448Y738717D01*
X386317Y738908D01*
X386135Y739073D01*
X385903Y739212D01*
X385621Y739327D01*
X385289Y739416D01*
X384906Y739479D01*
X384473Y739517D01*
X383991Y739530D01*
Y742070D01*
X384473Y742083D01*
X384906Y742121D01*
X385289Y742184D01*
X385621Y742273D01*
X385903Y742387D01*
X386135Y742527D01*
X386317Y742692D01*
X386448Y742883D01*
X386530Y743099D01*
X386561Y743340D01*
Y738260D01*
D02*
G37*
G36*
X162858Y302400D02*
X162687Y302558D01*
X162502Y302699D01*
X162302Y302823D01*
X162087Y302931D01*
X161857Y303022D01*
X161612Y303097D01*
X161352Y303155D01*
X161077Y303197D01*
X160787Y303222D01*
X160482Y303230D01*
Y305770D01*
X160787Y305778D01*
X161077Y305803D01*
X161352Y305845D01*
X161612Y305903D01*
X161857Y305977D01*
X162087Y306069D01*
X162302Y306177D01*
X162502Y306301D01*
X162687Y306442D01*
X162858Y306600D01*
Y302400D01*
D02*
G37*
G36*
X133313Y306442D02*
X133498Y306301D01*
X133698Y306177D01*
X133913Y306069D01*
X134143Y305977D01*
X134388Y305903D01*
X134648Y305845D01*
X134923Y305803D01*
X135213Y305778D01*
X135518Y305770D01*
Y303230D01*
X135213Y303222D01*
X134923Y303197D01*
X134648Y303155D01*
X134388Y303097D01*
X134143Y303022D01*
X133913Y302931D01*
X133698Y302823D01*
X133498Y302699D01*
X133313Y302558D01*
X133142Y302400D01*
Y306600D01*
X133313Y306442D01*
D02*
G37*
G36*
X45065Y276336D02*
X45228Y276178D01*
X45409Y276038D01*
X45608Y275917D01*
X45825Y275815D01*
X46060Y275731D01*
X46313Y275666D01*
X46584Y275619D01*
X46873Y275591D01*
X47179Y275582D01*
X46774Y273042D01*
X46470Y273035D01*
X45901Y272980D01*
X45636Y272932D01*
X45384Y272870D01*
X45146Y272795D01*
X44920Y272706D01*
X44707Y272603D01*
X44508Y272486D01*
X44322Y272355D01*
X44919Y276513D01*
X45065Y276336D01*
D02*
G37*
G36*
X89128Y275582D02*
X88787Y275215D01*
X88482Y274834D01*
X88212Y274438D01*
X87979Y274026D01*
X87781Y273600D01*
X87619Y273159D01*
X87494Y272703D01*
X87404Y272232D01*
X87350Y271747D01*
X87332Y271246D01*
X84792Y270502D01*
X84767Y270985D01*
X84691Y271416D01*
X84564Y271797D01*
X84386Y272128D01*
X84157Y272407D01*
X83878Y272636D01*
X83547Y272813D01*
X83167Y272940D01*
X82735Y273017D01*
X82252Y273042D01*
X82996Y275582D01*
X83497Y275600D01*
X83982Y275654D01*
X84453Y275744D01*
X84909Y275869D01*
X85350Y276031D01*
X85776Y276229D01*
X86187Y276462D01*
X86584Y276731D01*
X86965Y277037D01*
X87332Y277378D01*
X89128Y275582D01*
D02*
G37*
G36*
X392858Y154400D02*
X392687Y154558D01*
X392502Y154699D01*
X392302Y154823D01*
X392087Y154931D01*
X391857Y155022D01*
X391612Y155097D01*
X391352Y155155D01*
X391077Y155197D01*
X390787Y155222D01*
X390482Y155230D01*
Y157770D01*
X390787Y157778D01*
X391077Y157803D01*
X391352Y157845D01*
X391612Y157903D01*
X391857Y157978D01*
X392087Y158069D01*
X392302Y158177D01*
X392502Y158301D01*
X392687Y158442D01*
X392858Y158600D01*
Y154400D01*
D02*
G37*
G36*
X2101900Y671000D02*
X2008700D01*
Y713400D01*
X2101900D01*
Y671000D01*
D02*
G37*
G36*
X477750Y650750D02*
X350000D01*
Y705750D01*
X477750D01*
Y650750D01*
D02*
G37*
%LPC*%
G36*
X475564Y699064D02*
X461000D01*
Y695000D01*
X475564D01*
Y699064D01*
D02*
G37*
G36*
X421564D02*
X407000D01*
Y695000D01*
X421564D01*
Y699064D01*
D02*
G37*
G36*
X451000D02*
X436436D01*
Y695000D01*
X451000D01*
Y699064D01*
D02*
G37*
G36*
X397000D02*
X382436D01*
Y695000D01*
X397000D01*
Y699064D01*
D02*
G37*
G36*
X475564Y685000D02*
X461000D01*
Y680936D01*
X475564D01*
Y685000D01*
D02*
G37*
G36*
X451000D02*
X436436D01*
Y680936D01*
X451000D01*
Y685000D01*
D02*
G37*
G36*
X421564D02*
X407000D01*
Y680936D01*
X421564D01*
Y685000D01*
D02*
G37*
G36*
X397000D02*
X382436D01*
Y680936D01*
X397000D01*
Y685000D01*
D02*
G37*
G36*
X475564Y673664D02*
X461000D01*
Y669600D01*
X475564D01*
Y673664D01*
D02*
G37*
G36*
X421564D02*
X407000D01*
Y669600D01*
X421564D01*
Y673664D01*
D02*
G37*
G36*
X451000D02*
X436436D01*
Y669600D01*
X451000D01*
Y673664D01*
D02*
G37*
G36*
X397000D02*
X382436D01*
Y669600D01*
X397000D01*
Y673664D01*
D02*
G37*
G36*
X475564Y659600D02*
X461000D01*
Y655536D01*
X475564D01*
Y659600D01*
D02*
G37*
G36*
X451000D02*
X436436D01*
Y655536D01*
X451000D01*
Y659600D01*
D02*
G37*
G36*
X421564D02*
X407000D01*
Y655536D01*
X421564D01*
Y659600D01*
D02*
G37*
G36*
X397000D02*
X382436D01*
Y655536D01*
X397000D01*
Y659600D01*
D02*
G37*
%LPD*%
G36*
X122858Y687900D02*
X122687Y688058D01*
X122502Y688199D01*
X122302Y688323D01*
X122087Y688431D01*
X121857Y688522D01*
X121612Y688597D01*
X121352Y688655D01*
X121077Y688697D01*
X120787Y688722D01*
X120482Y688730D01*
Y691270D01*
X120787Y691278D01*
X121077Y691303D01*
X121352Y691345D01*
X121612Y691403D01*
X121857Y691478D01*
X122087Y691569D01*
X122302Y691677D01*
X122502Y691801D01*
X122687Y691942D01*
X122858Y692100D01*
Y687900D01*
D02*
G37*
G36*
X101278Y574213D02*
X101303Y573923D01*
X101345Y573648D01*
X101403Y573388D01*
X101477Y573143D01*
X101569Y572913D01*
X101677Y572698D01*
X101801Y572498D01*
X101942Y572313D01*
X102100Y572142D01*
X97900D01*
X98058Y572313D01*
X98199Y572498D01*
X98323Y572698D01*
X98431Y572913D01*
X98523Y573143D01*
X98597Y573388D01*
X98655Y573648D01*
X98697Y573923D01*
X98722Y574213D01*
X98730Y574518D01*
X101270D01*
X101278Y574213D01*
D02*
G37*
G36*
X2101900Y594800D02*
X2008700D01*
Y637200D01*
X2101900D01*
Y594800D01*
D02*
G37*
G36*
X1766942Y690187D02*
X1766801Y690002D01*
X1766677Y689802D01*
X1766569Y689587D01*
X1766478Y689357D01*
X1766403Y689112D01*
X1766345Y688852D01*
X1766303Y688577D01*
X1766278Y688287D01*
X1766270Y687982D01*
X1763730D01*
X1763722Y688287D01*
X1763697Y688577D01*
X1763655Y688852D01*
X1763597Y689112D01*
X1763522Y689357D01*
X1763431Y689587D01*
X1763323Y689802D01*
X1763199Y690002D01*
X1763058Y690187D01*
X1762900Y690358D01*
X1767100D01*
X1766942Y690187D01*
D02*
G37*
G36*
X1768063Y637352D02*
X1768248Y637211D01*
X1768448Y637087D01*
X1768663Y636979D01*
X1768893Y636888D01*
X1769138Y636813D01*
X1769398Y636755D01*
X1769673Y636713D01*
X1769963Y636688D01*
X1770268Y636680D01*
Y634140D01*
X1769963Y634132D01*
X1769673Y634107D01*
X1769398Y634065D01*
X1769138Y634007D01*
X1768893Y633932D01*
X1768663Y633841D01*
X1768448Y633733D01*
X1768248Y633609D01*
X1768063Y633468D01*
X1767892Y633310D01*
Y637510D01*
X1768063Y637352D01*
D02*
G37*
G36*
X1925899Y628953D02*
X1926383Y628638D01*
X1926941Y628362D01*
X1927573Y628123D01*
X1928280Y627924D01*
X1929060Y627762D01*
X1929915Y627639D01*
X1931848Y627508D01*
X1932925Y627500D01*
X1925500Y620075D01*
X1925492Y621152D01*
X1925361Y623085D01*
X1925238Y623940D01*
X1925076Y624720D01*
X1924877Y625427D01*
X1924638Y626059D01*
X1924362Y626617D01*
X1924047Y627101D01*
X1923693Y627511D01*
X1925489Y629307D01*
X1925899Y628953D01*
D02*
G37*
G36*
X1897373Y615042D02*
X1896727Y615742D01*
X1895457Y616923D01*
X1894833Y617402D01*
X1894217Y617808D01*
X1893609Y618140D01*
X1893008Y618398D01*
X1892414Y618582D01*
X1891828Y618693D01*
X1891250Y618730D01*
Y621270D01*
X1891828Y621307D01*
X1892414Y621418D01*
X1893008Y621602D01*
X1893609Y621860D01*
X1894217Y622192D01*
X1894833Y622598D01*
X1895457Y623077D01*
X1896088Y623630D01*
X1896727Y624258D01*
X1897373Y624958D01*
Y615042D01*
D02*
G37*
G36*
X2101900Y531300D02*
X2008700D01*
Y573700D01*
X2101900D01*
Y531300D01*
D02*
G37*
G36*
X1623608Y570150D02*
X1623437Y570308D01*
X1623252Y570449D01*
X1623052Y570573D01*
X1622837Y570681D01*
X1622607Y570773D01*
X1622362Y570847D01*
X1622102Y570905D01*
X1621827Y570947D01*
X1621537Y570972D01*
X1621232Y570980D01*
Y573520D01*
X1621537Y573528D01*
X1621827Y573553D01*
X1622102Y573595D01*
X1622362Y573653D01*
X1622607Y573727D01*
X1622837Y573819D01*
X1623052Y573927D01*
X1623252Y574051D01*
X1623437Y574192D01*
X1623608Y574350D01*
Y570150D01*
D02*
G37*
G36*
X1594067Y574189D02*
X1594253Y574049D01*
X1594453Y573925D01*
X1594669Y573817D01*
X1594899Y573727D01*
X1595145Y573652D01*
X1595405Y573594D01*
X1595680Y573553D01*
X1595970Y573528D01*
X1596275Y573520D01*
X1596286Y570980D01*
X1595981Y570972D01*
X1595691Y570947D01*
X1595417Y570905D01*
X1595157Y570847D01*
X1594912Y570772D01*
X1594682Y570680D01*
X1594467Y570572D01*
X1594268Y570447D01*
X1594083Y570305D01*
X1593914Y570146D01*
X1593896Y574346D01*
X1594067Y574189D01*
D02*
G37*
G36*
X1594780Y559604D02*
X1594833Y559378D01*
X1594905Y559153D01*
X1594997Y558928D01*
X1595109Y558704D01*
X1595240Y558481D01*
X1595392Y558259D01*
X1595562Y558037D01*
X1595753Y557816D01*
X1595963Y557596D01*
X1594391Y555576D01*
X1594168Y555786D01*
X1593944Y555971D01*
X1593720Y556131D01*
X1593495Y556265D01*
X1593269Y556375D01*
X1593042Y556460D01*
X1592815Y556519D01*
X1592587Y556554D01*
X1592358Y556563D01*
X1592128Y556547D01*
X1594747Y559831D01*
X1594780Y559604D01*
D02*
G37*
G36*
X1641229Y544725D02*
X1641059Y544883D01*
X1640874Y545024D01*
X1640673Y545148D01*
X1640458Y545256D01*
X1640228Y545348D01*
X1639983Y545422D01*
X1639723Y545480D01*
X1639448Y545522D01*
X1639158Y545547D01*
X1638853Y545555D01*
Y548095D01*
X1639158Y548103D01*
X1639448Y548128D01*
X1639723Y548170D01*
X1639983Y548228D01*
X1640228Y548302D01*
X1640458Y548394D01*
X1640673Y548502D01*
X1640874Y548626D01*
X1641059Y548767D01*
X1641229Y548925D01*
Y544725D01*
D02*
G37*
G36*
X1885519Y609231D02*
X1885519Y584047D01*
X1890854Y578713D01*
X1955337D01*
Y547750D01*
X1864036D01*
X1848099Y563687D01*
Y624930D01*
X1869820D01*
X1885519Y609231D01*
D02*
G37*
%LPC*%
G36*
X1904322Y570040D02*
X1901678D01*
X1899125Y569356D01*
X1896835Y568034D01*
X1894966Y566165D01*
X1893644Y563875D01*
X1892960Y561322D01*
Y558678D01*
X1893644Y556125D01*
X1894966Y553835D01*
X1896835Y551966D01*
X1899125Y550644D01*
X1901678Y549960D01*
X1904322D01*
X1906875Y550644D01*
X1909165Y551966D01*
X1911034Y553835D01*
X1912356Y556125D01*
X1913040Y558678D01*
Y561322D01*
X1912356Y563875D01*
X1911034Y566165D01*
X1909165Y568034D01*
X1906875Y569356D01*
X1904322Y570040D01*
D02*
G37*
%LPD*%
G36*
X1707942Y566937D02*
X1707801Y566752D01*
X1707677Y566552D01*
X1707569Y566337D01*
X1707478Y566107D01*
X1707403Y565862D01*
X1707345Y565602D01*
X1707303Y565327D01*
X1707278Y565037D01*
X1707270Y564732D01*
X1704730D01*
X1704722Y565037D01*
X1704697Y565327D01*
X1704655Y565602D01*
X1704597Y565862D01*
X1704523Y566107D01*
X1704431Y566337D01*
X1704323Y566552D01*
X1704199Y566752D01*
X1704058Y566937D01*
X1703900Y567108D01*
X1708100D01*
X1707942Y566937D01*
D02*
G37*
G36*
X1725259Y544488D02*
X1725290Y544257D01*
X1725343Y544028D01*
X1725419Y543800D01*
X1725517Y543572D01*
X1725638Y543346D01*
X1725780Y543121D01*
X1725945Y542897D01*
X1726133Y542675D01*
X1726343Y542453D01*
X1724547Y540657D01*
X1724325Y540867D01*
X1724102Y541054D01*
X1723879Y541219D01*
X1723654Y541362D01*
X1723428Y541483D01*
X1723201Y541581D01*
X1722972Y541657D01*
X1722743Y541710D01*
X1722512Y541741D01*
X1722280Y541750D01*
X1725250Y544720D01*
X1725259Y544488D01*
D02*
G37*
G36*
X1719112Y540053D02*
X1721148Y539210D01*
X1722296D01*
X1734122Y527385D01*
X1729359D01*
X1717298Y539446D01*
X1718628Y540537D01*
X1719112Y540053D01*
D02*
G37*
G36*
X1897644Y524750D02*
X1896876Y525506D01*
X1895417Y526780D01*
X1894726Y527297D01*
X1894059Y527735D01*
X1893418Y528093D01*
X1892803Y528372D01*
X1892213Y528571D01*
X1891648Y528690D01*
X1891108Y528730D01*
Y531270D01*
X1891648Y531310D01*
X1892213Y531429D01*
X1892803Y531628D01*
X1893418Y531907D01*
X1894059Y532265D01*
X1894726Y532703D01*
X1895417Y533220D01*
X1896876Y534494D01*
X1897644Y535250D01*
Y524750D01*
D02*
G37*
G36*
X1932925Y522500D02*
X1931848Y522492D01*
X1929915Y522361D01*
X1929060Y522238D01*
X1928280Y522076D01*
X1927573Y521877D01*
X1926941Y521638D01*
X1926383Y521362D01*
X1925899Y521047D01*
X1925489Y520693D01*
X1923693Y522489D01*
X1924047Y522899D01*
X1924362Y523383D01*
X1924638Y523941D01*
X1924877Y524573D01*
X1925076Y525280D01*
X1925238Y526060D01*
X1925361Y526915D01*
X1925492Y528848D01*
X1925500Y529925D01*
X1932925Y522500D01*
D02*
G37*
G36*
X107350Y527038D02*
X107118Y527029D01*
X106888Y526998D01*
X106658Y526944D01*
X106430Y526869D01*
X106202Y526770D01*
X105976Y526650D01*
X105751Y526507D01*
X105528Y526342D01*
X105305Y526155D01*
X105084Y525945D01*
X103288Y527741D01*
X103497Y527962D01*
X103685Y528185D01*
X103850Y528409D01*
X103993Y528634D01*
X104113Y528860D01*
X104211Y529087D01*
X104287Y529315D01*
X104340Y529545D01*
X104372Y529776D01*
X104380Y530008D01*
X107350Y527038D01*
D02*
G37*
G36*
X101009Y455931D02*
X101034Y455641D01*
X101075Y455367D01*
X101133Y455107D01*
X101208Y454861D01*
X101299Y454631D01*
X101407Y454416D01*
X101532Y454216D01*
X101673Y454031D01*
X101831Y453861D01*
X97631D01*
X97788Y454031D01*
X97929Y454216D01*
X98054Y454416D01*
X98162Y454631D01*
X98253Y454861D01*
X98328Y455107D01*
X98386Y455367D01*
X98427Y455641D01*
X98452Y455931D01*
X98461Y456236D01*
X101000D01*
X101009Y455931D01*
D02*
G37*
G36*
X1601929Y361580D02*
X1601754Y361732D01*
X1601564Y361868D01*
X1601361Y361988D01*
X1601143Y362092D01*
X1600910Y362180D01*
X1600663Y362252D01*
X1600402Y362308D01*
X1600126Y362348D01*
X1599836Y362372D01*
X1599531Y362380D01*
X1599438Y364920D01*
X1599743Y364929D01*
X1600032Y364954D01*
X1600307Y364997D01*
X1600565Y365057D01*
X1600808Y365134D01*
X1601035Y365229D01*
X1601247Y365340D01*
X1601443Y365469D01*
X1601624Y365615D01*
X1601789Y365777D01*
X1601929Y361580D01*
D02*
G37*
G36*
X1581063Y365592D02*
X1581248Y365451D01*
X1581448Y365327D01*
X1581663Y365219D01*
X1581893Y365127D01*
X1582138Y365053D01*
X1582398Y364995D01*
X1582673Y364953D01*
X1582963Y364928D01*
X1583268Y364920D01*
Y362380D01*
X1582963Y362372D01*
X1582673Y362347D01*
X1582398Y362305D01*
X1582138Y362247D01*
X1581893Y362173D01*
X1581663Y362081D01*
X1581448Y361973D01*
X1581248Y361849D01*
X1581063Y361708D01*
X1580892Y361550D01*
Y365750D01*
X1581063Y365592D01*
D02*
G37*
G36*
X1580358Y300400D02*
X1580187Y300558D01*
X1580002Y300699D01*
X1579802Y300823D01*
X1579587Y300931D01*
X1579357Y301022D01*
X1579112Y301097D01*
X1578852Y301155D01*
X1578577Y301197D01*
X1578287Y301222D01*
X1577982Y301230D01*
X1577982Y303770D01*
X1578287Y303778D01*
X1578577Y303803D01*
X1578852Y303845D01*
X1579112Y303903D01*
X1579357Y303978D01*
X1579587Y304069D01*
X1579802Y304177D01*
X1580002Y304301D01*
X1580187Y304442D01*
X1580358Y304600D01*
X1580358Y300400D01*
D02*
G37*
G36*
X1558778Y151713D02*
X1558803Y151423D01*
X1558845Y151148D01*
X1558903Y150888D01*
X1558978Y150643D01*
X1559069Y150413D01*
X1559177Y150198D01*
X1559301Y149998D01*
X1559442Y149813D01*
X1559600Y149642D01*
X1555400D01*
X1555558Y149813D01*
X1555699Y149998D01*
X1555823Y150198D01*
X1555931Y150413D01*
X1556022Y150643D01*
X1556097Y150888D01*
X1556155Y151148D01*
X1556197Y151423D01*
X1556222Y151713D01*
X1556230Y152018D01*
X1558770D01*
X1558778Y151713D01*
D02*
G37*
G36*
X1592313Y723942D02*
X1592498Y723801D01*
X1592698Y723677D01*
X1592913Y723569D01*
X1593143Y723477D01*
X1593388Y723403D01*
X1593648Y723345D01*
X1593923Y723303D01*
X1594213Y723278D01*
X1594518Y723270D01*
Y720730D01*
X1594213Y720722D01*
X1593923Y720697D01*
X1593648Y720655D01*
X1593388Y720597D01*
X1593143Y720523D01*
X1592913Y720431D01*
X1592698Y720323D01*
X1592498Y720199D01*
X1592313Y720058D01*
X1592142Y719900D01*
Y724100D01*
X1592313Y723942D01*
D02*
G37*
G36*
X1692278Y658213D02*
X1692303Y657923D01*
X1692345Y657648D01*
X1692403Y657388D01*
X1692478Y657143D01*
X1692569Y656913D01*
X1692677Y656698D01*
X1692801Y656498D01*
X1692942Y656313D01*
X1693100Y656142D01*
X1688900D01*
X1689058Y656313D01*
X1689199Y656498D01*
X1689323Y656698D01*
X1689431Y656913D01*
X1689523Y657143D01*
X1689597Y657388D01*
X1689655Y657648D01*
X1689697Y657923D01*
X1689722Y658213D01*
X1689730Y658518D01*
X1692270D01*
X1692278Y658213D01*
D02*
G37*
G36*
X1692942Y651687D02*
X1692801Y651502D01*
X1692677Y651302D01*
X1692569Y651087D01*
X1692478Y650857D01*
X1692403Y650612D01*
X1692345Y650352D01*
X1692303Y650077D01*
X1692278Y649787D01*
X1692270Y649482D01*
X1689730D01*
X1689722Y649787D01*
X1689697Y650077D01*
X1689655Y650352D01*
X1689597Y650612D01*
X1689523Y650857D01*
X1689431Y651087D01*
X1689323Y651302D01*
X1689199Y651502D01*
X1689058Y651687D01*
X1688900Y651858D01*
X1693100D01*
X1692942Y651687D01*
D02*
G37*
G36*
X1692270Y545107D02*
X1692278Y544803D01*
X1692300Y544512D01*
X1692338Y544235D01*
X1692391Y543972D01*
X1692459Y543723D01*
X1692542Y543488D01*
X1692640Y543266D01*
X1692753Y543058D01*
X1692881Y542863D01*
X1693025Y542683D01*
X1688838Y543019D01*
X1689008Y543176D01*
X1689159Y543349D01*
X1689293Y543539D01*
X1689409Y543746D01*
X1689507Y543969D01*
X1689587Y544209D01*
X1689650Y544465D01*
X1689694Y544738D01*
X1689721Y545027D01*
X1689730Y545333D01*
X1692270Y545107D01*
D02*
G37*
G36*
X1687115Y681070D02*
Y657950D01*
X1686303Y657138D01*
X1685460Y655102D01*
Y652898D01*
X1686303Y650862D01*
X1687115Y650050D01*
Y544905D01*
X1686063Y543853D01*
X1685220Y541817D01*
Y539615D01*
X1684436Y539747D01*
X1684397Y539746D01*
X1684360Y539759D01*
X1683893Y539731D01*
X1683648Y539724D01*
Y636500D01*
Y675973D01*
X1683217Y679246D01*
X1681954Y682297D01*
X1679944Y684916D01*
X1679944Y684917D01*
X1649916Y714944D01*
X1647297Y716954D01*
X1646403Y717324D01*
X1644492Y718115D01*
X1650070D01*
X1687115Y681070D01*
D02*
G37*
G36*
X1692702Y538402D02*
X1692561Y538217D01*
X1692437Y538017D01*
X1692329Y537802D01*
X1692238Y537572D01*
X1692163Y537327D01*
X1692105Y537067D01*
X1692063Y536792D01*
X1692038Y536502D01*
X1692030Y536197D01*
X1689490D01*
X1689482Y536502D01*
X1689457Y536792D01*
X1689415Y537067D01*
X1689357Y537327D01*
X1689283Y537572D01*
X1689191Y537802D01*
X1689083Y538017D01*
X1688959Y538217D01*
X1688818Y538402D01*
X1688660Y538573D01*
X1692860D01*
X1692702Y538402D01*
D02*
G37*
G36*
X1685820Y480417D02*
X1686636Y479822D01*
X1686879Y479677D01*
X1687106Y479558D01*
X1687319Y479465D01*
X1687516Y479399D01*
X1687699Y479360D01*
X1687867Y479347D01*
Y474267D01*
X1687699Y474253D01*
X1687516Y474214D01*
X1687319Y474147D01*
X1687106Y474055D01*
X1686879Y473936D01*
X1686636Y473791D01*
X1686107Y473421D01*
X1685820Y473196D01*
X1685518Y472945D01*
Y480668D01*
X1685820Y480417D01*
D02*
G37*
G36*
X1684566Y472945D02*
X1684265Y473196D01*
X1683449Y473791D01*
X1683206Y473936D01*
X1682979Y474055D01*
X1682766Y474147D01*
X1682568Y474214D01*
X1682386Y474253D01*
X1682218Y474267D01*
Y479347D01*
X1682386Y479360D01*
X1682568Y479399D01*
X1682766Y479465D01*
X1682979Y479558D01*
X1683206Y479677D01*
X1683449Y479822D01*
X1683978Y480192D01*
X1684265Y480417D01*
X1684566Y480668D01*
Y472945D01*
D02*
G37*
G36*
X1721278Y284463D02*
X1721303Y284173D01*
X1721345Y283898D01*
X1721403Y283638D01*
X1721478Y283393D01*
X1721569Y283163D01*
X1721677Y282948D01*
X1721801Y282748D01*
X1721942Y282563D01*
X1722100Y282392D01*
X1717900D01*
X1718058Y282563D01*
X1718199Y282748D01*
X1718323Y282948D01*
X1718431Y283163D01*
X1718522Y283393D01*
X1718597Y283638D01*
X1718655Y283898D01*
X1718697Y284173D01*
X1718722Y284463D01*
X1718730Y284768D01*
X1721270D01*
X1721278Y284463D01*
D02*
G37*
G36*
X1584970Y249500D02*
X1584738Y249491D01*
X1584507Y249460D01*
X1584278Y249407D01*
X1584050Y249331D01*
X1583822Y249233D01*
X1583596Y249112D01*
X1583371Y248970D01*
X1583147Y248804D01*
X1582925Y248617D01*
X1582703Y248407D01*
X1580907Y250203D01*
X1581117Y250425D01*
X1581304Y250648D01*
X1581470Y250871D01*
X1581612Y251096D01*
X1581733Y251322D01*
X1581831Y251549D01*
X1581907Y251778D01*
X1581960Y252008D01*
X1581991Y252238D01*
X1582000Y252470D01*
X1584970Y249500D01*
D02*
G37*
G36*
X1596608Y124900D02*
X1596437Y125058D01*
X1596252Y125199D01*
X1596052Y125323D01*
X1595837Y125431D01*
X1595607Y125522D01*
X1595362Y125597D01*
X1595102Y125655D01*
X1594827Y125697D01*
X1594537Y125722D01*
X1594232Y125730D01*
Y128270D01*
X1594537Y128278D01*
X1594827Y128303D01*
X1595102Y128345D01*
X1595362Y128403D01*
X1595607Y128477D01*
X1595837Y128569D01*
X1596052Y128677D01*
X1596252Y128801D01*
X1596437Y128942D01*
X1596608Y129100D01*
Y124900D01*
D02*
G37*
G36*
X175108Y239900D02*
X174937Y240058D01*
X174752Y240199D01*
X174552Y240323D01*
X174337Y240431D01*
X174107Y240522D01*
X173862Y240597D01*
X173602Y240655D01*
X173327Y240697D01*
X173037Y240722D01*
X172732Y240730D01*
Y243270D01*
X173037Y243278D01*
X173327Y243303D01*
X173602Y243345D01*
X173862Y243403D01*
X174107Y243477D01*
X174337Y243569D01*
X174552Y243677D01*
X174752Y243801D01*
X174937Y243942D01*
X175108Y244100D01*
Y239900D01*
D02*
G37*
G36*
X113813Y243942D02*
X113998Y243801D01*
X114198Y243677D01*
X114413Y243569D01*
X114643Y243477D01*
X114888Y243403D01*
X115148Y243345D01*
X115423Y243303D01*
X115713Y243278D01*
X116018Y243270D01*
Y240730D01*
X115713Y240722D01*
X115423Y240697D01*
X115148Y240655D01*
X114888Y240597D01*
X114643Y240522D01*
X114413Y240431D01*
X114198Y240323D01*
X113998Y240199D01*
X113813Y240058D01*
X113642Y239900D01*
Y244100D01*
X113813Y243942D01*
D02*
G37*
G36*
X1636465Y362240D02*
Y362240D01*
X1646626Y347000D01*
X1636465Y331760D01*
Y331760D01*
X1636465Y331760D01*
X1636364Y333690D01*
X1636059Y335418D01*
X1635551Y336942D01*
X1634840Y338262D01*
X1633925Y339380D01*
X1632808Y340294D01*
X1631487Y341006D01*
X1629963Y341514D01*
X1628236Y341818D01*
X1626306Y341920D01*
Y341920D01*
X1626306D01*
Y352080D01*
X1628236Y352182D01*
X1629963Y352486D01*
X1631487Y352994D01*
X1632808Y353706D01*
X1633925Y354620D01*
X1634840Y355738D01*
X1635551Y357058D01*
X1636059Y358582D01*
X1636364Y360310D01*
X1636465Y362240D01*
X1636465Y362240D01*
D02*
G37*
G36*
X1693759Y206738D02*
X1693790Y206507D01*
X1693843Y206278D01*
X1693919Y206049D01*
X1694017Y205822D01*
X1694138Y205596D01*
X1694281Y205371D01*
X1694445Y205147D01*
X1694633Y204925D01*
X1694843Y204703D01*
X1693047Y202907D01*
X1692825Y203117D01*
X1692603Y203305D01*
X1692379Y203470D01*
X1692154Y203612D01*
X1691928Y203733D01*
X1691700Y203831D01*
X1691472Y203907D01*
X1691243Y203960D01*
X1691012Y203991D01*
X1690780Y204000D01*
X1693750Y206970D01*
X1693759Y206738D01*
D02*
G37*
G36*
X1796608Y150650D02*
X1796437Y150808D01*
X1796252Y150949D01*
X1796052Y151073D01*
X1795837Y151181D01*
X1795607Y151272D01*
X1795362Y151347D01*
X1795102Y151405D01*
X1794827Y151447D01*
X1794537Y151472D01*
X1794232Y151480D01*
Y154020D01*
X1794537Y154028D01*
X1794827Y154053D01*
X1795102Y154095D01*
X1795362Y154153D01*
X1795607Y154228D01*
X1795837Y154319D01*
X1796052Y154427D01*
X1796252Y154551D01*
X1796437Y154692D01*
X1796608Y154850D01*
Y150650D01*
D02*
G37*
G36*
X1918000Y501491D02*
Y456250D01*
X1910250Y448500D01*
X1864500D01*
X1835000Y419000D01*
Y197393D01*
X1849143Y183250D01*
X1997755Y183250D01*
X2008302Y193797D01*
X2107807D01*
Y89500D01*
X1878054Y89500D01*
X1783500Y184054D01*
X1783500Y489500D01*
X1802750Y508750D01*
X1910741D01*
X1918000Y501491D01*
D02*
G37*
%LPC*%
G36*
X562797Y805540D02*
X557203D01*
X551678Y804665D01*
X546357Y802936D01*
X541373Y800396D01*
X536847Y797108D01*
X532892Y793153D01*
X529604Y788627D01*
X527064Y783643D01*
X525335Y778322D01*
X524460Y772797D01*
Y771102D01*
Y768898D01*
Y767203D01*
X525335Y761678D01*
X527064Y756357D01*
X529604Y751373D01*
X532892Y746847D01*
X536847Y742892D01*
X541373Y739604D01*
X546357Y737064D01*
X551678Y735335D01*
X557203Y734460D01*
X562797D01*
X568322Y735335D01*
X573643Y737064D01*
X578627Y739604D01*
X583153Y742892D01*
X587108Y746847D01*
X590396Y751373D01*
X592936Y756357D01*
X594665Y761678D01*
X595540Y767203D01*
Y772797D01*
X594665Y778322D01*
X592936Y783643D01*
X590396Y788627D01*
X587108Y793153D01*
X583153Y797108D01*
X578627Y800396D01*
X573643Y802936D01*
X568322Y804665D01*
X562797Y805540D01*
D02*
G37*
G36*
X1026290Y622290D02*
X1014710D01*
Y619509D01*
X1013602Y619968D01*
X1011398D01*
X1009362Y619125D01*
X1007803Y617566D01*
X1006960Y615530D01*
Y613326D01*
X1007803Y611290D01*
X1009362Y609731D01*
X1011398Y608888D01*
X1013602D01*
X1014710Y609347D01*
Y606710D01*
X1026290D01*
Y622290D01*
D02*
G37*
G36*
X1045290D02*
X1033710D01*
Y607507D01*
X1027253Y601050D01*
X1026411Y599790D01*
X1026312Y599290D01*
X1024210D01*
Y583710D01*
X1025946D01*
X1025374Y583138D01*
X1024530Y581102D01*
Y578898D01*
X1025374Y576862D01*
X1026932Y575303D01*
X1028969Y574460D01*
X1031172D01*
X1033209Y575303D01*
X1034767Y576862D01*
X1035611Y578898D01*
Y581102D01*
X1034767Y583138D01*
X1034195Y583710D01*
X1035790D01*
Y598599D01*
X1042247Y605056D01*
X1043089Y606316D01*
X1043138Y606563D01*
X1043167Y606710D01*
X1045290D01*
Y622290D01*
D02*
G37*
G36*
X1431593Y191916D02*
X1429389D01*
X1427352Y191073D01*
X1425794Y189514D01*
X1424951Y187478D01*
Y185274D01*
X1425794Y183238D01*
X1426615Y182416D01*
Y182290D01*
X1424710D01*
Y166710D01*
X1436290D01*
Y182290D01*
X1434385D01*
Y182435D01*
X1435187Y183238D01*
X1436030Y185274D01*
Y187478D01*
X1435187Y189514D01*
X1433629Y191073D01*
X1431593Y191916D01*
D02*
G37*
G36*
X1443852Y216290D02*
X1441648D01*
X1439612Y215447D01*
X1438053Y213888D01*
X1437210Y211852D01*
Y209648D01*
X1438053Y207612D01*
X1439612Y206053D01*
X1441648Y205210D01*
X1443337D01*
X1445615Y202931D01*
Y182290D01*
X1443710D01*
Y167401D01*
X1437253Y160944D01*
X1436411Y159684D01*
X1436333Y159290D01*
X1434210D01*
Y143710D01*
X1445790D01*
Y158493D01*
X1452247Y164950D01*
X1453089Y166211D01*
X1453138Y166457D01*
X1453188Y166710D01*
X1455290D01*
Y182290D01*
X1453385D01*
Y204541D01*
X1453089Y206027D01*
X1452247Y207288D01*
X1448290Y211244D01*
Y211852D01*
X1447447Y213888D01*
X1445888Y215447D01*
X1443852Y216290D01*
D02*
G37*
G36*
X562797Y157540D02*
X557203D01*
X551678Y156665D01*
X546357Y154936D01*
X541373Y152396D01*
X536847Y149108D01*
X532892Y145153D01*
X529604Y140627D01*
X527064Y135643D01*
X525335Y130322D01*
X524460Y124797D01*
Y123102D01*
Y120898D01*
Y119203D01*
X525335Y113678D01*
X527064Y108357D01*
X529604Y103373D01*
X532892Y98847D01*
X536847Y94892D01*
X541373Y91603D01*
X546357Y89064D01*
X551678Y87335D01*
X557203Y86460D01*
X562797D01*
X568322Y87335D01*
X573643Y89064D01*
X578627Y91603D01*
X583153Y94892D01*
X587108Y98847D01*
X590396Y103373D01*
X592936Y108357D01*
X594665Y113678D01*
X595540Y119203D01*
Y124797D01*
X594665Y130322D01*
X592936Y135643D01*
X590396Y140627D01*
X587108Y145153D01*
X583153Y149108D01*
X578627Y152396D01*
X573643Y154936D01*
X568322Y156665D01*
X562797Y157540D01*
D02*
G37*
%LPD*%
G36*
X1017280Y611960D02*
X1015403Y612899D01*
X1015238Y612814D01*
X1015041Y612686D01*
X1014859Y612542D01*
X1014693Y612380D01*
X1014591Y616579D01*
X1014765Y616425D01*
X1014953Y616288D01*
X1015156Y616167D01*
X1015348Y616074D01*
X1017280Y617040D01*
Y611960D01*
D02*
G37*
G36*
X1040938Y609291D02*
X1040903Y609241D01*
X1040872Y609163D01*
X1040845Y609055D01*
X1040822Y608919D01*
X1040803Y608754D01*
X1040778Y608336D01*
X1040770Y607803D01*
X1038230D01*
X1038228Y608084D01*
X1038155Y609055D01*
X1038128Y609163D01*
X1038097Y609241D01*
X1038062Y609291D01*
X1038022Y609311D01*
X1040978D01*
X1040938Y609291D01*
D02*
G37*
G36*
X1031273Y598002D02*
X1031320Y597285D01*
X1031348Y597108D01*
X1031383Y596962D01*
X1031423Y596847D01*
X1031470Y596764D01*
X1031524Y596711D01*
X1031583Y596689D01*
X1028417D01*
X1028476Y596711D01*
X1028530Y596764D01*
X1028577Y596847D01*
X1028617Y596962D01*
X1028652Y597108D01*
X1028680Y597285D01*
X1028702Y597493D01*
X1028727Y598002D01*
X1028730Y598303D01*
X1031270D01*
X1031273Y598002D01*
D02*
G37*
G36*
X1032299Y586280D02*
X1032083Y586199D01*
X1031892Y586067D01*
X1031727Y585885D01*
X1031588Y585653D01*
X1031473Y585371D01*
X1031384Y585039D01*
X1031321Y584656D01*
X1031283Y584224D01*
X1031282Y584203D01*
X1031304Y583955D01*
X1031346Y583681D01*
X1031406Y583422D01*
X1031482Y583178D01*
X1031576Y582950D01*
X1031686Y582737D01*
X1031814Y582540D01*
X1031958Y582358D01*
X1032120Y582191D01*
X1027921Y582093D01*
X1028074Y582266D01*
X1028212Y582454D01*
X1028333Y582657D01*
X1028439Y582874D01*
X1028528Y583106D01*
X1028600Y583353D01*
X1028657Y583613D01*
X1028698Y583889D01*
X1028719Y584148D01*
X1028717Y584224D01*
X1028679Y584656D01*
X1028616Y585039D01*
X1028527Y585371D01*
X1028412Y585653D01*
X1028273Y585885D01*
X1028108Y586067D01*
X1027917Y586199D01*
X1027701Y586280D01*
X1027460Y586311D01*
X1032540D01*
X1032299Y586280D01*
D02*
G37*
G36*
X1432440Y184069D02*
X1432299Y183884D01*
X1432175Y183683D01*
X1432068Y183468D01*
X1431977Y183238D01*
X1431902Y182992D01*
X1431844Y182732D01*
X1431803Y182457D01*
X1431778Y182167D01*
X1431775Y182058D01*
X1431783Y181777D01*
X1431821Y181344D01*
X1431884Y180961D01*
X1431973Y180629D01*
X1432088Y180347D01*
X1432227Y180115D01*
X1432392Y179933D01*
X1432583Y179802D01*
X1432799Y179720D01*
X1433040Y179689D01*
X1427960D01*
X1428201Y179720D01*
X1428417Y179802D01*
X1428608Y179933D01*
X1428773Y180115D01*
X1428913Y180347D01*
X1429027Y180629D01*
X1429116Y180961D01*
X1429179Y181344D01*
X1429217Y181777D01*
X1429225Y182053D01*
X1429222Y182159D01*
X1429197Y182449D01*
X1429155Y182723D01*
X1429097Y182983D01*
X1429022Y183228D01*
X1428930Y183458D01*
X1428822Y183673D01*
X1428697Y183873D01*
X1428555Y184057D01*
X1428397Y184227D01*
X1432597Y184240D01*
X1432440Y184069D01*
D02*
G37*
G36*
X1445766Y210877D02*
X1445821Y210652D01*
X1445896Y210428D01*
X1445990Y210204D01*
X1446104Y209981D01*
X1446237Y209759D01*
X1446389Y209537D01*
X1446561Y209316D01*
X1446752Y209095D01*
X1446962Y208875D01*
X1445421Y206823D01*
X1445198Y207033D01*
X1444975Y207218D01*
X1444750Y207377D01*
X1444525Y207511D01*
X1444299Y207619D01*
X1444073Y207702D01*
X1443846Y207759D01*
X1443619Y207791D01*
X1443391Y207798D01*
X1443162Y207778D01*
X1445729Y211103D01*
X1445766Y210877D01*
D02*
G37*
G36*
X1450783Y181777D02*
X1450821Y181344D01*
X1450884Y180961D01*
X1450973Y180629D01*
X1451087Y180347D01*
X1451227Y180115D01*
X1451392Y179933D01*
X1451583Y179802D01*
X1451799Y179720D01*
X1452040Y179689D01*
X1446960D01*
X1447201Y179720D01*
X1447417Y179802D01*
X1447608Y179933D01*
X1447773Y180115D01*
X1447912Y180347D01*
X1448027Y180629D01*
X1448116Y180961D01*
X1448179Y181344D01*
X1448217Y181777D01*
X1448230Y182260D01*
X1450770D01*
X1450783Y181777D01*
D02*
G37*
G36*
X1451024Y169289D02*
X1450970Y169237D01*
X1450923Y169153D01*
X1450883Y169038D01*
X1450848Y168892D01*
X1450820Y168715D01*
X1450798Y168507D01*
X1450773Y167998D01*
X1450770Y167697D01*
X1448230D01*
X1448227Y167998D01*
X1448180Y168715D01*
X1448152Y168892D01*
X1448117Y169038D01*
X1448076Y169153D01*
X1448029Y169237D01*
X1447976Y169289D01*
X1447917Y169311D01*
X1451083D01*
X1451024Y169289D01*
D02*
G37*
G36*
X1441272Y157916D02*
X1441345Y156945D01*
X1441372Y156838D01*
X1441403Y156759D01*
X1441438Y156710D01*
X1441478Y156689D01*
X1438522D01*
X1438562Y156710D01*
X1438597Y156759D01*
X1438628Y156838D01*
X1438655Y156945D01*
X1438678Y157081D01*
X1438697Y157247D01*
X1438722Y157664D01*
X1438730Y158197D01*
X1441270D01*
X1441272Y157916D01*
D02*
G37*
D29*
X1039500Y614500D02*
D03*
X1020500D02*
D03*
X1030000Y591500D02*
D03*
X1449500Y174500D02*
D03*
X1430500D02*
D03*
X1440000Y151500D02*
D03*
D30*
X402000Y690000D02*
D03*
X456000D02*
D03*
X402000Y664600D02*
D03*
X456000D02*
D03*
X402000Y639200D02*
D03*
X456000D02*
D03*
Y715400D02*
D03*
Y740800D02*
D03*
X402000Y715400D02*
D03*
Y740800D02*
D03*
D31*
X1989000Y839000D02*
D03*
X70000Y70000D02*
D03*
D32*
X1349000Y15150D02*
D03*
X749000Y873850D02*
D03*
X149000D02*
D03*
Y15150D02*
D03*
X749000D02*
D03*
X1349000Y873850D02*
D03*
X1949000Y15150D02*
D03*
Y873850D02*
D03*
D33*
X0Y0D02*
X71664D01*
X86814Y15150D01*
X21877Y889000D02*
X70750D01*
X85900Y873850D01*
X85900Y873850D01*
X121300D01*
X86814Y15150D02*
X121300D01*
X0Y893618D02*
X11882Y905500D01*
D34*
X1921300Y873850D02*
X1949000D01*
X1376700D02*
X1921300D01*
X1349000D02*
X1376700D01*
X466495Y800000D02*
X466495D01*
X450000D02*
X466495D01*
X-44355Y742556D02*
X-6669Y780243D01*
X0Y889000D02*
Y893618D01*
X441213Y111213D02*
X498500Y168500D01*
X466495Y800000D02*
X498500Y767995D01*
Y168500D02*
Y767995D01*
X1558500Y706000D02*
X1568750D01*
X1578963D01*
X1687867Y483456D02*
Y498535D01*
X1671000Y636500D02*
Y675973D01*
X1640973Y706000D02*
X1671000Y675973D01*
X1578963Y706000D02*
X1640973D01*
X1671000Y515402D02*
X1687867Y498535D01*
X1671000Y515402D02*
Y636500D01*
X-44355Y154355D02*
Y742556D01*
X176700Y15150D02*
X420000D01*
X149000D02*
X176700D01*
X1376700D02*
X1921300D01*
X1949000D01*
X749000Y873850D02*
X776700D01*
X1321300D02*
X1349000D01*
X776700D02*
X1321300D01*
X176700D02*
X721300D01*
X749000D01*
X149000D02*
X176700D01*
X1321300Y15150D02*
X1349000D01*
X749000D02*
X776700D01*
X1321300D01*
X1349000D02*
X1376700D01*
X721300D02*
X749000D01*
X420000D02*
X721300D01*
X420000D02*
Y60000D01*
X-44355Y154355D02*
X-1213Y111213D01*
D35*
X1694493Y476806D02*
Y483456D01*
X1687867D02*
X1694493D01*
X1682218D02*
X1687867D01*
Y476806D02*
X1694493D01*
X1687867Y267133D02*
Y476806D01*
X1682218D02*
Y483456D01*
X1808750Y63501D02*
Y101250D01*
X1787499Y42250D02*
X1808750Y63501D01*
X1701250Y42250D02*
X1787499D01*
X1641546Y347000D02*
Y419045D01*
X1694250Y42250D02*
X1701250D01*
X1640175Y182500D02*
X1640860Y183185D01*
X1641546Y182500D01*
X1640860Y183185D02*
X1641546Y183870D01*
X1641546Y182500D02*
X1649500D01*
X1641546Y183870D02*
Y347000D01*
X1808750Y101250D02*
Y107750D01*
X1687867Y267133D02*
X1688000Y267000D01*
X1600500Y182500D02*
X1640175D01*
X1526000Y347000D02*
X1641546D01*
X1641546Y419045D02*
X1649545D01*
X1513770Y334770D02*
X1526000Y347000D01*
X1513770Y297500D02*
Y334770D01*
X1641546Y347000D02*
X1641546Y347000D01*
X1633500Y419000D02*
X1633546Y419045D01*
X1641546D01*
X1522750Y192250D02*
X1540000D01*
X1513770Y201230D02*
Y257500D01*
Y201230D02*
X1522750Y192250D01*
X1513770Y277500D02*
Y297500D01*
Y257500D02*
Y277500D01*
X1489500Y297500D02*
X1513770D01*
D36*
X1690760Y540715D02*
X1691000Y540955D01*
X1690760Y535240D02*
X1720000Y506000D01*
X1691000Y540955D02*
Y654000D01*
X1690760Y535240D02*
Y540715D01*
X1706000Y545250D02*
Y569250D01*
Y545250D02*
X1727750Y523500D01*
X1888250D01*
X1651679Y722000D02*
X1691000Y682679D01*
X1590000Y722000D02*
X1651679D01*
X1745000Y152750D02*
X1798750D01*
X1690750Y207000D02*
X1745000Y152750D01*
X1800000Y770000D02*
X1820000Y750000D01*
X1979575D01*
X2004968Y444500D02*
X2017200D01*
X1989272Y460196D02*
X2004968Y444500D01*
X1989272Y460196D02*
Y740304D01*
X1997456Y468794D02*
X2007750Y458500D01*
X2024476D02*
X2029604Y453372D01*
X2007750Y458500D02*
X2024476D01*
X1997456Y468794D02*
Y746381D01*
X1888250Y523500D02*
X1893750Y518000D01*
X1921000D02*
X1933000Y530000D01*
X1893750Y518000D02*
X1921000D01*
X1722250Y544750D02*
X1737000Y530000D01*
X1765750Y635410D02*
X1875840D01*
X1891250Y620000D02*
X1903000D01*
X1875840Y635410D02*
X1891250Y620000D01*
X1776250Y644250D02*
X1882204D01*
X1892204Y634250D02*
X1918750D01*
X1882204Y644250D02*
X1892204Y634250D01*
X1918750D02*
X1933000Y620000D01*
X1765000Y655500D02*
X1776250Y644250D01*
X1765000Y655500D02*
Y692500D01*
X86062Y197979D02*
X127541Y156500D01*
X86062Y197979D02*
Y274312D01*
X127541Y156500D02*
X395000D01*
X1720000Y280250D02*
Y506000D01*
X1603900Y363650D02*
X1604000Y363750D01*
X1578750Y363650D02*
X1603900D01*
X1591775Y572250D02*
X1625750D01*
X1591763Y560000D02*
X1604937Y546825D01*
X1591000Y127000D02*
X1598750D01*
X1577500Y140500D02*
X1591000Y127000D01*
X111500Y242000D02*
X177250D01*
X1567500Y302500D02*
X1582500D01*
X1582500Y302500D01*
X1531750Y120000D02*
X1557500D01*
X192826Y797089D02*
X237987Y842250D01*
X1799218D01*
X1820000Y821468D01*
X1604937Y546825D02*
X1643371D01*
X1591763Y572238D02*
X1591775Y572250D01*
X1443291Y210750D02*
X1449500Y204541D01*
X1442750Y210750D02*
X1443291D01*
X1449500Y174500D02*
Y204541D01*
X42927Y274312D02*
X86062D01*
X208825Y397075D02*
Y715601D01*
X86062Y274312D02*
X208825Y397075D01*
X131250Y304500D02*
X165000D01*
X1565500Y128000D02*
Y182500D01*
X1557500Y120000D02*
X1565500Y128000D01*
X1577500Y140500D02*
Y245000D01*
X1691000Y654000D02*
Y682679D01*
X1737000Y530000D02*
X1903000D01*
X1577500Y245000D02*
X1585000Y252500D01*
X1557500Y292500D02*
X1567500Y302500D01*
X1557500Y147500D02*
Y292500D01*
X115000Y690000D02*
X125000D01*
X100000Y675000D02*
X115000Y690000D01*
X100000Y570000D02*
Y675000D01*
X99731Y451718D02*
Y522388D01*
X107380Y530038D01*
X109750Y317000D02*
X155750Y363000D01*
X-6000Y317000D02*
X109750D01*
X42500Y274739D02*
X42927Y274312D01*
X234025Y740800D02*
X392000D01*
X208825Y715601D02*
X234025Y740800D01*
X155750Y363000D02*
X192826Y400076D01*
Y797089D01*
X1985174Y758664D02*
X1997456Y746381D01*
X1831336Y758664D02*
X1985174D01*
X1820000Y770000D02*
X1831336Y758664D01*
X1979575Y750000D02*
X1989272Y740304D01*
X2029604Y431504D02*
Y453372D01*
X2017200Y419100D02*
X2029604Y431504D01*
X1820000Y790000D02*
Y821468D01*
X1430500Y174500D02*
Y184646D01*
X1030000Y580070D02*
X1030070Y580000D01*
X1030000Y580070D02*
Y591500D01*
Y598303D02*
X1039500Y607803D01*
X1030000Y591500D02*
Y598303D01*
X1039500Y607803D02*
Y614500D01*
X1440000Y151500D02*
Y158197D01*
X1449500Y167697D02*
Y174500D01*
X1440000Y158197D02*
X1449500Y167697D01*
X1012572Y614500D02*
X1020500D01*
X1012500Y614428D02*
X1012572Y614500D01*
D37*
X446000Y748750D02*
Y755750D01*
X446000Y740800D02*
Y748750D01*
D38*
X1682218Y476806D02*
X1687867D01*
X1681217D02*
X1682218D01*
X1585000Y270000D02*
X1592218D01*
X1597000Y265218D01*
Y252500D02*
Y265218D01*
X1594065Y147500D02*
X1600782Y154217D01*
X1585000Y147500D02*
X1594065D01*
D39*
X1754250Y550500D02*
X1754374Y550624D01*
X392000Y715400D02*
X446000D01*
X392000Y639200D02*
X446000D01*
D40*
X-24111Y297029D02*
X-24050Y297090D01*
Y337000D01*
X-24050Y337000D02*
Y377000D01*
Y577000D02*
Y617000D01*
Y417000D02*
Y457000D01*
Y497000D01*
Y537000D01*
Y577000D01*
Y617000D02*
Y657000D01*
Y697000D01*
Y377000D02*
Y417000D01*
D41*
X0Y0D02*
D03*
Y889000D02*
D03*
D42*
X2068000Y844550D02*
D03*
Y44450D02*
D03*
D43*
X2017200Y781100D02*
D03*
X2042600D02*
D03*
X2068000D02*
D03*
X2093400D02*
D03*
Y755700D02*
D03*
X2068000D02*
D03*
X2042600D02*
D03*
X2017200D02*
D03*
X2093400Y704900D02*
D03*
X2068000D02*
D03*
X2042600D02*
D03*
X2017200D02*
D03*
Y679500D02*
D03*
X2042600D02*
D03*
X2068000D02*
D03*
X2093400D02*
D03*
Y628700D02*
D03*
X2068000D02*
D03*
X2042600D02*
D03*
X2017200D02*
D03*
Y603300D02*
D03*
X2042600D02*
D03*
X2068000D02*
D03*
X2093400D02*
D03*
Y565200D02*
D03*
X2068000D02*
D03*
X2042600D02*
D03*
X2017200D02*
D03*
Y539800D02*
D03*
X2042600D02*
D03*
X2068000D02*
D03*
X2093400D02*
D03*
Y501700D02*
D03*
X2068000D02*
D03*
X2042600D02*
D03*
X2017200D02*
D03*
Y476300D02*
D03*
X2042600D02*
D03*
X2068000D02*
D03*
X2093400D02*
D03*
X2017200Y444500D02*
D03*
X2042600D02*
D03*
X2068000D02*
D03*
X2093400D02*
D03*
X2017200Y419100D02*
D03*
X2042600D02*
D03*
X2068000D02*
D03*
X2093400D02*
D03*
X2017200Y393700D02*
D03*
X2042600D02*
D03*
X2068000D02*
D03*
X2093400D02*
D03*
X2017200Y368300D02*
D03*
X2042600D02*
D03*
X2068000D02*
D03*
X2093400D02*
D03*
X2017200Y342900D02*
D03*
X2042600D02*
D03*
X2068000D02*
D03*
X2093400D02*
D03*
X2017200Y317500D02*
D03*
X2042600D02*
D03*
X2068000D02*
D03*
X2093400D02*
D03*
X2068000Y285700D02*
D03*
X2042600D02*
D03*
X2017200D02*
D03*
Y260300D02*
D03*
X2042600D02*
D03*
X2068000D02*
D03*
X2093400D02*
D03*
Y285700D02*
D03*
Y234900D02*
D03*
X2068000D02*
D03*
X2042600D02*
D03*
X2017200D02*
D03*
Y209500D02*
D03*
X2042600D02*
D03*
X2068000D02*
D03*
X2093400D02*
D03*
Y184100D02*
D03*
X2068000D02*
D03*
X2042600D02*
D03*
X2017200D02*
D03*
Y158700D02*
D03*
X2042600D02*
D03*
X2068000D02*
D03*
X2093400D02*
D03*
Y133300D02*
D03*
X2068000D02*
D03*
X2042600D02*
D03*
X2017200D02*
D03*
Y107900D02*
D03*
X2042600D02*
D03*
X2068000D02*
D03*
X2093400D02*
D03*
D44*
X530000Y770000D02*
D03*
X538787Y748787D02*
D03*
X560000Y740000D02*
D03*
X581213Y748787D02*
D03*
X590000Y770000D02*
D03*
X581213Y791213D02*
D03*
X560000Y800000D02*
D03*
X538787Y791213D02*
D03*
X16000Y830000D02*
D03*
X-5213Y821213D02*
D03*
X-14000Y800000D02*
D03*
X-5213Y778787D02*
D03*
X16000Y770000D02*
D03*
X37213Y778787D02*
D03*
X46000Y800000D02*
D03*
X37213Y821213D02*
D03*
X20000Y120000D02*
D03*
X-1213Y111213D02*
D03*
X-10000Y90000D02*
D03*
X-1213Y68787D02*
D03*
X20000Y60000D02*
D03*
X41213Y68787D02*
D03*
X50000Y90000D02*
D03*
X41213Y111213D02*
D03*
X441213D02*
D03*
X450000Y90000D02*
D03*
X441213Y68787D02*
D03*
X420000Y60000D02*
D03*
X398787Y68787D02*
D03*
X390000Y90000D02*
D03*
X398787Y111213D02*
D03*
X420000Y120000D02*
D03*
X560000Y92000D02*
D03*
X581213Y100787D02*
D03*
X590000Y122000D02*
D03*
X581213Y143213D02*
D03*
X560000Y152000D02*
D03*
X538787Y143213D02*
D03*
X530000Y122000D02*
D03*
X538787Y100787D02*
D03*
X1694787D02*
D03*
X1686000Y122000D02*
D03*
X1694787Y143213D02*
D03*
X1716000Y152000D02*
D03*
X1737213Y143213D02*
D03*
X1746000Y122000D02*
D03*
X1737213Y100787D02*
D03*
X1716000Y92000D02*
D03*
X1694787Y748787D02*
D03*
X1686000Y770000D02*
D03*
X1694787Y791213D02*
D03*
X1716000Y800000D02*
D03*
X1737213Y791213D02*
D03*
X1746000Y770000D02*
D03*
X1737213Y748787D02*
D03*
X1716000Y740000D02*
D03*
X441213Y821213D02*
D03*
X450000Y800000D02*
D03*
X441213Y778787D02*
D03*
X420000Y770000D02*
D03*
X398787Y778787D02*
D03*
X390000Y800000D02*
D03*
X398787Y821213D02*
D03*
X420000Y830000D02*
D03*
X2110051Y903001D02*
D03*
X2121551Y880001D02*
D03*
Y834001D02*
D03*
X2110051Y811001D02*
D03*
X2121551Y788001D02*
D03*
Y742001D02*
D03*
Y696001D02*
D03*
Y650001D02*
D03*
Y604001D02*
D03*
X2110051Y581001D02*
D03*
X2121551Y558001D02*
D03*
Y512001D02*
D03*
Y466001D02*
D03*
X2110051Y443001D02*
D03*
X2121551Y420001D02*
D03*
X2110051Y397001D02*
D03*
X2121551Y374001D02*
D03*
X2110051Y351001D02*
D03*
X2121551Y328001D02*
D03*
X2110051Y305001D02*
D03*
X2121551Y282001D02*
D03*
X2110051Y259001D02*
D03*
X2121551Y236001D02*
D03*
X2110051Y213001D02*
D03*
X2121551Y190001D02*
D03*
Y144001D02*
D03*
Y98001D02*
D03*
X2110051Y75001D02*
D03*
X2121551Y52001D02*
D03*
Y6001D02*
D03*
X2110051Y-16999D02*
D03*
X2087051Y903001D02*
D03*
X2098551Y650001D02*
D03*
X2087051Y-16999D02*
D03*
X2064051Y903001D02*
D03*
X2075551Y650001D02*
D03*
X2064051Y-16999D02*
D03*
X2041051Y903001D02*
D03*
X2052551Y650001D02*
D03*
X2041051Y-16999D02*
D03*
X2018051Y903001D02*
D03*
X2029551Y880001D02*
D03*
X2018051Y857001D02*
D03*
Y811001D02*
D03*
X2029551Y650001D02*
D03*
X2018051Y29001D02*
D03*
X2029551Y6001D02*
D03*
X2018051Y-16999D02*
D03*
X1995051Y903001D02*
D03*
X2006551Y880001D02*
D03*
X1995051Y811001D02*
D03*
Y305001D02*
D03*
Y29001D02*
D03*
X1972051Y903001D02*
D03*
Y811001D02*
D03*
X1983551Y788001D02*
D03*
X1972051Y535001D02*
D03*
Y397001D02*
D03*
Y351001D02*
D03*
Y-16999D02*
D03*
X1949051Y903001D02*
D03*
X1960551Y834001D02*
D03*
X1949051Y811001D02*
D03*
X1960551Y788001D02*
D03*
Y512001D02*
D03*
X1949051Y489001D02*
D03*
X1960551Y420001D02*
D03*
Y374001D02*
D03*
Y328001D02*
D03*
X1949051Y-16999D02*
D03*
X1926051Y903001D02*
D03*
X1937551Y834001D02*
D03*
X1926051Y811001D02*
D03*
X1937551Y788001D02*
D03*
X1926051Y-16999D02*
D03*
X1903051Y903001D02*
D03*
X1914551Y834001D02*
D03*
X1903051Y811001D02*
D03*
X1914551Y788001D02*
D03*
Y420001D02*
D03*
X1903051Y397001D02*
D03*
X1914551Y374001D02*
D03*
X1903051Y351001D02*
D03*
X1914551Y328001D02*
D03*
X1903051Y-16999D02*
D03*
X1880051Y903001D02*
D03*
X1891551Y834001D02*
D03*
X1880051Y811001D02*
D03*
X1891551Y788001D02*
D03*
Y374001D02*
D03*
Y328001D02*
D03*
Y52001D02*
D03*
X1880051Y-16999D02*
D03*
X1857051Y903001D02*
D03*
X1868551Y834001D02*
D03*
X1857051Y811001D02*
D03*
X1868551Y788001D02*
D03*
Y420001D02*
D03*
X1857051Y75001D02*
D03*
X1868551Y52001D02*
D03*
X1857051Y-16999D02*
D03*
X1834051Y903001D02*
D03*
X1845551Y834001D02*
D03*
X1834051Y811001D02*
D03*
X1845551Y788001D02*
D03*
X1834051Y75001D02*
D03*
X1845551Y52001D02*
D03*
X1834051Y-16999D02*
D03*
X1811051Y903001D02*
D03*
X1822551Y52001D02*
D03*
X1811051Y-16999D02*
D03*
X1788051Y903001D02*
D03*
Y811001D02*
D03*
Y-16999D02*
D03*
X1765051Y903001D02*
D03*
Y811001D02*
D03*
X1776551Y788001D02*
D03*
X1765051Y765001D02*
D03*
Y443001D02*
D03*
Y397001D02*
D03*
Y351001D02*
D03*
Y259001D02*
D03*
X1742051Y903001D02*
D03*
Y811001D02*
D03*
Y443001D02*
D03*
X1753551Y420001D02*
D03*
X1742051Y397001D02*
D03*
X1753551Y374001D02*
D03*
X1742051Y351001D02*
D03*
X1753551Y282001D02*
D03*
X1742051Y213001D02*
D03*
X1753551Y190001D02*
D03*
X1742051Y75001D02*
D03*
X1719051Y903001D02*
D03*
Y627001D02*
D03*
Y259001D02*
D03*
Y213001D02*
D03*
X1730551Y190001D02*
D03*
X1719051Y75001D02*
D03*
X1696051Y903001D02*
D03*
Y719001D02*
D03*
X1707551Y604001D02*
D03*
Y420001D02*
D03*
Y374001D02*
D03*
X1696051Y167001D02*
D03*
Y75001D02*
D03*
X1673051Y903001D02*
D03*
Y811001D02*
D03*
Y719001D02*
D03*
X1684551Y190001D02*
D03*
X1673051Y167001D02*
D03*
Y75001D02*
D03*
X1650051Y903001D02*
D03*
Y811001D02*
D03*
X1661551Y788001D02*
D03*
X1650051Y765001D02*
D03*
X1627051Y903001D02*
D03*
Y811001D02*
D03*
X1638551Y788001D02*
D03*
X1627051Y765001D02*
D03*
X1638551Y98001D02*
D03*
X1627051Y75001D02*
D03*
X1604051Y903001D02*
D03*
Y811001D02*
D03*
X1615551Y788001D02*
D03*
X1604051Y765001D02*
D03*
X1615551Y328001D02*
D03*
X1604051Y305001D02*
D03*
X1615551Y98001D02*
D03*
X1604051Y75001D02*
D03*
X1581051Y903001D02*
D03*
Y811001D02*
D03*
X1592551Y788001D02*
D03*
X1581051Y765001D02*
D03*
X1592551Y604001D02*
D03*
X1581051Y581001D02*
D03*
X1592551Y328001D02*
D03*
Y98001D02*
D03*
X1581051Y75001D02*
D03*
X1558051Y903001D02*
D03*
X1569551Y788001D02*
D03*
Y742001D02*
D03*
Y604001D02*
D03*
X1558051Y581001D02*
D03*
Y489001D02*
D03*
X1569551Y466001D02*
D03*
X1558051Y443001D02*
D03*
X1569551Y420001D02*
D03*
X1558051Y397001D02*
D03*
X1569551Y328001D02*
D03*
Y98001D02*
D03*
X1558051Y75001D02*
D03*
X1535051Y903001D02*
D03*
X1546551Y604001D02*
D03*
X1535051Y581001D02*
D03*
Y489001D02*
D03*
X1546551Y466001D02*
D03*
X1535051Y443001D02*
D03*
X1546551Y420001D02*
D03*
X1535051Y397001D02*
D03*
Y167001D02*
D03*
X1546551Y98001D02*
D03*
X1535051Y75001D02*
D03*
X1512051Y903001D02*
D03*
Y811001D02*
D03*
Y765001D02*
D03*
Y719001D02*
D03*
X1523551Y604001D02*
D03*
X1512051Y581001D02*
D03*
Y489001D02*
D03*
X1523551Y466001D02*
D03*
X1512051Y443001D02*
D03*
X1523551Y420001D02*
D03*
X1512051Y397001D02*
D03*
X1523551Y374001D02*
D03*
Y144001D02*
D03*
Y98001D02*
D03*
X1489051Y903001D02*
D03*
Y811001D02*
D03*
X1500551Y788001D02*
D03*
X1489051Y765001D02*
D03*
X1500551Y742001D02*
D03*
X1489051Y719001D02*
D03*
Y627001D02*
D03*
X1500551Y604001D02*
D03*
X1489051Y581001D02*
D03*
Y489001D02*
D03*
X1500551Y466001D02*
D03*
X1489051Y443001D02*
D03*
X1500551Y420001D02*
D03*
X1489051Y397001D02*
D03*
X1500551Y374001D02*
D03*
X1489051Y351001D02*
D03*
Y167001D02*
D03*
Y121001D02*
D03*
X1466051Y903001D02*
D03*
X1477551Y788001D02*
D03*
Y742001D02*
D03*
Y696001D02*
D03*
Y650001D02*
D03*
Y604001D02*
D03*
Y466001D02*
D03*
Y420001D02*
D03*
Y374001D02*
D03*
Y328001D02*
D03*
Y190001D02*
D03*
Y144001D02*
D03*
Y98001D02*
D03*
X1443051Y903001D02*
D03*
X1420051D02*
D03*
X1397051D02*
D03*
X1374051D02*
D03*
X1351051D02*
D03*
X1328051D02*
D03*
X1305051D02*
D03*
X1282051D02*
D03*
X1259051D02*
D03*
X1236051D02*
D03*
X1213051D02*
D03*
X1190051D02*
D03*
X1167051D02*
D03*
X1144051D02*
D03*
X1121051D02*
D03*
X1098051D02*
D03*
X1075051D02*
D03*
X1052051D02*
D03*
X1029051D02*
D03*
X1006050D02*
D03*
X983051D02*
D03*
X960051D02*
D03*
X937050D02*
D03*
X914051D02*
D03*
X891050D02*
D03*
X868051D02*
D03*
X845051D02*
D03*
X822050D02*
D03*
X799051D02*
D03*
X776050D02*
D03*
X753051D02*
D03*
X730051D02*
D03*
X707050D02*
D03*
X684051D02*
D03*
X661050D02*
D03*
X638050D02*
D03*
X615051D02*
D03*
X592051D02*
D03*
X569050D02*
D03*
X546050D02*
D03*
X523050D02*
D03*
X500050D02*
D03*
X477050D02*
D03*
Y581001D02*
D03*
Y535001D02*
D03*
Y489001D02*
D03*
Y443001D02*
D03*
Y397001D02*
D03*
Y351001D02*
D03*
Y305001D02*
D03*
Y259001D02*
D03*
Y213001D02*
D03*
X488550Y98001D02*
D03*
X454050Y903001D02*
D03*
X465550Y604001D02*
D03*
X454050Y581001D02*
D03*
X465550Y558001D02*
D03*
X454050Y535001D02*
D03*
X465550Y512001D02*
D03*
X454050Y489001D02*
D03*
X465550Y466001D02*
D03*
X454050Y443001D02*
D03*
X465550Y420001D02*
D03*
X454050Y397001D02*
D03*
X465550Y374001D02*
D03*
X454050Y351001D02*
D03*
X465550Y328001D02*
D03*
X454050Y305001D02*
D03*
X465550Y282001D02*
D03*
X454050Y259001D02*
D03*
X465550Y236001D02*
D03*
X454050Y213001D02*
D03*
X465550Y190001D02*
D03*
X431050Y903001D02*
D03*
Y397001D02*
D03*
X442550Y374001D02*
D03*
X431050Y351001D02*
D03*
X442550Y328001D02*
D03*
X431050Y305001D02*
D03*
X442550Y282001D02*
D03*
X431050Y259001D02*
D03*
X442550Y236001D02*
D03*
X431050Y213001D02*
D03*
X442550Y190001D02*
D03*
Y144001D02*
D03*
X408050Y903001D02*
D03*
X419550Y374001D02*
D03*
X408050Y351001D02*
D03*
X419550Y328001D02*
D03*
X408050Y305001D02*
D03*
X419550Y282001D02*
D03*
X408050Y259001D02*
D03*
X419550Y236001D02*
D03*
X408050Y213001D02*
D03*
X419550Y190001D02*
D03*
Y144001D02*
D03*
X385050Y903001D02*
D03*
Y765001D02*
D03*
X396550Y328001D02*
D03*
Y282001D02*
D03*
Y236001D02*
D03*
Y190001D02*
D03*
X362050Y903001D02*
D03*
Y811001D02*
D03*
Y765001D02*
D03*
Y627001D02*
D03*
X373550Y604001D02*
D03*
X362050Y581001D02*
D03*
X373550Y558001D02*
D03*
X362050Y535001D02*
D03*
X373550Y512001D02*
D03*
X362050Y489001D02*
D03*
X373550Y466001D02*
D03*
X362050Y443001D02*
D03*
X373550Y420001D02*
D03*
X339050Y903001D02*
D03*
Y811001D02*
D03*
X350550Y788001D02*
D03*
X339050Y765001D02*
D03*
Y673001D02*
D03*
Y627001D02*
D03*
X350550Y604001D02*
D03*
X339050Y581001D02*
D03*
X350550Y558001D02*
D03*
X339050Y535001D02*
D03*
X350550Y512001D02*
D03*
X339050Y489001D02*
D03*
X350550Y466001D02*
D03*
X339050Y443001D02*
D03*
X350550Y420001D02*
D03*
X339050Y397001D02*
D03*
Y351001D02*
D03*
Y305001D02*
D03*
Y259001D02*
D03*
Y213001D02*
D03*
Y121001D02*
D03*
Y-16999D02*
D03*
X316050Y903001D02*
D03*
Y811001D02*
D03*
X327550Y788001D02*
D03*
X316050Y765001D02*
D03*
X327550Y696001D02*
D03*
X316050Y673001D02*
D03*
X327550Y650001D02*
D03*
X316050Y627001D02*
D03*
X327550Y604001D02*
D03*
X316050Y581001D02*
D03*
X327550Y558001D02*
D03*
X316050Y535001D02*
D03*
X327550Y512001D02*
D03*
X316050Y489001D02*
D03*
X327550Y466001D02*
D03*
X316050Y443001D02*
D03*
X327550Y420001D02*
D03*
X316050Y397001D02*
D03*
X327550Y374001D02*
D03*
X316050Y351001D02*
D03*
X327550Y328001D02*
D03*
X316050Y305001D02*
D03*
X327550Y282001D02*
D03*
X316050Y259001D02*
D03*
X327550Y236001D02*
D03*
X316050Y213001D02*
D03*
X327550Y190001D02*
D03*
Y144001D02*
D03*
X316050Y121001D02*
D03*
X327550Y98001D02*
D03*
X316050Y-16999D02*
D03*
X293050Y903001D02*
D03*
Y811001D02*
D03*
X304550Y788001D02*
D03*
X293050Y765001D02*
D03*
X304550Y696001D02*
D03*
X293050Y673001D02*
D03*
X304550Y650001D02*
D03*
X293050Y627001D02*
D03*
X304550Y604001D02*
D03*
X293050Y581001D02*
D03*
X304550Y558001D02*
D03*
X293050Y535001D02*
D03*
X304550Y512001D02*
D03*
X293050Y489001D02*
D03*
X304550Y466001D02*
D03*
X293050Y443001D02*
D03*
X304550Y420001D02*
D03*
X293050Y397001D02*
D03*
X304550Y374001D02*
D03*
X293050Y351001D02*
D03*
X304550Y328001D02*
D03*
X293050Y305001D02*
D03*
X304550Y282001D02*
D03*
X293050Y259001D02*
D03*
X304550Y236001D02*
D03*
X293050Y213001D02*
D03*
X304550Y190001D02*
D03*
Y144001D02*
D03*
X270050Y903001D02*
D03*
Y811001D02*
D03*
X281550Y788001D02*
D03*
X270050Y765001D02*
D03*
X281550Y696001D02*
D03*
X270050Y673001D02*
D03*
X281550Y650001D02*
D03*
X270050Y627001D02*
D03*
X281550Y604001D02*
D03*
X270050Y581001D02*
D03*
X281550Y558001D02*
D03*
X270050Y535001D02*
D03*
X281550Y512001D02*
D03*
X270050Y489001D02*
D03*
X281550Y466001D02*
D03*
X270050Y443001D02*
D03*
X281550Y420001D02*
D03*
X270050Y397001D02*
D03*
X281550Y374001D02*
D03*
X270050Y351001D02*
D03*
X281550Y328001D02*
D03*
X270050Y305001D02*
D03*
X281550Y282001D02*
D03*
X270050Y259001D02*
D03*
X281550Y236001D02*
D03*
X270050Y213001D02*
D03*
X281550Y190001D02*
D03*
Y144001D02*
D03*
X270050Y75001D02*
D03*
X281550Y52001D02*
D03*
X270050Y-16999D02*
D03*
X247050Y903001D02*
D03*
Y811001D02*
D03*
X258550Y788001D02*
D03*
X247050Y765001D02*
D03*
X258550Y650001D02*
D03*
X247050Y627001D02*
D03*
X258550Y604001D02*
D03*
X247050Y581001D02*
D03*
X258550Y558001D02*
D03*
X247050Y535001D02*
D03*
X258550Y512001D02*
D03*
X247050Y489001D02*
D03*
X258550Y466001D02*
D03*
X247050Y443001D02*
D03*
X258550Y420001D02*
D03*
X247050Y397001D02*
D03*
X258550Y374001D02*
D03*
X247050Y351001D02*
D03*
X258550Y328001D02*
D03*
X247050Y305001D02*
D03*
X258550Y282001D02*
D03*
X247050Y259001D02*
D03*
X258550Y236001D02*
D03*
X247050Y213001D02*
D03*
X258550Y190001D02*
D03*
X247050Y75001D02*
D03*
X258550Y52001D02*
D03*
X247050Y-16999D02*
D03*
X224050Y903001D02*
D03*
Y811001D02*
D03*
X235550Y788001D02*
D03*
X224050Y765001D02*
D03*
X235550Y650001D02*
D03*
Y604001D02*
D03*
X224050Y581001D02*
D03*
X235550Y558001D02*
D03*
X224050Y535001D02*
D03*
X235550Y512001D02*
D03*
X224050Y489001D02*
D03*
X235550Y466001D02*
D03*
X224050Y443001D02*
D03*
X235550Y420001D02*
D03*
X224050Y397001D02*
D03*
X235550Y374001D02*
D03*
X224050Y351001D02*
D03*
X235550Y328001D02*
D03*
X224050Y305001D02*
D03*
X235550Y282001D02*
D03*
X224050Y259001D02*
D03*
X235550Y236001D02*
D03*
X224050Y213001D02*
D03*
X235550Y190001D02*
D03*
X224050Y121001D02*
D03*
X235550Y98001D02*
D03*
X224050Y75001D02*
D03*
X235550Y52001D02*
D03*
X224050Y-16999D02*
D03*
X201050Y903001D02*
D03*
X212550Y834001D02*
D03*
Y788001D02*
D03*
Y374001D02*
D03*
X201050Y351001D02*
D03*
X212550Y328001D02*
D03*
X201050Y305001D02*
D03*
X212550Y282001D02*
D03*
X201050Y259001D02*
D03*
X212550Y236001D02*
D03*
X201050Y121001D02*
D03*
X212550Y98001D02*
D03*
X201050Y75001D02*
D03*
X212550Y52001D02*
D03*
X201050Y-16999D02*
D03*
X178050Y903001D02*
D03*
X189550Y834001D02*
D03*
X178050Y811001D02*
D03*
Y765001D02*
D03*
Y627001D02*
D03*
X189550Y328001D02*
D03*
Y282001D02*
D03*
X178050Y259001D02*
D03*
X189550Y236001D02*
D03*
Y144001D02*
D03*
X178050Y121001D02*
D03*
X189550Y98001D02*
D03*
X178050Y75001D02*
D03*
X189550Y52001D02*
D03*
X178050Y-16999D02*
D03*
X155050Y903001D02*
D03*
X166550Y834001D02*
D03*
X155050Y811001D02*
D03*
X166550Y788001D02*
D03*
X155050Y765001D02*
D03*
X166550Y742001D02*
D03*
Y650001D02*
D03*
Y420001D02*
D03*
Y328001D02*
D03*
Y144001D02*
D03*
X155050Y121001D02*
D03*
X166550Y98001D02*
D03*
X155050Y75001D02*
D03*
X166550Y52001D02*
D03*
X155050Y-16999D02*
D03*
X132050Y903001D02*
D03*
X143550Y834001D02*
D03*
X132050Y811001D02*
D03*
X143550Y788001D02*
D03*
X132050Y765001D02*
D03*
Y259001D02*
D03*
Y213001D02*
D03*
X143550Y190001D02*
D03*
Y144001D02*
D03*
X132050Y121001D02*
D03*
X143550Y98001D02*
D03*
X132050Y75001D02*
D03*
X143550Y52001D02*
D03*
X132050Y-16999D02*
D03*
X109050Y903001D02*
D03*
X120550Y834001D02*
D03*
X109050Y811001D02*
D03*
X120550Y788001D02*
D03*
X109050Y765001D02*
D03*
X120550Y742001D02*
D03*
Y374001D02*
D03*
X109050Y351001D02*
D03*
X120550Y282001D02*
D03*
X109050Y259001D02*
D03*
Y213001D02*
D03*
X120550Y190001D02*
D03*
Y144001D02*
D03*
X109050Y121001D02*
D03*
X120550Y98001D02*
D03*
X109050Y75001D02*
D03*
X120550Y52001D02*
D03*
X109050Y-16999D02*
D03*
X86050Y903001D02*
D03*
Y857001D02*
D03*
X97550Y834001D02*
D03*
X86050Y811001D02*
D03*
X97550Y788001D02*
D03*
X86050Y765001D02*
D03*
X97550Y742001D02*
D03*
Y696001D02*
D03*
X86050Y305001D02*
D03*
Y167001D02*
D03*
X97550Y144001D02*
D03*
X86050Y121001D02*
D03*
X97550Y98001D02*
D03*
Y52001D02*
D03*
X86050Y-16999D02*
D03*
X74550Y834001D02*
D03*
Y788001D02*
D03*
X63050Y765001D02*
D03*
X74550Y742001D02*
D03*
Y558001D02*
D03*
X63050Y535001D02*
D03*
Y397001D02*
D03*
X74550Y374001D02*
D03*
X63050Y305001D02*
D03*
Y213001D02*
D03*
X74550Y190001D02*
D03*
X63050Y167001D02*
D03*
X74550Y144001D02*
D03*
X63050Y121001D02*
D03*
X74550Y98001D02*
D03*
X51550Y834001D02*
D03*
Y742001D02*
D03*
Y558001D02*
D03*
X40050Y397001D02*
D03*
Y213001D02*
D03*
X51550Y190001D02*
D03*
X40050Y167001D02*
D03*
X51550Y144001D02*
D03*
Y52001D02*
D03*
X40050Y-16999D02*
D03*
X28550Y742001D02*
D03*
Y696001D02*
D03*
Y558001D02*
D03*
Y512001D02*
D03*
Y374001D02*
D03*
X17050Y213001D02*
D03*
X28550Y190001D02*
D03*
X17050Y167001D02*
D03*
X28550Y144001D02*
D03*
X5550Y742001D02*
D03*
Y374001D02*
D03*
X-5950Y213001D02*
D03*
X5550Y190001D02*
D03*
X-5950Y167001D02*
D03*
X5550Y144001D02*
D03*
X-17450Y236001D02*
D03*
Y190001D02*
D03*
X-28950Y75001D02*
D03*
X-40450Y788001D02*
D03*
Y98001D02*
D03*
X58000Y-10500D02*
D03*
Y30500D02*
D03*
Y860500D02*
D03*
Y899500D02*
D03*
X15750Y567500D02*
D03*
X12500Y593000D02*
D03*
X39500Y599500D02*
D03*
X3500Y617000D02*
D03*
X38750Y616750D02*
D03*
X62000D02*
D03*
X13000Y639250D02*
D03*
X39000Y633750D02*
D03*
X21500Y32250D02*
D03*
X1690760Y540715D02*
D03*
X419000Y596500D02*
D03*
X1548500Y372250D02*
D03*
X1583250Y374250D02*
D03*
X1578750Y363650D02*
D03*
X1699250Y306500D02*
D03*
X1731750Y318000D02*
D03*
X1758250Y307500D02*
D03*
X1766000Y320250D02*
D03*
X476250Y55500D02*
D03*
X490750Y71500D02*
D03*
X201310Y587750D02*
D03*
X185000Y403750D02*
D03*
X200500Y403500D02*
D03*
X107750Y306250D02*
D03*
X82750Y281750D02*
D03*
X59000Y659321D02*
D03*
X22000Y667500D02*
D03*
X36250Y674500D02*
D03*
X40500Y696000D02*
D03*
X11750Y695500D02*
D03*
X-28250Y708750D02*
D03*
X365500Y733250D02*
D03*
X331500Y733500D02*
D03*
X261250Y732250D02*
D03*
X1546000Y694000D02*
D03*
X1548250Y644290D02*
D03*
Y660000D02*
D03*
X1709750Y504000D02*
D03*
X1783500Y833250D02*
D03*
X487750Y834000D02*
D03*
X1836000Y842000D02*
D03*
X1808000Y856750D02*
D03*
X1783250Y849500D02*
D03*
X1777750Y857750D02*
D03*
X204250Y849750D02*
D03*
X399000Y857750D02*
D03*
X484750Y851000D02*
D03*
X498500Y855750D02*
D03*
X300000Y-13250D02*
D03*
X364250Y-20500D02*
D03*
X453000Y57000D02*
D03*
X1563739Y700000D02*
D03*
X1573857D02*
D03*
X1573857Y712000D02*
D03*
X1564000D02*
D03*
X1694250Y42250D02*
D03*
X1590000Y722000D02*
D03*
X1580000Y275000D02*
D03*
X1575000Y270000D02*
D03*
X1585000D02*
D03*
Y280000D02*
D03*
X1575000D02*
D03*
X1754374Y724238D02*
D03*
X1808750Y144750D02*
D03*
X1798750Y152750D02*
D03*
X1993000Y440239D02*
D03*
X1977145Y447247D02*
D03*
X1827250Y741503D02*
D03*
Y703004D02*
D03*
Y659014D02*
D03*
Y615092D02*
D03*
Y582151D02*
D03*
Y544500D02*
D03*
Y515750D02*
D03*
X1706000Y569250D02*
D03*
X1722250Y544750D02*
D03*
X459250Y763750D02*
D03*
X112350Y676487D02*
D03*
X1671000Y636500D02*
D03*
X1558500Y706000D02*
D03*
X1568750D02*
D03*
X1578963D02*
D03*
X446000Y755750D02*
D03*
Y748750D02*
D03*
X1709750Y455000D02*
D03*
X1651500Y580250D02*
D03*
X1649500Y182500D02*
D03*
X1640860Y183185D02*
D03*
X1624000Y58250D02*
D03*
X1509750Y189500D02*
D03*
Y97000D02*
D03*
Y160250D02*
D03*
X1493750Y90000D02*
D03*
X1474000Y213250D02*
D03*
X1499000Y221250D02*
D03*
X1529000Y218000D02*
D03*
X385500Y172250D02*
D03*
X386250Y121500D02*
D03*
X1602290Y168750D02*
D03*
X1745949Y627540D02*
D03*
X1641000Y652125D02*
D03*
X1640500Y504000D02*
D03*
X1614750Y401250D02*
D03*
X1604000Y363750D02*
D03*
X1625750Y572250D02*
D03*
X395000Y156500D02*
D03*
X1798000Y283750D02*
D03*
X1688000Y267000D02*
D03*
X1643000Y70250D02*
D03*
X1473500Y72500D02*
D03*
X1472750Y309000D02*
D03*
X1493750Y193000D02*
D03*
X1472250Y267500D02*
D03*
X1655000Y195000D02*
D03*
X1565500Y259750D02*
D03*
X1615250Y315000D02*
D03*
X1596500D02*
D03*
X1555500D02*
D03*
X1498750Y315750D02*
D03*
X1525000D02*
D03*
X1720000Y280250D02*
D03*
X1808750Y101250D02*
D03*
X1701250Y42250D02*
D03*
X1808750Y107750D02*
D03*
X1649545Y419045D02*
D03*
X1633500Y419000D02*
D03*
X1690750Y207000D02*
D03*
X1600500Y182500D02*
D03*
X1598750Y127000D02*
D03*
X1540250Y192500D02*
D03*
X411000Y561500D02*
D03*
X177250Y242000D02*
D03*
X111500D02*
D03*
X1628462Y267000D02*
D03*
X1584500Y182250D02*
D03*
X1513770Y257500D02*
D03*
X1585000Y252500D02*
D03*
X1597000Y252500D02*
D03*
X1549500Y250500D02*
D03*
X1628212Y297000D02*
D03*
X1582500Y302500D02*
D03*
X1565500Y182500D02*
D03*
X1628212Y237000D02*
D03*
Y207000D02*
D03*
X1513770Y277500D02*
D03*
Y297500D02*
D03*
X1489500D02*
D03*
X1635000Y139500D02*
D03*
X1557500Y147500D02*
D03*
X1585000D02*
D03*
X1687867Y476806D02*
D03*
X1681217Y483456D02*
D03*
X1687867D02*
D03*
X1694493Y476806D02*
D03*
X1681217D02*
D03*
X1694493Y483456D02*
D03*
X1641546Y419045D02*
D03*
X360260Y661860D02*
D03*
X360060Y692060D02*
D03*
Y672060D02*
D03*
Y682060D02*
D03*
X365060Y667060D02*
D03*
X364860Y697260D02*
D03*
Y677260D02*
D03*
Y687260D02*
D03*
X374860Y697260D02*
D03*
Y687260D02*
D03*
X369860Y682260D02*
D03*
Y672260D02*
D03*
X374860Y667260D02*
D03*
Y677260D02*
D03*
X369860Y692260D02*
D03*
X370060Y662060D02*
D03*
X147450Y455000D02*
D03*
X118000Y443500D02*
D03*
X92750Y463250D02*
D03*
X107500Y466250D02*
D03*
X56250Y380750D02*
D03*
X37250Y360750D02*
D03*
X87000Y375000D02*
D03*
X30000Y388750D02*
D03*
X88500Y398000D02*
D03*
X16750Y403000D02*
D03*
X57500Y343250D02*
D03*
X86500Y342750D02*
D03*
X104500Y382000D02*
D03*
X142000Y382250D02*
D03*
X141250Y317500D02*
D03*
X107250Y327000D02*
D03*
X116250Y341250D02*
D03*
X23000Y331750D02*
D03*
X-460Y329250D02*
D03*
X-12550Y331352D02*
D03*
Y345730D02*
D03*
Y371460D02*
D03*
Y382138D02*
D03*
X-750Y390000D02*
D03*
X98380Y415000D02*
D03*
X65500Y422250D02*
D03*
X30000Y421750D02*
D03*
X11500Y441250D02*
D03*
X50500Y437250D02*
D03*
X65500D02*
D03*
X22750D02*
D03*
X1500Y416250D02*
D03*
X-12250Y408000D02*
D03*
X-5500Y429500D02*
D03*
X218000Y735000D02*
D03*
X152500Y737250D02*
D03*
X14750Y734000D02*
D03*
X-10750Y734250D02*
D03*
X145000Y697155D02*
D03*
X115000Y697250D02*
D03*
X176000Y710500D02*
D03*
X133750D02*
D03*
X100000D02*
D03*
X76250Y678750D02*
D03*
Y710500D02*
D03*
X225000D02*
D03*
X112350Y660000D02*
D03*
X160250Y663250D02*
D03*
Y640250D02*
D03*
X159750Y605500D02*
D03*
X200250Y642231D02*
D03*
Y622750D02*
D03*
X177910Y680500D02*
D03*
X160250D02*
D03*
X169018Y595210D02*
D03*
X146450Y617153D02*
D03*
X65250Y633710D02*
D03*
X87000Y615750D02*
D03*
X28000Y545250D02*
D03*
X48750Y525500D02*
D03*
X96250Y534250D02*
D03*
X96862Y559000D02*
D03*
X117500Y535578D02*
D03*
X125000Y544829D02*
D03*
X89950Y574770D02*
D03*
X63000Y581000D02*
D03*
X30250D02*
D03*
X-2250Y545250D02*
D03*
X61000Y513250D02*
D03*
X74750D02*
D03*
X-4703Y448260D02*
D03*
X-7951Y461697D02*
D03*
X86950Y454856D02*
D03*
X125050Y455000D02*
D03*
X140750Y463115D02*
D03*
X159750Y440250D02*
D03*
X161750Y460500D02*
D03*
Y485000D02*
D03*
Y510000D02*
D03*
Y534500D02*
D03*
Y558750D02*
D03*
Y578750D02*
D03*
X17750Y504500D02*
D03*
X6000Y495000D02*
D03*
X18500Y481500D02*
D03*
X34250Y477000D02*
D03*
X43750Y468500D02*
D03*
X64750Y476750D02*
D03*
X68250Y468500D02*
D03*
X16500D02*
D03*
X-2500Y481750D02*
D03*
X-8500Y497000D02*
D03*
X6000Y516250D02*
D03*
X27000Y495250D02*
D03*
X44000Y491500D02*
D03*
X64750D02*
D03*
X43000Y506000D02*
D03*
X21500Y528750D02*
D03*
X-4750D02*
D03*
X-12550Y609239D02*
D03*
Y624213D02*
D03*
X107000Y625500D02*
D03*
X113603Y607000D02*
D03*
X125050Y613391D02*
D03*
X33750Y710500D02*
D03*
X59000Y675750D02*
D03*
X6750Y680500D02*
D03*
X31250Y651250D02*
D03*
X65250D02*
D03*
X6250Y710500D02*
D03*
X59000D02*
D03*
X-9000Y697000D02*
D03*
X-9500Y666500D02*
D03*
X-8500Y648000D02*
D03*
X-11500Y585250D02*
D03*
Y568000D02*
D03*
X65500Y601000D02*
D03*
X1591763Y572238D02*
D03*
X1580500Y651250D02*
D03*
Y533750D02*
D03*
Y553250D02*
D03*
X1591763Y559525D02*
D03*
X1775750Y489750D02*
D03*
X1442750Y210750D02*
D03*
X165000Y304500D02*
D03*
X1643371Y546825D02*
D03*
X1691000Y654000D02*
D03*
X131000Y304500D02*
D03*
X1754250Y550500D02*
D03*
X1765750Y635410D02*
D03*
X1754374Y659830D02*
D03*
X1765000Y692500D02*
D03*
X1754374Y697544D02*
D03*
X125000Y690000D02*
D03*
X107380Y530038D02*
D03*
X42500Y274739D02*
D03*
X-24111Y297029D02*
D03*
X-6000Y317000D02*
D03*
X-24050Y457000D02*
D03*
X1754374Y600972D02*
D03*
X1862500Y620000D02*
D03*
Y590000D02*
D03*
X1867500Y605000D02*
D03*
Y615000D02*
D03*
X1862500Y580000D02*
D03*
Y610000D02*
D03*
Y600000D02*
D03*
X1867500Y595000D02*
D03*
Y585000D02*
D03*
X99731Y451718D02*
D03*
X100000Y570000D02*
D03*
X-24050Y417000D02*
D03*
X-24050Y337000D02*
D03*
X1030070Y580000D02*
D03*
X1430491Y186376D02*
D03*
X1012500Y614428D02*
D03*
X-24050Y377000D02*
D03*
Y617000D02*
D03*
Y697000D02*
D03*
Y657000D02*
D03*
Y497000D02*
D03*
Y537000D02*
D03*
Y577000D02*
D03*
D45*
X560000Y770000D02*
D03*
X16000Y800000D02*
D03*
X20000Y90000D02*
D03*
X420000D02*
D03*
X560000Y122000D02*
D03*
X1716000D02*
D03*
Y770000D02*
D03*
X420000Y800000D02*
D03*
D46*
X1820000Y790000D02*
D03*
X1800000D02*
D03*
X1820000Y770000D02*
D03*
X1800000D02*
D03*
D47*
X1938000Y342000D02*
D03*
Y392000D02*
D03*
X1858000D02*
D03*
Y342000D02*
D03*
Y263000D02*
D03*
Y213000D02*
D03*
X1938000D02*
D03*
Y263000D02*
D03*
D48*
X1903000Y470000D02*
D03*
Y500000D02*
D03*
Y530000D02*
D03*
Y560000D02*
D03*
Y590000D02*
D03*
Y620000D02*
D03*
Y650000D02*
D03*
Y680000D02*
D03*
X1933000Y470000D02*
D03*
Y500000D02*
D03*
Y530000D02*
D03*
Y560000D02*
D03*
Y590000D02*
D03*
Y620000D02*
D03*
Y650000D02*
D03*
Y680000D02*
D03*
D49*
X1888500Y425000D02*
D03*
Y725000D02*
D03*
D50*
X1376700Y15150D02*
D03*
X1321300D02*
D03*
X721300Y873850D02*
D03*
X776700D02*
D03*
X176700D02*
D03*
X121300D02*
D03*
Y15150D02*
D03*
X176700D02*
D03*
X776700D02*
D03*
X721300D02*
D03*
X1321300Y873850D02*
D03*
X1376700D02*
D03*
X1976700Y15150D02*
D03*
X1921300D02*
D03*
Y873850D02*
D03*
X1976700D02*
D03*
M02*
