G04*
G04 #@! TF.GenerationSoftware,Altium Limited,Altium Designer,25.4.2 (15)*
G04*
G04 Layer_Color=16711935*
%FSLAX44Y44*%
%MOMM*%
G71*
G04*
G04 #@! TF.SameCoordinates,CE68B810-5A0D-45E5-B586-DEE00FE4B9C3*
G04*
G04*
G04 #@! TF.FilePolarity,Negative*
G04*
G01*
G75*
%ADD13C,0.1778*%
%ADD14R,217.3700X2.5000*%
%ADD15R,217.3701X2.5000*%
%ADD16R,0.6800X1.0800*%
%ADD19C,5.5300*%
%ADD21C,1.7300*%
%ADD22C,0.6300*%
%ADD24C,1.5540*%
%ADD25O,3.0300X4.0300*%
%ADD27C,1.6000*%
%ADD28C,1.0000*%
%ADD87R,0.9800X1.0300*%
%ADD88R,0.9300X1.0300*%
%ADD89R,2.1800X2.2300*%
%ADD90R,1.8300X1.1300*%
%ADD91R,1.0300X0.9300*%
%ADD92R,7.6500X4.3000*%
%ADD93R,1.7100X4.3000*%
%ADD94R,2.2300X2.1800*%
%ADD95R,1.0800X0.6800*%
%ADD96R,1.5800X0.6300*%
%ADD97R,0.4300X0.4300*%
%ADD98R,0.7300X0.8300*%
%ADD99R,0.6700X1.0500*%
%ADD100R,0.6300X1.1300*%
%ADD101R,1.1300X0.6300*%
%ADD102R,2.5050X0.5550*%
%ADD103R,3.0300X0.8800*%
%ADD104R,1.2800X0.7300*%
%ADD105R,1.3800X0.7300*%
G04:AMPARAMS|DCode=106|XSize=0.63mm|YSize=0.27mm|CornerRadius=0.075mm|HoleSize=0mm|Usage=FLASHONLY|Rotation=0.000|XOffset=0mm|YOffset=0mm|HoleType=Round|Shape=RoundedRectangle|*
%AMROUNDEDRECTD106*
21,1,0.6300,0.1200,0,0,0.0*
21,1,0.4800,0.2700,0,0,0.0*
1,1,0.1500,0.2400,-0.0600*
1,1,0.1500,-0.2400,-0.0600*
1,1,0.1500,-0.2400,0.0600*
1,1,0.1500,0.2400,0.0600*
%
%ADD106ROUNDEDRECTD106*%
G04:AMPARAMS|DCode=107|XSize=0.63mm|YSize=0.27mm|CornerRadius=0.075mm|HoleSize=0mm|Usage=FLASHONLY|Rotation=270.000|XOffset=0mm|YOffset=0mm|HoleType=Round|Shape=RoundedRectangle|*
%AMROUNDEDRECTD107*
21,1,0.6300,0.1200,0,0,270.0*
21,1,0.4800,0.2700,0,0,270.0*
1,1,0.1500,-0.0600,-0.2400*
1,1,0.1500,-0.0600,0.2400*
1,1,0.1500,0.0600,0.2400*
1,1,0.1500,0.0600,-0.2400*
%
%ADD107ROUNDEDRECTD107*%
%ADD108R,1.7100X1.7100*%
%ADD109R,1.0800X0.6300*%
%ADD110R,1.5800X0.4300*%
%ADD111R,0.6300X1.5800*%
%ADD112P,2.8284X4X180.0*%
%ADD113R,0.4900X0.8700*%
%ADD114R,0.5300X0.7800*%
%ADD115R,1.0300X0.9800*%
%ADD116C,4.7300*%
%ADD117C,7.7300*%
%ADD118C,2.2300*%
G36*
X1687635Y464642D02*
X1687671Y464627D01*
X1687702Y464603D01*
X1687726Y464572D01*
X1687742Y464535D01*
X1687747Y464496D01*
Y445496D01*
X1687742Y445457D01*
X1687726Y445420D01*
X1687702Y445389D01*
X1687671Y445365D01*
X1687635Y445350D01*
X1687596Y445345D01*
X1687556Y445350D01*
X1687535Y445359D01*
X1687520Y445365D01*
X1687489Y445389D01*
X1682238Y450639D01*
X1682215Y450670D01*
X1682199Y450707D01*
X1682194Y450746D01*
Y459246D01*
X1682199Y459285D01*
X1682215Y459322D01*
X1682238Y459353D01*
X1687489Y464603D01*
X1687520Y464627D01*
X1687556Y464642D01*
X1687596Y464647D01*
X1687635Y464642D01*
D02*
G37*
D13*
X1457105Y-176564D02*
Y-195610D01*
Y-176564D02*
X1448943D01*
X1446222Y-177471D01*
X1445315Y-178378D01*
X1444408Y-180192D01*
Y-182006D01*
X1445315Y-183820D01*
X1446222Y-184727D01*
X1448943Y-185634D01*
X1457105D02*
X1448943D01*
X1446222Y-186541D01*
X1445315Y-187447D01*
X1444408Y-189261D01*
Y-191982D01*
X1445315Y-193796D01*
X1446222Y-194703D01*
X1448943Y-195610D01*
X1457105D01*
X1435611Y-182913D02*
X1437424Y-183820D01*
X1439238Y-185634D01*
X1440145Y-188354D01*
Y-190168D01*
X1439238Y-192889D01*
X1437424Y-194703D01*
X1435611Y-195610D01*
X1432890D01*
X1431076Y-194703D01*
X1429262Y-192889D01*
X1428355Y-190168D01*
Y-188354D01*
X1429262Y-185634D01*
X1431076Y-183820D01*
X1432890Y-182913D01*
X1435611D01*
X1421462Y-176564D02*
Y-191982D01*
X1420555Y-194703D01*
X1418741Y-195610D01*
X1416927D01*
X1424183Y-182913D02*
X1417834D01*
X1411486Y-176564D02*
Y-191982D01*
X1410579Y-194703D01*
X1408765Y-195610D01*
X1406951D01*
X1414207Y-182913D02*
X1407858D01*
X1399695D02*
X1401509Y-183820D01*
X1403323Y-185634D01*
X1404230Y-188354D01*
Y-190168D01*
X1403323Y-192889D01*
X1401509Y-194703D01*
X1399695Y-195610D01*
X1396974D01*
X1395161Y-194703D01*
X1393347Y-192889D01*
X1392440Y-190168D01*
Y-188354D01*
X1393347Y-185634D01*
X1395161Y-183820D01*
X1396974Y-182913D01*
X1399695D01*
X1388268D02*
Y-195610D01*
Y-186541D02*
X1385547Y-183820D01*
X1383733Y-182913D01*
X1381012D01*
X1379198Y-183820D01*
X1378291Y-186541D01*
Y-195610D01*
Y-186541D02*
X1375571Y-183820D01*
X1373757Y-182913D01*
X1371036D01*
X1369222Y-183820D01*
X1368315Y-186541D01*
Y-195610D01*
X1334667Y-179285D02*
X1336481Y-177471D01*
X1339202Y-176564D01*
X1342830D01*
X1345551Y-177471D01*
X1347365Y-179285D01*
Y-181099D01*
X1346458Y-182913D01*
X1345551Y-183820D01*
X1343737Y-184727D01*
X1338295Y-186541D01*
X1336481Y-187447D01*
X1335574Y-188354D01*
X1334667Y-190168D01*
Y-192889D01*
X1336481Y-194703D01*
X1339202Y-195610D01*
X1342830D01*
X1345551Y-194703D01*
X1347365Y-192889D01*
X1325870Y-182913D02*
X1327684Y-183820D01*
X1329498Y-185634D01*
X1330405Y-188354D01*
Y-190168D01*
X1329498Y-192889D01*
X1327684Y-194703D01*
X1325870Y-195610D01*
X1323149D01*
X1321335Y-194703D01*
X1319521Y-192889D01*
X1318614Y-190168D01*
Y-188354D01*
X1319521Y-185634D01*
X1321335Y-183820D01*
X1323149Y-182913D01*
X1325870D01*
X1314442Y-176564D02*
Y-195610D01*
X1299568Y-176564D02*
Y-195610D01*
Y-185634D02*
X1301382Y-183820D01*
X1303196Y-182913D01*
X1305917D01*
X1307731Y-183820D01*
X1309545Y-185634D01*
X1310452Y-188354D01*
Y-190168D01*
X1309545Y-192889D01*
X1307731Y-194703D01*
X1305917Y-195610D01*
X1303196D01*
X1301382Y-194703D01*
X1299568Y-192889D01*
X1294489Y-188354D02*
X1283606D01*
Y-186541D01*
X1284513Y-184727D01*
X1285420Y-183820D01*
X1287234Y-182913D01*
X1289955D01*
X1291768Y-183820D01*
X1293582Y-185634D01*
X1294489Y-188354D01*
Y-190168D01*
X1293582Y-192889D01*
X1291768Y-194703D01*
X1289955Y-195610D01*
X1287234D01*
X1285420Y-194703D01*
X1283606Y-192889D01*
X1279525Y-182913D02*
Y-195610D01*
Y-188354D02*
X1278618Y-185634D01*
X1276804Y-183820D01*
X1274990Y-182913D01*
X1272269D01*
D14*
X1051150Y932000D02*
D03*
D15*
X1051150Y-43000D02*
D03*
D16*
X33000Y319000D02*
D03*
X52000D02*
D03*
X42500Y296000D02*
D03*
D19*
X0Y0D02*
D03*
Y889000D02*
D03*
D21*
X2017200Y781100D02*
D03*
X2042600D02*
D03*
X2068000D02*
D03*
X2093400D02*
D03*
Y755700D02*
D03*
X2068000D02*
D03*
X2042600D02*
D03*
X2017200D02*
D03*
X2093400Y704900D02*
D03*
X2068000D02*
D03*
X2042600D02*
D03*
X2017200D02*
D03*
Y679500D02*
D03*
X2042600D02*
D03*
X2068000D02*
D03*
X2093400D02*
D03*
Y628700D02*
D03*
X2068000D02*
D03*
X2042600D02*
D03*
X2017200D02*
D03*
Y603300D02*
D03*
X2042600D02*
D03*
X2068000D02*
D03*
X2093400D02*
D03*
Y565200D02*
D03*
X2068000D02*
D03*
X2042600D02*
D03*
X2017200D02*
D03*
Y539800D02*
D03*
X2042600D02*
D03*
X2068000D02*
D03*
X2093400D02*
D03*
Y501700D02*
D03*
X2068000D02*
D03*
X2042600D02*
D03*
X2017200D02*
D03*
Y476300D02*
D03*
X2042600D02*
D03*
X2068000D02*
D03*
X2093400D02*
D03*
X2017200Y444500D02*
D03*
X2042600D02*
D03*
X2068000D02*
D03*
X2093400D02*
D03*
X2017200Y419100D02*
D03*
X2042600D02*
D03*
X2068000D02*
D03*
X2093400D02*
D03*
X2017200Y393700D02*
D03*
X2042600D02*
D03*
X2068000D02*
D03*
X2093400D02*
D03*
X2017200Y368300D02*
D03*
X2042600D02*
D03*
X2068000D02*
D03*
X2093400D02*
D03*
X2017200Y342900D02*
D03*
X2042600D02*
D03*
X2068000D02*
D03*
X2093400D02*
D03*
X2017200Y317500D02*
D03*
X2042600D02*
D03*
X2068000D02*
D03*
X2093400D02*
D03*
X2068000Y285700D02*
D03*
X2042600D02*
D03*
X2017200D02*
D03*
Y260300D02*
D03*
X2042600D02*
D03*
X2068000D02*
D03*
X2093400D02*
D03*
Y285700D02*
D03*
Y234900D02*
D03*
X2068000D02*
D03*
X2042600D02*
D03*
X2017200D02*
D03*
Y209500D02*
D03*
X2042600D02*
D03*
X2068000D02*
D03*
X2093400D02*
D03*
Y184100D02*
D03*
X2068000D02*
D03*
X2042600D02*
D03*
X2017200D02*
D03*
Y158700D02*
D03*
X2042600D02*
D03*
X2068000D02*
D03*
X2093400D02*
D03*
Y133300D02*
D03*
X2068000D02*
D03*
X2042600D02*
D03*
X2017200D02*
D03*
Y107900D02*
D03*
X2042600D02*
D03*
X2068000D02*
D03*
X2093400D02*
D03*
D22*
X530000Y770000D02*
D03*
X538787Y748787D02*
D03*
X560000Y740000D02*
D03*
X581213Y748787D02*
D03*
X590000Y770000D02*
D03*
X581213Y791213D02*
D03*
X560000Y800000D02*
D03*
X538787Y791213D02*
D03*
X16000Y830000D02*
D03*
X-5213Y821213D02*
D03*
X-14000Y800000D02*
D03*
X-5213Y778787D02*
D03*
X16000Y770000D02*
D03*
X37213Y778787D02*
D03*
X46000Y800000D02*
D03*
X37213Y821213D02*
D03*
X20000Y120000D02*
D03*
X-1213Y111213D02*
D03*
X-10000Y90000D02*
D03*
X-1213Y68787D02*
D03*
X20000Y60000D02*
D03*
X41213Y68787D02*
D03*
X50000Y90000D02*
D03*
X41213Y111213D02*
D03*
X441213D02*
D03*
X450000Y90000D02*
D03*
X441213Y68787D02*
D03*
X420000Y60000D02*
D03*
X398787Y68787D02*
D03*
X390000Y90000D02*
D03*
X398787Y111213D02*
D03*
X420000Y120000D02*
D03*
X560000Y92000D02*
D03*
X581213Y100787D02*
D03*
X590000Y122000D02*
D03*
X581213Y143213D02*
D03*
X560000Y152000D02*
D03*
X538787Y143213D02*
D03*
X530000Y122000D02*
D03*
X538787Y100787D02*
D03*
X1694787D02*
D03*
X1686000Y122000D02*
D03*
X1694787Y143213D02*
D03*
X1716000Y152000D02*
D03*
X1737213Y143213D02*
D03*
X1746000Y122000D02*
D03*
X1737213Y100787D02*
D03*
X1716000Y92000D02*
D03*
X1694787Y748787D02*
D03*
X1686000Y770000D02*
D03*
X1694787Y791213D02*
D03*
X1716000Y800000D02*
D03*
X1737213Y791213D02*
D03*
X1746000Y770000D02*
D03*
X1737213Y748787D02*
D03*
X1716000Y740000D02*
D03*
X441213Y821213D02*
D03*
X450000Y800000D02*
D03*
X441213Y778787D02*
D03*
X420000Y770000D02*
D03*
X398787Y778787D02*
D03*
X390000Y800000D02*
D03*
X398787Y821213D02*
D03*
X420000Y830000D02*
D03*
X1580000Y275000D02*
D03*
X1575000Y270000D02*
D03*
X1585000D02*
D03*
Y280000D02*
D03*
X1575000D02*
D03*
D24*
X1820000Y790000D02*
D03*
X1800000D02*
D03*
X1820000Y770000D02*
D03*
X1800000D02*
D03*
D25*
X1938000Y342000D02*
D03*
Y392000D02*
D03*
X1858000D02*
D03*
Y342000D02*
D03*
Y263000D02*
D03*
Y213000D02*
D03*
X1938000D02*
D03*
Y263000D02*
D03*
D27*
X1888500Y425000D02*
D03*
Y725000D02*
D03*
D28*
X1376700Y15150D02*
D03*
X1321300D02*
D03*
X721300Y873850D02*
D03*
X776700D02*
D03*
X176700D02*
D03*
X121300D02*
D03*
Y15150D02*
D03*
X176700D02*
D03*
X776700D02*
D03*
X721300D02*
D03*
X1321300Y873850D02*
D03*
X1376700D02*
D03*
X1976700Y15150D02*
D03*
X1921300D02*
D03*
Y873850D02*
D03*
X1976700D02*
D03*
D87*
X42000Y871000D02*
D03*
X58000D02*
D03*
X42000Y0D02*
D03*
X58000D02*
D03*
X1584500Y240000D02*
D03*
X1600500D02*
D03*
X427000Y572000D02*
D03*
X411000D02*
D03*
Y628500D02*
D03*
X427000D02*
D03*
X1574500Y173750D02*
D03*
X1590500D02*
D03*
X1505500Y267500D02*
D03*
X1489500D02*
D03*
X1600500Y192500D02*
D03*
X1584500D02*
D03*
Y210000D02*
D03*
X1600500D02*
D03*
X1549500D02*
D03*
X1565500D02*
D03*
X1641000Y516551D02*
D03*
X1657000D02*
D03*
X1641000Y636551D02*
D03*
X1657000D02*
D03*
X1656996Y439992D02*
D03*
X1640995D02*
D03*
Y469996D02*
D03*
X1656996D02*
D03*
X1565500Y192500D02*
D03*
X1549500D02*
D03*
X1642000Y405000D02*
D03*
X1658000D02*
D03*
X1754500Y532500D02*
D03*
X1770500D02*
D03*
X1754500Y650000D02*
D03*
X1770500D02*
D03*
X1754500Y590500D02*
D03*
X1770500D02*
D03*
X1754500Y710000D02*
D03*
X1770500D02*
D03*
X1565500Y240000D02*
D03*
X1549500D02*
D03*
D88*
X42000Y889000D02*
D03*
X58000D02*
D03*
X42000Y20000D02*
D03*
X58000D02*
D03*
X1522000Y257500D02*
D03*
X1538000D02*
D03*
X1522000Y297500D02*
D03*
X1538000D02*
D03*
X1522000Y277500D02*
D03*
X1538000D02*
D03*
X1860500Y94250D02*
D03*
X1844500D02*
D03*
X1860500Y155750D02*
D03*
X1844500D02*
D03*
X1489500Y287500D02*
D03*
X1505500D02*
D03*
X1588000Y120000D02*
D03*
X1572000D02*
D03*
X1558000D02*
D03*
X1542000D02*
D03*
X1717186Y483456D02*
D03*
X1733186D02*
D03*
X1489500Y247750D02*
D03*
X1505500D02*
D03*
X-33050Y557000D02*
D03*
X-17050D02*
D03*
X-33050Y597000D02*
D03*
X-17050D02*
D03*
X-33050Y317000D02*
D03*
X-17050D02*
D03*
X1695867Y636750D02*
D03*
X1679867D02*
D03*
X1695867Y516551D02*
D03*
X1679867D02*
D03*
X-33050Y397000D02*
D03*
X-17050D02*
D03*
X-33050Y437000D02*
D03*
X-17050D02*
D03*
X-33050Y477000D02*
D03*
X-17050D02*
D03*
X-33050Y517000D02*
D03*
X-17050D02*
D03*
X1609500Y120000D02*
D03*
X1625500D02*
D03*
X-33050Y637000D02*
D03*
X-17050D02*
D03*
X159500Y695000D02*
D03*
X175500D02*
D03*
X-33000Y677000D02*
D03*
X-17000D02*
D03*
X-33050Y357000D02*
D03*
X-17050D02*
D03*
D89*
X484000Y633000D02*
D03*
Y677000D02*
D03*
D90*
X435000Y681000D02*
D03*
X405000D02*
D03*
Y694500D02*
D03*
X435000Y695000D02*
D03*
D91*
X405000Y642000D02*
D03*
Y658000D02*
D03*
X435000Y642000D02*
D03*
Y658000D02*
D03*
X1660000Y313000D02*
D03*
Y297000D02*
D03*
Y283000D02*
D03*
Y267000D02*
D03*
Y253000D02*
D03*
Y237000D02*
D03*
Y223000D02*
D03*
Y207000D02*
D03*
X1680000Y313000D02*
D03*
Y297000D02*
D03*
Y283000D02*
D03*
Y267000D02*
D03*
Y253000D02*
D03*
Y237000D02*
D03*
Y223000D02*
D03*
Y207000D02*
D03*
X137500Y554500D02*
D03*
Y570500D02*
D03*
X112500Y554500D02*
D03*
Y570500D02*
D03*
X1770000Y544500D02*
D03*
Y560500D02*
D03*
X1770000Y662000D02*
D03*
Y678000D02*
D03*
X1770000Y604500D02*
D03*
Y620500D02*
D03*
X1770000Y724000D02*
D03*
Y740000D02*
D03*
X1632500Y613000D02*
D03*
Y597000D02*
D03*
Y732573D02*
D03*
Y716573D02*
D03*
X1650273Y613239D02*
D03*
Y597239D02*
D03*
Y732311D02*
D03*
Y716311D02*
D03*
X137500Y394500D02*
D03*
Y410500D02*
D03*
X112500Y394500D02*
D03*
Y410500D02*
D03*
X107500Y520500D02*
D03*
Y504500D02*
D03*
X125000D02*
D03*
Y520500D02*
D03*
X1610000Y139500D02*
D03*
Y155500D02*
D03*
X125000Y680500D02*
D03*
Y664500D02*
D03*
X140000D02*
D03*
Y680500D02*
D03*
X190000Y695500D02*
D03*
Y679500D02*
D03*
X205000D02*
D03*
Y695500D02*
D03*
X220000D02*
D03*
Y679500D02*
D03*
X235000Y695500D02*
D03*
Y679500D02*
D03*
X250000Y695500D02*
D03*
Y679500D02*
D03*
X12500Y290500D02*
D03*
Y274500D02*
D03*
Y302000D02*
D03*
Y318000D02*
D03*
Y258000D02*
D03*
Y242000D02*
D03*
D92*
X1941450Y94250D02*
D03*
Y155750D02*
D03*
D93*
X1888850D02*
D03*
Y94250D02*
D03*
D94*
X1926250Y42500D02*
D03*
X1970250D02*
D03*
D95*
X1498500Y670500D02*
D03*
Y689500D02*
D03*
X1521500Y680000D02*
D03*
Y654500D02*
D03*
Y635500D02*
D03*
X1498500Y645000D02*
D03*
D96*
X1847000Y559050D02*
D03*
Y546350D02*
D03*
Y533650D02*
D03*
Y520950D02*
D03*
X1793000Y559050D02*
D03*
Y546350D02*
D03*
Y533650D02*
D03*
Y520950D02*
D03*
X1847000Y679050D02*
D03*
Y666350D02*
D03*
Y653650D02*
D03*
Y640950D02*
D03*
X1793000Y679050D02*
D03*
Y666350D02*
D03*
Y653650D02*
D03*
Y640950D02*
D03*
X1847000Y619050D02*
D03*
Y606350D02*
D03*
Y593650D02*
D03*
Y580950D02*
D03*
X1793000Y619050D02*
D03*
Y606350D02*
D03*
Y593650D02*
D03*
Y580950D02*
D03*
X1847000Y739050D02*
D03*
Y726350D02*
D03*
Y713650D02*
D03*
Y700950D02*
D03*
X1793000Y739050D02*
D03*
Y726350D02*
D03*
Y713650D02*
D03*
Y700950D02*
D03*
X1623000Y350950D02*
D03*
Y363650D02*
D03*
Y376350D02*
D03*
Y389050D02*
D03*
X1677000Y350950D02*
D03*
Y363650D02*
D03*
Y376350D02*
D03*
Y389050D02*
D03*
D97*
X-54750Y407000D02*
D03*
Y447000D02*
D03*
Y327000D02*
D03*
Y487000D02*
D03*
Y527000D02*
D03*
Y567000D02*
D03*
Y607000D02*
D03*
Y647000D02*
D03*
Y687000D02*
D03*
X-54750Y287000D02*
D03*
X-54750Y367000D02*
D03*
D98*
X-51250Y417000D02*
D03*
Y397000D02*
D03*
Y457000D02*
D03*
Y437000D02*
D03*
Y337000D02*
D03*
Y317000D02*
D03*
Y497000D02*
D03*
Y477000D02*
D03*
Y537000D02*
D03*
Y517000D02*
D03*
Y577000D02*
D03*
Y557000D02*
D03*
Y617000D02*
D03*
Y597000D02*
D03*
Y657000D02*
D03*
Y637000D02*
D03*
Y697000D02*
D03*
Y677000D02*
D03*
X-51250Y277000D02*
D03*
Y297000D02*
D03*
X-51250Y377000D02*
D03*
Y357000D02*
D03*
D99*
X1563900Y225000D02*
D03*
X1551100D02*
D03*
X1598900D02*
D03*
X1586100D02*
D03*
D100*
X1825500Y138000D02*
D03*
X1835000D02*
D03*
X1844500D02*
D03*
Y112000D02*
D03*
X1825500D02*
D03*
D101*
X406000Y590500D02*
D03*
Y600000D02*
D03*
Y609500D02*
D03*
X432000D02*
D03*
Y590500D02*
D03*
D102*
X1699921Y461871D02*
D03*
Y448121D02*
D03*
D103*
X1697296Y454996D02*
D03*
D104*
X1675096Y469996D02*
D03*
Y439996D02*
D03*
D105*
X1675596Y454996D02*
D03*
D106*
X1566000Y267500D02*
D03*
Y272500D02*
D03*
Y277500D02*
D03*
Y282500D02*
D03*
X1594000Y267500D02*
D03*
Y282500D02*
D03*
Y277500D02*
D03*
Y272500D02*
D03*
D107*
X1572500Y289000D02*
D03*
X1577500D02*
D03*
X1582500D02*
D03*
X1587500D02*
D03*
Y261000D02*
D03*
X1582500D02*
D03*
X1577500D02*
D03*
X1572500D02*
D03*
D108*
X1580000Y275000D02*
D03*
D109*
X1566500Y157000D02*
D03*
Y147500D02*
D03*
Y138000D02*
D03*
X1593500D02*
D03*
Y147500D02*
D03*
Y157000D02*
D03*
D110*
X1657000Y572225D02*
D03*
Y565875D02*
D03*
Y559525D02*
D03*
Y553175D02*
D03*
Y546825D02*
D03*
Y540475D02*
D03*
Y534125D02*
D03*
Y527775D02*
D03*
X1603000D02*
D03*
Y534125D02*
D03*
Y540475D02*
D03*
Y546825D02*
D03*
Y553175D02*
D03*
Y559525D02*
D03*
Y565875D02*
D03*
Y572225D02*
D03*
X1657000Y692225D02*
D03*
Y685875D02*
D03*
Y679525D02*
D03*
Y673175D02*
D03*
Y666825D02*
D03*
Y660475D02*
D03*
Y654125D02*
D03*
Y647775D02*
D03*
X1603000D02*
D03*
Y654125D02*
D03*
Y660475D02*
D03*
Y666825D02*
D03*
Y673175D02*
D03*
Y679525D02*
D03*
Y685875D02*
D03*
Y692225D02*
D03*
D111*
X150450Y430000D02*
D03*
X137750D02*
D03*
X125050D02*
D03*
X112350D02*
D03*
X99650D02*
D03*
X86950D02*
D03*
X74250D02*
D03*
X150450Y484000D02*
D03*
X137750D02*
D03*
X125050D02*
D03*
X112350D02*
D03*
X99650D02*
D03*
X86950D02*
D03*
X74250D02*
D03*
X183450Y659500D02*
D03*
X196150D02*
D03*
X208850D02*
D03*
X221550D02*
D03*
X183450Y605500D02*
D03*
X196150D02*
D03*
X208850D02*
D03*
X221550D02*
D03*
X150450Y590000D02*
D03*
X137750D02*
D03*
X125050D02*
D03*
X112350D02*
D03*
X99650D02*
D03*
X86950D02*
D03*
X74250D02*
D03*
X150450Y644000D02*
D03*
X137750D02*
D03*
X125050D02*
D03*
X112350D02*
D03*
X99650D02*
D03*
X86950D02*
D03*
X74250D02*
D03*
D112*
X2000000Y5000D02*
D03*
X220000Y874000D02*
D03*
D113*
X42500Y241100D02*
D03*
Y263900D02*
D03*
D114*
X12500Y347000D02*
D03*
Y333000D02*
D03*
D115*
X1808750Y117000D02*
D03*
Y133000D02*
D03*
X1861750D02*
D03*
Y117000D02*
D03*
X1640000Y313000D02*
D03*
Y297000D02*
D03*
Y282750D02*
D03*
Y266750D02*
D03*
Y253000D02*
D03*
Y237000D02*
D03*
Y223000D02*
D03*
Y207000D02*
D03*
X65000Y258000D02*
D03*
Y242000D02*
D03*
X1625000Y155500D02*
D03*
Y139500D02*
D03*
X1560000Y563000D02*
D03*
Y547000D02*
D03*
Y683000D02*
D03*
Y667000D02*
D03*
Y517000D02*
D03*
Y533000D02*
D03*
Y637000D02*
D03*
Y653000D02*
D03*
X87500Y504500D02*
D03*
Y520500D02*
D03*
X100000Y664500D02*
D03*
Y680500D02*
D03*
D116*
X2068000Y844550D02*
D03*
Y44450D02*
D03*
D117*
X560000Y770000D02*
D03*
X16000Y800000D02*
D03*
X20000Y90000D02*
D03*
X420000D02*
D03*
X560000Y122000D02*
D03*
X1716000D02*
D03*
Y770000D02*
D03*
X420000Y800000D02*
D03*
D118*
X1903000Y470000D02*
D03*
Y500000D02*
D03*
Y530000D02*
D03*
Y560000D02*
D03*
Y590000D02*
D03*
Y620000D02*
D03*
Y650000D02*
D03*
Y680000D02*
D03*
X1933000Y470000D02*
D03*
Y500000D02*
D03*
Y530000D02*
D03*
Y560000D02*
D03*
Y590000D02*
D03*
Y620000D02*
D03*
Y650000D02*
D03*
Y680000D02*
D03*
M02*
