G04*
G04 #@! TF.GenerationSoftware,Altium Limited,Altium Designer,25.4.2 (15)*
G04*
G04 Layer_Color=32896*
%FSLAX44Y44*%
%MOMM*%
G71*
G04*
G04 #@! TF.SameCoordinates,6164A7E8-02EB-4E8E-94B8-B95099DD165E*
G04*
G04*
G04 #@! TF.FilePolarity,Positive*
G04*
G01*
G75*
%ADD10C,0.2000*%
%ADD11C,0.2500*%
%ADD12C,0.1524*%
%ADD39C,0.5000*%
%ADD149C,0.4000*%
G36*
X917087Y271634D02*
X917335D01*
Y271386D01*
Y271138D01*
Y270891D01*
X917582D01*
Y270643D01*
Y270396D01*
Y270148D01*
X917830D01*
Y269900D01*
Y269653D01*
Y269405D01*
X918077D01*
Y269158D01*
Y268910D01*
Y268663D01*
X918325D01*
Y268415D01*
Y268167D01*
Y267920D01*
X918573D01*
Y267672D01*
Y267425D01*
X918820D01*
Y267177D01*
Y266929D01*
Y266682D01*
X919068D01*
Y266434D01*
Y266187D01*
Y265939D01*
X919315D01*
Y265691D01*
Y265444D01*
Y265196D01*
X919563D01*
Y264949D01*
Y264701D01*
Y264454D01*
X919811D01*
Y264206D01*
Y263958D01*
Y263711D01*
X920058D01*
Y263463D01*
Y263216D01*
Y262968D01*
X920306D01*
Y262720D01*
Y262473D01*
Y262225D01*
X920553D01*
Y261978D01*
Y261730D01*
Y261482D01*
X920801D01*
Y261235D01*
Y260987D01*
Y260740D01*
X921049D01*
Y260492D01*
Y260244D01*
X921296D01*
Y259997D01*
Y259749D01*
Y259502D01*
X921544D01*
Y259254D01*
Y259006D01*
Y258759D01*
X921791D01*
Y258511D01*
Y258264D01*
Y258016D01*
X922039D01*
Y257768D01*
Y257521D01*
Y257273D01*
X922287D01*
Y257026D01*
Y256778D01*
Y256530D01*
X922534D01*
Y256283D01*
Y256035D01*
Y255788D01*
X922782D01*
Y255540D01*
Y255293D01*
Y255045D01*
X923029D01*
Y254797D01*
Y254550D01*
Y254302D01*
X923277D01*
Y254055D01*
Y253807D01*
Y253559D01*
X923524D01*
Y253312D01*
Y253064D01*
X923772D01*
Y252817D01*
Y252569D01*
Y252321D01*
X924020D01*
Y252074D01*
Y251826D01*
Y251579D01*
X924267D01*
Y251331D01*
Y251084D01*
Y250836D01*
X924515D01*
Y250588D01*
Y250341D01*
Y250093D01*
X924762D01*
Y249846D01*
Y249598D01*
Y249350D01*
X925010D01*
Y249103D01*
Y248855D01*
Y248608D01*
X925258D01*
Y248360D01*
Y248112D01*
Y247865D01*
X925505D01*
Y247617D01*
Y247370D01*
X939866D01*
Y247122D01*
X940113D01*
Y246874D01*
Y246627D01*
Y246379D01*
X940361D01*
Y246132D01*
Y245884D01*
Y245637D01*
X940608D01*
Y245389D01*
Y245141D01*
Y244894D01*
X940856D01*
Y244646D01*
Y244398D01*
Y244151D01*
X941104D01*
Y243903D01*
Y243656D01*
Y243408D01*
X941351D01*
Y243160D01*
Y242913D01*
Y242665D01*
X941599D01*
Y242418D01*
Y242170D01*
Y241923D01*
X941846D01*
Y241675D01*
Y241427D01*
Y241180D01*
X942094D01*
Y240932D01*
Y240685D01*
Y240437D01*
X942342D01*
Y240189D01*
Y239942D01*
Y239694D01*
X942589D01*
Y239447D01*
Y239199D01*
Y238951D01*
X942837D01*
Y238704D01*
Y238456D01*
Y238209D01*
X943084D01*
Y237961D01*
Y237714D01*
Y237466D01*
X943332D01*
Y237218D01*
Y236971D01*
Y236723D01*
X943579D01*
Y236476D01*
Y236228D01*
Y235980D01*
X943827D01*
Y235733D01*
Y235485D01*
Y235238D01*
X944075D01*
Y234990D01*
Y234742D01*
Y234495D01*
X944322D01*
Y234247D01*
Y234000D01*
Y233752D01*
X944570D01*
Y233504D01*
Y233257D01*
Y233009D01*
X697720D01*
Y232762D01*
X697968D01*
Y232514D01*
Y232267D01*
Y232019D01*
X698215D01*
Y232267D01*
X698463D01*
Y232019D01*
X698215D01*
Y231771D01*
Y231524D01*
X698463D01*
Y231276D01*
Y231028D01*
Y230781D01*
X698711D01*
Y230533D01*
Y230286D01*
X698958D01*
Y230038D01*
Y229790D01*
Y229543D01*
X699206D01*
Y229295D01*
Y229048D01*
X699453D01*
Y228800D01*
Y228553D01*
Y228305D01*
X699701D01*
Y228057D01*
Y227810D01*
Y227562D01*
X699949D01*
Y227315D01*
Y227067D01*
X732383D01*
Y226819D01*
Y226572D01*
Y226324D01*
X732631D01*
Y226077D01*
Y225829D01*
Y225581D01*
X732878D01*
Y225334D01*
Y225086D01*
X733126D01*
Y224839D01*
Y224591D01*
Y224343D01*
X733374D01*
Y224096D01*
Y223848D01*
Y223601D01*
X733621D01*
Y223353D01*
Y223106D01*
Y222858D01*
X733869D01*
Y222610D01*
Y222363D01*
Y222115D01*
X734116D01*
Y221868D01*
Y221620D01*
Y221372D01*
X734364D01*
Y221125D01*
Y220877D01*
Y220630D01*
X734612D01*
Y220382D01*
Y220134D01*
Y219887D01*
X734859D01*
Y219639D01*
Y219392D01*
Y219144D01*
X735107D01*
Y218897D01*
Y218649D01*
Y218401D01*
X735354D01*
Y218154D01*
Y217906D01*
Y217659D01*
X735602D01*
Y217411D01*
Y217163D01*
Y216916D01*
X735850D01*
Y216668D01*
Y216420D01*
Y216173D01*
X736097D01*
Y215925D01*
Y215678D01*
Y215430D01*
X736345D01*
Y215183D01*
Y214935D01*
Y214687D01*
X736592D01*
Y214440D01*
Y214192D01*
Y213945D01*
X736840D01*
Y213697D01*
Y213449D01*
Y213202D01*
X737087D01*
Y212954D01*
Y212707D01*
Y212459D01*
X737335D01*
Y212211D01*
Y211964D01*
Y211716D01*
X737583D01*
Y211469D01*
X726441D01*
Y211221D01*
Y210973D01*
Y210726D01*
X726689D01*
Y210478D01*
Y210231D01*
Y209983D01*
X726936D01*
Y209736D01*
Y209488D01*
Y209240D01*
X727184D01*
Y208993D01*
Y208745D01*
Y208498D01*
X727431D01*
Y208250D01*
Y208002D01*
Y207755D01*
X727679D01*
Y207507D01*
Y207260D01*
X727926D01*
Y207012D01*
Y206765D01*
Y206517D01*
X728174D01*
Y206269D01*
Y206022D01*
Y205774D01*
X728422D01*
Y205527D01*
Y205279D01*
Y205031D01*
X728669D01*
Y204784D01*
Y204536D01*
Y204289D01*
X728917D01*
Y204041D01*
Y203793D01*
Y203546D01*
X729165D01*
Y203298D01*
X743773D01*
Y203051D01*
Y202803D01*
Y202555D01*
X744020D01*
Y202308D01*
Y202060D01*
Y201813D01*
X744268D01*
Y201565D01*
Y201317D01*
Y201070D01*
X744515D01*
Y200822D01*
Y200575D01*
Y200327D01*
X744763D01*
Y200079D01*
Y199832D01*
Y199584D01*
X745010D01*
Y199337D01*
Y199089D01*
Y198841D01*
X745258D01*
Y198594D01*
Y198346D01*
X745506D01*
Y198099D01*
Y197851D01*
Y197603D01*
X745753D01*
Y197356D01*
Y197108D01*
Y196861D01*
X746001D01*
Y196613D01*
Y196366D01*
Y196118D01*
X746248D01*
Y195870D01*
Y195623D01*
Y195375D01*
X746496D01*
Y195128D01*
Y194880D01*
Y194632D01*
X746744D01*
Y194385D01*
Y194137D01*
Y193890D01*
X746991D01*
Y193642D01*
Y193395D01*
Y193147D01*
X747239D01*
Y192899D01*
Y192652D01*
Y192404D01*
X747486D01*
Y192157D01*
Y191909D01*
Y191661D01*
X747734D01*
Y191414D01*
Y191166D01*
Y190919D01*
X747981D01*
Y190671D01*
Y190423D01*
Y190176D01*
X748229D01*
Y189928D01*
Y189681D01*
Y189433D01*
X748477D01*
Y189185D01*
Y188938D01*
Y188690D01*
X748724D01*
Y188443D01*
Y188195D01*
Y187947D01*
X748972D01*
Y187700D01*
Y187452D01*
Y187205D01*
X749220D01*
Y186957D01*
Y186709D01*
Y186462D01*
X749467D01*
Y186214D01*
Y185967D01*
X749715D01*
Y185719D01*
Y185471D01*
Y185224D01*
X749962D01*
Y184976D01*
Y184729D01*
Y184481D01*
X750210D01*
Y184233D01*
Y183986D01*
Y183738D01*
X750458D01*
Y183491D01*
Y183243D01*
Y182996D01*
X750705D01*
Y182748D01*
Y182500D01*
Y182253D01*
X750953D01*
Y182005D01*
Y181758D01*
Y181510D01*
X751200D01*
Y181262D01*
Y181015D01*
Y180767D01*
X751448D01*
Y180520D01*
Y180272D01*
Y180025D01*
X751695D01*
Y179777D01*
Y179529D01*
Y179282D01*
X751943D01*
Y179034D01*
Y178787D01*
Y178539D01*
X752191D01*
Y178291D01*
Y178044D01*
Y177796D01*
X752438D01*
Y177549D01*
Y177301D01*
Y177053D01*
X752686D01*
Y176806D01*
Y176558D01*
Y176311D01*
X752933D01*
Y176063D01*
Y175815D01*
Y175568D01*
X753181D01*
Y175320D01*
Y175073D01*
Y174825D01*
X753429D01*
Y174578D01*
Y174330D01*
Y174082D01*
X753676D01*
Y173835D01*
Y173587D01*
Y173340D01*
X753924D01*
Y173092D01*
Y172844D01*
X754171D01*
Y172597D01*
Y172349D01*
Y172101D01*
X754419D01*
Y171854D01*
Y171606D01*
Y171359D01*
X754667D01*
Y171111D01*
Y170864D01*
Y170616D01*
X754914D01*
Y170368D01*
Y170121D01*
Y169873D01*
X755162D01*
Y169626D01*
Y169378D01*
Y169130D01*
X755409D01*
Y168883D01*
Y168635D01*
Y168388D01*
X755657D01*
Y168140D01*
Y167892D01*
Y167645D01*
X755904D01*
Y167397D01*
Y167150D01*
Y166902D01*
X756152D01*
Y166654D01*
Y166407D01*
Y166159D01*
X756400D01*
Y165912D01*
Y165664D01*
Y165417D01*
X756647D01*
Y165169D01*
Y164921D01*
Y164674D01*
X756895D01*
Y164426D01*
Y164179D01*
Y163931D01*
X757142D01*
Y163683D01*
Y163436D01*
Y163188D01*
X757390D01*
Y162941D01*
Y162693D01*
Y162445D01*
X757638D01*
Y162198D01*
Y161950D01*
Y161703D01*
X757885D01*
Y161455D01*
Y161207D01*
Y160960D01*
X758133D01*
Y160712D01*
X766551D01*
Y160960D01*
X766303D01*
Y161207D01*
Y161455D01*
Y161703D01*
X766056D01*
Y161950D01*
Y162198D01*
Y162445D01*
X765808D01*
Y162693D01*
Y162941D01*
Y163188D01*
X765561D01*
Y163436D01*
Y163683D01*
Y163931D01*
X765313D01*
Y164179D01*
Y164426D01*
Y164674D01*
X765065D01*
Y164921D01*
Y165169D01*
Y165417D01*
X764818D01*
Y165664D01*
Y165912D01*
Y166159D01*
X764570D01*
Y166407D01*
Y166654D01*
Y166902D01*
X764323D01*
Y167150D01*
Y167397D01*
Y167645D01*
X764075D01*
Y167892D01*
Y168140D01*
Y168388D01*
X763827D01*
Y168635D01*
Y168883D01*
Y169130D01*
X763580D01*
Y169378D01*
Y169626D01*
Y169873D01*
X763332D01*
Y170121D01*
Y170368D01*
Y170616D01*
X763085D01*
Y170864D01*
Y171111D01*
Y171359D01*
X762837D01*
Y171606D01*
Y171854D01*
Y172101D01*
X762589D01*
Y172349D01*
Y172597D01*
Y172844D01*
X762342D01*
Y173092D01*
Y173340D01*
X762094D01*
Y173587D01*
Y173835D01*
Y174082D01*
X761847D01*
Y174330D01*
Y174578D01*
Y174825D01*
X761599D01*
Y175073D01*
Y175320D01*
Y175568D01*
X761351D01*
Y175815D01*
Y176063D01*
Y176311D01*
X761104D01*
Y176558D01*
Y176806D01*
Y177053D01*
X760856D01*
Y177301D01*
Y177549D01*
Y177796D01*
X760609D01*
Y178044D01*
Y178291D01*
Y178539D01*
X760361D01*
Y178787D01*
Y179034D01*
Y179282D01*
X760114D01*
Y179529D01*
Y179777D01*
Y180025D01*
X759866D01*
Y180272D01*
Y180520D01*
Y180767D01*
X759618D01*
Y181015D01*
Y181262D01*
Y181510D01*
X759371D01*
Y181758D01*
Y182005D01*
Y182253D01*
X759123D01*
Y182500D01*
Y182748D01*
Y182996D01*
X758876D01*
Y183243D01*
Y183491D01*
Y183738D01*
X758628D01*
Y183986D01*
Y184233D01*
Y184481D01*
X758380D01*
Y184729D01*
Y184976D01*
Y185224D01*
X758133D01*
Y185471D01*
Y185719D01*
Y185967D01*
X757885D01*
Y186214D01*
Y186462D01*
X757638D01*
Y186709D01*
Y186957D01*
Y187205D01*
X757390D01*
Y187452D01*
Y187700D01*
Y187947D01*
X757142D01*
Y188195D01*
Y188443D01*
Y188690D01*
X756895D01*
Y188938D01*
Y189185D01*
Y189433D01*
X756647D01*
Y189681D01*
Y189928D01*
Y190176D01*
X756400D01*
Y190423D01*
Y190671D01*
Y190919D01*
X756152D01*
Y191166D01*
Y191414D01*
Y191661D01*
X755904D01*
Y191909D01*
Y192157D01*
Y192404D01*
X755657D01*
Y192652D01*
Y192899D01*
Y193147D01*
X755409D01*
Y193395D01*
Y193642D01*
Y193890D01*
X755162D01*
Y194137D01*
Y194385D01*
Y194632D01*
X754914D01*
Y194880D01*
Y195128D01*
Y195375D01*
X754667D01*
Y195623D01*
Y195870D01*
Y196118D01*
X754419D01*
Y196366D01*
Y196613D01*
Y196861D01*
X754171D01*
Y197108D01*
Y197356D01*
Y197603D01*
X753924D01*
Y197851D01*
Y198099D01*
Y198346D01*
X753676D01*
Y198594D01*
Y198841D01*
X753429D01*
Y199089D01*
Y199337D01*
Y199584D01*
X753181D01*
Y199832D01*
Y200079D01*
Y200327D01*
X752933D01*
Y200575D01*
Y200822D01*
Y201070D01*
X752686D01*
Y201317D01*
Y201565D01*
Y201813D01*
X752438D01*
Y202060D01*
Y202308D01*
Y202555D01*
X752191D01*
Y202803D01*
Y203051D01*
Y203298D01*
X766551D01*
Y203546D01*
Y203793D01*
X766303D01*
Y204041D01*
Y204289D01*
Y204536D01*
X766056D01*
Y204784D01*
Y205031D01*
Y205279D01*
X765808D01*
Y205527D01*
Y205774D01*
Y206022D01*
X765561D01*
Y206269D01*
Y206517D01*
Y206765D01*
X765313D01*
Y207012D01*
Y207260D01*
Y207507D01*
X765065D01*
Y207755D01*
Y208002D01*
Y208250D01*
X764818D01*
Y208498D01*
Y208745D01*
Y208993D01*
X764570D01*
Y209240D01*
Y209488D01*
Y209736D01*
X764323D01*
Y209983D01*
Y210231D01*
Y210478D01*
X764075D01*
Y210726D01*
Y210973D01*
Y211221D01*
X763827D01*
Y211469D01*
X741296D01*
Y211716D01*
Y211964D01*
Y212211D01*
X741049D01*
Y212459D01*
Y212707D01*
Y212954D01*
X740801D01*
Y213202D01*
Y213449D01*
Y213697D01*
X740554D01*
Y213945D01*
Y214192D01*
Y214440D01*
X740306D01*
Y214687D01*
Y214935D01*
Y215183D01*
X740059D01*
Y215430D01*
Y215678D01*
Y215925D01*
X739811D01*
Y216173D01*
Y216420D01*
Y216668D01*
X739563D01*
Y216916D01*
Y217163D01*
Y217411D01*
X739316D01*
Y217659D01*
Y217906D01*
Y218154D01*
X739068D01*
Y218401D01*
Y218649D01*
Y218897D01*
X738821D01*
Y219144D01*
Y219392D01*
Y219639D01*
X738573D01*
Y219887D01*
Y220134D01*
Y220382D01*
X738325D01*
Y220630D01*
Y220877D01*
Y221125D01*
X738078D01*
Y221372D01*
Y221620D01*
Y221868D01*
X737830D01*
Y222115D01*
Y222363D01*
Y222610D01*
X737583D01*
Y222858D01*
Y223106D01*
Y223353D01*
X737335D01*
Y223601D01*
Y223848D01*
Y224096D01*
X737087D01*
Y224343D01*
Y224591D01*
Y224839D01*
X736840D01*
Y225086D01*
Y225334D01*
Y225581D01*
X736592D01*
Y225829D01*
Y226077D01*
Y226324D01*
X736345D01*
Y226572D01*
Y226819D01*
Y227067D01*
X784130D01*
Y226819D01*
Y226572D01*
X784378D01*
Y226324D01*
Y226077D01*
Y225829D01*
X784625D01*
Y225581D01*
Y225334D01*
Y225086D01*
X784873D01*
Y224839D01*
Y224591D01*
X785120D01*
Y224343D01*
Y224096D01*
Y223848D01*
X785368D01*
Y223601D01*
Y223353D01*
Y223106D01*
X785616D01*
Y222858D01*
Y222610D01*
Y222363D01*
X785863D01*
Y222115D01*
Y221868D01*
Y221620D01*
X786111D01*
Y221372D01*
Y221125D01*
Y220877D01*
X786358D01*
Y220630D01*
Y220382D01*
Y220134D01*
X786606D01*
Y219887D01*
Y219639D01*
Y219392D01*
X786853D01*
Y219144D01*
Y218897D01*
Y218649D01*
X787101D01*
Y218401D01*
Y218154D01*
Y217906D01*
X787349D01*
Y217659D01*
Y217411D01*
Y217163D01*
X787596D01*
Y216916D01*
Y216668D01*
Y216420D01*
X787844D01*
Y216173D01*
Y215925D01*
Y215678D01*
X788092D01*
Y215430D01*
Y215183D01*
Y214935D01*
X788339D01*
Y214687D01*
Y214440D01*
Y214192D01*
X788587D01*
Y213945D01*
Y213697D01*
Y213449D01*
X788834D01*
Y213202D01*
Y212954D01*
Y212707D01*
X789082D01*
Y212459D01*
Y212211D01*
Y211964D01*
X789330D01*
Y211716D01*
Y211469D01*
X780416D01*
Y211221D01*
X780664D01*
Y210973D01*
Y210726D01*
X780911D01*
Y210478D01*
Y210231D01*
Y209983D01*
X781159D01*
Y209736D01*
Y209488D01*
Y209240D01*
X781406D01*
Y208993D01*
Y208745D01*
Y208498D01*
X781654D01*
Y208250D01*
Y208002D01*
Y207755D01*
X781902D01*
Y207507D01*
Y207260D01*
Y207012D01*
X782149D01*
Y206765D01*
Y206517D01*
Y206269D01*
X782397D01*
Y206022D01*
Y205774D01*
Y205527D01*
X782645D01*
Y205279D01*
Y205031D01*
Y204784D01*
X782892D01*
Y204536D01*
Y204289D01*
Y204041D01*
X783140D01*
Y203793D01*
Y203546D01*
Y203298D01*
X783387D01*
Y203051D01*
Y202803D01*
Y202555D01*
X783635D01*
Y202308D01*
Y202060D01*
Y201813D01*
X783882D01*
Y201565D01*
Y201317D01*
Y201070D01*
X784130D01*
Y200822D01*
Y200575D01*
Y200327D01*
X784378D01*
Y200079D01*
Y199832D01*
Y199584D01*
X784625D01*
Y199337D01*
Y199089D01*
Y198841D01*
X784873D01*
Y198594D01*
Y198346D01*
X785120D01*
Y198099D01*
Y197851D01*
Y197603D01*
X785368D01*
Y197356D01*
Y197108D01*
Y196861D01*
X785616D01*
Y196613D01*
Y196366D01*
Y196118D01*
X785863D01*
Y195870D01*
Y195623D01*
Y195375D01*
X786111D01*
Y195128D01*
Y194880D01*
Y194632D01*
X786358D01*
Y194385D01*
Y194137D01*
Y193890D01*
X786606D01*
Y193642D01*
Y193395D01*
Y193147D01*
X786853D01*
Y192899D01*
Y192652D01*
Y192404D01*
X787101D01*
Y192157D01*
Y191909D01*
Y191661D01*
X787349D01*
Y191414D01*
Y191166D01*
Y190919D01*
X787596D01*
Y190671D01*
Y190423D01*
Y190176D01*
X787844D01*
Y189928D01*
Y189681D01*
Y189433D01*
X788092D01*
Y189185D01*
Y188938D01*
Y188690D01*
X788339D01*
Y188443D01*
Y188195D01*
Y187947D01*
X788587D01*
Y187700D01*
Y187452D01*
Y187205D01*
X788834D01*
Y186957D01*
Y186709D01*
Y186462D01*
X789082D01*
Y186214D01*
Y185967D01*
X789330D01*
Y185719D01*
Y185471D01*
Y185224D01*
X789577D01*
Y184976D01*
Y184729D01*
Y184481D01*
X789825D01*
Y184233D01*
Y183986D01*
Y183738D01*
X790072D01*
Y183491D01*
Y183243D01*
Y182996D01*
X790320D01*
Y182748D01*
Y182500D01*
Y182253D01*
X790567D01*
Y182005D01*
Y181758D01*
Y181510D01*
X790815D01*
Y181262D01*
Y181015D01*
Y180767D01*
X791063D01*
Y180520D01*
Y180272D01*
Y180025D01*
X791310D01*
Y179777D01*
Y179529D01*
Y179282D01*
X791558D01*
Y179034D01*
Y178787D01*
Y178539D01*
X791805D01*
Y178291D01*
Y178044D01*
Y177796D01*
X792053D01*
Y177549D01*
Y177301D01*
Y177053D01*
X792301D01*
Y176806D01*
Y176558D01*
Y176311D01*
X792548D01*
Y176063D01*
Y175815D01*
Y175568D01*
X792796D01*
Y175320D01*
Y175073D01*
Y174825D01*
X793043D01*
Y174578D01*
Y174330D01*
Y174082D01*
X793291D01*
Y173835D01*
Y173587D01*
Y173340D01*
X793539D01*
Y173092D01*
Y172844D01*
X793786D01*
Y172597D01*
Y172349D01*
Y172101D01*
X794034D01*
Y171854D01*
Y171606D01*
Y171359D01*
X794281D01*
Y171111D01*
Y170864D01*
Y170616D01*
X794529D01*
Y170368D01*
Y170121D01*
Y169873D01*
X794777D01*
Y169626D01*
Y169378D01*
Y169130D01*
X795024D01*
Y168883D01*
Y168635D01*
Y168388D01*
X795272D01*
Y168140D01*
Y167892D01*
Y167645D01*
X795519D01*
Y167397D01*
Y167150D01*
Y166902D01*
X795767D01*
Y166654D01*
Y166407D01*
Y166159D01*
X796014D01*
Y165912D01*
Y165664D01*
Y165417D01*
X796262D01*
Y165169D01*
Y164921D01*
Y164674D01*
X796510D01*
Y164426D01*
Y164179D01*
Y163931D01*
X796757D01*
Y163683D01*
Y163436D01*
Y163188D01*
X797005D01*
Y162941D01*
Y162693D01*
Y162445D01*
X797252D01*
Y162198D01*
Y161950D01*
Y161703D01*
X797500D01*
Y161455D01*
Y161207D01*
Y160960D01*
X797748D01*
Y160712D01*
X835382D01*
Y160960D01*
X835134D01*
Y161207D01*
Y161455D01*
Y161703D01*
X834886D01*
Y161950D01*
Y162198D01*
Y162445D01*
X834639D01*
Y162693D01*
Y162941D01*
Y163188D01*
X834391D01*
Y163436D01*
Y163683D01*
Y163931D01*
X834144D01*
Y164179D01*
Y164426D01*
Y164674D01*
X833896D01*
Y164921D01*
Y165169D01*
Y165417D01*
X833649D01*
Y165664D01*
Y165912D01*
Y166159D01*
X833401D01*
Y166407D01*
Y166654D01*
Y166902D01*
X833153D01*
Y167150D01*
Y167397D01*
Y167645D01*
X832906D01*
Y167892D01*
Y168140D01*
Y168388D01*
X832658D01*
Y168635D01*
Y168883D01*
Y169130D01*
X832411D01*
Y169378D01*
Y169626D01*
Y169873D01*
X832163D01*
Y170121D01*
Y170368D01*
Y170616D01*
X831915D01*
Y170864D01*
Y171111D01*
Y171359D01*
X831668D01*
Y171606D01*
Y171854D01*
Y172101D01*
X831420D01*
Y172349D01*
Y172597D01*
Y172844D01*
X831173D01*
Y173092D01*
Y173340D01*
X830925D01*
Y173587D01*
Y173835D01*
Y174082D01*
X830677D01*
Y174330D01*
Y174578D01*
Y174825D01*
X830430D01*
Y175073D01*
Y175320D01*
Y175568D01*
X830182D01*
Y175815D01*
Y176063D01*
Y176311D01*
X829935D01*
Y176558D01*
Y176806D01*
Y177053D01*
X829687D01*
Y177301D01*
Y177549D01*
Y177796D01*
X829439D01*
Y178044D01*
Y178291D01*
Y178539D01*
X829192D01*
Y178787D01*
Y179034D01*
Y179282D01*
X828944D01*
Y179529D01*
Y179777D01*
Y180025D01*
X828697D01*
Y180272D01*
Y180520D01*
Y180767D01*
X828449D01*
Y181015D01*
Y181262D01*
Y181510D01*
X828202D01*
Y181758D01*
Y182005D01*
Y182253D01*
X827954D01*
Y182500D01*
Y182748D01*
Y182996D01*
X827706D01*
Y183243D01*
Y183491D01*
Y183738D01*
X827459D01*
Y183986D01*
Y184233D01*
Y184481D01*
X827211D01*
Y184729D01*
Y184976D01*
Y185224D01*
X826964D01*
Y185471D01*
Y185719D01*
Y185967D01*
X826716D01*
Y186214D01*
Y186462D01*
X826468D01*
Y186709D01*
Y186957D01*
Y187205D01*
X826221D01*
Y187452D01*
Y187700D01*
Y187947D01*
X825973D01*
Y188195D01*
Y188443D01*
Y188690D01*
X825725D01*
Y188938D01*
Y189185D01*
Y189433D01*
X825478D01*
Y189681D01*
Y189928D01*
Y190176D01*
X825230D01*
Y190423D01*
Y190671D01*
Y190919D01*
X824983D01*
Y191166D01*
Y191414D01*
Y191661D01*
X824735D01*
Y191909D01*
Y192157D01*
Y192404D01*
X824488D01*
Y192652D01*
Y192899D01*
Y193147D01*
X824240D01*
Y193395D01*
Y193642D01*
Y193890D01*
X823992D01*
Y194137D01*
Y194385D01*
Y194632D01*
X823745D01*
Y194880D01*
Y195128D01*
Y195375D01*
X823497D01*
Y195623D01*
Y195870D01*
Y196118D01*
X823250D01*
Y196366D01*
Y196613D01*
Y196861D01*
X823002D01*
Y197108D01*
Y197356D01*
Y197603D01*
X822754D01*
Y197851D01*
Y198099D01*
Y198346D01*
X822507D01*
Y198594D01*
Y198841D01*
X822259D01*
Y199089D01*
Y199337D01*
Y199584D01*
X822012D01*
Y199832D01*
Y200079D01*
Y200327D01*
X821764D01*
Y200575D01*
Y200822D01*
Y201070D01*
X821516D01*
Y201317D01*
Y201565D01*
Y201813D01*
X821269D01*
Y202060D01*
Y202308D01*
Y202555D01*
X821021D01*
Y202803D01*
Y203051D01*
Y203298D01*
X820774D01*
Y203546D01*
Y203793D01*
Y204041D01*
X820526D01*
Y204289D01*
Y204536D01*
Y204784D01*
X820278D01*
Y205031D01*
Y205279D01*
Y205527D01*
X820031D01*
Y205774D01*
Y206022D01*
Y206269D01*
X819783D01*
Y206517D01*
Y206765D01*
Y207012D01*
X819536D01*
Y207260D01*
Y207507D01*
Y207755D01*
X819288D01*
Y208002D01*
Y208250D01*
Y208498D01*
X819041D01*
Y208745D01*
Y208993D01*
Y209240D01*
X818793D01*
Y209488D01*
Y209736D01*
Y209983D01*
X818545D01*
Y210231D01*
Y210478D01*
Y210726D01*
X818298D01*
Y210973D01*
Y211221D01*
X818050D01*
Y211469D01*
X793291D01*
Y211716D01*
X793043D01*
Y211964D01*
Y212211D01*
Y212459D01*
X792796D01*
Y212707D01*
Y212954D01*
Y213202D01*
X792548D01*
Y213449D01*
Y213697D01*
Y213945D01*
X792301D01*
Y214192D01*
Y214440D01*
Y214687D01*
X792053D01*
Y214935D01*
Y215183D01*
Y215430D01*
X791805D01*
Y215678D01*
Y215925D01*
Y216173D01*
X791558D01*
Y216420D01*
Y216668D01*
Y216916D01*
X791310D01*
Y217163D01*
Y217411D01*
Y217659D01*
X791063D01*
Y217906D01*
Y218154D01*
Y218401D01*
X790815D01*
Y218649D01*
Y218897D01*
Y219144D01*
X790567D01*
Y219392D01*
Y219639D01*
Y219887D01*
X790320D01*
Y220134D01*
Y220382D01*
Y220630D01*
X790072D01*
Y220877D01*
Y221125D01*
Y221372D01*
X789825D01*
Y221620D01*
Y221868D01*
Y222115D01*
X789577D01*
Y222363D01*
Y222610D01*
Y222858D01*
X789330D01*
Y223106D01*
Y223353D01*
Y223601D01*
X789082D01*
Y223848D01*
Y224096D01*
Y224343D01*
X788834D01*
Y224591D01*
Y224839D01*
Y225086D01*
X788587D01*
Y225334D01*
Y225581D01*
Y225829D01*
X788339D01*
Y226077D01*
Y226324D01*
Y226572D01*
X788092D01*
Y226819D01*
Y227067D01*
X829935D01*
Y226819D01*
Y226572D01*
X830182D01*
Y226324D01*
Y226077D01*
Y225829D01*
X830430D01*
Y225581D01*
Y225334D01*
Y225086D01*
X830677D01*
Y224839D01*
Y224591D01*
Y224343D01*
X830925D01*
Y224096D01*
Y223848D01*
Y223601D01*
X831173D01*
Y223353D01*
Y223106D01*
Y222858D01*
X831420D01*
Y222610D01*
Y222363D01*
Y222115D01*
X831668D01*
Y221868D01*
Y221620D01*
Y221372D01*
X831915D01*
Y221125D01*
Y220877D01*
Y220630D01*
X832163D01*
Y220382D01*
Y220134D01*
Y219887D01*
X832411D01*
Y219639D01*
Y219392D01*
Y219144D01*
X832658D01*
Y218897D01*
Y218649D01*
Y218401D01*
X832906D01*
Y218154D01*
Y217906D01*
Y217659D01*
X833153D01*
Y217411D01*
Y217163D01*
Y216916D01*
X833401D01*
Y216668D01*
Y216420D01*
Y216173D01*
X833649D01*
Y215925D01*
Y215678D01*
Y215430D01*
X833896D01*
Y215183D01*
Y214935D01*
Y214687D01*
X834144D01*
Y214440D01*
Y214192D01*
Y213945D01*
X834391D01*
Y213697D01*
Y213449D01*
Y213202D01*
X834639D01*
Y212954D01*
Y212707D01*
Y212459D01*
X834886D01*
Y212211D01*
Y211964D01*
Y211716D01*
X835134D01*
Y211469D01*
Y211221D01*
Y210973D01*
X835382D01*
Y210726D01*
Y210478D01*
Y210231D01*
X835629D01*
Y209983D01*
Y209736D01*
Y209488D01*
X835877D01*
Y209240D01*
Y208993D01*
Y208745D01*
X836124D01*
Y208498D01*
Y208250D01*
Y208002D01*
X836372D01*
Y207755D01*
Y207507D01*
Y207260D01*
X836620D01*
Y207012D01*
Y206765D01*
Y206517D01*
X836867D01*
Y206269D01*
Y206022D01*
Y205774D01*
X837115D01*
Y205527D01*
Y205279D01*
Y205031D01*
X837362D01*
Y204784D01*
Y204536D01*
Y204289D01*
X837610D01*
Y204041D01*
Y203793D01*
Y203546D01*
X837858D01*
Y203298D01*
Y203051D01*
Y202803D01*
X838105D01*
Y202555D01*
Y202308D01*
Y202060D01*
X838353D01*
Y201813D01*
Y201565D01*
Y201317D01*
X838600D01*
Y201070D01*
Y200822D01*
Y200575D01*
X838848D01*
Y200327D01*
Y200079D01*
Y199832D01*
X839096D01*
Y199584D01*
Y199337D01*
Y199089D01*
X839343D01*
Y198841D01*
Y198594D01*
Y198346D01*
X839591D01*
Y198099D01*
Y197851D01*
Y197603D01*
X839838D01*
Y197356D01*
Y197108D01*
Y196861D01*
X840086D01*
Y196613D01*
Y196366D01*
Y196118D01*
X840333D01*
Y195870D01*
Y195623D01*
Y195375D01*
X840581D01*
Y195128D01*
Y194880D01*
Y194632D01*
X840829D01*
Y194385D01*
Y194137D01*
Y193890D01*
X841076D01*
Y193642D01*
Y193395D01*
Y193147D01*
X841324D01*
Y192899D01*
Y192652D01*
Y192404D01*
X841571D01*
Y192157D01*
Y191909D01*
Y191661D01*
X841819D01*
Y191414D01*
Y191166D01*
Y190919D01*
X842067D01*
Y190671D01*
Y190423D01*
Y190176D01*
X842314D01*
Y189928D01*
Y189681D01*
Y189433D01*
X842562D01*
Y189185D01*
Y188938D01*
Y188690D01*
X842809D01*
Y188443D01*
Y188195D01*
Y187947D01*
X843057D01*
Y187700D01*
Y187452D01*
Y187205D01*
X843305D01*
Y186957D01*
Y186709D01*
Y186462D01*
X843552D01*
Y186214D01*
Y185967D01*
Y185719D01*
X843800D01*
Y185471D01*
Y185224D01*
Y184976D01*
X844047D01*
Y184729D01*
Y184481D01*
Y184233D01*
X844295D01*
Y183986D01*
Y183738D01*
Y183491D01*
X844543D01*
Y183243D01*
Y182996D01*
Y182748D01*
X844790D01*
Y182500D01*
Y182253D01*
Y182005D01*
X845038D01*
Y181758D01*
Y181510D01*
Y181262D01*
X845285D01*
Y181015D01*
Y180767D01*
Y180520D01*
X845533D01*
Y180272D01*
Y180025D01*
Y179777D01*
X845780D01*
Y179529D01*
Y179282D01*
Y179034D01*
X846028D01*
Y178787D01*
Y178539D01*
Y178291D01*
X846276D01*
Y178044D01*
Y177796D01*
Y177549D01*
X846523D01*
Y177301D01*
Y177053D01*
Y176806D01*
X846771D01*
Y176558D01*
Y176311D01*
Y176063D01*
X847019D01*
Y175815D01*
Y175568D01*
Y175320D01*
X847266D01*
Y175073D01*
Y174825D01*
Y174578D01*
X847514D01*
Y174330D01*
Y174082D01*
Y173835D01*
X847761D01*
Y173587D01*
Y173340D01*
Y173092D01*
X848009D01*
Y172844D01*
Y172597D01*
Y172349D01*
X848256D01*
Y172101D01*
Y171854D01*
Y171606D01*
X848504D01*
Y171359D01*
Y171111D01*
Y170864D01*
X848752D01*
Y170616D01*
Y170368D01*
Y170121D01*
X848999D01*
Y169873D01*
Y169626D01*
Y169378D01*
X849247D01*
Y169130D01*
Y168883D01*
Y168635D01*
X849494D01*
Y168388D01*
Y168140D01*
Y167892D01*
X849742D01*
Y167645D01*
Y167397D01*
Y167150D01*
X849990D01*
Y166902D01*
Y166654D01*
Y166407D01*
X850237D01*
Y166159D01*
Y165912D01*
Y165664D01*
X850485D01*
Y165417D01*
Y165169D01*
Y164921D01*
X850732D01*
Y164674D01*
Y164426D01*
Y164179D01*
X850980D01*
Y163931D01*
Y163683D01*
Y163436D01*
X851228D01*
Y163188D01*
Y162941D01*
Y162693D01*
X851475D01*
Y162445D01*
Y162198D01*
Y161950D01*
X851723D01*
Y161703D01*
Y161455D01*
Y161207D01*
X851970D01*
Y160960D01*
Y160712D01*
Y160465D01*
X852218D01*
Y160217D01*
Y159970D01*
Y159722D01*
X852466D01*
Y159474D01*
Y159227D01*
Y158979D01*
X852713D01*
Y158731D01*
Y158484D01*
Y158236D01*
X852961D01*
Y157989D01*
Y157741D01*
Y157494D01*
X853208D01*
Y157246D01*
Y156998D01*
Y156751D01*
X853456D01*
Y156503D01*
Y156256D01*
Y156008D01*
X853704D01*
Y155760D01*
Y155513D01*
Y155265D01*
X853951D01*
Y155018D01*
Y154770D01*
Y154522D01*
X854199D01*
Y154275D01*
Y154027D01*
Y153780D01*
X854446D01*
Y153532D01*
Y153285D01*
Y153037D01*
X854694D01*
Y152789D01*
Y152542D01*
Y152294D01*
X854941D01*
Y152046D01*
Y151799D01*
Y151551D01*
X855189D01*
Y151304D01*
X864597D01*
Y151551D01*
X864350D01*
Y151799D01*
Y152046D01*
Y152294D01*
X864102D01*
Y152542D01*
Y152789D01*
Y153037D01*
X863855D01*
Y153285D01*
Y153532D01*
Y153780D01*
X863607D01*
Y154027D01*
Y154275D01*
Y154522D01*
X863360D01*
Y154770D01*
Y155018D01*
Y155265D01*
X863112D01*
Y155513D01*
Y155760D01*
Y156008D01*
X862864D01*
Y156256D01*
Y156503D01*
Y156751D01*
X862617D01*
Y156998D01*
Y157246D01*
Y157494D01*
X862369D01*
Y157741D01*
Y157989D01*
Y158236D01*
X862122D01*
Y158484D01*
Y158731D01*
Y158979D01*
X861874D01*
Y159227D01*
Y159474D01*
Y159722D01*
X861626D01*
Y159970D01*
Y160217D01*
Y160465D01*
X861379D01*
Y160712D01*
Y160960D01*
Y161207D01*
X861131D01*
Y161455D01*
Y161703D01*
Y161950D01*
X860884D01*
Y162198D01*
Y162445D01*
Y162693D01*
X860636D01*
Y162941D01*
Y163188D01*
Y163436D01*
X860388D01*
Y163683D01*
Y163931D01*
Y164179D01*
X860141D01*
Y164426D01*
Y164674D01*
Y164921D01*
X859893D01*
Y165169D01*
Y165417D01*
Y165664D01*
X859646D01*
Y165912D01*
Y166159D01*
Y166407D01*
X859398D01*
Y166654D01*
Y166902D01*
Y167150D01*
X859150D01*
Y167397D01*
Y167645D01*
Y167892D01*
X858903D01*
Y168140D01*
Y168388D01*
Y168635D01*
X858655D01*
Y168883D01*
Y169130D01*
Y169378D01*
X858408D01*
Y169626D01*
Y169873D01*
Y170121D01*
X858160D01*
Y170368D01*
Y170616D01*
Y170864D01*
X857913D01*
Y171111D01*
Y171359D01*
Y171606D01*
X857665D01*
Y171854D01*
Y172101D01*
Y172349D01*
X857417D01*
Y172597D01*
Y172844D01*
Y173092D01*
X857170D01*
Y173340D01*
Y173587D01*
Y173835D01*
X856922D01*
Y174082D01*
Y174330D01*
Y174578D01*
X856675D01*
Y174825D01*
Y175073D01*
Y175320D01*
X856427D01*
Y175568D01*
Y175815D01*
Y176063D01*
X856179D01*
Y176311D01*
Y176558D01*
Y176806D01*
X855932D01*
Y177053D01*
Y177301D01*
Y177549D01*
X855684D01*
Y177796D01*
Y178044D01*
Y178291D01*
X855437D01*
Y178539D01*
Y178787D01*
Y179034D01*
X855189D01*
Y179282D01*
Y179529D01*
Y179777D01*
X854941D01*
Y180025D01*
Y180272D01*
Y180520D01*
X854694D01*
Y180767D01*
Y181015D01*
Y181262D01*
X854446D01*
Y181510D01*
Y181758D01*
Y182005D01*
X854199D01*
Y182253D01*
Y182500D01*
Y182748D01*
X853951D01*
Y182996D01*
Y183243D01*
Y183491D01*
X853704D01*
Y183738D01*
Y183986D01*
Y184233D01*
X853456D01*
Y184481D01*
Y184729D01*
Y184976D01*
X853208D01*
Y185224D01*
Y185471D01*
Y185719D01*
X852961D01*
Y185967D01*
Y186214D01*
Y186462D01*
X852713D01*
Y186709D01*
Y186957D01*
Y187205D01*
X852466D01*
Y187452D01*
Y187700D01*
Y187947D01*
X852218D01*
Y188195D01*
Y188443D01*
Y188690D01*
X851970D01*
Y188938D01*
Y189185D01*
Y189433D01*
X851723D01*
Y189681D01*
Y189928D01*
Y190176D01*
X851475D01*
Y190423D01*
Y190671D01*
Y190919D01*
X851228D01*
Y191166D01*
Y191414D01*
Y191661D01*
X850980D01*
Y191909D01*
Y192157D01*
Y192404D01*
X850732D01*
Y192652D01*
Y192899D01*
Y193147D01*
X850485D01*
Y193395D01*
Y193642D01*
Y193890D01*
X850237D01*
Y194137D01*
Y194385D01*
Y194632D01*
X849990D01*
Y194880D01*
Y195128D01*
Y195375D01*
X849742D01*
Y195623D01*
Y195870D01*
Y196118D01*
X849494D01*
Y196366D01*
Y196613D01*
Y196861D01*
X849247D01*
Y197108D01*
Y197356D01*
Y197603D01*
X848999D01*
Y197851D01*
Y198099D01*
Y198346D01*
X848752D01*
Y198594D01*
Y198841D01*
Y199089D01*
X848504D01*
Y199337D01*
Y199584D01*
Y199832D01*
X848256D01*
Y200079D01*
Y200327D01*
Y200575D01*
X848009D01*
Y200822D01*
Y201070D01*
Y201317D01*
X847761D01*
Y201565D01*
Y201813D01*
Y202060D01*
X847514D01*
Y202308D01*
Y202555D01*
Y202803D01*
X847266D01*
Y203051D01*
Y203298D01*
Y203546D01*
X847019D01*
Y203793D01*
Y204041D01*
Y204289D01*
X846771D01*
Y204536D01*
Y204784D01*
Y205031D01*
X846523D01*
Y205279D01*
Y205527D01*
Y205774D01*
X846276D01*
Y206022D01*
Y206269D01*
Y206517D01*
X846028D01*
Y206765D01*
Y207012D01*
Y207260D01*
X845780D01*
Y207507D01*
Y207755D01*
Y208002D01*
X845533D01*
Y208250D01*
Y208498D01*
Y208745D01*
X845285D01*
Y208993D01*
Y209240D01*
Y209488D01*
X845038D01*
Y209736D01*
Y209983D01*
Y210231D01*
X844790D01*
Y210478D01*
Y210726D01*
Y210973D01*
X844543D01*
Y211221D01*
Y211469D01*
Y211716D01*
X844295D01*
Y211964D01*
Y212211D01*
Y212459D01*
X844047D01*
Y212707D01*
Y212954D01*
Y213202D01*
X843800D01*
Y213449D01*
Y213697D01*
Y213945D01*
X843552D01*
Y214192D01*
Y214440D01*
Y214687D01*
X843305D01*
Y214935D01*
Y215183D01*
Y215430D01*
X843057D01*
Y215678D01*
Y215925D01*
Y216173D01*
X842809D01*
Y216420D01*
Y216668D01*
Y216916D01*
X842562D01*
Y217163D01*
Y217411D01*
Y217659D01*
X842314D01*
Y217906D01*
Y218154D01*
Y218401D01*
X842067D01*
Y218649D01*
Y218897D01*
Y219144D01*
X841819D01*
Y219392D01*
Y219639D01*
Y219887D01*
X841571D01*
Y220134D01*
Y220382D01*
Y220630D01*
X841324D01*
Y220877D01*
Y221125D01*
Y221372D01*
X841076D01*
Y221620D01*
Y221868D01*
Y222115D01*
X840829D01*
Y222363D01*
Y222610D01*
Y222858D01*
X840581D01*
Y223106D01*
Y223353D01*
Y223601D01*
X840333D01*
Y223848D01*
Y224096D01*
Y224343D01*
X840086D01*
Y224591D01*
Y224839D01*
Y225086D01*
X839838D01*
Y225334D01*
Y225581D01*
Y225829D01*
X839591D01*
Y226077D01*
Y226324D01*
Y226572D01*
X839343D01*
Y226819D01*
Y227067D01*
X859150D01*
Y226819D01*
Y226572D01*
X859398D01*
Y226324D01*
Y226077D01*
Y225829D01*
X859646D01*
Y225581D01*
Y225334D01*
X859893D01*
Y225086D01*
Y224839D01*
Y224591D01*
X860141D01*
Y224343D01*
Y224096D01*
Y223848D01*
X860388D01*
Y223601D01*
Y223353D01*
Y223106D01*
X860636D01*
Y222858D01*
Y222610D01*
Y222363D01*
X860884D01*
Y222115D01*
Y221868D01*
Y221620D01*
X861131D01*
Y221372D01*
Y221125D01*
Y220877D01*
X861379D01*
Y220630D01*
Y220382D01*
Y220134D01*
X861626D01*
Y219887D01*
Y219639D01*
Y219392D01*
X861874D01*
Y219144D01*
Y218897D01*
Y218649D01*
X862122D01*
Y218401D01*
Y218154D01*
Y217906D01*
X862369D01*
Y217659D01*
Y217411D01*
Y217163D01*
X862617D01*
Y216916D01*
Y216668D01*
Y216420D01*
X862864D01*
Y216173D01*
Y215925D01*
Y215678D01*
X863112D01*
Y215430D01*
Y215183D01*
Y214935D01*
X863360D01*
Y214687D01*
Y214440D01*
Y214192D01*
X863607D01*
Y213945D01*
Y213697D01*
Y213449D01*
X863855D01*
Y213202D01*
Y212954D01*
Y212707D01*
X864102D01*
Y212459D01*
Y212211D01*
Y211964D01*
X864350D01*
Y211716D01*
X857665D01*
Y211469D01*
Y211221D01*
X857913D01*
Y210973D01*
Y210726D01*
Y210478D01*
X858160D01*
Y210231D01*
Y209983D01*
Y209736D01*
X858408D01*
Y209488D01*
Y209240D01*
Y208993D01*
X858655D01*
Y208745D01*
Y208498D01*
Y208250D01*
X858903D01*
Y208002D01*
Y207755D01*
Y207507D01*
X859150D01*
Y207260D01*
Y207012D01*
Y206765D01*
X859398D01*
Y206517D01*
Y206269D01*
Y206022D01*
X859646D01*
Y205774D01*
Y205527D01*
Y205279D01*
X859893D01*
Y205031D01*
Y204784D01*
Y204536D01*
X860141D01*
Y204289D01*
Y204041D01*
Y203793D01*
X860388D01*
Y203546D01*
Y203298D01*
Y203051D01*
X860636D01*
Y202803D01*
Y202555D01*
Y202308D01*
X860884D01*
Y202060D01*
Y201813D01*
Y201565D01*
X861131D01*
Y201317D01*
Y201070D01*
Y200822D01*
X869549D01*
Y200575D01*
Y200327D01*
X869797D01*
Y200079D01*
Y199832D01*
Y199584D01*
X870045D01*
Y199337D01*
Y199089D01*
Y198841D01*
X870292D01*
Y198594D01*
Y198346D01*
X870540D01*
Y198099D01*
Y197851D01*
Y197603D01*
X870787D01*
Y197356D01*
Y197108D01*
Y196861D01*
X871035D01*
Y196613D01*
Y196366D01*
Y196118D01*
X871283D01*
Y195870D01*
Y195623D01*
Y195375D01*
X871530D01*
Y195128D01*
Y194880D01*
Y194632D01*
X871778D01*
Y194385D01*
Y194137D01*
Y193890D01*
X872025D01*
Y193642D01*
Y193395D01*
Y193147D01*
X872273D01*
Y192899D01*
Y192652D01*
Y192404D01*
X872521D01*
Y192157D01*
Y191909D01*
Y191661D01*
X872768D01*
Y191414D01*
Y191166D01*
Y190919D01*
X873016D01*
Y190671D01*
Y190423D01*
Y190176D01*
X873263D01*
Y189928D01*
Y189681D01*
Y189433D01*
X873511D01*
Y189185D01*
Y188938D01*
Y188690D01*
X873758D01*
Y188443D01*
Y188195D01*
Y187947D01*
X874006D01*
Y187700D01*
Y187452D01*
Y187205D01*
X874254D01*
Y186957D01*
Y186709D01*
Y186462D01*
X874501D01*
Y186214D01*
Y185967D01*
X874749D01*
Y185719D01*
Y185471D01*
Y185224D01*
X874996D01*
Y184976D01*
Y184729D01*
Y184481D01*
X875244D01*
Y184233D01*
Y183986D01*
Y183738D01*
X875492D01*
Y183491D01*
Y183243D01*
Y182996D01*
X875739D01*
Y182748D01*
Y182500D01*
Y182253D01*
X875987D01*
Y182005D01*
Y181758D01*
Y181510D01*
X876234D01*
Y181262D01*
Y181015D01*
Y180767D01*
X876482D01*
Y180520D01*
Y180272D01*
Y180025D01*
X876730D01*
Y179777D01*
Y179529D01*
Y179282D01*
X876977D01*
Y179034D01*
Y178787D01*
Y178539D01*
X877225D01*
Y178291D01*
Y178044D01*
Y177796D01*
X877472D01*
Y177549D01*
Y177301D01*
Y177053D01*
X877720D01*
Y176806D01*
Y176558D01*
Y176311D01*
X877968D01*
Y176063D01*
Y175815D01*
Y175568D01*
X878215D01*
Y175320D01*
Y175073D01*
Y174825D01*
X878463D01*
Y174578D01*
Y174330D01*
Y174082D01*
X878710D01*
Y173835D01*
Y173587D01*
Y173340D01*
X878958D01*
Y173092D01*
Y172844D01*
X879205D01*
Y172597D01*
Y172349D01*
Y172101D01*
X879453D01*
Y171854D01*
Y171606D01*
X871283D01*
Y171359D01*
Y171111D01*
X871530D01*
Y170864D01*
Y170616D01*
Y170368D01*
X871778D01*
Y170121D01*
Y169873D01*
Y169626D01*
X872025D01*
Y169378D01*
Y169130D01*
Y168883D01*
X872273D01*
Y168635D01*
Y168388D01*
Y168140D01*
X872521D01*
Y167892D01*
Y167645D01*
Y167397D01*
X872768D01*
Y167150D01*
Y166902D01*
Y166654D01*
X873016D01*
Y166407D01*
Y166159D01*
Y165912D01*
X873263D01*
Y165664D01*
Y165417D01*
Y165169D01*
X873511D01*
Y164921D01*
Y164674D01*
Y164426D01*
X873758D01*
Y164179D01*
Y163931D01*
Y163683D01*
X874006D01*
Y163436D01*
Y163188D01*
Y162941D01*
X874254D01*
Y162693D01*
Y162445D01*
Y162198D01*
X874501D01*
Y161950D01*
Y161703D01*
Y161455D01*
X874749D01*
Y161207D01*
Y160960D01*
X874996D01*
Y160712D01*
X900746D01*
Y160960D01*
Y161207D01*
X900498D01*
Y161455D01*
Y161703D01*
Y161950D01*
X900251D01*
Y162198D01*
Y162445D01*
Y162693D01*
X900003D01*
Y162941D01*
Y163188D01*
Y163436D01*
X899756D01*
Y163683D01*
Y163931D01*
Y164179D01*
X899508D01*
Y164426D01*
Y164674D01*
Y164921D01*
X899260D01*
Y165169D01*
Y165417D01*
Y165664D01*
X899013D01*
Y165912D01*
Y166159D01*
Y166407D01*
X898765D01*
Y166654D01*
Y166902D01*
Y167150D01*
X898518D01*
Y167397D01*
Y167645D01*
Y167892D01*
X898270D01*
Y168140D01*
Y168388D01*
Y168635D01*
X898023D01*
Y168883D01*
Y169130D01*
Y169378D01*
X897775D01*
Y169626D01*
Y169873D01*
Y170121D01*
X897527D01*
Y170368D01*
Y170616D01*
Y170864D01*
X897280D01*
Y171111D01*
Y171359D01*
Y171606D01*
X888862D01*
Y171854D01*
Y172101D01*
X888614D01*
Y172349D01*
Y172597D01*
Y172844D01*
X888366D01*
Y173092D01*
Y173340D01*
X888119D01*
Y173587D01*
Y173835D01*
Y174082D01*
X887871D01*
Y174330D01*
Y174578D01*
Y174825D01*
X887624D01*
Y175073D01*
Y175320D01*
Y175568D01*
X887376D01*
Y175815D01*
Y176063D01*
Y176311D01*
X887129D01*
Y176558D01*
Y176806D01*
Y177053D01*
X886881D01*
Y177301D01*
Y177549D01*
Y177796D01*
X886633D01*
Y178044D01*
Y178291D01*
Y178539D01*
X886386D01*
Y178787D01*
Y179034D01*
Y179282D01*
X886138D01*
Y179529D01*
Y179777D01*
Y180025D01*
X885891D01*
Y180272D01*
Y180520D01*
Y180767D01*
X885643D01*
Y181015D01*
Y181262D01*
Y181510D01*
X885395D01*
Y181758D01*
Y182005D01*
Y182253D01*
X885148D01*
Y182500D01*
Y182748D01*
Y182996D01*
X884900D01*
Y183243D01*
Y183491D01*
Y183738D01*
X884652D01*
Y183986D01*
Y184233D01*
Y184481D01*
X884405D01*
Y184729D01*
Y184976D01*
Y185224D01*
X884157D01*
Y185471D01*
Y185719D01*
Y185967D01*
X883910D01*
Y186214D01*
Y186462D01*
X883662D01*
Y186709D01*
Y186957D01*
Y187205D01*
X883415D01*
Y187452D01*
Y187700D01*
Y187947D01*
X883167D01*
Y188195D01*
Y188443D01*
Y188690D01*
X882919D01*
Y188938D01*
Y189185D01*
Y189433D01*
X882672D01*
Y189681D01*
Y189928D01*
Y190176D01*
X882424D01*
Y190423D01*
Y190671D01*
Y190919D01*
X882177D01*
Y191166D01*
Y191414D01*
Y191661D01*
X881929D01*
Y191909D01*
Y192157D01*
Y192404D01*
X881681D01*
Y192652D01*
Y192899D01*
Y193147D01*
X881434D01*
Y193395D01*
Y193642D01*
Y193890D01*
X881186D01*
Y194137D01*
Y194385D01*
Y194632D01*
X880939D01*
Y194880D01*
Y195128D01*
Y195375D01*
X880691D01*
Y195623D01*
Y195870D01*
Y196118D01*
X880443D01*
Y196366D01*
Y196613D01*
Y196861D01*
X880196D01*
Y197108D01*
Y197356D01*
Y197603D01*
X879948D01*
Y197851D01*
Y198099D01*
Y198346D01*
X879701D01*
Y198594D01*
Y198841D01*
X879453D01*
Y199089D01*
Y199337D01*
Y199584D01*
X879205D01*
Y199832D01*
Y200079D01*
Y200327D01*
X878958D01*
Y200575D01*
Y200822D01*
X887129D01*
Y201070D01*
Y201317D01*
X886881D01*
Y201565D01*
Y201813D01*
Y202060D01*
X886633D01*
Y202308D01*
Y202555D01*
Y202803D01*
X886386D01*
Y203051D01*
Y203298D01*
Y203546D01*
X886138D01*
Y203793D01*
Y204041D01*
Y204289D01*
X885891D01*
Y204536D01*
Y204784D01*
Y205031D01*
X885643D01*
Y205279D01*
Y205527D01*
Y205774D01*
X885395D01*
Y206022D01*
Y206269D01*
Y206517D01*
X885148D01*
Y206765D01*
Y207012D01*
Y207260D01*
X884900D01*
Y207507D01*
Y207755D01*
Y208002D01*
X884652D01*
Y208250D01*
Y208498D01*
Y208745D01*
X884405D01*
Y208993D01*
Y209240D01*
Y209488D01*
X884157D01*
Y209736D01*
Y209983D01*
Y210231D01*
X883910D01*
Y210478D01*
Y210726D01*
Y210973D01*
X883662D01*
Y211221D01*
Y211469D01*
X883415D01*
Y211716D01*
X868064D01*
Y211964D01*
Y212211D01*
Y212459D01*
X867816D01*
Y212707D01*
Y212954D01*
Y213202D01*
X867569D01*
Y213449D01*
Y213697D01*
Y213945D01*
X867321D01*
Y214192D01*
Y214440D01*
Y214687D01*
X867074D01*
Y214935D01*
Y215183D01*
Y215430D01*
X866826D01*
Y215678D01*
Y215925D01*
Y216173D01*
X866578D01*
Y216420D01*
Y216668D01*
Y216916D01*
X866331D01*
Y217163D01*
Y217411D01*
Y217659D01*
X866083D01*
Y217906D01*
Y218154D01*
Y218401D01*
X865835D01*
Y218649D01*
Y218897D01*
Y219144D01*
X865588D01*
Y219392D01*
Y219639D01*
Y219887D01*
X865340D01*
Y220134D01*
Y220382D01*
Y220630D01*
X865093D01*
Y220877D01*
Y221125D01*
Y221372D01*
X864845D01*
Y221620D01*
Y221868D01*
Y222115D01*
X864597D01*
Y222363D01*
Y222610D01*
Y222858D01*
X864350D01*
Y223106D01*
Y223353D01*
Y223601D01*
X864102D01*
Y223848D01*
Y224096D01*
Y224343D01*
X863855D01*
Y224591D01*
Y224839D01*
Y225086D01*
X863607D01*
Y225334D01*
Y225581D01*
Y225829D01*
X863360D01*
Y226077D01*
Y226324D01*
Y226572D01*
X863112D01*
Y226819D01*
Y227067D01*
X904212D01*
Y226819D01*
Y226572D01*
X904460D01*
Y226324D01*
Y226077D01*
Y225829D01*
X904707D01*
Y225581D01*
Y225334D01*
Y225086D01*
X904955D01*
Y224839D01*
Y224591D01*
X905203D01*
Y224343D01*
Y224096D01*
Y223848D01*
X905450D01*
Y223601D01*
Y223353D01*
Y223106D01*
X905698D01*
Y222858D01*
Y222610D01*
Y222363D01*
X905946D01*
Y222115D01*
Y221868D01*
Y221620D01*
X906193D01*
Y221372D01*
Y221125D01*
Y220877D01*
X906441D01*
Y220630D01*
Y220382D01*
Y220134D01*
X906688D01*
Y219887D01*
Y219639D01*
Y219392D01*
X906936D01*
Y219144D01*
Y218897D01*
Y218649D01*
X907183D01*
Y218401D01*
Y218154D01*
Y217906D01*
X907431D01*
Y217659D01*
Y217411D01*
Y217163D01*
X907679D01*
Y216916D01*
Y216668D01*
Y216420D01*
X907926D01*
Y216173D01*
Y215925D01*
Y215678D01*
X908174D01*
Y215430D01*
Y215183D01*
Y214935D01*
X908421D01*
Y214687D01*
Y214440D01*
Y214192D01*
X908669D01*
Y213945D01*
Y213697D01*
Y213449D01*
X908917D01*
Y213202D01*
Y212954D01*
Y212707D01*
X909164D01*
Y212459D01*
Y212211D01*
Y211964D01*
X909412D01*
Y211716D01*
Y211469D01*
X905203D01*
Y211221D01*
Y210973D01*
X904955D01*
Y210726D01*
X904707D01*
Y210478D01*
Y210231D01*
X904460D01*
Y209983D01*
X904212D01*
Y209736D01*
Y209488D01*
X903965D01*
Y209240D01*
X903717D01*
Y208993D01*
Y208745D01*
X903469D01*
Y208498D01*
X903222D01*
Y208250D01*
Y208002D01*
X902974D01*
Y207755D01*
X902727D01*
Y207507D01*
Y207260D01*
X902479D01*
Y207012D01*
X902232D01*
Y206765D01*
Y206517D01*
X901984D01*
Y206269D01*
Y206022D01*
Y205774D01*
Y205527D01*
X902232D01*
Y205279D01*
Y205031D01*
Y204784D01*
X902479D01*
Y204536D01*
Y204289D01*
Y204041D01*
X902727D01*
Y203793D01*
Y203546D01*
Y203298D01*
X902974D01*
Y203051D01*
Y202803D01*
Y202555D01*
X903222D01*
Y202308D01*
Y202060D01*
Y201813D01*
X903469D01*
Y201565D01*
Y201317D01*
Y201070D01*
X903717D01*
Y200822D01*
Y200575D01*
Y200327D01*
X903965D01*
Y200079D01*
Y199832D01*
Y199584D01*
X904212D01*
Y199337D01*
Y199089D01*
Y198841D01*
X904460D01*
Y198594D01*
Y198346D01*
X904707D01*
Y198099D01*
Y197851D01*
Y197603D01*
X904955D01*
Y197356D01*
Y197108D01*
Y196861D01*
X905203D01*
Y196613D01*
Y196366D01*
Y196118D01*
X905450D01*
Y195870D01*
Y195623D01*
Y195375D01*
X905698D01*
Y195128D01*
Y194880D01*
Y194632D01*
X905946D01*
Y194385D01*
Y194137D01*
Y193890D01*
X906193D01*
Y193642D01*
Y193395D01*
Y193147D01*
X906441D01*
Y192899D01*
Y192652D01*
Y192404D01*
X906688D01*
Y192157D01*
Y191909D01*
Y191661D01*
X906936D01*
Y191414D01*
Y191166D01*
Y190919D01*
X907183D01*
Y190671D01*
Y190423D01*
Y190176D01*
X907431D01*
Y189928D01*
Y189681D01*
Y189433D01*
X907679D01*
Y189185D01*
Y188938D01*
Y188690D01*
X907926D01*
Y188443D01*
Y188195D01*
Y187947D01*
X908174D01*
Y187700D01*
Y187452D01*
Y187205D01*
X908421D01*
Y186957D01*
Y186709D01*
Y186462D01*
X908669D01*
Y186214D01*
Y185967D01*
X908917D01*
Y185719D01*
Y185471D01*
Y185224D01*
X909164D01*
Y184976D01*
Y184729D01*
Y184481D01*
X909412D01*
Y184233D01*
Y183986D01*
Y183738D01*
X909659D01*
Y183491D01*
Y183243D01*
Y182996D01*
X909907D01*
Y182748D01*
Y182500D01*
Y182253D01*
X910154D01*
Y182005D01*
Y181758D01*
Y181510D01*
X910402D01*
Y181262D01*
Y181015D01*
Y180767D01*
X910650D01*
Y180520D01*
Y180272D01*
Y180025D01*
X910897D01*
Y179777D01*
Y179529D01*
Y179282D01*
X911145D01*
Y179034D01*
Y178787D01*
Y178539D01*
X911393D01*
Y178291D01*
Y178044D01*
Y177796D01*
X911640D01*
Y177549D01*
Y177301D01*
Y177053D01*
X911888D01*
Y176806D01*
Y176558D01*
Y176311D01*
X912135D01*
Y176063D01*
Y175815D01*
Y175568D01*
X912383D01*
Y175320D01*
Y175073D01*
Y174825D01*
X912630D01*
Y174578D01*
Y174330D01*
Y174082D01*
X912878D01*
Y173835D01*
Y173587D01*
Y173340D01*
X913126D01*
Y173092D01*
Y172844D01*
X913373D01*
Y172597D01*
Y172349D01*
Y172101D01*
X913621D01*
Y171854D01*
Y171606D01*
Y171359D01*
X913868D01*
Y171111D01*
Y170864D01*
Y170616D01*
X914116D01*
Y170368D01*
Y170121D01*
Y169873D01*
X914364D01*
Y169626D01*
Y169378D01*
Y169130D01*
X914611D01*
Y168883D01*
Y168635D01*
Y168388D01*
X914859D01*
Y168140D01*
Y167892D01*
Y167645D01*
X915106D01*
Y167397D01*
Y167150D01*
Y166902D01*
X915354D01*
Y166654D01*
Y166407D01*
Y166159D01*
X915602D01*
Y165912D01*
Y165664D01*
Y165417D01*
X915849D01*
Y165169D01*
X916840D01*
Y164921D01*
X917087D01*
Y164674D01*
X917582D01*
Y164426D01*
X917830D01*
Y164179D01*
X918077D01*
Y163931D01*
X918573D01*
Y163683D01*
X918820D01*
Y163436D01*
X919068D01*
Y163188D01*
X919563D01*
Y162941D01*
X919811D01*
Y162693D01*
X920058D01*
Y162445D01*
X920553D01*
Y162198D01*
X920801D01*
Y161950D01*
X921049D01*
Y161703D01*
X921544D01*
Y161455D01*
X921791D01*
Y161207D01*
X922039D01*
Y160960D01*
X922534D01*
Y160712D01*
X955216D01*
Y160960D01*
X954969D01*
Y161207D01*
Y161455D01*
Y161703D01*
X954721D01*
Y161950D01*
Y162198D01*
Y162445D01*
X954474D01*
Y162693D01*
Y162941D01*
Y163188D01*
X954226D01*
Y163436D01*
Y163683D01*
Y163931D01*
X953978D01*
Y164179D01*
Y164426D01*
Y164674D01*
X953731D01*
Y164921D01*
Y165169D01*
Y165417D01*
X953483D01*
Y165664D01*
Y165912D01*
Y166159D01*
X953236D01*
Y166407D01*
Y166654D01*
Y166902D01*
X952988D01*
Y167150D01*
Y167397D01*
Y167645D01*
X952740D01*
Y167892D01*
Y168140D01*
Y168388D01*
X952493D01*
Y168635D01*
Y168883D01*
Y169130D01*
X952245D01*
Y169378D01*
Y169626D01*
Y169873D01*
X951998D01*
Y170121D01*
Y170368D01*
Y170616D01*
X951750D01*
Y170864D01*
Y171111D01*
Y171359D01*
X951503D01*
Y171606D01*
Y171854D01*
Y172101D01*
X951255D01*
Y172349D01*
Y172597D01*
Y172844D01*
X951007D01*
Y173092D01*
Y173340D01*
X950760D01*
Y173587D01*
Y173835D01*
Y174082D01*
X950512D01*
Y174330D01*
Y174578D01*
Y174825D01*
X950265D01*
Y175073D01*
Y175320D01*
Y175568D01*
X950017D01*
Y175815D01*
Y176063D01*
Y176311D01*
X949769D01*
Y176558D01*
Y176806D01*
Y177053D01*
X949522D01*
Y177301D01*
Y177549D01*
Y177796D01*
X949274D01*
Y178044D01*
Y178291D01*
Y178539D01*
X949026D01*
Y178787D01*
Y179034D01*
Y179282D01*
X948779D01*
Y179529D01*
Y179777D01*
Y180025D01*
X948531D01*
Y180272D01*
Y180520D01*
Y180767D01*
X948284D01*
Y181015D01*
Y181262D01*
Y181510D01*
X948036D01*
Y181758D01*
Y182005D01*
Y182253D01*
X947789D01*
Y182500D01*
Y182748D01*
Y182996D01*
X947541D01*
Y183243D01*
Y183491D01*
Y183738D01*
X947293D01*
Y183986D01*
Y184233D01*
Y184481D01*
X947046D01*
Y184729D01*
Y184976D01*
Y185224D01*
X946798D01*
Y185471D01*
Y185719D01*
Y185967D01*
X946551D01*
Y186214D01*
Y186462D01*
X946303D01*
Y186709D01*
Y186957D01*
Y187205D01*
X946055D01*
Y187452D01*
Y187700D01*
Y187947D01*
X945808D01*
Y188195D01*
Y188443D01*
Y188690D01*
X945560D01*
Y188938D01*
Y189185D01*
Y189433D01*
X945313D01*
Y189681D01*
Y189928D01*
Y190176D01*
X945065D01*
Y190423D01*
Y190671D01*
Y190919D01*
X944818D01*
Y191166D01*
Y191414D01*
Y191661D01*
X944570D01*
Y191909D01*
Y192157D01*
Y192404D01*
X944322D01*
Y192652D01*
Y192899D01*
Y193147D01*
X944075D01*
Y193395D01*
Y193642D01*
Y193890D01*
X943827D01*
Y194137D01*
Y194385D01*
Y194632D01*
X943579D01*
Y194880D01*
Y195128D01*
Y195375D01*
X943332D01*
Y195623D01*
Y195870D01*
Y196118D01*
X943084D01*
Y196366D01*
Y196613D01*
Y196861D01*
X942837D01*
Y197108D01*
Y197356D01*
Y197603D01*
X942589D01*
Y197851D01*
Y198099D01*
Y198346D01*
X942342D01*
Y198594D01*
Y198841D01*
X942094D01*
Y199089D01*
Y199337D01*
Y199584D01*
X941846D01*
Y199832D01*
Y200079D01*
Y200327D01*
X941599D01*
Y200575D01*
Y200822D01*
Y201070D01*
X941351D01*
Y201317D01*
Y201565D01*
Y201813D01*
X941104D01*
Y202060D01*
Y202308D01*
Y202555D01*
X940856D01*
Y202803D01*
Y203051D01*
Y203298D01*
X940608D01*
Y203546D01*
Y203793D01*
Y204041D01*
X940361D01*
Y204289D01*
Y204536D01*
Y204784D01*
X940113D01*
Y205031D01*
Y205279D01*
Y205527D01*
X939866D01*
Y205774D01*
Y206022D01*
Y206269D01*
X939618D01*
Y206517D01*
Y206765D01*
Y207012D01*
X939370D01*
Y207260D01*
Y207507D01*
Y207755D01*
X939123D01*
Y208002D01*
Y208250D01*
Y208498D01*
X938875D01*
Y208745D01*
Y208993D01*
Y209240D01*
X938628D01*
Y209488D01*
Y209736D01*
Y209983D01*
X938380D01*
Y210231D01*
Y210478D01*
Y210726D01*
X938132D01*
Y210973D01*
Y211221D01*
X937885D01*
Y211469D01*
X913373D01*
Y211716D01*
X913126D01*
Y211964D01*
Y212211D01*
Y212459D01*
X912878D01*
Y212707D01*
Y212954D01*
Y213202D01*
X912630D01*
Y213449D01*
Y213697D01*
Y213945D01*
X912383D01*
Y214192D01*
Y214440D01*
Y214687D01*
X912135D01*
Y214935D01*
Y215183D01*
Y215430D01*
X911888D01*
Y215678D01*
Y215925D01*
Y216173D01*
X911640D01*
Y216420D01*
Y216668D01*
Y216916D01*
X911393D01*
Y217163D01*
Y217411D01*
Y217659D01*
X911145D01*
Y217906D01*
Y218154D01*
Y218401D01*
X910897D01*
Y218649D01*
Y218897D01*
Y219144D01*
X910650D01*
Y219392D01*
Y219639D01*
Y219887D01*
X910402D01*
Y220134D01*
Y220382D01*
Y220630D01*
X910154D01*
Y220877D01*
Y221125D01*
Y221372D01*
X909907D01*
Y221620D01*
Y221868D01*
Y222115D01*
X909659D01*
Y222363D01*
Y222610D01*
Y222858D01*
X909412D01*
Y223106D01*
Y223353D01*
Y223601D01*
X909164D01*
Y223848D01*
Y224096D01*
Y224343D01*
X908917D01*
Y224591D01*
Y224839D01*
Y225086D01*
X908669D01*
Y225334D01*
Y225581D01*
Y225829D01*
X908421D01*
Y226077D01*
Y226324D01*
Y226572D01*
X908174D01*
Y226819D01*
Y227067D01*
X953978D01*
Y227315D01*
X953731D01*
Y227562D01*
Y227810D01*
X953483D01*
Y228057D01*
Y228305D01*
Y228553D01*
X953236D01*
Y228800D01*
Y229048D01*
X952988D01*
Y229295D01*
Y229543D01*
Y229790D01*
X952740D01*
Y230038D01*
Y230286D01*
Y230533D01*
X952493D01*
Y230781D01*
Y231028D01*
Y231276D01*
X952245D01*
Y231524D01*
Y231771D01*
X951998D01*
Y232019D01*
Y232267D01*
Y232514D01*
X951750D01*
Y232762D01*
Y233009D01*
Y233257D01*
X951503D01*
Y233504D01*
Y233752D01*
Y234000D01*
X951255D01*
Y234247D01*
Y234495D01*
Y234742D01*
X951007D01*
Y234990D01*
Y235238D01*
Y235485D01*
X950760D01*
Y235733D01*
Y235980D01*
Y236228D01*
X950512D01*
Y236476D01*
Y236723D01*
Y236971D01*
X950265D01*
Y237218D01*
Y237466D01*
Y237714D01*
X950017D01*
Y237961D01*
Y238209D01*
Y238456D01*
X949769D01*
Y238704D01*
Y238951D01*
Y239199D01*
X949522D01*
Y239447D01*
Y239694D01*
Y239942D01*
X949274D01*
Y240189D01*
Y240437D01*
Y240685D01*
X949026D01*
Y240932D01*
Y241180D01*
Y241427D01*
X948779D01*
Y241675D01*
Y241923D01*
Y242170D01*
X948531D01*
Y242418D01*
Y242665D01*
Y242913D01*
X948284D01*
Y243160D01*
Y243408D01*
Y243656D01*
X948036D01*
Y243903D01*
Y244151D01*
Y244398D01*
X947789D01*
Y244646D01*
Y244894D01*
Y245141D01*
X947541D01*
Y245389D01*
Y245637D01*
Y245884D01*
X947293D01*
Y246132D01*
Y246379D01*
Y246627D01*
X947046D01*
Y246874D01*
Y247122D01*
Y247370D01*
X962644D01*
Y247617D01*
X962396D01*
Y247865D01*
Y248112D01*
Y248360D01*
X962149D01*
Y248608D01*
Y248855D01*
Y249103D01*
X961901D01*
Y249350D01*
Y249598D01*
Y249846D01*
X961654D01*
Y250093D01*
Y250341D01*
X961406D01*
Y250588D01*
Y250836D01*
Y251084D01*
X961159D01*
Y251331D01*
Y251579D01*
Y251826D01*
X960911D01*
Y252074D01*
Y252321D01*
Y252569D01*
X960663D01*
Y252817D01*
Y253064D01*
Y253312D01*
X960416D01*
Y253559D01*
Y253807D01*
Y254055D01*
X960168D01*
Y254302D01*
Y254550D01*
Y254797D01*
X959921D01*
Y255045D01*
Y255293D01*
Y255540D01*
X959673D01*
Y255788D01*
Y256035D01*
Y256283D01*
X959425D01*
Y256530D01*
Y256778D01*
Y257026D01*
X959178D01*
Y257273D01*
Y257521D01*
X958930D01*
Y257768D01*
Y258016D01*
Y258264D01*
X958683D01*
Y258511D01*
Y258759D01*
Y259006D01*
X958435D01*
Y259254D01*
Y259502D01*
Y259749D01*
X958187D01*
Y259997D01*
Y260244D01*
Y260492D01*
X957940D01*
Y260740D01*
Y260987D01*
Y261235D01*
X957692D01*
Y261482D01*
Y261730D01*
Y261978D01*
X957445D01*
Y262225D01*
Y262473D01*
Y262720D01*
X957197D01*
Y262968D01*
Y263216D01*
Y263463D01*
X956949D01*
Y263711D01*
Y263958D01*
X956702D01*
Y264206D01*
Y264454D01*
Y264701D01*
X956454D01*
Y264949D01*
Y265196D01*
Y265444D01*
X956207D01*
Y265691D01*
Y265939D01*
Y266187D01*
X955959D01*
Y266434D01*
Y266682D01*
Y266929D01*
X955712D01*
Y267177D01*
Y267425D01*
Y267672D01*
X955464D01*
Y267920D01*
Y268167D01*
Y268415D01*
X955216D01*
Y268663D01*
Y268910D01*
Y269158D01*
X954969D01*
Y269405D01*
Y269653D01*
Y269900D01*
X954721D01*
Y270148D01*
Y270396D01*
Y270643D01*
X954474D01*
Y270891D01*
Y271138D01*
X954226D01*
Y271386D01*
Y271634D01*
Y271881D01*
X917087D01*
Y271634D01*
D02*
G37*
%LPC*%
G36*
X791805Y203298D02*
X812603D01*
Y203051D01*
Y202803D01*
Y202555D01*
X812851D01*
Y202308D01*
Y202060D01*
Y201813D01*
X813098D01*
Y201565D01*
Y201317D01*
Y201070D01*
X813346D01*
Y200822D01*
Y200575D01*
Y200327D01*
X813594D01*
Y200079D01*
Y199832D01*
Y199584D01*
X813841D01*
Y199337D01*
Y199089D01*
Y198841D01*
X814089D01*
Y198594D01*
Y198346D01*
X814336D01*
Y198099D01*
Y197851D01*
Y197603D01*
X814584D01*
Y197356D01*
Y197108D01*
Y196861D01*
X814831D01*
Y196613D01*
Y196366D01*
Y196118D01*
X815079D01*
Y195870D01*
Y195623D01*
Y195375D01*
X815327D01*
Y195128D01*
Y194880D01*
Y194632D01*
X815574D01*
Y194385D01*
Y194137D01*
Y193890D01*
X815822D01*
Y193642D01*
Y193395D01*
Y193147D01*
X816069D01*
Y192899D01*
Y192652D01*
Y192404D01*
X816317D01*
Y192157D01*
Y191909D01*
Y191661D01*
X816565D01*
Y191414D01*
Y191166D01*
Y190919D01*
X816812D01*
Y190671D01*
Y190423D01*
Y190176D01*
X817060D01*
Y189928D01*
Y189681D01*
Y189433D01*
X817307D01*
Y189185D01*
Y188938D01*
Y188690D01*
X817555D01*
Y188443D01*
Y188195D01*
Y187947D01*
X817803D01*
Y187700D01*
Y187452D01*
Y187205D01*
X818050D01*
Y186957D01*
Y186709D01*
Y186462D01*
X818298D01*
Y186214D01*
Y185967D01*
X818545D01*
Y185719D01*
Y185471D01*
Y185224D01*
X818793D01*
Y184976D01*
Y184729D01*
Y184481D01*
X819041D01*
Y184233D01*
Y183986D01*
Y183738D01*
X819288D01*
Y183491D01*
Y183243D01*
Y182996D01*
X819536D01*
Y182748D01*
Y182500D01*
Y182253D01*
X819783D01*
Y182005D01*
Y181758D01*
Y181510D01*
X820031D01*
Y181262D01*
Y181015D01*
Y180767D01*
X820278D01*
Y180520D01*
Y180272D01*
Y180025D01*
X820526D01*
Y179777D01*
Y179529D01*
Y179282D01*
X820774D01*
Y179034D01*
Y178787D01*
Y178539D01*
X821021D01*
Y178291D01*
Y178044D01*
Y177796D01*
X821269D01*
Y177549D01*
Y177301D01*
Y177053D01*
X821516D01*
Y176806D01*
Y176558D01*
Y176311D01*
X821764D01*
Y176063D01*
Y175815D01*
Y175568D01*
X822012D01*
Y175320D01*
Y175073D01*
Y174825D01*
X822259D01*
Y174578D01*
Y174330D01*
Y174082D01*
X822507D01*
Y173835D01*
Y173587D01*
Y173340D01*
X822754D01*
Y173092D01*
Y172844D01*
X823002D01*
Y172597D01*
Y172349D01*
Y172101D01*
X823250D01*
Y171854D01*
Y171606D01*
Y171359D01*
X823497D01*
Y171111D01*
Y170864D01*
Y170616D01*
X823745D01*
Y170368D01*
Y170121D01*
Y169873D01*
X823992D01*
Y169626D01*
Y169378D01*
Y169130D01*
X824240D01*
Y168883D01*
X803442D01*
Y169130D01*
X803195D01*
Y169378D01*
Y169626D01*
Y169873D01*
X802947D01*
Y170121D01*
Y170368D01*
Y170616D01*
X802699D01*
Y170864D01*
Y171111D01*
Y171359D01*
X802452D01*
Y171606D01*
Y171854D01*
Y172101D01*
X802204D01*
Y172349D01*
Y172597D01*
Y172844D01*
X801957D01*
Y173092D01*
Y173340D01*
X801709D01*
Y173587D01*
Y173835D01*
Y174082D01*
X801461D01*
Y174330D01*
Y174578D01*
Y174825D01*
X801214D01*
Y175073D01*
Y175320D01*
Y175568D01*
X800966D01*
Y175815D01*
Y176063D01*
Y176311D01*
X800719D01*
Y176558D01*
Y176806D01*
Y177053D01*
X800471D01*
Y177301D01*
Y177549D01*
Y177796D01*
X800223D01*
Y178044D01*
Y178291D01*
Y178539D01*
X799976D01*
Y178787D01*
Y179034D01*
Y179282D01*
X799728D01*
Y179529D01*
Y179777D01*
Y180025D01*
X799481D01*
Y180272D01*
Y180520D01*
Y180767D01*
X799233D01*
Y181015D01*
Y181262D01*
Y181510D01*
X798986D01*
Y181758D01*
Y182005D01*
Y182253D01*
X798738D01*
Y182500D01*
Y182748D01*
Y182996D01*
X798490D01*
Y183243D01*
Y183491D01*
Y183738D01*
X798243D01*
Y183986D01*
Y184233D01*
Y184481D01*
X797995D01*
Y184729D01*
Y184976D01*
Y185224D01*
X797748D01*
Y185471D01*
Y185719D01*
Y185967D01*
X797500D01*
Y186214D01*
Y186462D01*
X797252D01*
Y186709D01*
Y186957D01*
Y187205D01*
X797005D01*
Y187452D01*
Y187700D01*
Y187947D01*
X796757D01*
Y188195D01*
Y188443D01*
Y188690D01*
X796510D01*
Y188938D01*
Y189185D01*
Y189433D01*
X796262D01*
Y189681D01*
Y189928D01*
Y190176D01*
X796014D01*
Y190423D01*
Y190671D01*
Y190919D01*
X795767D01*
Y191166D01*
Y191414D01*
Y191661D01*
X795519D01*
Y191909D01*
Y192157D01*
Y192404D01*
X795272D01*
Y192652D01*
Y192899D01*
Y193147D01*
X795024D01*
Y193395D01*
Y193642D01*
Y193890D01*
X794777D01*
Y194137D01*
Y194385D01*
Y194632D01*
X794529D01*
Y194880D01*
Y195128D01*
Y195375D01*
X794281D01*
Y195623D01*
Y195870D01*
Y196118D01*
X794034D01*
Y196366D01*
Y196613D01*
Y196861D01*
X793786D01*
Y197108D01*
Y197356D01*
Y197603D01*
X793539D01*
Y197851D01*
Y198099D01*
Y198346D01*
X793291D01*
Y198594D01*
Y198841D01*
X793043D01*
Y199089D01*
Y199337D01*
Y199584D01*
X792796D01*
Y199832D01*
Y200079D01*
Y200327D01*
X792548D01*
Y200575D01*
Y200822D01*
Y201070D01*
X792301D01*
Y201317D01*
Y201565D01*
Y201813D01*
X792053D01*
Y202060D01*
Y202308D01*
Y202555D01*
X791805D01*
Y202803D01*
Y203051D01*
Y203298D01*
D02*
G37*
G36*
X911640D02*
X932438D01*
Y203051D01*
Y202803D01*
Y202555D01*
X932685D01*
Y202308D01*
Y202060D01*
Y201813D01*
X932933D01*
Y201565D01*
Y201317D01*
Y201070D01*
X933181D01*
Y200822D01*
Y200575D01*
Y200327D01*
X933428D01*
Y200079D01*
Y199832D01*
Y199584D01*
X933676D01*
Y199337D01*
Y199089D01*
Y198841D01*
X933923D01*
Y198594D01*
Y198346D01*
X934171D01*
Y198099D01*
Y197851D01*
Y197603D01*
X934419D01*
Y197356D01*
Y197108D01*
Y196861D01*
X934666D01*
Y196613D01*
Y196366D01*
Y196118D01*
X934914D01*
Y195870D01*
Y195623D01*
Y195375D01*
X935161D01*
Y195128D01*
Y194880D01*
Y194632D01*
X935409D01*
Y194385D01*
Y194137D01*
Y193890D01*
X935657D01*
Y193642D01*
Y193395D01*
Y193147D01*
X935904D01*
Y192899D01*
Y192652D01*
Y192404D01*
X936152D01*
Y192157D01*
Y191909D01*
Y191661D01*
X936399D01*
Y191414D01*
Y191166D01*
Y190919D01*
X936647D01*
Y190671D01*
Y190423D01*
Y190176D01*
X936895D01*
Y189928D01*
Y189681D01*
Y189433D01*
X937142D01*
Y189185D01*
Y188938D01*
Y188690D01*
X937390D01*
Y188443D01*
Y188195D01*
Y187947D01*
X937637D01*
Y187700D01*
Y187452D01*
Y187205D01*
X937885D01*
Y186957D01*
Y186709D01*
Y186462D01*
X938132D01*
Y186214D01*
Y185967D01*
X938380D01*
Y185719D01*
Y185471D01*
Y185224D01*
X938628D01*
Y184976D01*
Y184729D01*
Y184481D01*
X938875D01*
Y184233D01*
Y183986D01*
Y183738D01*
X939123D01*
Y183491D01*
Y183243D01*
Y182996D01*
X939370D01*
Y182748D01*
Y182500D01*
Y182253D01*
X939618D01*
Y182005D01*
Y181758D01*
Y181510D01*
X939866D01*
Y181262D01*
Y181015D01*
Y180767D01*
X940113D01*
Y180520D01*
Y180272D01*
Y180025D01*
X940361D01*
Y179777D01*
Y179529D01*
Y179282D01*
X940608D01*
Y179034D01*
Y178787D01*
Y178539D01*
X940856D01*
Y178291D01*
Y178044D01*
Y177796D01*
X941104D01*
Y177549D01*
Y177301D01*
Y177053D01*
X941351D01*
Y176806D01*
Y176558D01*
Y176311D01*
X941599D01*
Y176063D01*
Y175815D01*
Y175568D01*
X941846D01*
Y175320D01*
Y175073D01*
Y174825D01*
X942094D01*
Y174578D01*
Y174330D01*
Y174082D01*
X942342D01*
Y173835D01*
Y173587D01*
Y173340D01*
X942589D01*
Y173092D01*
Y172844D01*
X942837D01*
Y172597D01*
Y172349D01*
Y172101D01*
X943084D01*
Y171854D01*
Y171606D01*
Y171359D01*
X943332D01*
Y171111D01*
Y170864D01*
Y170616D01*
X943579D01*
Y170368D01*
Y170121D01*
Y169873D01*
X943827D01*
Y169626D01*
Y169378D01*
Y169130D01*
X944075D01*
Y168883D01*
X923277D01*
Y169130D01*
X923029D01*
Y169378D01*
Y169626D01*
Y169873D01*
X922782D01*
Y170121D01*
Y170368D01*
Y170616D01*
X922534D01*
Y170864D01*
Y171111D01*
Y171359D01*
X922287D01*
Y171606D01*
Y171854D01*
Y172101D01*
X922039D01*
Y172349D01*
Y172597D01*
Y172844D01*
X921791D01*
Y173092D01*
Y173340D01*
X921544D01*
Y173587D01*
Y173835D01*
Y174082D01*
X921296D01*
Y174330D01*
Y174578D01*
Y174825D01*
X921049D01*
Y175073D01*
Y175320D01*
Y175568D01*
X920801D01*
Y175815D01*
Y176063D01*
Y176311D01*
X920553D01*
Y176558D01*
Y176806D01*
Y177053D01*
X920306D01*
Y177301D01*
Y177549D01*
Y177796D01*
X920058D01*
Y178044D01*
Y178291D01*
Y178539D01*
X919811D01*
Y178787D01*
Y179034D01*
Y179282D01*
X919563D01*
Y179529D01*
Y179777D01*
Y180025D01*
X919315D01*
Y180272D01*
Y180520D01*
Y180767D01*
X919068D01*
Y181015D01*
Y181262D01*
Y181510D01*
X918820D01*
Y181758D01*
Y182005D01*
Y182253D01*
X918573D01*
Y182500D01*
Y182748D01*
Y182996D01*
X918325D01*
Y183243D01*
Y183491D01*
Y183738D01*
X918077D01*
Y183986D01*
Y184233D01*
Y184481D01*
X917830D01*
Y184729D01*
Y184976D01*
Y185224D01*
X917582D01*
Y185471D01*
Y185719D01*
Y185967D01*
X917335D01*
Y186214D01*
Y186462D01*
X917087D01*
Y186709D01*
Y186957D01*
Y187205D01*
X916840D01*
Y187452D01*
Y187700D01*
Y187947D01*
X916592D01*
Y188195D01*
Y188443D01*
Y188690D01*
X916344D01*
Y188938D01*
Y189185D01*
Y189433D01*
X916097D01*
Y189681D01*
Y189928D01*
Y190176D01*
X915849D01*
Y190423D01*
Y190671D01*
Y190919D01*
X915602D01*
Y191166D01*
Y191414D01*
Y191661D01*
X915354D01*
Y191909D01*
Y192157D01*
Y192404D01*
X915106D01*
Y192652D01*
Y192899D01*
Y193147D01*
X914859D01*
Y193395D01*
Y193642D01*
Y193890D01*
X914611D01*
Y194137D01*
Y194385D01*
Y194632D01*
X914364D01*
Y194880D01*
Y195128D01*
Y195375D01*
X914116D01*
Y195623D01*
Y195870D01*
Y196118D01*
X913868D01*
Y196366D01*
Y196613D01*
Y196861D01*
X913621D01*
Y197108D01*
Y197356D01*
Y197603D01*
X913373D01*
Y197851D01*
Y198099D01*
Y198346D01*
X913126D01*
Y198594D01*
Y198841D01*
X912878D01*
Y199089D01*
Y199337D01*
Y199584D01*
X912630D01*
Y199832D01*
Y200079D01*
Y200327D01*
X912383D01*
Y200575D01*
Y200822D01*
Y201070D01*
X912135D01*
Y201317D01*
Y201565D01*
Y201813D01*
X911888D01*
Y202060D01*
Y202308D01*
Y202555D01*
X911640D01*
Y202803D01*
Y203051D01*
Y203298D01*
D02*
G37*
%LPD*%
D10*
X2024058Y882600D02*
G03*
X2010850Y869392I0J-13208D01*
G01*
Y19508D02*
G03*
X2024058Y6300I13208J0D01*
G01*
X2108000Y844550D02*
G03*
X2108000Y844550I-40000J0D01*
G01*
Y44450D02*
G03*
X2108000Y44450I-40000J0D01*
G01*
X58000Y800000D02*
G03*
X58000Y800000I-42000J0D01*
G01*
X602000Y770000D02*
G03*
X602000Y770000I-42000J0D01*
G01*
X62000Y90000D02*
G03*
X62000Y90000I-42000J0D01*
G01*
X462000Y800000D02*
G03*
X462000Y800000I-42000J0D01*
G01*
X602000Y122000D02*
G03*
X602000Y122000I-42000J0D01*
G01*
X462000Y90000D02*
G03*
X462000Y90000I-42000J0D01*
G01*
X1758000Y770000D02*
G03*
X1758000Y770000I-42000J0D01*
G01*
Y122000D02*
G03*
X1758000Y122000I-42000J0D01*
G01*
X1561000Y267520D02*
G03*
X1561000Y267480I-1000J-20D01*
G01*
X498500Y628000D02*
X502000D01*
Y682000D01*
X498500D02*
X502000D01*
X466000Y628000D02*
X469500D01*
X466000D02*
Y682000D01*
X469500D01*
X394000Y703000D02*
X446000D01*
X394000Y673000D02*
Y703000D01*
Y673000D02*
X446000D01*
Y703000D01*
X1881100Y119100D02*
Y130900D01*
X1975100Y119100D02*
Y130900D01*
X2010850Y715082D02*
Y745518D01*
Y638882D02*
Y669318D01*
Y575382D02*
Y593118D01*
Y511882D02*
Y529618D01*
Y245082D02*
Y250118D01*
Y194282D02*
Y199318D01*
Y143482D02*
Y148518D01*
Y19508D02*
Y97718D01*
Y791282D02*
Y869392D01*
X2024058Y882600D02*
X2247070D01*
Y6300D02*
Y882600D01*
X2024058Y6300D02*
X2247070D01*
X1975250Y57000D02*
Y60500D01*
X1921250Y24500D02*
Y28000D01*
Y57000D02*
Y60500D01*
X1975250D01*
X1921250Y24500D02*
X1975250D01*
Y28000D01*
X1804500Y685000D02*
X1835500D01*
X1804500Y635000D02*
X1835500D01*
Y515000D02*
Y565000D01*
X1804500Y515000D02*
Y565000D01*
Y625000D02*
X1835500D01*
X1804500Y575000D02*
X1835500D01*
Y635000D02*
Y685000D01*
X1804500Y635000D02*
Y685000D01*
Y515000D02*
X1835500D01*
X1507000Y665500D02*
Y694500D01*
Y630500D02*
X1513000D01*
Y665500D02*
Y694500D01*
X1507000Y665500D02*
X1513000D01*
Y630500D02*
Y659500D01*
X1804500Y565000D02*
X1835500D01*
X1507000Y630500D02*
Y659500D01*
X1513000D01*
X1835500Y575000D02*
Y625000D01*
X-43250Y323683D02*
Y330317D01*
Y483684D02*
Y490317D01*
Y403684D02*
Y410317D01*
Y443684D02*
Y450317D01*
X28000Y310500D02*
X57000D01*
X1804500Y695000D02*
X1835500D01*
Y745000D01*
X1804500Y575000D02*
Y625000D01*
Y745000D02*
X1835500D01*
X28000Y304500D02*
X57000D01*
X28000D02*
Y310500D01*
X1804500Y695000D02*
Y745000D01*
X57000Y304500D02*
Y310500D01*
X1507000Y694500D02*
X1513000D01*
X-43250Y523684D02*
Y530317D01*
X156350Y441500D02*
Y472500D01*
X68350Y441500D02*
Y472500D01*
Y441500D02*
X156350D01*
X68350Y472500D02*
X156350D01*
X177500Y648000D02*
X227500D01*
X177500Y617000D02*
X227500D01*
X177500D02*
Y648000D01*
X227500Y617000D02*
Y648000D01*
X1646000Y645500D02*
Y694500D01*
X1614000Y525500D02*
Y574500D01*
X1646000D01*
X1575500Y163000D02*
X1584500D01*
X1614000Y525500D02*
X1646000D01*
X1614000Y645500D02*
Y694500D01*
X1646000D01*
Y525500D02*
Y574500D01*
X1614000Y645500D02*
X1646000D01*
X68350Y601500D02*
X156350D01*
X36000Y244000D02*
Y261000D01*
X49000Y244000D02*
Y261000D01*
X68350Y601500D02*
Y632500D01*
X156350D01*
Y601500D02*
Y632500D01*
X1820500Y129250D02*
X1849500D01*
X414750Y614500D02*
X423250D01*
X1820500Y120750D02*
X1849500D01*
X1820500D02*
Y129250D01*
X414750Y585500D02*
Y614500D01*
X1706396Y467996D02*
Y477496D01*
X423250Y585500D02*
Y614500D01*
X414750Y585500D02*
X423250D01*
X1849500Y120750D02*
Y129250D01*
X-43250Y643684D02*
Y650317D01*
Y683684D02*
Y690317D01*
Y563684D02*
Y570317D01*
Y603684D02*
Y610317D01*
X1557500Y219155D02*
Y230845D01*
X1592500Y219155D02*
Y230845D01*
X-43250Y283683D02*
Y290317D01*
X-43250Y363683D02*
Y370317D01*
X1706396Y432496D02*
Y441996D01*
X1634500Y395000D02*
X1665500D01*
X1634500Y345000D02*
Y395000D01*
X1565000Y287500D02*
Y290000D01*
X1634500Y345000D02*
X1665500D01*
X1584500Y132000D02*
Y163000D01*
X1575500Y132000D02*
X1584500D01*
X1665500Y345000D02*
Y395000D01*
X1575500Y132000D02*
Y163000D01*
X1565000Y290000D02*
X1567500D01*
X1565000Y260000D02*
X1567500D01*
X1565000D02*
Y262500D01*
X1681595Y477496D02*
X1706396D01*
X1681595Y432496D02*
X1706396D01*
X1595000Y287500D02*
Y290000D01*
X1592500D02*
X1595000D01*
X1592500Y260000D02*
X1595000D01*
Y262500D01*
X1982400Y310903D02*
Y322900D01*
Y310903D02*
X1986399D01*
X1988113Y311474D01*
X1989256Y312617D01*
X1989827Y313759D01*
X1990398Y315473D01*
Y318330D01*
X1989827Y320043D01*
X1989256Y321186D01*
X1988113Y322329D01*
X1986399Y322900D01*
X1982400D01*
X1999939Y312617D02*
X1999368Y311474D01*
X1997654Y310903D01*
X1996511D01*
X1994797Y311474D01*
X1993655Y313188D01*
X1993083Y316044D01*
Y318901D01*
X1993655Y321186D01*
X1994797Y322329D01*
X1996511Y322900D01*
X1997083D01*
X1998797Y322329D01*
X1999939Y321186D01*
X2000510Y319472D01*
Y318901D01*
X1999939Y317187D01*
X1998797Y316044D01*
X1997083Y315473D01*
X1996511D01*
X1994797Y316044D01*
X1993655Y317187D01*
X1993083Y318901D01*
X1982400Y337303D02*
Y349300D01*
Y337303D02*
X1986399D01*
X1988113Y337874D01*
X1989256Y339016D01*
X1989827Y340159D01*
X1990398Y341873D01*
Y344730D01*
X1989827Y346443D01*
X1989256Y347586D01*
X1988113Y348729D01*
X1986399Y349300D01*
X1982400D01*
X1999939Y337303D02*
X1994226D01*
X1993655Y342444D01*
X1994226Y341873D01*
X1995940Y341302D01*
X1997654D01*
X1999368Y341873D01*
X2000510Y343016D01*
X2001082Y344730D01*
Y345872D01*
X2000510Y347586D01*
X1999368Y348729D01*
X1997654Y349300D01*
X1995940D01*
X1994226Y348729D01*
X1993655Y348157D01*
X1993083Y347015D01*
X1982400Y361703D02*
Y373700D01*
Y361703D02*
X1986399D01*
X1988113Y362274D01*
X1989256Y363416D01*
X1989827Y364559D01*
X1990398Y366273D01*
Y369130D01*
X1989827Y370844D01*
X1989256Y371986D01*
X1988113Y373129D01*
X1986399Y373700D01*
X1982400D01*
X1998797Y361703D02*
X1993083Y369701D01*
X2001653D01*
X1998797Y361703D02*
Y373700D01*
X1982400Y387103D02*
Y399100D01*
Y387103D02*
X1986399D01*
X1988113Y387674D01*
X1989256Y388816D01*
X1989827Y389959D01*
X1990398Y391673D01*
Y394530D01*
X1989827Y396244D01*
X1989256Y397386D01*
X1988113Y398529D01*
X1986399Y399100D01*
X1982400D01*
X1994226Y387103D02*
X2000510D01*
X1997083Y391673D01*
X1998797D01*
X1999939Y392244D01*
X2000510Y392816D01*
X2001082Y394530D01*
Y395672D01*
X2000510Y397386D01*
X1999368Y398529D01*
X1997654Y399100D01*
X1995940D01*
X1994226Y398529D01*
X1993655Y397957D01*
X1993083Y396815D01*
X1982400Y412503D02*
Y424500D01*
Y412503D02*
X1986399D01*
X1988113Y413074D01*
X1989256Y414216D01*
X1989827Y415359D01*
X1990398Y417073D01*
Y419930D01*
X1989827Y421643D01*
X1989256Y422786D01*
X1988113Y423929D01*
X1986399Y424500D01*
X1982400D01*
X1993655Y415359D02*
Y414788D01*
X1994226Y413645D01*
X1994797Y413074D01*
X1995940Y412503D01*
X1998225D01*
X1999368Y413074D01*
X1999939Y413645D01*
X2000510Y414788D01*
Y415930D01*
X1999939Y417073D01*
X1998797Y418787D01*
X1993083Y424500D01*
X2001082D01*
X1982400Y437903D02*
Y449900D01*
Y437903D02*
X1986399D01*
X1988113Y438474D01*
X1989256Y439617D01*
X1989827Y440759D01*
X1990398Y442473D01*
Y445330D01*
X1989827Y447043D01*
X1989256Y448186D01*
X1988113Y449329D01*
X1986399Y449900D01*
X1982400D01*
X1993083Y440188D02*
X1994226Y439617D01*
X1995940Y437903D01*
Y449900D01*
X1982400Y120587D02*
X1987542D01*
X1989256Y120016D01*
X1989827Y119444D01*
X1990398Y118302D01*
Y116588D01*
X1989827Y115445D01*
X1989256Y114874D01*
X1987542Y114303D01*
X1982400D01*
Y126300D01*
X2000510Y118302D02*
X1999939Y120016D01*
X1998797Y121158D01*
X1997083Y121730D01*
X1996511D01*
X1994797Y121158D01*
X1993655Y120016D01*
X1993083Y118302D01*
Y117730D01*
X1993655Y116017D01*
X1994797Y114874D01*
X1996511Y114303D01*
X1997083D01*
X1998797Y114874D01*
X1999939Y116017D01*
X2000510Y118302D01*
Y121158D01*
X1999939Y124015D01*
X1998797Y125729D01*
X1997083Y126300D01*
X1995940D01*
X1994226Y125729D01*
X1993655Y124586D01*
X1982400Y171387D02*
X1987542D01*
X1989256Y170816D01*
X1989827Y170244D01*
X1990398Y169102D01*
Y167388D01*
X1989827Y166245D01*
X1989256Y165674D01*
X1987542Y165103D01*
X1982400D01*
Y177100D01*
X1995940Y165103D02*
X1994226Y165674D01*
X1993655Y166817D01*
Y167959D01*
X1994226Y169102D01*
X1995369Y169673D01*
X1997654Y170244D01*
X1999368Y170816D01*
X2000510Y171958D01*
X2001082Y173101D01*
Y174815D01*
X2000510Y175957D01*
X1999939Y176529D01*
X1998225Y177100D01*
X1995940D01*
X1994226Y176529D01*
X1993655Y175957D01*
X1993083Y174815D01*
Y173101D01*
X1993655Y171958D01*
X1994797Y170816D01*
X1996511Y170244D01*
X1998797Y169673D01*
X1999939Y169102D01*
X2000510Y167959D01*
Y166817D01*
X1999939Y165674D01*
X1998225Y165103D01*
X1995940D01*
X1982400Y222187D02*
X1987542D01*
X1989256Y221616D01*
X1989827Y221044D01*
X1990398Y219902D01*
Y218188D01*
X1989827Y217045D01*
X1989256Y216474D01*
X1987542Y215903D01*
X1982400D01*
Y227900D01*
X2001082Y215903D02*
X1995369Y227900D01*
X1993083Y215903D02*
X2001082D01*
X1982400Y272987D02*
X1987542D01*
X1989256Y272416D01*
X1989827Y271844D01*
X1990398Y270702D01*
Y268988D01*
X1989827Y267845D01*
X1989256Y267274D01*
X1987542Y266703D01*
X1982400D01*
Y278700D01*
X1999939Y268417D02*
X1999368Y267274D01*
X1997654Y266703D01*
X1996511D01*
X1994797Y267274D01*
X1993655Y268988D01*
X1993083Y271844D01*
Y274701D01*
X1993655Y276986D01*
X1994797Y278129D01*
X1996511Y278700D01*
X1997083D01*
X1998797Y278129D01*
X1999939Y276986D01*
X2000510Y275272D01*
Y274701D01*
X1999939Y272987D01*
X1998797Y271844D01*
X1997083Y271273D01*
X1996511D01*
X1994797Y271844D01*
X1993655Y272987D01*
X1993083Y274701D01*
X1982400Y488987D02*
X1987542D01*
X1989256Y488416D01*
X1989827Y487844D01*
X1990398Y486702D01*
Y484988D01*
X1989827Y483845D01*
X1989256Y483274D01*
X1987542Y482703D01*
X1982400D01*
Y494700D01*
X1999939Y482703D02*
X1994226D01*
X1993655Y487844D01*
X1994226Y487273D01*
X1995940Y486702D01*
X1997654D01*
X1999368Y487273D01*
X2000510Y488416D01*
X2001082Y490130D01*
Y491272D01*
X2000510Y492986D01*
X1999368Y494129D01*
X1997654Y494700D01*
X1995940D01*
X1994226Y494129D01*
X1993655Y493557D01*
X1993083Y492415D01*
X1982400Y552487D02*
X1987542D01*
X1989256Y551916D01*
X1989827Y551344D01*
X1990398Y550202D01*
Y548488D01*
X1989827Y547345D01*
X1989256Y546774D01*
X1987542Y546203D01*
X1982400D01*
Y558200D01*
X1998797Y546203D02*
X1993083Y554201D01*
X2001653D01*
X1998797Y546203D02*
Y558200D01*
X1982400Y615987D02*
X1987542D01*
X1989256Y615416D01*
X1989827Y614844D01*
X1990398Y613702D01*
Y611988D01*
X1989827Y610845D01*
X1989256Y610274D01*
X1987542Y609703D01*
X1982400D01*
Y621700D01*
X1994226Y609703D02*
X2000510D01*
X1997083Y614273D01*
X1998797D01*
X1999939Y614844D01*
X2000510Y615416D01*
X2001082Y617130D01*
Y618272D01*
X2000510Y619986D01*
X1999368Y621129D01*
X1997654Y621700D01*
X1995940D01*
X1994226Y621129D01*
X1993655Y620557D01*
X1993083Y619415D01*
X1982400Y692187D02*
X1987542D01*
X1989256Y691616D01*
X1989827Y691044D01*
X1990398Y689902D01*
Y688188D01*
X1989827Y687045D01*
X1989256Y686474D01*
X1987542Y685903D01*
X1982400D01*
Y697900D01*
X1993655Y688759D02*
Y688188D01*
X1994226Y687045D01*
X1994797Y686474D01*
X1995940Y685903D01*
X1998225D01*
X1999368Y686474D01*
X1999939Y687045D01*
X2000510Y688188D01*
Y689330D01*
X1999939Y690473D01*
X1998797Y692187D01*
X1993083Y697900D01*
X2001082D01*
X1982400Y769187D02*
X1987542D01*
X1989256Y768616D01*
X1989827Y768044D01*
X1990398Y766902D01*
Y765188D01*
X1989827Y764045D01*
X1989256Y763474D01*
X1987542Y762903D01*
X1982400D01*
Y774900D01*
X1993083Y765188D02*
X1994226Y764616D01*
X1995940Y762903D01*
Y774900D01*
X1398700Y150997D02*
Y139000D01*
X1391844D01*
X1389388Y150997D02*
X1388816Y150426D01*
X1388245Y150997D01*
X1388816Y151569D01*
X1389388Y150997D01*
X1388816Y146998D02*
Y139000D01*
X1379276Y145284D02*
X1380418Y146427D01*
X1381561Y146998D01*
X1383275D01*
X1384417Y146427D01*
X1385560Y145284D01*
X1386131Y143570D01*
Y142428D01*
X1385560Y140714D01*
X1384417Y139571D01*
X1383275Y139000D01*
X1381561D01*
X1380418Y139571D01*
X1379276Y140714D01*
X1376705Y143570D02*
X1369849D01*
Y144713D01*
X1370420Y145856D01*
X1370992Y146427D01*
X1372134Y146998D01*
X1373848D01*
X1374991Y146427D01*
X1376133Y145284D01*
X1376705Y143570D01*
Y142428D01*
X1376133Y140714D01*
X1374991Y139571D01*
X1373848Y139000D01*
X1372134D01*
X1370992Y139571D01*
X1369849Y140714D01*
X1367278Y146998D02*
Y139000D01*
Y144713D02*
X1365564Y146427D01*
X1364422Y146998D01*
X1362708D01*
X1361565Y146427D01*
X1360994Y144713D01*
Y139000D01*
X1351567Y145284D02*
X1352138Y146427D01*
X1353852Y146998D01*
X1355566D01*
X1357280Y146427D01*
X1357852Y145284D01*
X1357280Y144142D01*
X1356138Y143570D01*
X1353281Y142999D01*
X1352138Y142428D01*
X1351567Y141285D01*
Y140714D01*
X1352138Y139571D01*
X1353852Y139000D01*
X1355566D01*
X1357280Y139571D01*
X1357852Y140714D01*
X1349053Y143570D02*
X1342198D01*
Y144713D01*
X1342769Y145856D01*
X1343340Y146427D01*
X1344483Y146998D01*
X1346197D01*
X1347339Y146427D01*
X1348482Y145284D01*
X1349053Y143570D01*
Y142428D01*
X1348482Y140714D01*
X1347339Y139571D01*
X1346197Y139000D01*
X1344483D01*
X1343340Y139571D01*
X1342198Y140714D01*
X1332771Y150997D02*
Y139000D01*
Y145284D02*
X1333914Y146427D01*
X1335056Y146998D01*
X1336770D01*
X1337913Y146427D01*
X1339055Y145284D01*
X1339627Y143570D01*
Y142428D01*
X1339055Y140714D01*
X1337913Y139571D01*
X1336770Y139000D01*
X1335056D01*
X1333914Y139571D01*
X1332771Y140714D01*
X1320145Y146998D02*
Y141285D01*
X1319574Y139571D01*
X1318431Y139000D01*
X1316717D01*
X1315575Y139571D01*
X1313861Y141285D01*
Y146998D02*
Y139000D01*
X1310719Y146998D02*
Y139000D01*
Y144713D02*
X1309005Y146427D01*
X1307862Y146998D01*
X1306148D01*
X1305006Y146427D01*
X1304434Y144713D01*
Y139000D01*
X1294436Y150997D02*
Y139000D01*
Y145284D02*
X1295579Y146427D01*
X1296722Y146998D01*
X1298436D01*
X1299578Y146427D01*
X1300721Y145284D01*
X1301292Y143570D01*
Y142428D01*
X1300721Y140714D01*
X1299578Y139571D01*
X1298436Y139000D01*
X1296722D01*
X1295579Y139571D01*
X1294436Y140714D01*
X1291237Y143570D02*
X1284382D01*
Y144713D01*
X1284953Y145856D01*
X1285524Y146427D01*
X1286667Y146998D01*
X1288381D01*
X1289523Y146427D01*
X1290666Y145284D01*
X1291237Y143570D01*
Y142428D01*
X1290666Y140714D01*
X1289523Y139571D01*
X1288381Y139000D01*
X1286667D01*
X1285524Y139571D01*
X1284382Y140714D01*
X1281811Y146998D02*
Y139000D01*
Y143570D02*
X1281239Y145284D01*
X1280097Y146427D01*
X1278954Y146998D01*
X1277240D01*
X1258158Y148141D02*
X1258730Y149284D01*
X1259873Y150426D01*
X1261015Y150997D01*
X1263300D01*
X1264443Y150426D01*
X1265585Y149284D01*
X1266157Y148141D01*
X1266728Y146427D01*
Y143570D01*
X1266157Y141856D01*
X1265585Y140714D01*
X1264443Y139571D01*
X1263300Y139000D01*
X1261015D01*
X1259873Y139571D01*
X1258730Y140714D01*
X1258158Y141856D01*
X1247361Y150997D02*
X1254788D01*
Y139000D01*
X1247361D01*
X1254788Y145284D02*
X1250217D01*
X1245361Y150997D02*
Y139000D01*
Y150997D02*
X1240219D01*
X1238506Y150426D01*
X1237934Y149855D01*
X1237363Y148712D01*
Y147570D01*
X1237934Y146427D01*
X1238506Y145856D01*
X1240219Y145284D01*
X1245361D01*
X1241362D02*
X1237363Y139000D01*
X1234678Y150997D02*
Y139000D01*
Y150997D02*
X1226680Y139000D01*
Y150997D02*
Y139000D01*
X1210512Y150997D02*
X1211654Y150426D01*
X1212797Y149284D01*
X1213368Y148141D01*
X1213940Y146427D01*
Y143570D01*
X1213368Y141856D01*
X1212797Y140714D01*
X1211654Y139571D01*
X1210512Y139000D01*
X1208226D01*
X1207084Y139571D01*
X1205941Y140714D01*
X1205370Y141856D01*
X1204799Y143570D01*
Y146427D01*
X1205370Y148141D01*
X1205941Y149284D01*
X1207084Y150426D01*
X1208226Y150997D01*
X1210512D01*
X1201999D02*
Y139000D01*
X1194001Y150997D02*
Y139000D01*
X1201999Y145284D02*
X1194001D01*
X1190687Y150997D02*
Y139000D01*
X1183832D01*
X1182518Y144142D02*
X1172234D01*
X1168692Y150997D02*
X1165835Y139000D01*
X1162979Y150997D02*
X1165835Y139000D01*
X1162979Y150997D02*
X1160122Y139000D01*
X1157266Y150997D02*
X1160122Y139000D01*
X1145440Y146998D02*
X1142012Y139000D01*
X1138584Y146998D02*
X1142012Y139000D01*
X1136070Y148141D02*
Y148712D01*
X1135499Y149855D01*
X1134928Y150426D01*
X1133785Y150997D01*
X1131500D01*
X1130357Y150426D01*
X1129786Y149855D01*
X1129215Y148712D01*
Y147570D01*
X1129786Y146427D01*
X1130929Y144713D01*
X1136642Y139000D01*
X1128643D01*
X1120817Y149284D02*
Y139000D01*
X1125958Y144142D02*
X1115675D01*
X1398700Y98997D02*
Y86999D01*
Y92712D02*
X1396986Y94426D01*
X1395843Y94997D01*
X1394129D01*
X1392987Y94426D01*
X1392415Y92712D01*
Y86999D01*
X1387559Y98997D02*
Y89284D01*
X1386988Y87570D01*
X1385845Y86999D01*
X1384703D01*
X1389273Y94997D02*
X1385274D01*
X1381275Y98997D02*
Y89284D01*
X1380704Y87570D01*
X1379561Y86999D01*
X1378418D01*
X1382989Y94997D02*
X1378990D01*
X1376705D02*
Y83000D01*
Y93284D02*
X1375562Y94426D01*
X1374419Y94997D01*
X1372705D01*
X1371563Y94426D01*
X1370420Y93284D01*
X1369849Y91570D01*
Y90427D01*
X1370420Y88713D01*
X1371563Y87570D01*
X1372705Y86999D01*
X1374419D01*
X1375562Y87570D01*
X1376705Y88713D01*
X1360994Y93284D02*
X1361565Y94426D01*
X1363279Y94997D01*
X1364993D01*
X1366707Y94426D01*
X1367278Y93284D01*
X1366707Y92141D01*
X1365564Y91570D01*
X1362708Y90998D01*
X1361565Y90427D01*
X1360994Y89284D01*
Y88713D01*
X1361565Y87570D01*
X1363279Y86999D01*
X1364993D01*
X1366707Y87570D01*
X1367278Y88713D01*
X1357909Y94997D02*
X1358480Y94426D01*
X1357909Y93855D01*
X1357337Y94426D01*
X1357909Y94997D01*
Y88142D02*
X1358480Y87570D01*
X1357909Y86999D01*
X1357337Y87570D01*
X1357909Y88142D01*
X1354709Y85285D02*
X1346711Y98997D01*
X1345911Y85285D02*
X1337913Y98997D01*
X1334256Y94997D02*
X1335399Y94426D01*
X1336542Y93284D01*
X1337113Y91570D01*
Y90427D01*
X1336542Y88713D01*
X1335399Y87570D01*
X1334256Y86999D01*
X1332543D01*
X1331400Y87570D01*
X1330257Y88713D01*
X1329686Y90427D01*
Y91570D01*
X1330257Y93284D01*
X1331400Y94426D01*
X1332543Y94997D01*
X1334256D01*
X1327058Y98997D02*
Y86999D01*
Y92712D02*
X1325344Y94426D01*
X1324202Y94997D01*
X1322488D01*
X1321345Y94426D01*
X1320774Y92712D01*
Y86999D01*
X1317632Y94997D02*
X1315346Y86999D01*
X1313061Y94997D02*
X1315346Y86999D01*
X1313061Y94997D02*
X1310776Y86999D01*
X1308491Y94997D02*
X1310776Y86999D01*
X1305691Y94997D02*
Y86999D01*
Y91570D02*
X1305120Y93284D01*
X1303977Y94426D01*
X1302835Y94997D01*
X1301121D01*
X1299464Y88142D02*
X1300035Y87570D01*
X1299464Y86999D01*
X1298893Y87570D01*
X1299464Y88142D01*
X1293408Y94997D02*
X1294551Y94426D01*
X1295693Y93284D01*
X1296265Y91570D01*
Y90427D01*
X1295693Y88713D01*
X1294551Y87570D01*
X1293408Y86999D01*
X1291694D01*
X1290551Y87570D01*
X1289409Y88713D01*
X1288838Y90427D01*
Y91570D01*
X1289409Y93284D01*
X1290551Y94426D01*
X1291694Y94997D01*
X1293408D01*
X1286210D02*
Y86999D01*
Y91570D02*
X1285638Y93284D01*
X1284496Y94426D01*
X1283353Y94997D01*
X1281639D01*
X1273698D02*
Y85857D01*
X1274269Y84143D01*
X1274841Y83571D01*
X1275983Y83000D01*
X1277697D01*
X1278840Y83571D01*
X1273698Y93284D02*
X1274841Y94426D01*
X1275983Y94997D01*
X1277697D01*
X1278840Y94426D01*
X1279982Y93284D01*
X1280554Y91570D01*
Y90427D01*
X1279982Y88713D01*
X1278840Y87570D01*
X1277697Y86999D01*
X1275983D01*
X1274841Y87570D01*
X1273698Y88713D01*
X1270499Y85285D02*
X1262500Y98997D01*
X1261701Y94997D02*
Y83000D01*
Y93284D02*
X1260558Y94426D01*
X1259415Y94997D01*
X1257701D01*
X1256559Y94426D01*
X1255416Y93284D01*
X1254845Y91570D01*
Y90427D01*
X1255416Y88713D01*
X1256559Y87570D01*
X1257701Y86999D01*
X1259415D01*
X1260558Y87570D01*
X1261701Y88713D01*
X1252274Y94997D02*
Y86999D01*
Y91570D02*
X1251703Y93284D01*
X1250560Y94426D01*
X1249417Y94997D01*
X1247704D01*
X1243762D02*
X1244904Y94426D01*
X1246047Y93284D01*
X1246618Y91570D01*
Y90427D01*
X1246047Y88713D01*
X1244904Y87570D01*
X1243762Y86999D01*
X1242048D01*
X1240905Y87570D01*
X1239762Y88713D01*
X1239191Y90427D01*
Y91570D01*
X1239762Y93284D01*
X1240905Y94426D01*
X1242048Y94997D01*
X1243762D01*
X1234278Y98997D02*
X1233707Y98425D01*
X1233135Y98997D01*
X1233707Y99568D01*
X1234278Y98997D01*
X1233707Y94997D02*
Y85285D01*
X1234278Y83571D01*
X1235421Y83000D01*
X1236563D01*
X1230907Y91570D02*
X1224052D01*
Y92712D01*
X1224623Y93855D01*
X1225194Y94426D01*
X1226337Y94997D01*
X1228051D01*
X1229193Y94426D01*
X1230336Y93284D01*
X1230907Y91570D01*
Y90427D01*
X1230336Y88713D01*
X1229193Y87570D01*
X1228051Y86999D01*
X1226337D01*
X1225194Y87570D01*
X1224052Y88713D01*
X1214625Y93284D02*
X1215768Y94426D01*
X1216910Y94997D01*
X1218624D01*
X1219767Y94426D01*
X1220909Y93284D01*
X1221481Y91570D01*
Y90427D01*
X1220909Y88713D01*
X1219767Y87570D01*
X1218624Y86999D01*
X1216910D01*
X1215768Y87570D01*
X1214625Y88713D01*
X1210340Y98997D02*
Y89284D01*
X1209769Y87570D01*
X1208626Y86999D01*
X1207484D01*
X1212054Y94997D02*
X1208055D01*
X1205770Y85285D02*
X1197771Y98997D01*
X1196972D02*
Y86999D01*
Y98997D02*
X1192972D01*
X1191258Y98425D01*
X1190116Y97283D01*
X1189545Y96140D01*
X1188973Y94426D01*
Y91570D01*
X1189545Y89856D01*
X1190116Y88713D01*
X1191258Y87570D01*
X1192972Y86999D01*
X1196972D01*
X1186288Y98997D02*
Y86999D01*
X1180347Y98997D02*
X1181489Y98425D01*
X1182632Y97283D01*
X1183203Y96140D01*
X1183774Y94426D01*
Y91570D01*
X1183203Y89856D01*
X1182632Y88713D01*
X1181489Y87570D01*
X1180347Y86999D01*
X1178061D01*
X1176919Y87570D01*
X1175776Y88713D01*
X1175205Y89856D01*
X1174633Y91570D01*
Y94426D01*
X1175205Y96140D01*
X1175776Y97283D01*
X1176919Y98425D01*
X1178061Y98997D01*
X1180347D01*
X1167835D02*
Y86999D01*
X1171834Y98997D02*
X1163836D01*
X1162408Y83000D02*
X1153267D01*
X1151724Y92712D02*
X1146582D01*
X1144868Y93284D01*
X1144297Y93855D01*
X1143726Y94997D01*
Y96711D01*
X1144297Y97854D01*
X1144868Y98425D01*
X1146582Y98997D01*
X1151724D01*
Y86999D01*
X1133043Y97283D02*
X1134185Y98425D01*
X1135899Y98997D01*
X1138184D01*
X1139898Y98425D01*
X1141041Y97283D01*
Y96140D01*
X1140469Y94997D01*
X1139898Y94426D01*
X1138755Y93855D01*
X1135328Y92712D01*
X1134185Y92141D01*
X1133614Y91570D01*
X1133043Y90427D01*
Y88713D01*
X1134185Y87570D01*
X1135899Y86999D01*
X1138184D01*
X1139898Y87570D01*
X1141041Y88713D01*
X1130357Y98997D02*
Y90427D01*
X1129786Y88713D01*
X1128643Y87570D01*
X1126929Y86999D01*
X1125787D01*
X1124073Y87570D01*
X1122930Y88713D01*
X1122359Y90427D01*
Y98997D01*
X1119045Y83000D02*
X1109905D01*
X1107219Y98997D02*
X1106648Y98425D01*
X1106077Y98997D01*
X1106648Y99568D01*
X1107219Y98997D01*
X1106648Y94997D02*
Y86999D01*
X1103963Y94997D02*
Y86999D01*
Y92712D02*
X1102249Y94426D01*
X1101106Y94997D01*
X1099392D01*
X1098250Y94426D01*
X1097679Y92712D01*
Y86999D01*
X1092822Y98997D02*
Y89284D01*
X1092251Y87570D01*
X1091109Y86999D01*
X1089966D01*
X1094536Y94997D02*
X1090537D01*
X1088252Y91570D02*
X1081396D01*
Y92712D01*
X1081968Y93855D01*
X1082539Y94426D01*
X1083682Y94997D01*
X1085396D01*
X1086538Y94426D01*
X1087681Y93284D01*
X1088252Y91570D01*
Y90427D01*
X1087681Y88713D01*
X1086538Y87570D01*
X1085396Y86999D01*
X1083682D01*
X1082539Y87570D01*
X1081396Y88713D01*
X1071970Y94997D02*
Y85857D01*
X1072541Y84143D01*
X1073112Y83571D01*
X1074255Y83000D01*
X1075969D01*
X1077112Y83571D01*
X1071970Y93284D02*
X1073112Y94426D01*
X1074255Y94997D01*
X1075969D01*
X1077112Y94426D01*
X1078254Y93284D01*
X1078826Y91570D01*
Y90427D01*
X1078254Y88713D01*
X1077112Y87570D01*
X1075969Y86999D01*
X1074255D01*
X1073112Y87570D01*
X1071970Y88713D01*
X1068771Y94997D02*
Y86999D01*
Y91570D02*
X1068199Y93284D01*
X1067057Y94426D01*
X1065914Y94997D01*
X1064200D01*
X1056259D02*
Y86999D01*
Y93284D02*
X1057402Y94426D01*
X1058544Y94997D01*
X1060258D01*
X1061401Y94426D01*
X1062543Y93284D01*
X1063115Y91570D01*
Y90427D01*
X1062543Y88713D01*
X1061401Y87570D01*
X1060258Y86999D01*
X1058544D01*
X1057402Y87570D01*
X1056259Y88713D01*
X1051346Y98997D02*
Y89284D01*
X1050774Y87570D01*
X1049632Y86999D01*
X1048489D01*
X1053060Y94997D02*
X1049061D01*
X1046775Y91570D02*
X1039920D01*
Y92712D01*
X1040491Y93855D01*
X1041062Y94426D01*
X1042205Y94997D01*
X1043919D01*
X1045061Y94426D01*
X1046204Y93284D01*
X1046775Y91570D01*
Y90427D01*
X1046204Y88713D01*
X1045061Y87570D01*
X1043919Y86999D01*
X1042205D01*
X1041062Y87570D01*
X1039920Y88713D01*
X1030493Y98997D02*
Y86999D01*
Y93284D02*
X1031636Y94426D01*
X1032778Y94997D01*
X1034492D01*
X1035635Y94426D01*
X1036777Y93284D01*
X1037349Y91570D01*
Y90427D01*
X1036777Y88713D01*
X1035635Y87570D01*
X1034492Y86999D01*
X1032778D01*
X1031636Y87570D01*
X1030493Y88713D01*
X1027294Y85285D02*
X1019295Y98997D01*
X1018496Y94997D02*
X1016210Y86999D01*
X1013925Y94997D02*
X1016210Y86999D01*
X1013925Y94997D02*
X1011640Y86999D01*
X1009355Y94997D02*
X1011640Y86999D01*
X1005413Y98997D02*
X1004841Y98425D01*
X1004270Y98997D01*
X1004841Y99568D01*
X1005413Y98997D01*
X1004841Y94997D02*
Y86999D01*
X1002156Y98997D02*
Y86999D01*
X996443Y94997D02*
X1002156Y89284D01*
X999871Y91570D02*
X995872Y86999D01*
X992844Y98997D02*
X992273Y98425D01*
X991701Y98997D01*
X992273Y99568D01*
X992844Y98997D01*
X992273Y94997D02*
Y86999D01*
X983303Y93284D02*
X983874Y94426D01*
X985588Y94997D01*
X987302D01*
X989016Y94426D01*
X989587Y93284D01*
X989016Y92141D01*
X987874Y91570D01*
X985017Y90998D01*
X983874Y90427D01*
X983303Y89284D01*
Y88713D01*
X983874Y87570D01*
X985588Y86999D01*
X987302D01*
X989016Y87570D01*
X989587Y88713D01*
X1398700Y124997D02*
Y112999D01*
Y118712D02*
X1396986Y120426D01*
X1395843Y120997D01*
X1394129D01*
X1392987Y120426D01*
X1392415Y118712D01*
Y112999D01*
X1387559Y124997D02*
Y115284D01*
X1386988Y113570D01*
X1385845Y112999D01*
X1384703D01*
X1389273Y120997D02*
X1385274D01*
X1381275Y124997D02*
Y115284D01*
X1380704Y113570D01*
X1379561Y112999D01*
X1378418D01*
X1382989Y120997D02*
X1378990D01*
X1376705D02*
Y109000D01*
Y119284D02*
X1375562Y120426D01*
X1374419Y120997D01*
X1372705D01*
X1371563Y120426D01*
X1370420Y119284D01*
X1369849Y117570D01*
Y116427D01*
X1370420Y114713D01*
X1371563Y113570D01*
X1372705Y112999D01*
X1374419D01*
X1375562Y113570D01*
X1376705Y114713D01*
X1366707Y120997D02*
X1367278Y120426D01*
X1366707Y119855D01*
X1366135Y120426D01*
X1366707Y120997D01*
Y114142D02*
X1367278Y113570D01*
X1366707Y112999D01*
X1366135Y113570D01*
X1366707Y114142D01*
X1363507Y111285D02*
X1355509Y124997D01*
X1354709Y111285D02*
X1346711Y124997D01*
X1343055Y120997D02*
X1344197Y120426D01*
X1345340Y119284D01*
X1345911Y117570D01*
Y116427D01*
X1345340Y114713D01*
X1344197Y113570D01*
X1343055Y112999D01*
X1341341D01*
X1340198Y113570D01*
X1339055Y114713D01*
X1338484Y116427D01*
Y117570D01*
X1339055Y119284D01*
X1340198Y120426D01*
X1341341Y120997D01*
X1343055D01*
X1335856Y124997D02*
Y112999D01*
Y118712D02*
X1334142Y120426D01*
X1333000Y120997D01*
X1331286D01*
X1330143Y120426D01*
X1329572Y118712D01*
Y112999D01*
X1326430Y120997D02*
X1324144Y112999D01*
X1321859Y120997D02*
X1324144Y112999D01*
X1321859Y120997D02*
X1319574Y112999D01*
X1317289Y120997D02*
X1319574Y112999D01*
X1314489Y120997D02*
Y112999D01*
Y117570D02*
X1313918Y119284D01*
X1312775Y120426D01*
X1311633Y120997D01*
X1309919D01*
X1308262Y114142D02*
X1308833Y113570D01*
X1308262Y112999D01*
X1307691Y113570D01*
X1308262Y114142D01*
X1302206Y120997D02*
X1303349Y120426D01*
X1304491Y119284D01*
X1305063Y117570D01*
Y116427D01*
X1304491Y114713D01*
X1303349Y113570D01*
X1302206Y112999D01*
X1300492D01*
X1299350Y113570D01*
X1298207Y114713D01*
X1297636Y116427D01*
Y117570D01*
X1298207Y119284D01*
X1299350Y120426D01*
X1300492Y120997D01*
X1302206D01*
X1295008D02*
Y112999D01*
Y117570D02*
X1294436Y119284D01*
X1293294Y120426D01*
X1292151Y120997D01*
X1290437D01*
X1282496D02*
Y111856D01*
X1283067Y110143D01*
X1283639Y109571D01*
X1284781Y109000D01*
X1286495D01*
X1287638Y109571D01*
X1282496Y119284D02*
X1283639Y120426D01*
X1284781Y120997D01*
X1286495D01*
X1287638Y120426D01*
X1288781Y119284D01*
X1289352Y117570D01*
Y116427D01*
X1288781Y114713D01*
X1287638Y113570D01*
X1286495Y112999D01*
X1284781D01*
X1283639Y113570D01*
X1282496Y114713D01*
X1279297Y111285D02*
X1271299Y124997D01*
X1261929Y122140D02*
X1262500Y123283D01*
X1263643Y124425D01*
X1264786Y124997D01*
X1267071D01*
X1268214Y124425D01*
X1269356Y123283D01*
X1269927Y122140D01*
X1270499Y120426D01*
Y117570D01*
X1269927Y115856D01*
X1269356Y114713D01*
X1268214Y113570D01*
X1267071Y112999D01*
X1264786D01*
X1263643Y113570D01*
X1262500Y114713D01*
X1261929Y115856D01*
X1251131Y124997D02*
X1258558D01*
Y112999D01*
X1251131D01*
X1258558Y119284D02*
X1253988D01*
X1249132Y124997D02*
Y112999D01*
Y124997D02*
X1243990D01*
X1242276Y124425D01*
X1241705Y123854D01*
X1241134Y122711D01*
Y121569D01*
X1241705Y120426D01*
X1242276Y119855D01*
X1243990Y119284D01*
X1249132D01*
X1245133D02*
X1241134Y112999D01*
X1238448Y124997D02*
Y112999D01*
Y124997D02*
X1230450Y112999D01*
Y124997D02*
Y112999D01*
X1223709Y124997D02*
X1224851Y124425D01*
X1225994Y123283D01*
X1226565Y122140D01*
X1227137Y120426D01*
Y117570D01*
X1226565Y115856D01*
X1225994Y114713D01*
X1224851Y113570D01*
X1223709Y112999D01*
X1221423D01*
X1220281Y113570D01*
X1219138Y114713D01*
X1218567Y115856D01*
X1217996Y117570D01*
Y120426D01*
X1218567Y122140D01*
X1219138Y123283D01*
X1220281Y124425D01*
X1221423Y124997D01*
X1223709D01*
X1215196D02*
Y112999D01*
X1207198Y124997D02*
Y112999D01*
X1215196Y119284D02*
X1207198D01*
X1203884Y124997D02*
Y112999D01*
X1197029D01*
D11*
X485250Y693000D02*
G03*
X485250Y693000I-1250J0D01*
G01*
X1987500Y42500D02*
G03*
X1987500Y42500I-1250J0D01*
G01*
X1797250Y692450D02*
G03*
X1797250Y692450I-1250J0D01*
G01*
Y572450D02*
G03*
X1797250Y572450I-1250J0D01*
G01*
X25750Y321500D02*
G03*
X25750Y321500I-1250J0D01*
G01*
X1525250Y663000D02*
G03*
X1525250Y663000I-1250J0D01*
G01*
X1497250Y662000D02*
G03*
X1497250Y662000I-1250J0D01*
G01*
X1797250Y632450D02*
G03*
X1797250Y632450I-1250J0D01*
G01*
Y512450D02*
G03*
X1797250Y512450I-1250J0D01*
G01*
X1595750Y166500D02*
G03*
X1597750Y165500I750J-1000D01*
G01*
X1663250Y579500D02*
G03*
X1663250Y579500I-1250J0D01*
G01*
X1675250Y397550D02*
G03*
X1675250Y397550I-1250J0D01*
G01*
X404250Y582500D02*
G03*
X404250Y582500I-1250J0D01*
G01*
X1818750Y141000D02*
G03*
X1818750Y141000I-1250J0D01*
G01*
X1674245Y430494D02*
G03*
X1674245Y430494I-1250J0D01*
G01*
X1663250Y699500D02*
G03*
X1663250Y699500I-1250J0D01*
G01*
X21250Y329000D02*
G03*
X21250Y329000I-1250J0D01*
G01*
X51050Y239000D02*
G03*
X51050Y239000I-1250J0D01*
G01*
X67000Y641000D02*
G03*
X67000Y641000I-1250J0D01*
G01*
Y481000D02*
G03*
X67000Y481000I-1250J0D01*
G01*
X231300Y608500D02*
G03*
X231300Y608500I-1250J0D01*
G01*
D12*
X506941Y681598D02*
X514559D01*
Y677789D01*
X513289Y676520D01*
X508211D01*
X506941Y677789D01*
Y681598D01*
X508211Y673980D02*
X506941Y672711D01*
Y670172D01*
X508211Y668902D01*
X509480D01*
X510750Y670172D01*
Y671441D01*
Y670172D01*
X512020Y668902D01*
X513289D01*
X514559Y670172D01*
Y672711D01*
X513289Y673980D01*
X413506Y710496D02*
Y718114D01*
X409697D01*
X408428Y716844D01*
Y714305D01*
X409697Y713036D01*
X413506D01*
X410967D02*
X408428Y710496D01*
X405889D02*
X403349D01*
X404619D01*
Y718114D01*
X405889Y716844D01*
X399541Y711766D02*
X398271Y710496D01*
X395732D01*
X394462Y711766D01*
Y716844D01*
X395732Y718114D01*
X398271D01*
X399541Y716844D01*
Y715575D01*
X398271Y714305D01*
X394462D01*
X1477407Y243941D02*
Y251559D01*
X1473598D01*
X1472328Y250289D01*
Y247750D01*
X1473598Y246480D01*
X1477407D01*
X1474868D02*
X1472328Y243941D01*
X1465980D02*
Y251559D01*
X1469789Y247750D01*
X1464711D01*
X1462172Y243941D02*
X1459632D01*
X1460902D01*
Y251559D01*
X1462172Y250289D01*
X1698157Y647191D02*
Y654809D01*
X1694348D01*
X1693078Y653539D01*
Y651000D01*
X1694348Y649730D01*
X1698157D01*
X1695618D02*
X1693078Y647191D01*
X1690539Y653539D02*
X1689270Y654809D01*
X1686730D01*
X1685461Y653539D01*
Y652270D01*
X1686730Y651000D01*
X1688000D01*
X1686730D01*
X1685461Y649730D01*
Y648461D01*
X1686730Y647191D01*
X1689270D01*
X1690539Y648461D01*
X1682922Y653539D02*
X1681652Y654809D01*
X1679113D01*
X1677843Y653539D01*
Y648461D01*
X1679113Y647191D01*
X1681652D01*
X1682922Y648461D01*
Y653539D01*
X1698157Y527441D02*
Y535059D01*
X1694348D01*
X1693078Y533789D01*
Y531250D01*
X1694348Y529980D01*
X1698157D01*
X1695618D02*
X1693078Y527441D01*
X1690539Y533789D02*
X1689270Y535059D01*
X1686730D01*
X1685461Y533789D01*
Y532520D01*
X1686730Y531250D01*
X1688000D01*
X1686730D01*
X1685461Y529980D01*
Y528711D01*
X1686730Y527441D01*
X1689270D01*
X1690539Y528711D01*
X1682922Y533789D02*
X1681652Y535059D01*
X1679113D01*
X1677843Y533789D01*
Y528711D01*
X1679113Y527441D01*
X1681652D01*
X1682922Y528711D01*
Y533789D01*
X1818941Y96926D02*
Y94387D01*
Y95657D01*
X1826559D01*
Y96926D01*
Y94387D01*
X1820211Y85500D02*
X1818941Y86770D01*
Y89309D01*
X1820211Y90578D01*
X1825289D01*
X1826559Y89309D01*
Y86770D01*
X1825289Y85500D01*
X1826559Y82961D02*
Y80422D01*
Y81691D01*
X1818941D01*
X1820211Y82961D01*
X1826559Y76613D02*
Y74074D01*
Y75343D01*
X1818941D01*
X1820211Y76613D01*
X1533272Y228809D02*
Y221191D01*
X1528194D01*
X1520576D02*
X1525654D01*
X1520576Y226270D01*
Y227539D01*
X1521846Y228809D01*
X1524385D01*
X1525654Y227539D01*
X1528194Y242789D02*
X1529463Y244059D01*
X1532002D01*
X1533272Y242789D01*
Y237711D01*
X1532002Y236441D01*
X1529463D01*
X1528194Y237711D01*
X1520576Y244059D02*
X1525654D01*
Y240250D01*
X1523115Y241520D01*
X1521846D01*
X1520576Y240250D01*
Y237711D01*
X1521846Y236441D01*
X1524385D01*
X1525654Y237711D01*
X1646809Y157022D02*
X1639191D01*
Y153213D01*
X1640461Y151944D01*
X1643000D01*
X1644270Y153213D01*
Y157022D01*
Y154483D02*
X1646809Y151944D01*
Y149404D02*
Y146865D01*
Y148135D01*
X1639191D01*
X1640461Y149404D01*
Y143056D02*
X1639191Y141787D01*
Y139248D01*
X1640461Y137978D01*
X1641730D01*
X1643000Y139248D01*
X1644270Y137978D01*
X1645539D01*
X1646809Y139248D01*
Y141787D01*
X1645539Y143056D01*
X1644270D01*
X1643000Y141787D01*
X1641730Y143056D01*
X1640461D01*
X1643000Y141787D02*
Y139248D01*
X1631182Y101441D02*
Y109059D01*
X1627373D01*
X1626104Y107789D01*
Y105250D01*
X1627373Y103980D01*
X1631182D01*
X1628643D02*
X1626104Y101441D01*
X1623565D02*
X1621025D01*
X1622295D01*
Y109059D01*
X1623565Y107789D01*
X1617217Y109059D02*
X1612138D01*
Y107789D01*
X1617217Y102711D01*
Y101441D01*
X1862657Y75191D02*
Y82809D01*
X1858848D01*
X1857578Y81539D01*
Y79000D01*
X1858848Y77730D01*
X1862657D01*
X1860117D02*
X1857578Y75191D01*
X1849961Y82809D02*
X1852500Y81539D01*
X1855039Y79000D01*
Y76461D01*
X1853770Y75191D01*
X1851230D01*
X1849961Y76461D01*
Y77730D01*
X1851230Y79000D01*
X1855039D01*
X1843613Y75191D02*
Y82809D01*
X1847422Y79000D01*
X1842343D01*
X1862657Y167441D02*
Y175059D01*
X1858848D01*
X1857578Y173789D01*
Y171250D01*
X1858848Y169980D01*
X1862657D01*
X1860117D02*
X1857578Y167441D01*
X1849961Y175059D02*
X1852500Y173789D01*
X1855039Y171250D01*
Y168711D01*
X1853770Y167441D01*
X1851230D01*
X1849961Y168711D01*
Y169980D01*
X1851230Y171250D01*
X1855039D01*
X1847422Y173789D02*
X1846152Y175059D01*
X1843613D01*
X1842343Y173789D01*
Y172520D01*
X1843613Y171250D01*
X1844882D01*
X1843613D01*
X1842343Y169980D01*
Y168711D01*
X1843613Y167441D01*
X1846152D01*
X1847422Y168711D01*
X1910407Y55691D02*
Y63309D01*
X1906598D01*
X1905328Y62039D01*
Y59500D01*
X1906598Y58230D01*
X1910407D01*
X1907867D02*
X1905328Y55691D01*
X1897711Y63309D02*
X1900250Y62039D01*
X1902789Y59500D01*
Y56961D01*
X1901520Y55691D01*
X1898980D01*
X1897711Y56961D01*
Y58230D01*
X1898980Y59500D01*
X1902789D01*
X1890093Y55691D02*
X1895172D01*
X1890093Y60770D01*
Y62039D01*
X1891363Y63309D01*
X1893902D01*
X1895172Y62039D01*
X2000809Y36152D02*
X1993191D01*
Y39961D01*
X1994461Y41230D01*
X1999539D01*
X2000809Y39961D01*
Y36152D01*
Y48848D02*
Y43770D01*
X1997000D01*
X1998270Y46309D01*
Y47578D01*
X1997000Y48848D01*
X1994461D01*
X1993191Y47578D01*
Y45039D01*
X1994461Y43770D01*
X1790461Y130078D02*
X1789191Y131348D01*
Y133887D01*
X1790461Y135157D01*
X1795539D01*
X1796809Y133887D01*
Y131348D01*
X1795539Y130078D01*
X1790461Y127539D02*
X1789191Y126270D01*
Y123730D01*
X1790461Y122461D01*
X1791730D01*
X1793000Y123730D01*
Y125000D01*
Y123730D01*
X1794270Y122461D01*
X1795539D01*
X1796809Y123730D01*
Y126270D01*
X1795539Y127539D01*
X1796809Y116113D02*
X1789191D01*
X1793000Y119922D01*
Y114843D01*
X1868211Y67828D02*
X1866941Y69098D01*
Y71637D01*
X1868211Y72907D01*
X1873289D01*
X1874559Y71637D01*
Y69098D01*
X1873289Y67828D01*
X1868211Y65289D02*
X1866941Y64020D01*
Y61480D01*
X1868211Y60211D01*
X1869480D01*
X1870750Y61480D01*
Y62750D01*
Y61480D01*
X1872020Y60211D01*
X1873289D01*
X1874559Y61480D01*
Y64020D01*
X1873289Y65289D01*
X1874559Y52593D02*
Y57672D01*
X1869480Y52593D01*
X1868211D01*
X1866941Y53863D01*
Y56402D01*
X1868211Y57672D01*
X454309Y660407D02*
X446691D01*
Y656598D01*
X447961Y655328D01*
X450500D01*
X451770Y656598D01*
Y660407D01*
Y657868D02*
X454309Y655328D01*
X446691Y647711D02*
X447961Y650250D01*
X450500Y652789D01*
X453039D01*
X454309Y651520D01*
Y648980D01*
X453039Y647711D01*
X451770D01*
X450500Y648980D01*
Y652789D01*
X447961Y645172D02*
X446691Y643902D01*
Y641363D01*
X447961Y640093D01*
X453039D01*
X454309Y641363D01*
Y643902D01*
X453039Y645172D01*
X447961D01*
X391809Y660157D02*
X384191D01*
Y656348D01*
X385461Y655078D01*
X388000D01*
X389270Y656348D01*
Y660157D01*
Y657617D02*
X391809Y655078D01*
X384191Y647461D02*
Y652539D01*
X388000D01*
X386730Y650000D01*
Y648730D01*
X388000Y647461D01*
X390539D01*
X391809Y648730D01*
Y651270D01*
X390539Y652539D01*
Y644922D02*
X391809Y643652D01*
Y641113D01*
X390539Y639843D01*
X385461D01*
X384191Y641113D01*
Y643652D01*
X385461Y644922D01*
X386730D01*
X388000Y643652D01*
Y639843D01*
X1710559Y315157D02*
X1702941D01*
Y311348D01*
X1704211Y310078D01*
X1706750D01*
X1708020Y311348D01*
Y315157D01*
Y312617D02*
X1710559Y310078D01*
X1702941Y302461D02*
Y307539D01*
X1706750D01*
X1705480Y305000D01*
Y303730D01*
X1706750Y302461D01*
X1709289D01*
X1710559Y303730D01*
Y306270D01*
X1709289Y307539D01*
X1702941Y299922D02*
Y294843D01*
X1704211D01*
X1709289Y299922D01*
X1710559D01*
Y284907D02*
X1702941D01*
Y281098D01*
X1704211Y279828D01*
X1706750D01*
X1708020Y281098D01*
Y284907D01*
Y282367D02*
X1710559Y279828D01*
X1702941Y272211D02*
Y277289D01*
X1706750D01*
X1705480Y274750D01*
Y273480D01*
X1706750Y272211D01*
X1709289D01*
X1710559Y273480D01*
Y276020D01*
X1709289Y277289D01*
X1702941Y264593D02*
X1704211Y267132D01*
X1706750Y269672D01*
X1709289D01*
X1710559Y268402D01*
Y265863D01*
X1709289Y264593D01*
X1708020D01*
X1706750Y265863D01*
Y269672D01*
X1710559Y255157D02*
X1702941D01*
Y251348D01*
X1704211Y250078D01*
X1706750D01*
X1708020Y251348D01*
Y255157D01*
Y252617D02*
X1710559Y250078D01*
X1702941Y242461D02*
Y247539D01*
X1706750D01*
X1705480Y245000D01*
Y243730D01*
X1706750Y242461D01*
X1709289D01*
X1710559Y243730D01*
Y246270D01*
X1709289Y247539D01*
X1702941Y234843D02*
Y239922D01*
X1706750D01*
X1705480Y237382D01*
Y236113D01*
X1706750Y234843D01*
X1709289D01*
X1710559Y236113D01*
Y238652D01*
X1709289Y239922D01*
X1710559Y225157D02*
X1702941D01*
Y221348D01*
X1704211Y220078D01*
X1706750D01*
X1708020Y221348D01*
Y225157D01*
Y222617D02*
X1710559Y220078D01*
X1702941Y212461D02*
Y217539D01*
X1706750D01*
X1705480Y215000D01*
Y213730D01*
X1706750Y212461D01*
X1709289D01*
X1710559Y213730D01*
Y216270D01*
X1709289Y217539D01*
X1710559Y206113D02*
X1702941D01*
X1706750Y209922D01*
Y204843D01*
X1722559Y315157D02*
X1714941D01*
Y311348D01*
X1716211Y310078D01*
X1718750D01*
X1720020Y311348D01*
Y315157D01*
Y312617D02*
X1722559Y310078D01*
X1714941Y302461D02*
Y307539D01*
X1718750D01*
X1717480Y305000D01*
Y303730D01*
X1718750Y302461D01*
X1721289D01*
X1722559Y303730D01*
Y306270D01*
X1721289Y307539D01*
X1716211Y299922D02*
X1714941Y298652D01*
Y296113D01*
X1716211Y294843D01*
X1717480D01*
X1718750Y296113D01*
Y297382D01*
Y296113D01*
X1720020Y294843D01*
X1721289D01*
X1722559Y296113D01*
Y298652D01*
X1721289Y299922D01*
X1722559Y284907D02*
X1714941D01*
Y281098D01*
X1716211Y279828D01*
X1718750D01*
X1720020Y281098D01*
Y284907D01*
Y282367D02*
X1722559Y279828D01*
X1714941Y272211D02*
Y277289D01*
X1718750D01*
X1717480Y274750D01*
Y273480D01*
X1718750Y272211D01*
X1721289D01*
X1722559Y273480D01*
Y276020D01*
X1721289Y277289D01*
X1722559Y264593D02*
Y269672D01*
X1717480Y264593D01*
X1716211D01*
X1714941Y265863D01*
Y268402D01*
X1716211Y269672D01*
X1722559Y253887D02*
X1714941D01*
Y250078D01*
X1716211Y248809D01*
X1718750D01*
X1720020Y250078D01*
Y253887D01*
Y251348D02*
X1722559Y248809D01*
X1714941Y241191D02*
Y246270D01*
X1718750D01*
X1717480Y243730D01*
Y242461D01*
X1718750Y241191D01*
X1721289D01*
X1722559Y242461D01*
Y245000D01*
X1721289Y246270D01*
X1722559Y238652D02*
Y236113D01*
Y237382D01*
X1714941D01*
X1716211Y238652D01*
X1540157Y324941D02*
Y332559D01*
X1536348D01*
X1535078Y331289D01*
Y328750D01*
X1536348Y327480D01*
X1540157D01*
X1537617D02*
X1535078Y324941D01*
X1527461Y332559D02*
X1532539D01*
Y328750D01*
X1530000Y330020D01*
X1528730D01*
X1527461Y328750D01*
Y326211D01*
X1528730Y324941D01*
X1531270D01*
X1532539Y326211D01*
X1524922Y331289D02*
X1523652Y332559D01*
X1521113D01*
X1519843Y331289D01*
Y326211D01*
X1521113Y324941D01*
X1523652D01*
X1524922Y326211D01*
Y331289D01*
X1477407Y283691D02*
Y291309D01*
X1473598D01*
X1472328Y290039D01*
Y287500D01*
X1473598Y286230D01*
X1477407D01*
X1474868D02*
X1472328Y283691D01*
X1465980D02*
Y291309D01*
X1469789Y287500D01*
X1464711D01*
X1462172Y284961D02*
X1460902Y283691D01*
X1458363D01*
X1457093Y284961D01*
Y290039D01*
X1458363Y291309D01*
X1460902D01*
X1462172Y290039D01*
Y288770D01*
X1460902Y287500D01*
X1457093D01*
X1540157Y338441D02*
Y346059D01*
X1536348D01*
X1535078Y344789D01*
Y342250D01*
X1536348Y340980D01*
X1540157D01*
X1537617D02*
X1535078Y338441D01*
X1528730D02*
Y346059D01*
X1532539Y342250D01*
X1527461D01*
X1524922Y344789D02*
X1523652Y346059D01*
X1521113D01*
X1519843Y344789D01*
Y343520D01*
X1521113Y342250D01*
X1519843Y340980D01*
Y339711D01*
X1521113Y338441D01*
X1523652D01*
X1524922Y339711D01*
Y340980D01*
X1523652Y342250D01*
X1524922Y343520D01*
Y344789D01*
X1523652Y342250D02*
X1521113D01*
X1540157Y311941D02*
Y319559D01*
X1536348D01*
X1535078Y318289D01*
Y315750D01*
X1536348Y314480D01*
X1540157D01*
X1537617D02*
X1535078Y311941D01*
X1528730D02*
Y319559D01*
X1532539Y315750D01*
X1527461D01*
X1524922Y319559D02*
X1519843D01*
Y318289D01*
X1524922Y313211D01*
Y311941D01*
X1722559Y225157D02*
X1714941D01*
Y221348D01*
X1716211Y220078D01*
X1718750D01*
X1720020Y221348D01*
Y225157D01*
Y222617D02*
X1722559Y220078D01*
Y213730D02*
X1714941D01*
X1718750Y217539D01*
Y212461D01*
X1714941Y204843D02*
X1716211Y207382D01*
X1718750Y209922D01*
X1721289D01*
X1722559Y208652D01*
Y206113D01*
X1721289Y204843D01*
X1720020D01*
X1718750Y206113D01*
Y209922D01*
X1593844Y101441D02*
Y109059D01*
X1590035D01*
X1588766Y107789D01*
Y105250D01*
X1590035Y103980D01*
X1593844D01*
X1591305D02*
X1588766Y101441D01*
X1582418D02*
Y109059D01*
X1586227Y105250D01*
X1581148D01*
X1574800Y101441D02*
Y109059D01*
X1578609Y105250D01*
X1573531D01*
X1560157Y101441D02*
Y109059D01*
X1556348D01*
X1555078Y107789D01*
Y105250D01*
X1556348Y103980D01*
X1560157D01*
X1557617D02*
X1555078Y101441D01*
X1548730D02*
Y109059D01*
X1552539Y105250D01*
X1547461D01*
X1544922Y107789D02*
X1543652Y109059D01*
X1541113D01*
X1539843Y107789D01*
Y106520D01*
X1541113Y105250D01*
X1542382D01*
X1541113D01*
X1539843Y103980D01*
Y102711D01*
X1541113Y101441D01*
X1543652D01*
X1544922Y102711D01*
X1630907Y230384D02*
Y222766D01*
X1625828D01*
X1623289D02*
X1620750D01*
X1622020D01*
Y230384D01*
X1623289Y229114D01*
X447691Y600196D02*
Y597657D01*
Y598926D01*
X455309D01*
Y600196D01*
Y597657D01*
X448961Y588770D02*
X447691Y590039D01*
Y592578D01*
X448961Y593848D01*
X454039D01*
X455309Y592578D01*
Y590039D01*
X454039Y588770D01*
X455309Y586230D02*
Y583691D01*
Y584961D01*
X447691D01*
X448961Y586230D01*
Y579882D02*
X447691Y578613D01*
Y576074D01*
X448961Y574804D01*
X454039D01*
X455309Y576074D01*
Y578613D01*
X454039Y579882D01*
X448961D01*
X1589522Y306309D02*
X1586983D01*
X1588252D01*
Y298691D01*
X1589522D01*
X1586983D01*
X1578096Y305039D02*
X1579365Y306309D01*
X1581904D01*
X1583174Y305039D01*
Y299961D01*
X1581904Y298691D01*
X1579365D01*
X1578096Y299961D01*
X1575556Y305039D02*
X1574287Y306309D01*
X1571748D01*
X1570478Y305039D01*
Y303770D01*
X1571748Y302500D01*
X1570478Y301230D01*
Y299961D01*
X1571748Y298691D01*
X1574287D01*
X1575556Y299961D01*
Y301230D01*
X1574287Y302500D01*
X1575556Y303770D01*
Y305039D01*
X1574287Y302500D02*
X1571748D01*
X1545441Y156772D02*
Y154233D01*
Y155502D01*
X1553059D01*
Y156772D01*
Y154233D01*
X1546711Y145346D02*
X1545441Y146615D01*
Y149154D01*
X1546711Y150424D01*
X1551789D01*
X1553059Y149154D01*
Y146615D01*
X1551789Y145346D01*
X1545441Y137728D02*
X1546711Y140267D01*
X1549250Y142806D01*
X1551789D01*
X1553059Y141537D01*
Y138998D01*
X1551789Y137728D01*
X1550520D01*
X1549250Y138998D01*
Y142806D01*
X1619789Y240191D02*
X1621059Y238922D01*
Y236382D01*
X1619789Y235113D01*
X1614711D01*
X1613441Y236382D01*
Y238922D01*
X1614711Y240191D01*
X1619789Y242730D02*
X1621059Y244000D01*
Y246539D01*
X1619789Y247809D01*
X1618520D01*
X1617250Y246539D01*
Y245270D01*
Y246539D01*
X1615980Y247809D01*
X1614711D01*
X1613441Y246539D01*
Y244000D01*
X1614711Y242730D01*
X1613441Y250348D02*
Y252887D01*
Y251618D01*
X1621059D01*
X1619789Y250348D01*
X1691461Y310078D02*
X1690191Y311348D01*
Y313887D01*
X1691461Y315157D01*
X1696539D01*
X1697809Y313887D01*
Y311348D01*
X1696539Y310078D01*
X1691461Y307539D02*
X1690191Y306270D01*
Y303730D01*
X1691461Y302461D01*
X1692730D01*
X1694000Y303730D01*
Y305000D01*
Y303730D01*
X1695270Y302461D01*
X1696539D01*
X1697809Y303730D01*
Y306270D01*
X1696539Y307539D01*
X1691461Y299922D02*
X1690191Y298652D01*
Y296113D01*
X1691461Y294843D01*
X1696539D01*
X1697809Y296113D01*
Y298652D01*
X1696539Y299922D01*
X1691461D01*
Y279828D02*
X1690191Y281098D01*
Y283637D01*
X1691461Y284907D01*
X1696539D01*
X1697809Y283637D01*
Y281098D01*
X1696539Y279828D01*
X1697809Y272211D02*
Y277289D01*
X1692730Y272211D01*
X1691461D01*
X1690191Y273480D01*
Y276020D01*
X1691461Y277289D01*
X1696539Y269672D02*
X1697809Y268402D01*
Y265863D01*
X1696539Y264593D01*
X1691461D01*
X1690191Y265863D01*
Y268402D01*
X1691461Y269672D01*
X1692730D01*
X1694000Y268402D01*
Y264593D01*
X1691461Y250078D02*
X1690191Y251348D01*
Y253887D01*
X1691461Y255157D01*
X1696539D01*
X1697809Y253887D01*
Y251348D01*
X1696539Y250078D01*
X1697809Y242461D02*
Y247539D01*
X1692730Y242461D01*
X1691461D01*
X1690191Y243730D01*
Y246270D01*
X1691461Y247539D01*
Y239922D02*
X1690191Y238652D01*
Y236113D01*
X1691461Y234843D01*
X1692730D01*
X1694000Y236113D01*
X1695270Y234843D01*
X1696539D01*
X1697809Y236113D01*
Y238652D01*
X1696539Y239922D01*
X1695270D01*
X1694000Y238652D01*
X1692730Y239922D01*
X1691461D01*
X1694000Y238652D02*
Y236113D01*
X1691461Y220078D02*
X1690191Y221348D01*
Y223887D01*
X1691461Y225157D01*
X1696539D01*
X1697809Y223887D01*
Y221348D01*
X1696539Y220078D01*
X1697809Y212461D02*
Y217539D01*
X1692730Y212461D01*
X1691461D01*
X1690191Y213730D01*
Y216270D01*
X1691461Y217539D01*
X1690191Y209922D02*
Y204843D01*
X1691461D01*
X1696539Y209922D01*
X1697809D01*
X424078Y559289D02*
X425348Y560559D01*
X427887D01*
X429157Y559289D01*
Y554211D01*
X427887Y552941D01*
X425348D01*
X424078Y554211D01*
X416461Y552941D02*
X421539D01*
X416461Y558020D01*
Y559289D01*
X417730Y560559D01*
X420270D01*
X421539Y559289D01*
X408843Y560559D02*
X411382Y559289D01*
X413922Y556750D01*
Y554211D01*
X412652Y552941D01*
X410113D01*
X408843Y554211D01*
Y555480D01*
X410113Y556750D01*
X413922D01*
X416461Y656328D02*
X415191Y657598D01*
Y660137D01*
X416461Y661407D01*
X421539D01*
X422809Y660137D01*
Y657598D01*
X421539Y656328D01*
X422809Y648711D02*
Y653789D01*
X417730Y648711D01*
X416461D01*
X415191Y649980D01*
Y652520D01*
X416461Y653789D01*
X422809Y642363D02*
X415191D01*
X419000Y646172D01*
Y641093D01*
X1557328Y176289D02*
X1558598Y177559D01*
X1561137D01*
X1562407Y176289D01*
Y171211D01*
X1561137Y169941D01*
X1558598D01*
X1557328Y171211D01*
X1549711Y169941D02*
X1554789D01*
X1549711Y175020D01*
Y176289D01*
X1550980Y177559D01*
X1553520D01*
X1554789Y176289D01*
X1547172D02*
X1545902Y177559D01*
X1543363D01*
X1542093Y176289D01*
Y175020D01*
X1543363Y173750D01*
X1544632D01*
X1543363D01*
X1542093Y172480D01*
Y171211D01*
X1543363Y169941D01*
X1545902D01*
X1547172Y171211D01*
X1472328Y270039D02*
X1473598Y271309D01*
X1476137D01*
X1477407Y270039D01*
Y264961D01*
X1476137Y263691D01*
X1473598D01*
X1472328Y264961D01*
X1464711Y263691D02*
X1469789D01*
X1464711Y268770D01*
Y270039D01*
X1465980Y271309D01*
X1468520D01*
X1469789Y270039D01*
X1457093Y263691D02*
X1462172D01*
X1457093Y268770D01*
Y270039D01*
X1458363Y271309D01*
X1460902D01*
X1462172Y270039D01*
X1625828Y191789D02*
X1627098Y193059D01*
X1629637D01*
X1630907Y191789D01*
Y186711D01*
X1629637Y185441D01*
X1627098D01*
X1625828Y186711D01*
X1618211Y185441D02*
X1623289D01*
X1618211Y190520D01*
Y191789D01*
X1619480Y193059D01*
X1622020D01*
X1623289Y191789D01*
X1615672Y185441D02*
X1613132D01*
X1614402D01*
Y193059D01*
X1615672Y191789D01*
X1625828Y212539D02*
X1627098Y213809D01*
X1629637D01*
X1630907Y212539D01*
Y207461D01*
X1629637Y206191D01*
X1627098D01*
X1625828Y207461D01*
X1618211Y206191D02*
X1623289D01*
X1618211Y211270D01*
Y212539D01*
X1619480Y213809D01*
X1622020D01*
X1623289Y212539D01*
X1615672D02*
X1614402Y213809D01*
X1611863D01*
X1610593Y212539D01*
Y207461D01*
X1611863Y206191D01*
X1614402D01*
X1615672Y207461D01*
Y212539D01*
X1528194D02*
X1529463Y213809D01*
X1532002D01*
X1533272Y212539D01*
Y207461D01*
X1532002Y206191D01*
X1529463D01*
X1528194Y207461D01*
X1525654Y206191D02*
X1523115D01*
X1524385D01*
Y213809D01*
X1525654Y212539D01*
X1519306Y207461D02*
X1518037Y206191D01*
X1515498D01*
X1514228Y207461D01*
Y212539D01*
X1515498Y213809D01*
X1518037D01*
X1519306Y212539D01*
Y211270D01*
X1518037Y210000D01*
X1514228D01*
X1528194Y195289D02*
X1529463Y196559D01*
X1532002D01*
X1533272Y195289D01*
Y190211D01*
X1532002Y188941D01*
X1529463D01*
X1528194Y190211D01*
X1525654Y188941D02*
X1523115D01*
X1524385D01*
Y196559D01*
X1525654Y195289D01*
X1515498Y188941D02*
Y196559D01*
X1519306Y192750D01*
X1514228D01*
X1652961Y152444D02*
X1651691Y153713D01*
Y156252D01*
X1652961Y157522D01*
X1658039D01*
X1659309Y156252D01*
Y153713D01*
X1658039Y152444D01*
X1659309Y149904D02*
Y147365D01*
Y148635D01*
X1651691D01*
X1652961Y149904D01*
X1659309Y138478D02*
Y143556D01*
X1654230Y138478D01*
X1652961D01*
X1651691Y139748D01*
Y142287D01*
X1652961Y143556D01*
X1548789Y551392D02*
X1550059Y550123D01*
Y547583D01*
X1548789Y546314D01*
X1543711D01*
X1542441Y547583D01*
Y550123D01*
X1543711Y551392D01*
X1542441Y553931D02*
Y556470D01*
Y555201D01*
X1550059D01*
X1548789Y553931D01*
Y560279D02*
X1550059Y561549D01*
Y564088D01*
X1548789Y565358D01*
X1543711D01*
X1542441Y564088D01*
Y561549D01*
X1543711Y560279D01*
X1548789D01*
Y523730D02*
X1550059Y522461D01*
Y519922D01*
X1548789Y518652D01*
X1543711D01*
X1542441Y519922D01*
Y522461D01*
X1543711Y523730D01*
Y526270D02*
X1542441Y527539D01*
Y530078D01*
X1543711Y531348D01*
X1548789D01*
X1550059Y530078D01*
Y527539D01*
X1548789Y526270D01*
X1547520D01*
X1546250Y527539D01*
Y531348D01*
X1479738Y686168D02*
Y681090D01*
Y683629D01*
X1487355D01*
X1481007Y678551D02*
X1479738Y677281D01*
Y674742D01*
X1481007Y673472D01*
X1482277D01*
X1483546Y674742D01*
X1484816Y673472D01*
X1486086D01*
X1487355Y674742D01*
Y677281D01*
X1486086Y678551D01*
X1484816D01*
X1483546Y677281D01*
X1482277Y678551D01*
X1481007D01*
X1483546Y677281D02*
Y674742D01*
X1480205Y651738D02*
Y646660D01*
Y649199D01*
X1487823D01*
X1480205Y644121D02*
Y639042D01*
X1481475D01*
X1486553Y644121D01*
X1487823D01*
X1863441Y666098D02*
Y661020D01*
Y663559D01*
X1871059D01*
Y654672D02*
X1863441D01*
X1867250Y658480D01*
Y653402D01*
X1863441Y725098D02*
Y720020D01*
Y722559D01*
X1871059D01*
X1864711Y717481D02*
X1863441Y716211D01*
Y713672D01*
X1864711Y712402D01*
X1865980D01*
X1867250Y713672D01*
Y714941D01*
Y713672D01*
X1868520Y712402D01*
X1869789D01*
X1871059Y713672D01*
Y716211D01*
X1869789Y717481D01*
X1751716Y666191D02*
Y673809D01*
X1747907D01*
X1746637Y672539D01*
Y670000D01*
X1747907Y668730D01*
X1751716D01*
X1749176D02*
X1746637Y666191D01*
X1744098Y672539D02*
X1742828Y673809D01*
X1740289D01*
X1739020Y672539D01*
Y671270D01*
X1740289Y670000D01*
X1741559D01*
X1740289D01*
X1739020Y668730D01*
Y667461D01*
X1740289Y666191D01*
X1742828D01*
X1744098Y667461D01*
X1732672Y666191D02*
Y673809D01*
X1736480Y670000D01*
X1731402D01*
X1766191Y750593D02*
X1773809D01*
Y754402D01*
X1772539Y755672D01*
X1770000D01*
X1768730Y754402D01*
Y750593D01*
Y753132D02*
X1766191Y755672D01*
X1772539Y758211D02*
X1773809Y759480D01*
Y762020D01*
X1772539Y763289D01*
X1771270D01*
X1770000Y762020D01*
Y760750D01*
Y762020D01*
X1768730Y763289D01*
X1767461D01*
X1766191Y762020D01*
Y759480D01*
X1767461Y758211D01*
X1772539Y765828D02*
X1773809Y767098D01*
Y769637D01*
X1772539Y770907D01*
X1771270D01*
X1770000Y769637D01*
Y768368D01*
Y769637D01*
X1768730Y770907D01*
X1767461D01*
X1766191Y769637D01*
Y767098D01*
X1767461Y765828D01*
X1615191Y714343D02*
X1622809D01*
Y718152D01*
X1621539Y719422D01*
X1619000D01*
X1617730Y718152D01*
Y714343D01*
Y716882D02*
X1615191Y719422D01*
X1621539Y721961D02*
X1622809Y723230D01*
Y725770D01*
X1621539Y727039D01*
X1620270D01*
X1619000Y725770D01*
Y724500D01*
Y725770D01*
X1617730Y727039D01*
X1616461D01*
X1615191Y725770D01*
Y723230D01*
X1616461Y721961D01*
X1615191Y734657D02*
Y729578D01*
X1620270Y734657D01*
X1621539D01*
X1622809Y733387D01*
Y730848D01*
X1621539Y729578D01*
X1660384Y715326D02*
X1668002D01*
Y719135D01*
X1666732Y720404D01*
X1664193D01*
X1662923Y719135D01*
Y715326D01*
Y717865D02*
X1660384Y720404D01*
X1666732Y722943D02*
X1668002Y724213D01*
Y726752D01*
X1666732Y728022D01*
X1665463D01*
X1664193Y726752D01*
Y725483D01*
Y726752D01*
X1662923Y728022D01*
X1661654D01*
X1660384Y726752D01*
Y724213D01*
X1661654Y722943D01*
X1660384Y730561D02*
Y733100D01*
Y731831D01*
X1668002D01*
X1666732Y730561D01*
X1639522Y707059D02*
X1636983D01*
X1638252D01*
Y699441D01*
X1639522D01*
X1636983D01*
X1628096Y705789D02*
X1629365Y707059D01*
X1631904D01*
X1633174Y705789D01*
Y700711D01*
X1631904Y699441D01*
X1629365D01*
X1628096Y700711D01*
X1620478Y707059D02*
X1625556D01*
Y703250D01*
X1623017Y704520D01*
X1621748D01*
X1620478Y703250D01*
Y700711D01*
X1621748Y699441D01*
X1624287D01*
X1625556Y700711D01*
X1619570Y639090D02*
X1620840Y640360D01*
X1623379D01*
X1624649Y639090D01*
Y634012D01*
X1623379Y632742D01*
X1620840D01*
X1619570Y634012D01*
X1617031Y632742D02*
X1614492D01*
X1615762D01*
Y640360D01*
X1617031Y639090D01*
X1610683Y640360D02*
X1605605D01*
Y639090D01*
X1610683Y634012D01*
Y632742D01*
X1542358Y679444D02*
X1541088Y680713D01*
Y683252D01*
X1542358Y684522D01*
X1547436D01*
X1548706Y683252D01*
Y680713D01*
X1547436Y679444D01*
X1548706Y676904D02*
Y674365D01*
Y675635D01*
X1541088D01*
X1542358Y676904D01*
Y670556D02*
X1541088Y669287D01*
Y666748D01*
X1542358Y665478D01*
X1547436D01*
X1548706Y666748D01*
Y669287D01*
X1547436Y670556D01*
X1542358D01*
X1542358Y646270D02*
X1541088Y647539D01*
Y650078D01*
X1542358Y651348D01*
X1547436D01*
X1548706Y650078D01*
Y647539D01*
X1547436Y646270D01*
Y643730D02*
X1548706Y642461D01*
Y639922D01*
X1547436Y638652D01*
X1542358D01*
X1541088Y639922D01*
Y642461D01*
X1542358Y643730D01*
X1543627D01*
X1544897Y642461D01*
Y638652D01*
X1739020Y652539D02*
X1740289Y653809D01*
X1742828D01*
X1744098Y652539D01*
Y647461D01*
X1742828Y646191D01*
X1740289D01*
X1739020Y647461D01*
X1736480Y652539D02*
X1735211Y653809D01*
X1732672D01*
X1731402Y652539D01*
Y651270D01*
X1732672Y650000D01*
X1731402Y648730D01*
Y647461D01*
X1732672Y646191D01*
X1735211D01*
X1736480Y647461D01*
Y648730D01*
X1735211Y650000D01*
X1736480Y651270D01*
Y652539D01*
X1735211Y650000D02*
X1732672D01*
X1739020Y712539D02*
X1740289Y713809D01*
X1742828D01*
X1744098Y712539D01*
Y707461D01*
X1742828Y706191D01*
X1740289D01*
X1739020Y707461D01*
X1736480Y713809D02*
X1731402D01*
Y712539D01*
X1736480Y707461D01*
Y706191D01*
X1734742Y492048D02*
Y499666D01*
X1730933D01*
X1729663Y498396D01*
Y495857D01*
X1730933Y494588D01*
X1734742D01*
X1732202D02*
X1729663Y492048D01*
X1723315D02*
Y499666D01*
X1727124Y495857D01*
X1722046D01*
X1714428Y492048D02*
X1719506D01*
X1714428Y497127D01*
Y498396D01*
X1715698Y499666D01*
X1718237D01*
X1719506Y498396D01*
X1660967Y339288D02*
X1658428D01*
X1659697D01*
Y331670D01*
X1660967D01*
X1658428D01*
X1649541Y338018D02*
X1650810Y339288D01*
X1653349D01*
X1654619Y338018D01*
Y332940D01*
X1653349Y331670D01*
X1650810D01*
X1649541Y332940D01*
X1647001Y339288D02*
X1641923D01*
Y338018D01*
X1647001Y332940D01*
Y331670D01*
X1654607Y420289D02*
X1655876Y421558D01*
X1658415D01*
X1659685Y420289D01*
Y415210D01*
X1658415Y413941D01*
X1655876D01*
X1654607Y415210D01*
X1652067Y413941D02*
X1649528D01*
X1650798D01*
Y421558D01*
X1652067Y420289D01*
X1645719D02*
X1644450Y421558D01*
X1641911D01*
X1640641Y420289D01*
Y419019D01*
X1641911Y417749D01*
X1643180D01*
X1641911D01*
X1640641Y416480D01*
Y415210D01*
X1641911Y413941D01*
X1644450D01*
X1645719Y415210D01*
X48712Y232166D02*
Y224549D01*
X44903D01*
X43633Y225818D01*
Y230897D01*
X44903Y232166D01*
X48712D01*
X36016Y224549D02*
X41094D01*
X36016Y229627D01*
Y230897D01*
X37285Y232166D01*
X39825D01*
X41094Y230897D01*
X79591Y245376D02*
X80861Y244106D01*
Y241567D01*
X79591Y240298D01*
X74513D01*
X73244Y241567D01*
Y244106D01*
X74513Y245376D01*
X73244Y247915D02*
Y250454D01*
Y249185D01*
X80861D01*
X79591Y247915D01*
Y254263D02*
X80861Y255533D01*
Y258072D01*
X79591Y259341D01*
X78322D01*
X77052Y258072D01*
X75783Y259341D01*
X74513D01*
X73244Y258072D01*
Y255533D01*
X74513Y254263D01*
X75783D01*
X77052Y255533D01*
X78322Y254263D01*
X79591D01*
X77052Y255533D02*
Y258072D01*
X1739020Y593039D02*
X1740289Y594309D01*
X1742828D01*
X1744098Y593039D01*
Y587961D01*
X1742828Y586691D01*
X1740289D01*
X1739020Y587961D01*
X1736480Y594309D02*
X1731402D01*
Y593039D01*
X1736480Y587961D01*
Y586691D01*
X1653444Y503789D02*
X1654713Y505059D01*
X1657252D01*
X1658522Y503789D01*
Y498711D01*
X1657252Y497441D01*
X1654713D01*
X1653444Y498711D01*
X1650904Y497441D02*
X1648365D01*
X1649635D01*
Y505059D01*
X1650904Y503789D01*
X1644556Y505059D02*
X1639478D01*
Y503789D01*
X1644556Y498711D01*
Y497441D01*
X1724357Y446025D02*
Y448564D01*
Y447294D01*
X1716739D01*
Y446025D01*
Y448564D01*
X1723087Y457451D02*
X1724357Y456182D01*
Y453642D01*
X1723087Y452373D01*
X1718009D01*
X1716739Y453642D01*
Y456182D01*
X1718009Y457451D01*
Y459990D02*
X1716739Y461260D01*
Y463799D01*
X1718009Y465069D01*
X1723087D01*
X1724357Y463799D01*
Y461260D01*
X1723087Y459990D01*
X1721818D01*
X1720548Y461260D01*
Y465069D01*
X1621718Y442448D02*
X1622987Y443717D01*
X1625526D01*
X1626796Y442448D01*
Y437369D01*
X1625526Y436100D01*
X1622987D01*
X1621718Y437369D01*
X1619178Y436100D02*
X1616639D01*
X1617909D01*
Y443717D01*
X1619178Y442448D01*
X1607752Y443717D02*
X1610291Y442448D01*
X1612831Y439909D01*
Y437369D01*
X1611561Y436100D01*
X1609022D01*
X1607752Y437369D01*
Y438639D01*
X1609022Y439909D01*
X1612831D01*
X1621718Y472222D02*
X1622987Y473491D01*
X1625526D01*
X1626796Y472222D01*
Y467143D01*
X1625526Y465874D01*
X1622987D01*
X1621718Y467143D01*
X1619178Y465874D02*
X1616639D01*
X1617909D01*
Y473491D01*
X1619178Y472222D01*
X1607752Y473491D02*
X1612831D01*
Y469683D01*
X1610291Y470952D01*
X1609022D01*
X1607752Y469683D01*
Y467143D01*
X1609022Y465874D01*
X1611561D01*
X1612831Y467143D01*
X101309Y696172D02*
X102579Y697442D01*
X105118D01*
X106388Y696172D01*
Y691094D01*
X105118Y689825D01*
X102579D01*
X101309Y691094D01*
X98770Y696172D02*
X97501Y697442D01*
X94962D01*
X93692Y696172D01*
Y694903D01*
X94962Y693633D01*
X96231D01*
X94962D01*
X93692Y692364D01*
Y691094D01*
X94962Y689825D01*
X97501D01*
X98770Y691094D01*
X1751716Y548691D02*
Y556309D01*
X1747907D01*
X1746637Y555039D01*
Y552500D01*
X1747907Y551230D01*
X1751716D01*
X1749176D02*
X1746637Y548691D01*
X1744098Y555039D02*
X1742828Y556309D01*
X1740289D01*
X1739020Y555039D01*
Y553770D01*
X1740289Y552500D01*
X1741559D01*
X1740289D01*
X1739020Y551230D01*
Y549961D01*
X1740289Y548691D01*
X1742828D01*
X1744098Y549961D01*
X1732672Y548691D02*
Y556309D01*
X1736480Y552500D01*
X1731402D01*
X1751716Y608691D02*
Y616309D01*
X1747907D01*
X1746637Y615039D01*
Y612500D01*
X1747907Y611230D01*
X1751716D01*
X1749176D02*
X1746637Y608691D01*
X1744098Y615039D02*
X1742828Y616309D01*
X1740289D01*
X1739020Y615039D01*
Y613770D01*
X1740289Y612500D01*
X1741559D01*
X1740289D01*
X1739020Y611230D01*
Y609961D01*
X1740289Y608691D01*
X1742828D01*
X1744098Y609961D01*
X1736480Y615039D02*
X1735211Y616309D01*
X1732672D01*
X1731402Y615039D01*
Y613770D01*
X1732672Y612500D01*
X1733941D01*
X1732672D01*
X1731402Y611230D01*
Y609961D01*
X1732672Y608691D01*
X1735211D01*
X1736480Y609961D01*
X1622309Y614907D02*
X1614691D01*
Y611098D01*
X1615961Y609828D01*
X1618500D01*
X1619770Y611098D01*
Y614907D01*
Y612368D02*
X1622309Y609828D01*
X1615961Y607289D02*
X1614691Y606020D01*
Y603480D01*
X1615961Y602211D01*
X1617230D01*
X1618500Y603480D01*
Y604750D01*
Y603480D01*
X1619770Y602211D01*
X1621039D01*
X1622309Y603480D01*
Y606020D01*
X1621039Y607289D01*
X1622309Y594593D02*
Y599672D01*
X1617230Y594593D01*
X1615961D01*
X1614691Y595863D01*
Y598402D01*
X1615961Y599672D01*
X1660594Y596699D02*
X1668212D01*
Y600508D01*
X1666942Y601777D01*
X1664403D01*
X1663133Y600508D01*
Y596699D01*
Y599238D02*
X1660594Y601777D01*
X1666942Y604316D02*
X1668212Y605586D01*
Y608125D01*
X1666942Y609395D01*
X1665672D01*
X1664403Y608125D01*
Y606856D01*
Y608125D01*
X1663133Y609395D01*
X1661864D01*
X1660594Y608125D01*
Y605586D01*
X1661864Y604316D01*
X1660594Y611934D02*
Y614473D01*
Y613204D01*
X1668212D01*
X1666942Y611934D01*
X58252Y336228D02*
X53173D01*
X55713D01*
Y328610D01*
X50634D02*
X48095D01*
X49365D01*
Y336228D01*
X50634Y334958D01*
X3332Y316061D02*
X-4286D01*
Y312252D01*
X-3016Y310983D01*
X-477D01*
X793Y312252D01*
Y316061D01*
Y313522D02*
X3332Y310983D01*
X-4286Y303365D02*
Y308444D01*
X-477D01*
X-1747Y305904D01*
Y304635D01*
X-477Y303365D01*
X2062D01*
X3332Y304635D01*
Y307174D01*
X2062Y308444D01*
X22750Y275914D02*
X30367D01*
Y279723D01*
X29098Y280992D01*
X26559D01*
X25289Y279723D01*
Y275914D01*
Y278453D02*
X22750Y280992D01*
X30367Y288610D02*
X29098Y286071D01*
X26559Y283531D01*
X24019D01*
X22750Y284801D01*
Y287340D01*
X24019Y288610D01*
X25289D01*
X26559Y287340D01*
Y283531D01*
X30963Y336562D02*
X23346D01*
Y340371D01*
X24616Y341641D01*
X29694D01*
X30963Y340371D01*
Y336562D01*
X23346Y344180D02*
Y346719D01*
Y345449D01*
X30963D01*
X29694Y344180D01*
X1863441Y546348D02*
Y541270D01*
Y543809D01*
X1871059D01*
Y534922D02*
X1863441D01*
X1867250Y538730D01*
Y533652D01*
X1863441Y606348D02*
Y601270D01*
Y603809D01*
X1871059D01*
X1864711Y598730D02*
X1863441Y597461D01*
Y594922D01*
X1864711Y593652D01*
X1865980D01*
X1867250Y594922D01*
Y596191D01*
Y594922D01*
X1868520Y593652D01*
X1869789D01*
X1871059Y594922D01*
Y597461D01*
X1869789Y598730D01*
X76560Y850381D02*
X75290Y849111D01*
X72751D01*
X71482Y850381D01*
Y855459D01*
X72751Y856729D01*
X75290D01*
X76560Y855459D01*
X84178Y856729D02*
X79099D01*
X84178Y851650D01*
Y850381D01*
X82908Y849111D01*
X80369D01*
X79099Y850381D01*
X42000Y-10461D02*
X43270Y-9191D01*
X45809D01*
X47078Y-10461D01*
Y-15539D01*
X45809Y-16809D01*
X43270D01*
X42000Y-15539D01*
X39461Y-16809D02*
X36922D01*
X38191D01*
Y-9191D01*
X39461Y-10461D01*
X1618522Y519809D02*
X1615983D01*
X1617252D01*
Y512191D01*
X1618522D01*
X1615983D01*
X1607096Y518539D02*
X1608365Y519809D01*
X1610904D01*
X1612174Y518539D01*
Y513461D01*
X1610904Y512191D01*
X1608365D01*
X1607096Y513461D01*
X1599478Y519809D02*
X1604556D01*
Y516000D01*
X1602017Y517270D01*
X1600748D01*
X1599478Y516000D01*
Y513461D01*
X1600748Y512191D01*
X1603287D01*
X1604556Y513461D01*
X1739020Y535039D02*
X1740289Y536309D01*
X1742828D01*
X1744098Y535039D01*
Y529961D01*
X1742828Y528691D01*
X1740289D01*
X1739020Y529961D01*
X1736480Y535039D02*
X1735211Y536309D01*
X1732672D01*
X1731402Y535039D01*
Y533770D01*
X1732672Y532500D01*
X1731402Y531230D01*
Y529961D01*
X1732672Y528691D01*
X1735211D01*
X1736480Y529961D01*
Y531230D01*
X1735211Y532500D01*
X1736480Y533770D01*
Y535039D01*
X1735211Y532500D02*
X1732672D01*
X70623Y513130D02*
X69354Y514400D01*
Y516939D01*
X70623Y518209D01*
X75702D01*
X76971Y516939D01*
Y514400D01*
X75702Y513130D01*
X76971Y506782D02*
X69354D01*
X73163Y510591D01*
Y505513D01*
X71757Y912062D02*
Y904444D01*
X75566D01*
X76835Y905714D01*
Y908253D01*
X75566Y909523D01*
X71757D01*
X74296D02*
X76835Y912062D01*
X84453D02*
X79374D01*
X84453Y906983D01*
Y905714D01*
X83183Y904444D01*
X80644D01*
X79374Y905714D01*
X47328Y31191D02*
Y38809D01*
X43520D01*
X42250Y37539D01*
Y35000D01*
X43520Y33730D01*
X47328D01*
X44789D02*
X42250Y31191D01*
X39711D02*
X37172D01*
X38441D01*
Y38809D01*
X39711Y37539D01*
X148167Y553080D02*
X155785D01*
Y556889D01*
X154515Y558159D01*
X151976D01*
X150707Y556889D01*
Y553080D01*
Y555620D02*
X148167Y558159D01*
X154515Y560698D02*
X155785Y561968D01*
Y564507D01*
X154515Y565776D01*
X153246D01*
X151976Y564507D01*
Y563237D01*
Y564507D01*
X150707Y565776D01*
X149437D01*
X148167Y564507D01*
Y561968D01*
X149437Y560698D01*
Y568316D02*
X148167Y569585D01*
Y572124D01*
X149437Y573394D01*
X154515D01*
X155785Y572124D01*
Y569585D01*
X154515Y568316D01*
X153246D01*
X151976Y569585D01*
Y573394D01*
X91941Y552343D02*
X99559D01*
Y556152D01*
X98289Y557422D01*
X95750D01*
X94480Y556152D01*
Y552343D01*
Y554883D02*
X91941Y557422D01*
X98289Y559961D02*
X99559Y561230D01*
Y563770D01*
X98289Y565039D01*
X97020D01*
X95750Y563770D01*
Y562500D01*
Y563770D01*
X94480Y565039D01*
X93211D01*
X91941Y563770D01*
Y561230D01*
X93211Y559961D01*
X99559Y567578D02*
Y572657D01*
X98289D01*
X93211Y567578D01*
X91941D01*
X128632Y709700D02*
X121014D01*
Y705891D01*
X122284Y704622D01*
X124823D01*
X126093Y705891D01*
Y709700D01*
Y707161D02*
X128632Y704622D01*
Y702083D02*
Y699543D01*
Y700813D01*
X121014D01*
X122284Y702083D01*
X121014Y690656D02*
X122284Y693195D01*
X124823Y695735D01*
X127362D01*
X128632Y694465D01*
Y691926D01*
X127362Y690656D01*
X126093D01*
X124823Y691926D01*
Y695735D01*
X144427Y709612D02*
X136810D01*
Y705803D01*
X138079Y704534D01*
X140618D01*
X141888Y705803D01*
Y709612D01*
Y707073D02*
X144427Y704534D01*
Y701995D02*
Y699455D01*
Y700725D01*
X136810D01*
X138079Y701995D01*
X144427Y691838D02*
X136810D01*
X140618Y695647D01*
Y690568D01*
X208130Y721433D02*
X200512D01*
Y717624D01*
X201782Y716355D01*
X204321D01*
X205591Y717624D01*
Y721433D01*
Y718894D02*
X208130Y716355D01*
Y713816D02*
Y711276D01*
Y712546D01*
X200512D01*
X201782Y713816D01*
X208130Y707467D02*
Y704928D01*
Y706198D01*
X200512D01*
X201782Y707467D01*
X216482Y704880D02*
X224099D01*
Y708689D01*
X222830Y709958D01*
X220291D01*
X219021Y708689D01*
Y704880D01*
Y707419D02*
X216482Y709958D01*
Y712498D02*
Y715037D01*
Y713767D01*
X224099D01*
X222830Y712498D01*
Y718846D02*
X224099Y720115D01*
Y722654D01*
X222830Y723924D01*
X217751D01*
X216482Y722654D01*
Y720115D01*
X217751Y718846D01*
X222830D01*
X230880Y705087D02*
X238498D01*
Y708896D01*
X237228Y710166D01*
X234689D01*
X233420Y708896D01*
Y705087D01*
Y707626D02*
X230880Y710166D01*
X232150Y712705D02*
X230880Y713974D01*
Y716514D01*
X232150Y717783D01*
X237228D01*
X238498Y716514D01*
Y713974D01*
X237228Y712705D01*
X235959D01*
X234689Y713974D01*
Y717783D01*
X246191Y705247D02*
X253809D01*
Y709056D01*
X252539Y710325D01*
X250000D01*
X248730Y709056D01*
Y705247D01*
Y707786D02*
X246191Y710325D01*
X252539Y712865D02*
X253809Y714134D01*
Y716674D01*
X252539Y717943D01*
X251270D01*
X250000Y716674D01*
X248730Y717943D01*
X247461D01*
X246191Y716674D01*
Y714134D01*
X247461Y712865D01*
X248730D01*
X250000Y714134D01*
X251270Y712865D01*
X252539D01*
X250000Y714134D02*
Y716674D01*
X150207Y393367D02*
X157825D01*
Y397176D01*
X156555Y398446D01*
X154016D01*
X152746Y397176D01*
Y393367D01*
Y395906D02*
X150207Y398446D01*
Y406063D02*
Y400985D01*
X155286Y406063D01*
X156555D01*
X157825Y404794D01*
Y402254D01*
X156555Y400985D01*
Y408602D02*
X157825Y409872D01*
Y412411D01*
X156555Y413681D01*
X155286D01*
X154016Y412411D01*
X152746Y413681D01*
X151477D01*
X150207Y412411D01*
Y409872D01*
X151477Y408602D01*
X152746D01*
X154016Y409872D01*
X155286Y408602D01*
X156555D01*
X154016Y409872D02*
Y412411D01*
X102740Y412865D02*
X95122D01*
Y409056D01*
X96392Y407786D01*
X98931D01*
X100201Y409056D01*
Y412865D01*
Y410325D02*
X102740Y407786D01*
Y400169D02*
Y405247D01*
X97661Y400169D01*
X96392D01*
X95122Y401438D01*
Y403977D01*
X96392Y405247D01*
X95122Y392551D02*
X96392Y395090D01*
X98931Y397630D01*
X101470D01*
X102740Y396360D01*
Y393821D01*
X101470Y392551D01*
X100201D01*
X98931Y393821D01*
Y397630D01*
X120387Y530495D02*
Y538112D01*
X116579D01*
X115309Y536843D01*
Y534304D01*
X116579Y533034D01*
X120387D01*
X117848D02*
X115309Y530495D01*
X107691D02*
X112770D01*
X107691Y535573D01*
Y536843D01*
X108961Y538112D01*
X111500D01*
X112770Y536843D01*
X101343Y530495D02*
Y538112D01*
X105152Y534304D01*
X100074D01*
X135675Y503188D02*
X143293D01*
Y506996D01*
X142023Y508266D01*
X139484D01*
X138214Y506996D01*
Y503188D01*
Y505727D02*
X135675Y508266D01*
Y515883D02*
Y510805D01*
X140753Y515883D01*
X142023D01*
X143293Y514614D01*
Y512075D01*
X142023Y510805D01*
X135675Y523501D02*
Y518423D01*
X140753Y523501D01*
X142023D01*
X143293Y522231D01*
Y519692D01*
X142023Y518423D01*
X177890Y705009D02*
Y712626D01*
X174081D01*
X172812Y711357D01*
Y708818D01*
X174081Y707548D01*
X177890D01*
X175351D02*
X172812Y705009D01*
X170273D02*
X167733D01*
X169003D01*
Y712626D01*
X170273Y711357D01*
X163925D02*
X162655Y712626D01*
X160116D01*
X158846Y711357D01*
Y710087D01*
X160116Y708818D01*
X161385D01*
X160116D01*
X158846Y707548D01*
Y706278D01*
X160116Y705009D01*
X162655D01*
X163925Y706278D01*
X193120Y724361D02*
X185503D01*
Y720552D01*
X186772Y719282D01*
X189312D01*
X190581Y720552D01*
Y724361D01*
Y721821D02*
X193120Y719282D01*
Y716743D02*
Y714204D01*
Y715473D01*
X185503D01*
X186772Y716743D01*
X193120Y705317D02*
Y710395D01*
X188042Y705317D01*
X186772D01*
X185503Y706586D01*
Y709126D01*
X186772Y710395D01*
X239971Y622586D02*
Y625125D01*
Y623856D01*
X232353D01*
Y622586D01*
Y625125D01*
X238701Y634012D02*
X239971Y632743D01*
Y630203D01*
X238701Y628934D01*
X233623D01*
X232353Y630203D01*
Y632743D01*
X233623Y634012D01*
X232353Y641630D02*
Y636551D01*
X237432Y641630D01*
X238701D01*
X239971Y640360D01*
Y637821D01*
X238701Y636551D01*
X55819Y465763D02*
Y463224D01*
Y464493D01*
X63436D01*
Y465763D01*
Y463224D01*
X57088Y454337D02*
X55819Y455606D01*
Y458145D01*
X57088Y459415D01*
X62166D01*
X63436Y458145D01*
Y455606D01*
X62166Y454337D01*
X57088Y451797D02*
X55819Y450528D01*
Y447989D01*
X57088Y446719D01*
X58358D01*
X59627Y447989D01*
Y449258D01*
Y447989D01*
X60897Y446719D01*
X62166D01*
X63436Y447989D01*
Y450528D01*
X62166Y451797D01*
X170460Y609358D02*
Y611897D01*
Y610628D01*
X162843D01*
Y609358D01*
Y611897D01*
X169191Y620784D02*
X170460Y619515D01*
Y616976D01*
X169191Y615706D01*
X164112D01*
X162843Y616976D01*
Y619515D01*
X164112Y620784D01*
X162843Y623324D02*
Y625863D01*
Y624593D01*
X170460D01*
X169191Y623324D01*
X2067782Y901280D02*
Y895475D01*
X2068145Y894387D01*
X2068508Y894024D01*
X2069233Y893661D01*
X2069959D01*
X2070684Y894024D01*
X2071047Y894387D01*
X2071410Y895475D01*
Y896201D01*
X2065823Y899828D02*
X2065098Y900191D01*
X2064009Y901280D01*
Y893661D01*
D39*
X1638500Y564500D02*
G03*
X1638500Y564500I-2500J0D01*
G01*
Y684500D02*
G03*
X1638500Y684500I-2500J0D01*
G01*
X80850Y462500D02*
G03*
X80850Y462500I-2500J0D01*
G01*
Y622500D02*
G03*
X80850Y622500I-2500J0D01*
G01*
D149*
X1303095Y241619D02*
Y221624D01*
Y241619D02*
X1296430D01*
X1293574Y240667D01*
X1291669Y238763D01*
X1290717Y236859D01*
X1289765Y234002D01*
Y229241D01*
X1290717Y226385D01*
X1291669Y224480D01*
X1293574Y222576D01*
X1296430Y221624D01*
X1303095D01*
X1285290Y241619D02*
Y221624D01*
X1275387Y241619D02*
X1277291Y240667D01*
X1279196Y238763D01*
X1280148Y236859D01*
X1281100Y234002D01*
Y229241D01*
X1280148Y226385D01*
X1279196Y224480D01*
X1277291Y222576D01*
X1275387Y221624D01*
X1271578D01*
X1269674Y222576D01*
X1267770Y224480D01*
X1266817Y226385D01*
X1265865Y229241D01*
Y234002D01*
X1266817Y236859D01*
X1267770Y238763D01*
X1269674Y240667D01*
X1271578Y241619D01*
X1275387D01*
X1254534D02*
Y221624D01*
X1261200Y241619D02*
X1247869D01*
X1245489Y214958D02*
X1230254D01*
X1227683Y231145D02*
X1219113D01*
X1216257Y232098D01*
X1215305Y233050D01*
X1214352Y234954D01*
Y237811D01*
X1215305Y239715D01*
X1216257Y240667D01*
X1219113Y241619D01*
X1227683D01*
Y221624D01*
X1196547Y238763D02*
X1198451Y240667D01*
X1201308Y241619D01*
X1205116D01*
X1207973Y240667D01*
X1209877Y238763D01*
Y236859D01*
X1208925Y234954D01*
X1207973Y234002D01*
X1206068Y233050D01*
X1200355Y231145D01*
X1198451Y230193D01*
X1197499Y229241D01*
X1196547Y227337D01*
Y224480D01*
X1198451Y222576D01*
X1201308Y221624D01*
X1205116D01*
X1207973Y222576D01*
X1209877Y224480D01*
X1192072Y241619D02*
Y227337D01*
X1191119Y224480D01*
X1189215Y222576D01*
X1186358Y221624D01*
X1184454D01*
X1181598Y222576D01*
X1179693Y224480D01*
X1178741Y227337D01*
Y241619D01*
X1337231Y201359D02*
Y181364D01*
Y201359D02*
X1324853D01*
X1337231Y191838D02*
X1329613D01*
X1322567Y194694D02*
Y181364D01*
Y188981D02*
X1321615Y191838D01*
X1319711Y193742D01*
X1317807Y194694D01*
X1314950D01*
X1308380D02*
X1310284Y193742D01*
X1312189Y191838D01*
X1313141Y188981D01*
Y187077D01*
X1312189Y184220D01*
X1310284Y182316D01*
X1308380Y181364D01*
X1305523D01*
X1303619Y182316D01*
X1301715Y184220D01*
X1300762Y187077D01*
Y188981D01*
X1301715Y191838D01*
X1303619Y193742D01*
X1305523Y194694D01*
X1308380D01*
X1296382D02*
Y181364D01*
Y190885D02*
X1293526Y193742D01*
X1291622Y194694D01*
X1288765D01*
X1286861Y193742D01*
X1285909Y190885D01*
Y181364D01*
X1277815Y201359D02*
Y185172D01*
X1276863Y182316D01*
X1274958Y181364D01*
X1273054D01*
X1280672Y194694D02*
X1274006D01*
X1254487Y201359D02*
Y181364D01*
X1250297Y194694D02*
Y181364D01*
Y190885D02*
X1247441Y193742D01*
X1245536Y194694D01*
X1242680D01*
X1240775Y193742D01*
X1239823Y190885D01*
Y181364D01*
X1231730Y201359D02*
Y185172D01*
X1230778Y182316D01*
X1228873Y181364D01*
X1226969D01*
X1234586Y194694D02*
X1227921D01*
X1224112Y188981D02*
X1212686D01*
Y190885D01*
X1213638Y192790D01*
X1214591Y193742D01*
X1216495Y194694D01*
X1219351D01*
X1221256Y193742D01*
X1223160Y191838D01*
X1224112Y188981D01*
Y187077D01*
X1223160Y184220D01*
X1221256Y182316D01*
X1219351Y181364D01*
X1216495D01*
X1214591Y182316D01*
X1212686Y184220D01*
X1208401Y194694D02*
Y181364D01*
Y188981D02*
X1207449Y191838D01*
X1205545Y193742D01*
X1203641Y194694D01*
X1200784D01*
X1191357Y201359D02*
X1193262D01*
X1195166Y200407D01*
X1196118Y197551D01*
Y181364D01*
X1198975Y194694D02*
X1192310D01*
X1177075D02*
Y181364D01*
Y191838D02*
X1178979Y193742D01*
X1180883Y194694D01*
X1183740D01*
X1185644Y193742D01*
X1187549Y191838D01*
X1188501Y188981D01*
Y187077D01*
X1187549Y184220D01*
X1185644Y182316D01*
X1183740Y181364D01*
X1180883D01*
X1178979Y182316D01*
X1177075Y184220D01*
X1160316Y191838D02*
X1162221Y193742D01*
X1164125Y194694D01*
X1166982D01*
X1168886Y193742D01*
X1170790Y191838D01*
X1171743Y188981D01*
Y187077D01*
X1170790Y184220D01*
X1168886Y182316D01*
X1166982Y181364D01*
X1164125D01*
X1162221Y182316D01*
X1160316Y184220D01*
X1156032Y188981D02*
X1144605D01*
Y190885D01*
X1145558Y192790D01*
X1146510Y193742D01*
X1148414Y194694D01*
X1151271D01*
X1153175Y193742D01*
X1155079Y191838D01*
X1156032Y188981D01*
Y187077D01*
X1155079Y184220D01*
X1153175Y182316D01*
X1151271Y181364D01*
X1148414D01*
X1146510Y182316D01*
X1144605Y184220D01*
M02*
