M48
;Layer_Color=9474304
;FILE_FORMAT=4:4
METRIC,LZ
;TYPE=PLATED
T01F00S00C0.4000
T02F00S00C0.9000
T03F00S00C1.0000
T04F00S00C1.3000
T05F00S00C1.4000
T06F00S00C1.6000
T07F00S00C2.0000
T08F00S00C2.7000
;TYPE=NON_PLATED
T09F00S00C1.1000
T10F00S00C6.0000
%
T01
X00436Y00472
X00477Y00501
X00461Y00611
X00476Y00627
Y00728
X00373Y007282
Y006774
Y0064
X00397Y00764
X00461Y00763
Y00752
T02
X00345Y00532
X004165Y00568
X004515
X00193Y00532
Y00812
X00269
T03
X00374Y00469
X00391375Y00516736
X00177847Y00473987
X00146151Y00406014
T04
X003795Y00163
Y00213
Y00263
X004545
Y00213
Y00163
Y00413
X003795
T05
X00269Y001088
Y00185
Y002612
Y003628
Y00439
X0005416Y00464
Y00718001
T06
X0009816Y00591
T07
X0Y001504
X001273Y0020475
X001768
Y0032365
X001273
X00368Y00123
X00461
X0Y00378
T08
X00016Y0009
X0042
X00016Y008
X0042
T09
X004163Y006392
X004417
Y006646
X004163
Y0069
X004417
Y007154
X004163
Y007408
X004417
T10
X-0000084Y00456
Y00726
M30
