M48
;Layer_Color=9474304
;FILE_FORMAT=4:4
METRIC,LZ
;TYPE=PLATED
T01F00S00C0.3000
T02F00S00C0.7620
T03F00S00C0.9700
T04F00S00C1.0000
T05F00S00C1.0200
T06F00S00C2.3000
T07F00S00C2.7000
T08F00S00C4.0000
T09F00S00C4.5000
;TYPE=NON_PLATED
T10F00S00C1.5700
%
T01
X0004005Y-00016999
X00058Y-000105
X0008605Y-00016999
X0010905
X0013205
X0015505
X0017805
X0020105
X0022405
X0023555Y00052001
X0021255
X0018955
X0016655
X0014355
X0012055
X0009755
X0010905Y00075001
X0013205
X0015505
X0017805
X0020105
X0022405
X0023555Y00098001
X0021255
X0018955
X0016655
X0014355
X0012055
X0009755
X0007455
X0005Y0009
X00041213Y00068787
X0005155Y00052001
X00058Y000305
X000215Y0003225
X0002Y0006
X-00001213Y00068787
X-0001Y0009
X-00001213Y00111213
X0002Y0012
X00041213Y00111213
X0006305Y00121001
X0008605
X0010905
X0013205
X0015505
X0017805
X0020105
X0022405
X0018955Y00144001
X0016655
X0014355
X0012055
X0009755
X0007455
X0005155
X0002855
X0000555
X0001705Y00167001
X0004005
X0006305
X0008605
X0007455Y00190001
X0005155
X0002855
X0000555
X-0001745
X-0000595Y00213001
X0001705
X0004005
X0006305
X0010905
X0013205
X0014355Y00190001
X0012055
X001115Y00242
X0010905Y00259001
X0013205
X0012055Y00282001
X00131Y003045
X0014125Y003175
X0016655Y00328001
X0018955
X0021255
X0023555
X0022405Y00305001
X0020105
X0021255Y00282001
X0023555
X0022405Y00259001
X0020105
X0017805
X0017725Y00242
X0018955Y00236001
X0021255
X0023555
X0022405Y00213001
X0023555Y00190001
X0018955Y00282001
X00165Y003045
X0010775Y0030625
X0010725Y00327
X0011625Y0034125
X000865Y0034275
X000575Y0034325
X0006305Y00305001
X0008605
X0008275Y0028175
X000425Y00274739
X00023Y0033175
X-0000046Y0032925
X-0001255Y00331352
X-0002405Y00337
X-00006Y00317
X-00024111Y00297029
X-0001745Y00236001
X-0000595Y00167001
X-0004045Y00098001
X-0002895Y00075001
X0024705
X0027005
X0028155Y00052001
X0025855
X0027005Y-00016999
X0024705
X003Y-0001325
X0031605Y-00016999
X0033905
X0036425Y-000205
X00398787Y00068787
X0042Y0006
X00441213Y00068787
X00453Y00057
X0047625Y000555
X0049075Y000715
X0048855Y00098001
X0045Y0009
X00441213Y00111213
X0042Y0012
X0041955Y00144001
X0044255
Y00190001
X0046555
X0047705Y00213001
X0045405
X0043105
X0040805
X0041955Y00236001
X0044255
X0046555
X0047705Y00259001
X0045405
X0043105
X0040805
X0041955Y00282001
X0044255
X0046555
X0047705Y00305001
X0045405
X0043105
X0040805
X0041955Y00328001
X0044255
X0046555
X0039655
Y00282001
Y00236001
Y00190001
X0041955
X003855Y0017225
X00395Y001565
X0038625Y001215
X00398787Y00111213
X0039Y0009
X0032755Y00098001
X0033905Y00121001
X0031605
X0032755Y00144001
X0030455
X0028155
Y00190001
X0030455
X0032755
X0033905Y00213001
X0031605
X0029305
X0027005
X0024705
X0025855Y00236001
X0028155
X0030455
X0032755
X0033905Y00259001
X0031605
X0029305
X0027005
X0024705
X0025855Y00282001
X0028155
X0030455
X0032755
X0033905Y00305001
X0031605
X0029305
X0027005
X0024705
X0025855Y00328001
X0028155
X0030455
X0032755
X0025855Y00190001
X00538787Y00143213
X0056Y00152
X00581213Y00143213
X0059Y00122
X00581213Y00100787
X0056Y00092
X00538787Y00100787
X0053Y00122
X01430491Y00186376
X0144275Y0021075
X01474Y0021325
X01477551Y00190001
X0149375Y00193
X0150975Y001895
Y0016025
X01489051Y00167001
X01477551Y00144001
X01489051Y00121001
X01477551Y00098001
X0149375Y0009
X0150975Y00097
X01523551Y00098001
X01546551
X01569551
X01592551
X01615551
X01638551
X01643Y0007025
X01627051Y00075001
X01624Y0005825
X01604051Y00075001
X01581051
X01558051
X01535051
X014735Y000725
X01523551Y00144001
X01535051Y00167001
X0154025Y001925
X015655Y001825
X015845Y0018225
X016005Y001825
X0160229Y0016875
X01585Y001475
X015575
X0159875Y00127
X01635Y001395
X0164086Y00183185
X016495Y001825
X01655Y00195
X01684551Y00190001
X0169075Y00207
X01719051Y00213001
X01742051
X01753551Y00190001
X01730551
X01716Y00152
X01694787Y00143213
X01696051Y00167001
X01673051
X01686Y00122
X01694787Y00100787
X01696051Y00075001
X01719051
X01716Y00092
X01737213Y00100787
X01746Y00122
X01737213Y00143213
X0179875Y0015275
X0180875Y0014475
Y0010775
Y0010125
X01822551Y00052001
X01811051Y-00016999
X01788051
X01742051Y00075001
X01673051
X0169425Y0004225
X0170125
X01719051Y00259001
X0172Y0028025
X01753551Y00282001
X0175825Y003075
X01766Y0032025
X0173175Y00318
X0169925Y003065
X01688Y00267
X01628462Y00267
X01628212Y00237
Y00207
X01597Y002525
X01585Y002525
X01585Y0027
X0158Y00275
X01575Y0027
Y0028
X01585
X015825Y003025
X01604051Y00305001
X015965Y00315
X01592551Y00328001
X01615551
X0161525Y00315
X01628212Y00297
X01569551Y00328001
X015555Y00315
X01525Y0031575
X0149875
X014895Y002975
X0151377
Y002775
Y002575
X015495Y002505
X015655Y0025975
X01529Y00218
X01499Y0022125
X0147225Y002675
X0147275Y00309
X01477551Y00328001
X01765051Y00259001
X01798Y0028375
X01891551Y00328001
X01914551
X01960551
X01995051Y00305001
X02110051
X02121551Y00328001
Y00282001
X02110051Y00259001
X02121551Y00236001
X02110051Y00213001
X02121551Y00190001
Y00144001
Y00098001
X02110051Y00075001
X02121551Y00052001
Y00006001
X02110051Y-00016999
X02087051
X02064051
X02041051
X02018051
X02029551Y00006001
X02018051Y00029001
X01995051
X01972051Y-00016999
X01949051
X01926051
X01903051
X01880051
X01857051
X01834051
X01845551Y00052001
X01868551
X01891551
X01857051Y00075001
X01834051
X01903051Y00351001
X01914551Y00374001
X01891551
X01903051Y00397001
X01914551Y00420001
X01960551
X01972051Y00397001
X01960551Y00374001
X01972051Y00351001
X01977145Y00447247
X01993Y00440239
X01949051Y00489001
X01960551Y00512001
X01972051Y00535001
X018675Y00585
X018625Y0059
Y0058
Y006
Y0061
Y0062
X018675Y00615
Y00605
Y00595
X01868551Y00420001
X02121551
X02110051Y00443001
X02121551Y00466001
Y00512001
Y00558001
X02110051Y00581001
X02121551Y00604001
Y00650001
X02098551
X02075551
X02052551
X02029551
X02121551Y00696001
Y00742001
X02110051Y00397001
X02121551Y00374001
X02110051Y00351001
X01765051
X01742051
X01753551Y00374001
X01765051Y00397001
X01742051
X01753551Y00420001
X01765051Y00443001
X01742051
X0170975Y00455
X01694493Y00476806
X01687867
Y00483456
X01694493
X01681217
Y00476806
X0170975Y00504
X0172225Y0054475
X0169076Y00540715
X01706Y0056925
X01707551Y00604001
X01719051Y00627001
X01745949Y0062754
X0176575Y0063541
X01754374Y0065983
Y00697544
X01765Y006925
X01754374Y00724238
X01716Y0074
X01696051Y00719001
X01673051
X01691Y00654
X01671Y006365
X01641Y00652125
X015805Y0065125
X0154825Y0064429
Y0066
X01546Y00694
X01563739Y007
X01573857
X0156875Y00706
X01578963
X01573857Y00712
X01564
X015585Y00706
X01569551Y00742001
X0159Y00722
X01512051Y00719001
X01489051
X01500551Y00742001
X01477551
Y00696001
Y00650001
X01489051Y00627001
X01500551Y00604001
X01523551
X01546551
X01569551
X01592551
X01591763Y00572238
Y00559525
X015805Y0055325
Y0053375
X01581051Y00581001
X01558051
X01535051
X01512051
X01489051
X01477551Y00604001
X01489051Y00489001
X01512051
X01535051
X01558051
X01569551Y00466001
X01546551
X01523551
X01500551
X01477551
X01489051Y00443001
X01512051
X01535051
X01558051
X01569551Y00420001
X01546551
X01523551
X01500551
X01477551
X01489051Y00397001
X01512051
X01535051
X01558051
X015485Y0037225
X01523551Y00374001
X01500551
X01477551
X01489051Y00351001
X0157875Y0036365
X0158325Y0037425
X01604Y0036375
X0161475Y0040125
X016335Y00419
X01641546Y00419045
X01649545
X01707551Y00420001
Y00374001
X0177575Y0048975
X0182725Y0051575
Y005445
Y00582151
Y00615092
Y00659014
Y00703004
Y00741503
X01754374Y00600972
X0175425Y005505
X01643371Y00546825
X016515Y0058025
X0162575Y0057225
X016405Y00504
X0103007Y0058
X010125Y00614428
X0046555Y00604001
X0047705Y00581001
X0045405
X0046555Y00558001
X0047705Y00535001
X0045405
X0046555Y00512001
X0047705Y00489001
X0045405
X0046555Y00466001
X0047705Y00443001
X0045405
X0046555Y00420001
X0047705Y00397001
X0045405
X0043105
X0044255Y00374001
X0046555
X0047705Y00351001
X0045405
X0043105
X0040805
X0041955Y00374001
X0037355Y00420001
X0035055
X0032755
X0030455
X0028155
X0025855
X0027005Y00443001
X0029305
X0031605
X0033905
X0036205
X0037355Y00466001
X0035055
X0032755
X0030455
X0028155
X0025855
X0027005Y00489001
X0029305
X0031605
X0033905
X0036205
X0037355Y00512001
X0035055
X0032755
X0030455
X0028155
X0025855
X0027005Y00535001
X0029305
X0031605
X0033905
X0036205
X0037355Y00558001
X0035055
X0032755
X0030455
X0028155
X0025855
X0027005Y00581001
X0029305
X0031605
X0033905
X0036205
X0037355Y00604001
X0035055
X0032755
X0030455
X0028155
X0025855
X0027005Y00627001
X0029305
X0031605
X0033905
X0036205
X0036026Y0066186
X0036506Y0066706
X0036006Y0067206
Y0068206
X0036486Y0067726
Y0068726
X0036006Y0069206
X0036486Y0069726
X0036986Y0069226
X0037486Y0069726
Y0068726
X0036986Y0068226
Y0067226
X0037486Y0066726
Y0067726
X0037006Y0066206
X0033905Y00673001
X0031605
X0029305
X0027005
X0028155Y00696001
X0030455
X0032755
X003315Y007335
X003655Y0073325
X0026125Y0073225
X0025855Y00650001
X0028155
X0030455
X0032755
X0024705Y00627001
Y00581001
Y00535001
Y00489001
Y00443001
Y00397001
X0027005
X0029305
X0031605
X0033905
X0032755Y00374001
X0030455
X0028155
X0025855
X0027005Y00351001
X0029305
X0031605
X0033905
X0024705
X00411Y005615
X00419Y005965
X0056Y0074
X00218Y00735
X00225Y007105
X00176
X0017791Y006805
X0016025
Y0066325
X0016655Y00650001
X0016025Y0064025
X0017805Y00627001
X0020025Y0062275
Y00642231
X0023555Y00650001
Y00604001
X0022405Y00581001
X0020131Y0058775
X00169018Y0059521
X0015975Y006055
X0014645Y00617153
X0012505Y00613391
X00113603Y00607
X00107Y006255
X00087Y0061575
X00062Y0061675
X000655Y00601
X00063Y00581
X0003025
X0002855Y00558001
X00028Y0054525
X000215Y0052875
X0002855Y00512001
X0001775Y005045
X00027Y0049525
X00044Y004915
X00043Y00506
X0004875Y005255
X0006305Y00535001
X00061Y0051325
X0007475
X0006475Y004915
Y0047675
X0006825Y004685
X0004375
X0003425Y00477
X000185Y004815
X000165Y004685
X-00007951Y00461697
X-00004703Y0044826
X-000055Y004295
X000015Y0041625
X-0001225Y00408
X-0002405Y00417
Y00457
Y00497
X-000085
X00006Y00495
Y0051625
X-0000475Y0052875
X-0000225Y0054525
X-0002405Y00537
Y00577
X-000115Y0058525
Y00568
X0001575Y005675
X000125Y00593
X000035Y00617
X-0001255Y00624213
Y00609239
X-0002405Y00617
Y00657
X-000095Y006665
X-000085Y00648
X00013Y0063925
X0003125Y0065125
X00039Y0063375
X0003875Y0061675
X000395Y005995
X0005155Y00558001
X0007455
X00096862Y00559
X001Y0057
X0008995Y0057477
X0009625Y0053425
X0010738Y00530038
X001175Y00535578
X00125Y00544829
X0016175Y005345
Y0055875
Y0057875
Y0051
Y00485
Y004605
X0014745Y00455
X0014075Y00463115
X0012505Y00455
X00118Y004435
X00099731Y00451718
X0008695Y00454856
X0009275Y0046325
X001075Y0046625
X0009838Y00415
X000885Y00398
X00087Y00375
X0007455Y00374001
X0005625Y0038075
X0006305Y00397001
X0004005
X0003Y0038875
X0002855Y00374001
X0003725Y0036075
X0000555Y00374001
X-0001255Y0037146
Y00382138
X-0002405Y00377
X-0000075Y0039
X0001675Y00403
X0003Y0042175
X0002275Y0043725
X000115Y0044125
X000505Y0043725
X000655
Y0042225
X001045Y00382
X0012055Y00374001
X00142Y0038225
X0016655Y00420001
X0015975Y0044025
X00185Y0040375
X002005Y004035
X0022405Y00397001
X0023555Y00420001
X0022405Y00443001
X0023555Y00466001
X0022405Y00489001
X0023555Y00512001
X0022405Y00535001
X0023555Y00558001
Y00374001
X0021255
X0022405Y00351001
X0020105
X0010905
X-0001255Y0034573
X-000025Y0048175
X0000675Y006805
X0001175Y006955
X0002855Y00696001
X000405Y00696
X0003375Y007105
X00059
X0007625
X001
X0009755Y00696001
X00115Y0069725
X00125Y0069
X0011235Y00676487
Y0066
X00059Y00659321
X0006525Y0065125
Y0063371
X00059Y0067575
X0007625Y0067875
X0003625Y006745
X00022Y006675
X0000625Y007105
X-00009Y00697
X-0002405Y00697
X-0002825Y0070875
X-0001075Y0073425
X0000555Y00742001
X0001475Y00734
X0002855Y00742001
X0005155
X0007455
X0009755
X0012055
X001525Y0073725
X0016655Y00742001
X0013375Y007105
X00145Y00697155
X0015505Y00765001
X0017805
X0016655Y00788001
X0014355
X0012055
X0009755
X0007455
X0008605Y00811001
X0010905
X0013205
X0015505
X0017805
X0018955Y00834001
X0021255
X0020425Y0084975
X0016655Y00834001
X0014355
X0012055
X0009755
X0007455
X0005155
X00037213Y00821213
X00016Y0083
X-00005213Y00821213
X-00014Y008
X-00005213Y00778787
X00016Y0077
X00037213Y00778787
X00046Y008
X0006305Y00765001
X0008605
X0010905
X0013205
X0022405
X0023555Y00788001
X0021255
X0022405Y00811001
Y00903001
X0020105
X0017805
X0015505
X0013205
X0010905
X0008605
X00058Y008995
Y008605
X0008605Y00857001
X-0004045Y00788001
X0025855
X0028155
X0030455
X0032755
X0035055
X0036205Y00811001
X0033905
X0031605
X0029305
X0027005
X0024705
Y00765001
X0027005
X0029305
X0031605
X0033905
X0036205
X0038505
X00398787Y00778787
X0042Y0077
X00441213Y00778787
X00446Y0075575
Y0074875
X0045925Y0076375
X0045Y008
X00441213Y00821213
X0042Y0083
X00398787Y00821213
X0039Y008
X00399Y0085775
X0040805Y00903001
X0043105
X0045405
X0047705
X0050005
X0052305
X0054605
X0056905
X00592051
X00615051
X0063805
X00581213Y00791213
X0059Y0077
X00581213Y00748787
X00538787
X0053Y0077
X00538787Y00791213
X0056Y008
X0048775Y00834
X0048475Y00851
X004985Y0085575
X0038505Y00903001
X0036205
X0033905
X0031605
X0029305
X0027005
X0024705
X0066105
X00684051
X0070705
X00730051
X00753051
X0077605
X00799051
X0082205
X00845051
X00868051
X0089105
X00914051
X0093705
X00960051
X00983051
X0100605
X01029051
X01052051
X01075051
X01098051
X01121051
X01144051
X01167051
X01190051
X01213051
X01236051
X01259051
X01282051
X01305051
X01328051
X01351051
X01374051
X01397051
X01420051
X01443051
X01466051
X01489051
X01512051
X01535051
X01558051
X01581051
X01604051
X01627051
X01650051
X01673051
X01696051
X01719051
X01742051
X01765051
X01788051
X01811051
X01808Y0085675
X0177775Y0085775
X0178325Y008495
X017835Y0083325
X01788051Y00811001
X01765051
X01742051
X01737213Y00791213
X01716Y008
X01694787Y00791213
X01686Y0077
X01694787Y00748787
X01737213
X01746Y0077
X01765051Y00765001
X01776551Y00788001
X01661551
X01638551
X01615551
X01592551
X01569551
X01581051Y00811001
X01604051
X01627051
X01650051
X01673051
X01650051Y00765001
X01627051
X01604051
X01581051
X01512051
X01489051
X01500551Y00788001
X01477551
X01489051Y00811001
X01512051
X01834051
X01857051
X01880051
X01903051
X01926051
X01949051
X01972051
X01995051
X02018051
Y00857001
X02029551Y00880001
X02006551
X02018051Y00903001
X02041051
X02064051
X02087051
X02110051
X02121551Y00880001
Y00834001
X02110051Y00811001
X02121551Y00788001
X01983551
X01960551
X01937551
X01914551
X01891551
X01868551
X01845551
Y00834001
X01836Y00842
X01868551Y00834001
X01891551
X01914551
X01937551
X01960551
X01972051Y00903001
X01995051
X01949051
X01926051
X01903051
X01880051
X01857051
X01834051
T02
X018Y0077
Y0079
X0182
Y0077
T03
X001213Y0001515
X001767
X007213
X007767
X013213
X013767
X019213
X019767
X001767Y0087385
X001213
X007213
X007767
X013213
X013767
X019213
X019767
T04
X020172Y001079
Y001333
Y001587
Y001841
Y002095
Y002349
Y002603
Y002857
X020426
X02068
Y002603
X020426
Y002349
X02068
X020934
Y002603
Y002857
Y003175
Y003429
X02068
X020426
X020172
Y003175
X020426
X02068
Y002095
X020426
Y001841
X02068
X020934
Y002095
Y001587
X02068
X020426
Y001333
X02068
X020934
Y001079
X02068
X020426
Y003683
Y003937
Y004191
Y004445
X020172
Y004191
Y003937
Y003683
X02068
Y003937
Y004191
Y004445
X020934
Y004191
Y003937
Y003683
Y004763
Y005017
X02068
X020426
X020172
Y004763
X020426
X02068
Y005398
Y005652
X020934
Y005398
X020426
Y005652
X020172
Y005398
Y006033
Y006287
X020426
X02068
X020934
Y006033
X02068
X020426
Y006795
Y007049
X02068
X020934
Y006795
X02068
X020172
Y007049
Y007557
Y007811
X020426
X02068
X020934
Y007557
X02068
X020426
T05
X01903Y0047
X01933
Y005
X01903
Y0053
X01933
Y0056
X01903
Y0059
Y0062
X01933
Y0059
Y0065
X01903
Y0068
X01933
T06
X01858Y00213
Y00263
Y00342
X01938
Y00263
Y00213
Y00392
X01858
T07
X0Y0
Y00889
T08
X02068Y0004445
Y0084455
T09
X0002Y0009
X0042
X0056Y00122
X01716
X00016Y008
X0042
X0056Y0077
X01716
T10
X018885Y00425
Y00725
M30
