G04*
G04 #@! TF.GenerationSoftware,Altium Limited,Altium Designer,25.4.2 (15)*
G04*
G04 Layer_Physical_Order=1*
G04 Layer_Color=255*
%FSLAX44Y44*%
%MOMM*%
G71*
G04*
G04 #@! TF.SameCoordinates,DA0471BA-3B3D-406A-8B15-550EC5C29B8F*
G04*
G04*
G04 #@! TF.FilePolarity,Positive*
G04*
G01*
G75*
%ADD32R,1.8000X0.9000*%
%ADD33R,0.7500X0.5000*%
%ADD34C,1.0000*%
%ADD35R,1.0500X0.6500*%
%ADD36C,2.0000*%
%ADD37C,1.2700*%
%ADD38C,1.0000*%
%ADD39C,0.5000*%
%ADD40C,0.4000*%
%ADD41C,0.3000*%
%ADD42C,1.1000*%
%ADD43C,1.5000*%
%ADD44C,1.6000*%
%ADD45C,3.5000*%
%ADD46C,2.1000*%
%ADD47C,2.3000*%
%ADD48R,1.6000X1.6000*%
%ADD49C,5.0000*%
%ADD50C,2.0000*%
%ADD51R,2.0000X2.0000*%
%ADD52C,1.7000*%
%ADD53O,3.0000X4.6000*%
%ADD54C,3.0000*%
G36*
X449831Y651972D02*
X450240Y651890D01*
X480928D01*
Y621000D01*
X367000D01*
Y651890D01*
X407760D01*
X408169Y651972D01*
X408559Y652000D01*
X422023D01*
X422272Y651916D01*
X422474Y651930D01*
X422672Y651890D01*
X435328D01*
X435526Y651930D01*
X435728Y651916D01*
X435977Y652000D01*
X449441D01*
X449831Y651972D01*
D02*
G37*
G36*
X480928Y655000D02*
X450240D01*
X449111Y656987D01*
X449460Y657560D01*
X449460Y657560D01*
X449460Y657560D01*
X459730D01*
Y664600D01*
Y671640D01*
X449460D01*
X449460Y671640D01*
Y671640D01*
X449460Y671640D01*
X447646Y672089D01*
X447533Y672202D01*
X445367Y673453D01*
X442951Y674100D01*
X440449D01*
X438033Y673453D01*
X435867Y672202D01*
X434098Y670433D01*
X432847Y668267D01*
X432200Y665851D01*
Y663349D01*
X432847Y660933D01*
X434098Y658767D01*
X435865Y657000D01*
X435865Y656991D01*
X435328Y655000D01*
X422672D01*
X422135Y656991D01*
X422135Y657000D01*
X423902Y658767D01*
X425153Y660933D01*
X425800Y663349D01*
Y665851D01*
X425153Y668267D01*
X423902Y670433D01*
X422133Y672202D01*
X419967Y673453D01*
X417551Y674100D01*
X415049D01*
X412633Y673453D01*
X410467Y672202D01*
X410354Y672089D01*
X408540Y671640D01*
X408540Y671640D01*
Y671640D01*
X408540Y671640D01*
X398270D01*
Y664600D01*
Y657560D01*
X408540D01*
X408540Y657560D01*
Y657560D01*
X408889Y656988D01*
X407760Y655000D01*
X367000D01*
Y703000D01*
X480928D01*
Y655000D01*
D02*
G37*
G36*
Y706110D02*
X450239D01*
X450063Y706348D01*
X449537Y708110D01*
X449838Y708360D01*
X459730D01*
Y715400D01*
Y722440D01*
X449460D01*
X449460Y722440D01*
Y722440D01*
X449460Y722440D01*
X447646Y722889D01*
X447533Y723002D01*
X445367Y724253D01*
X442951Y724900D01*
X440449D01*
X438033Y724253D01*
X435867Y723002D01*
X434098Y721233D01*
X432847Y719067D01*
X432200Y716651D01*
Y714149D01*
X432847Y711733D01*
X434098Y709567D01*
X435555Y708110D01*
X435273Y706827D01*
X434833Y706110D01*
X423167D01*
X422727Y706827D01*
X422445Y708110D01*
X423902Y709567D01*
X425153Y711733D01*
X425800Y714149D01*
Y716651D01*
X425153Y719067D01*
X423902Y721233D01*
X422133Y723002D01*
X419967Y724253D01*
X417551Y724900D01*
X415049D01*
X412633Y724253D01*
X410467Y723002D01*
X410354Y722889D01*
X408540Y722440D01*
X408540Y722440D01*
Y722440D01*
X408540Y722440D01*
X398270D01*
Y715400D01*
Y708360D01*
X408162D01*
X408463Y708110D01*
X407937Y706348D01*
X407760Y706110D01*
X367000D01*
Y755000D01*
X388881D01*
Y748350D01*
X384950D01*
Y733250D01*
X394192D01*
X394898Y732957D01*
X397000Y732681D01*
X399101Y732957D01*
X399808Y733250D01*
X409050D01*
X409050Y733250D01*
X410920Y732936D01*
X412633Y731947D01*
X415049Y731300D01*
X417551D01*
X419967Y731947D01*
X422133Y733198D01*
X423902Y734967D01*
X425153Y737133D01*
X425800Y739549D01*
Y742051D01*
X425153Y744467D01*
X423902Y746633D01*
X422133Y748402D01*
X419967Y749653D01*
X417551Y750300D01*
X415049D01*
X412633Y749653D01*
X410920Y748663D01*
X409050Y748350D01*
X409050Y748350D01*
X409050Y748350D01*
X405119D01*
Y755000D01*
X452881D01*
Y748350D01*
X448950D01*
X448950Y748350D01*
X447080Y748663D01*
X445367Y749653D01*
X442951Y750300D01*
X440449D01*
X438033Y749653D01*
X435867Y748402D01*
X434098Y746633D01*
X432847Y744467D01*
X432200Y742051D01*
Y739549D01*
X432847Y737133D01*
X434098Y734967D01*
X435867Y733198D01*
X438033Y731947D01*
X440449Y731300D01*
X442951D01*
X445367Y731947D01*
X447080Y732936D01*
X448950Y733250D01*
X448950Y733250D01*
X448950Y733250D01*
X458192D01*
X458899Y732957D01*
X461000Y732681D01*
X463102Y732957D01*
X463808Y733250D01*
X473050D01*
Y748350D01*
X469119D01*
Y755000D01*
X480928D01*
Y706110D01*
D02*
G37*
%LPC*%
G36*
X417551Y648700D02*
X415049D01*
X412633Y648053D01*
X410467Y646802D01*
X410354Y646689D01*
X408540Y646240D01*
X408540Y646240D01*
Y646240D01*
X408540Y646240D01*
X398270D01*
Y639200D01*
Y632160D01*
X408540D01*
X408540Y632160D01*
Y632160D01*
X408540Y632160D01*
X410354Y631711D01*
X410467Y631598D01*
X412633Y630347D01*
X415049Y629700D01*
X417551D01*
X419967Y630347D01*
X422133Y631598D01*
X423902Y633367D01*
X425153Y635533D01*
X425800Y637949D01*
Y640451D01*
X425153Y642867D01*
X423902Y645033D01*
X422133Y646802D01*
X419967Y648053D01*
X417551Y648700D01*
D02*
G37*
G36*
X472540Y646240D02*
X462270D01*
Y640470D01*
X472540D01*
Y646240D01*
D02*
G37*
G36*
X395730D02*
X385460D01*
Y640470D01*
X395730D01*
Y646240D01*
D02*
G37*
G36*
X472540Y637930D02*
X462270D01*
Y632160D01*
X472540D01*
Y637930D01*
D02*
G37*
G36*
X395730Y637930D02*
X385460D01*
Y632160D01*
X395730D01*
Y637930D01*
D02*
G37*
G36*
X442951Y648700D02*
X440449D01*
X438033Y648053D01*
X435867Y646802D01*
X434098Y645033D01*
X432847Y642867D01*
X432200Y640451D01*
Y637949D01*
X432847Y635533D01*
X434098Y633367D01*
X435867Y631598D01*
X438033Y630347D01*
X440449Y629700D01*
X442951D01*
X445367Y630347D01*
X447533Y631598D01*
X447646Y631711D01*
X449460Y632160D01*
X449460Y632160D01*
Y632160D01*
X449460Y632160D01*
X459730D01*
Y639200D01*
Y646240D01*
X449460D01*
X449460Y646240D01*
Y646240D01*
X449460Y646240D01*
X447646Y646689D01*
X447533Y646802D01*
X445367Y648053D01*
X442951Y648700D01*
D02*
G37*
G36*
X417551Y699500D02*
X415049D01*
X412633Y698853D01*
X410467Y697602D01*
X410354Y697489D01*
X408540Y697040D01*
X408540Y697040D01*
Y697040D01*
X408540Y697040D01*
X398270D01*
Y690000D01*
Y682960D01*
X408540D01*
X408540Y682960D01*
Y682960D01*
X408540Y682960D01*
X410354Y682511D01*
X410467Y682398D01*
X412633Y681147D01*
X415049Y680500D01*
X417551D01*
X419967Y681147D01*
X422133Y682398D01*
X423902Y684167D01*
X425153Y686333D01*
X425800Y688749D01*
Y691251D01*
X425153Y693667D01*
X423902Y695833D01*
X422133Y697602D01*
X419967Y698853D01*
X417551Y699500D01*
D02*
G37*
G36*
X472540Y697040D02*
X462270D01*
Y691270D01*
X472540D01*
Y697040D01*
D02*
G37*
G36*
X395730D02*
X385460D01*
Y691270D01*
X395730D01*
Y697040D01*
D02*
G37*
G36*
X472540Y688730D02*
X462270D01*
Y682960D01*
X472540D01*
Y688730D01*
D02*
G37*
G36*
X395730Y688730D02*
X385460D01*
Y682960D01*
X395730D01*
Y688730D01*
D02*
G37*
G36*
X442951Y699500D02*
X440449D01*
X438033Y698853D01*
X435867Y697602D01*
X434098Y695833D01*
X432847Y693667D01*
X432200Y691251D01*
Y688749D01*
X432847Y686333D01*
X434098Y684167D01*
X435867Y682398D01*
X438033Y681147D01*
X440449Y680500D01*
X442951D01*
X445367Y681147D01*
X447533Y682398D01*
X447646Y682511D01*
X449460Y682960D01*
X449460Y682960D01*
Y682960D01*
X449460Y682960D01*
X459730D01*
Y690000D01*
Y697040D01*
X449460D01*
X449460Y697040D01*
Y697040D01*
X449460Y697040D01*
X447646Y697489D01*
X447533Y697602D01*
X445367Y698853D01*
X442951Y699500D01*
D02*
G37*
G36*
X472540Y671640D02*
X462270D01*
Y665870D01*
X472540D01*
Y671640D01*
D02*
G37*
G36*
X395730D02*
X385460D01*
Y665870D01*
X395730D01*
Y671640D01*
D02*
G37*
G36*
X472540Y663330D02*
X462270D01*
Y657560D01*
X472540D01*
Y663330D01*
D02*
G37*
G36*
X395730Y663330D02*
X385460D01*
Y657560D01*
X395730D01*
Y663330D01*
D02*
G37*
G36*
X472540Y722440D02*
X462270D01*
Y716670D01*
X472540D01*
Y722440D01*
D02*
G37*
G36*
X395730D02*
X385460D01*
Y716670D01*
X395730D01*
Y722440D01*
D02*
G37*
G36*
X472540Y714130D02*
X462270D01*
Y708360D01*
X472540D01*
Y714130D01*
D02*
G37*
G36*
X395730Y714130D02*
X385460D01*
Y708360D01*
X395730D01*
Y714130D01*
D02*
G37*
%LPD*%
D32*
X461000Y740800D02*
D03*
Y715400D02*
D03*
X397000Y664600D02*
D03*
X461000D02*
D03*
X397000Y639200D02*
D03*
X461000D02*
D03*
Y690000D02*
D03*
X397000D02*
D03*
Y715400D02*
D03*
Y740800D02*
D03*
D33*
X450000Y501000D02*
D03*
X464000D02*
D03*
Y481000D02*
D03*
X450000D02*
D03*
D34*
X465000Y66999D02*
D03*
X53000Y769000D02*
D03*
X-840Y726000D02*
D03*
Y456000D02*
D03*
X476000Y627000D02*
D03*
X373000Y640000D02*
D03*
X476000Y728000D02*
D03*
X436000Y472000D02*
D03*
X397000Y764000D02*
D03*
X461000Y611000D02*
D03*
Y752000D02*
D03*
Y763000D02*
D03*
X477000Y501000D02*
D03*
X373000Y677400D02*
D03*
Y728200D02*
D03*
D35*
X412500Y491000D02*
D03*
X435500Y500500D02*
D03*
Y481500D02*
D03*
D36*
X417000Y159000D02*
Y225500D01*
X453000Y123000D02*
X463000D01*
X417000Y159000D02*
X453000Y123000D01*
X176800Y323650D02*
Y358200D01*
X120049Y369952D02*
X165049D01*
X176800Y358200D01*
X204200Y108800D02*
X269000D01*
X176800Y136200D02*
Y204750D01*
Y136200D02*
X204200Y108800D01*
X345105Y497895D02*
X374000Y469000D01*
X345105Y497895D02*
Y531895D01*
X345000Y532000D02*
X345105Y531895D01*
X269000Y362800D02*
X320000Y311800D01*
Y240000D02*
Y311800D01*
X417000Y225500D02*
X454500Y263000D01*
X44000Y62000D02*
X392000D01*
X16000Y90000D02*
X44000Y62000D01*
X392000D02*
X420000Y90000D01*
X320000Y240000D02*
X347000Y213000D01*
X379500D01*
X225786Y406014D02*
X269000Y362800D01*
X146151Y406014D02*
X225786D01*
X98000Y392000D02*
Y517000D01*
Y392000D02*
X120049Y369952D01*
X54000Y561000D02*
Y718001D01*
Y561000D02*
X98000Y517000D01*
X54000Y344000D02*
Y464000D01*
X74750Y323250D02*
X125000D01*
X54000Y344000D02*
X74750Y323250D01*
D37*
X349000Y702486D02*
Y782000D01*
X358486Y693000D02*
X372000D01*
X349000Y702486D02*
X358486Y693000D01*
X364000Y640000D02*
X373000D01*
X320000Y684000D02*
X364000Y640000D01*
X193000Y812000D02*
X222000Y783000D01*
X302000D01*
X320000Y765000D01*
Y684000D02*
Y765000D01*
X319000Y812000D02*
X349000Y782000D01*
X269000Y812000D02*
X319000D01*
D38*
X435500Y503624D02*
Y552000D01*
X451500Y568000D01*
X461000Y740800D02*
Y763000D01*
X461000Y611000D02*
X477000Y595000D01*
Y501000D02*
Y595000D01*
X454500Y413000D02*
Y444500D01*
X477000Y467000D02*
Y501000D01*
X454500Y444500D02*
X477000Y467000D01*
X397000Y740800D02*
Y764000D01*
X464000Y501000D02*
X477000D01*
X372800Y728200D02*
X373000Y728400D01*
D39*
X435500Y472500D02*
Y481500D01*
Y472500D02*
X436000Y472000D01*
X412500Y428403D02*
Y491000D01*
X397000Y764000D02*
X397000Y764000D01*
D40*
X397097Y413000D02*
X412500Y428403D01*
X379500Y413000D02*
X397097D01*
D41*
X450000Y495788D02*
X453788Y492000D01*
X458408D01*
X463567Y486841D01*
Y481433D02*
Y486841D01*
X450000Y481000D02*
Y484961D01*
X443961Y491000D02*
X450000Y484961D01*
X412500Y491000D02*
X443961D01*
X463567Y481433D02*
X464000Y481000D01*
X450000Y495788D02*
Y501000D01*
D42*
X416300Y664600D02*
D03*
X441700D02*
D03*
Y639200D02*
D03*
X416300D02*
D03*
X441700Y690000D02*
D03*
X416300D02*
D03*
X441700Y715400D02*
D03*
Y740800D02*
D03*
X416300Y715400D02*
D03*
Y740800D02*
D03*
D43*
X146151Y406014D02*
D03*
X177847Y473987D02*
D03*
D44*
X193000Y812000D02*
D03*
X269000D02*
D03*
X345000Y532000D02*
D03*
X193000D02*
D03*
X451500Y568000D02*
D03*
D45*
X461000Y123000D02*
D03*
X368000D02*
D03*
D46*
X54160Y718001D02*
D03*
Y464000D02*
D03*
X269000Y108800D02*
D03*
Y185000D02*
D03*
Y439000D02*
D03*
Y362800D02*
D03*
Y261200D02*
D03*
D47*
X98160Y591000D02*
D03*
D48*
X416500Y568000D02*
D03*
D49*
X420000Y90000D02*
D03*
Y800000D02*
D03*
X16000Y90000D02*
D03*
Y800000D02*
D03*
D50*
X454500Y413000D02*
D03*
Y263000D02*
D03*
Y213000D02*
D03*
Y163000D02*
D03*
X379500D02*
D03*
Y213000D02*
D03*
Y263000D02*
D03*
D51*
Y413000D02*
D03*
D52*
X391375Y516736D02*
D03*
X374000Y469000D02*
D03*
D53*
X176800Y323650D02*
D03*
X127300D02*
D03*
X176800Y204750D02*
D03*
X127300D02*
D03*
D54*
X0Y378000D02*
D03*
Y150400D02*
D03*
M02*
