G04*
G04 #@! TF.GenerationSoftware,Altium Limited,Altium Designer,25.4.2 (15)*
G04*
G04 Layer_Physical_Order=4*
G04 Layer_Color=15238730*
%FSLAX44Y44*%
%MOMM*%
G71*
G04*
G04 #@! TF.SameCoordinates,DA0471BA-3B3D-406A-8B15-550EC5C29B8F*
G04*
G04*
G04 #@! TF.FilePolarity,Positive*
G04*
G01*
G75*
%ADD34C,1.0000*%
%ADD36C,2.0000*%
%ADD38C,1.0000*%
%ADD39C,0.5000*%
%ADD42C,1.1000*%
%ADD44C,1.6000*%
%ADD45C,3.5000*%
%ADD46C,2.1000*%
%ADD47C,2.3000*%
%ADD48R,1.6000X1.6000*%
%ADD49C,5.0000*%
%ADD50C,2.0000*%
%ADD51R,2.0000X2.0000*%
%ADD52C,1.7000*%
%ADD53O,3.0000X4.6000*%
%ADD54C,3.0000*%
%ADD55P,1.4142X4X180.0*%
%ADD56C,1.0160*%
%ADD57C,2.5000*%
D34*
X-840Y726000D02*
D03*
Y456000D02*
D03*
X476000Y627000D02*
D03*
X373000Y640000D02*
D03*
X476000Y728000D02*
D03*
X436000Y472000D02*
D03*
X397000Y764000D02*
D03*
X461000Y611000D02*
D03*
Y752000D02*
D03*
Y763000D02*
D03*
X477000Y501000D02*
D03*
X373000Y677400D02*
D03*
Y728200D02*
D03*
D36*
X98000Y591000D02*
Y780000D01*
X324809Y763000D02*
X361809Y800000D01*
X98000Y763000D02*
X324809D01*
X98000Y421600D02*
Y591000D01*
X417000Y250500D02*
X454500Y213000D01*
X417000Y250500D02*
Y290000D01*
X294800Y362800D02*
X332000Y400000D01*
Y475838D02*
X372899Y516736D01*
X332000Y400000D02*
Y475838D01*
X54000Y261200D02*
X269000D01*
X54000Y128000D02*
Y377600D01*
X16000Y90000D02*
X54000Y128000D01*
X177847Y516847D02*
X193000Y532000D01*
X372899Y516736D02*
X391375D01*
X54000Y377600D02*
X98000Y421600D01*
X338000Y263000D02*
X379500D01*
X323000Y248000D02*
X338000Y263000D01*
X323000Y137000D02*
Y248000D01*
X337000Y123000D02*
X368000D01*
X323000Y137000D02*
X337000Y123000D01*
X399000Y308000D02*
X417000Y290000D01*
X379500Y163000D02*
Y213000D01*
X243000Y308000D02*
X399000D01*
X454500Y163000D02*
Y213000D01*
X269000Y362800D02*
X294800D01*
X361809Y800000D02*
X420000D01*
X249397Y138397D02*
X269000Y158000D01*
Y185000D01*
X142603Y138397D02*
X249397D01*
X127300Y153700D02*
Y204750D01*
Y153700D02*
X142603Y138397D01*
X225000Y326000D02*
X243000Y308000D01*
X225000Y326000D02*
Y395000D01*
X269000Y439000D01*
X177847Y473987D02*
Y516847D01*
Y473987D02*
X234013D01*
X269000Y439000D01*
X16000Y800000D02*
X78000D01*
X98000Y780000D01*
D38*
X373000Y677400D02*
X380190D01*
X476000Y591500D02*
Y627000D01*
Y652000D01*
X355000Y670000D02*
Y710200D01*
X373000Y728200D01*
X416500Y568000D02*
Y585708D01*
X391000Y611208D02*
X416500Y585708D01*
X391000Y611208D02*
Y666590D01*
X380190Y677400D02*
X391000Y666590D01*
X451500Y568000D02*
X475000Y591500D01*
X476000Y652000D02*
Y728000D01*
X461000Y611000D02*
Y752000D01*
X461000D02*
Y763000D01*
X461000Y763000D01*
D39*
X435500Y472500D02*
Y546526D01*
Y472500D02*
X436000Y472000D01*
X397000Y764000D02*
X402945Y758055D01*
Y629055D02*
Y758055D01*
Y629055D02*
X435500Y596500D01*
Y546526D02*
Y596500D01*
D42*
X416300Y664600D02*
D03*
X441700D02*
D03*
Y639200D02*
D03*
X416300D02*
D03*
X441700Y690000D02*
D03*
X416300D02*
D03*
X441700Y715400D02*
D03*
Y740800D02*
D03*
X416300Y715400D02*
D03*
Y740800D02*
D03*
D44*
X193000Y812000D02*
D03*
X269000D02*
D03*
X345000Y532000D02*
D03*
X193000D02*
D03*
X451500Y568000D02*
D03*
D45*
X461000Y123000D02*
D03*
X368000D02*
D03*
D46*
X54160Y718001D02*
D03*
Y464000D02*
D03*
X269000Y108800D02*
D03*
Y185000D02*
D03*
Y439000D02*
D03*
Y362800D02*
D03*
Y261200D02*
D03*
D47*
X98160Y591000D02*
D03*
D48*
X416500Y568000D02*
D03*
D49*
X420000Y90000D02*
D03*
Y800000D02*
D03*
X16000Y90000D02*
D03*
Y800000D02*
D03*
D50*
X454500Y413000D02*
D03*
Y263000D02*
D03*
Y213000D02*
D03*
Y163000D02*
D03*
X379500D02*
D03*
Y213000D02*
D03*
Y263000D02*
D03*
D51*
Y413000D02*
D03*
D52*
X391375Y516736D02*
D03*
X374000Y469000D02*
D03*
D53*
X176800Y323650D02*
D03*
X127300D02*
D03*
X176800Y204750D02*
D03*
X127300D02*
D03*
D54*
X0Y378000D02*
D03*
Y150400D02*
D03*
D55*
X300000Y800000D02*
D03*
X90000Y90000D02*
D03*
D56*
X373000Y640000D02*
Y652000D01*
X355000Y670000D02*
X373000Y652000D01*
D57*
X146151Y406014D02*
D03*
X177847Y473987D02*
D03*
M02*
