G04*
G04 #@! TF.GenerationSoftware,Altium Limited,Altium Designer,25.4.2 (15)*
G04*
G04 Layer_Color=65535*
%FSLAX44Y44*%
%MOMM*%
G71*
G04*
G04 #@! TF.SameCoordinates,DA0471BA-3B3D-406A-8B15-550EC5C29B8F*
G04*
G04*
G04 #@! TF.FilePolarity,Positive*
G04*
G01*
G75*
%ADD10C,0.2500*%
%ADD11C,0.2000*%
%ADD12C,0.1524*%
G36*
X207938Y554272D02*
Y554025D01*
X208186D01*
X208433D01*
X208681D01*
Y553777D01*
X208929D01*
X209176D01*
X209424D01*
Y553530D01*
X209671D01*
X209919D01*
X210166D01*
Y553282D01*
X210414D01*
X210662D01*
X210909D01*
Y553035D01*
X211157D01*
X211404D01*
X211652D01*
Y552787D01*
X211900D01*
X212147D01*
Y552539D01*
X212395D01*
X212642D01*
X212890D01*
Y552292D01*
X213138D01*
X213385D01*
X213633D01*
Y552044D01*
X213880D01*
X214128D01*
X214376D01*
Y551796D01*
X214623D01*
X214871D01*
X215118D01*
Y551549D01*
X215366D01*
X215613D01*
X215861D01*
Y551301D01*
X216109D01*
X216356D01*
X216604D01*
Y551054D01*
X216852D01*
X217099D01*
X217347D01*
Y550806D01*
X217594D01*
X217842D01*
X218090D01*
Y550559D01*
X218337D01*
X218585D01*
X218832D01*
Y550311D01*
X219080D01*
X219327D01*
Y550063D01*
X219575D01*
X219823D01*
X220070D01*
Y549816D01*
X220318D01*
X220565D01*
X220813D01*
Y549568D01*
X221061D01*
X221308D01*
X221556D01*
Y549321D01*
X221803D01*
X222051D01*
X222299D01*
Y549073D01*
X222546D01*
X222794D01*
X223041D01*
Y548825D01*
X223289D01*
X223536D01*
X223784D01*
Y548578D01*
X224032D01*
X224279D01*
X224527D01*
Y548330D01*
X224774D01*
X225022D01*
X225270D01*
Y548083D01*
X225517D01*
X225765D01*
X226012D01*
Y547835D01*
X226260D01*
X226508D01*
Y547588D01*
X226755D01*
X227003D01*
X227250D01*
Y547340D01*
X227498D01*
X227746D01*
X227993D01*
Y547092D01*
X228241D01*
X228488D01*
X228736D01*
Y546845D01*
X228983D01*
X229231D01*
X229479D01*
Y546597D01*
X229726D01*
X229974D01*
X230222D01*
Y546349D01*
X230469D01*
X230717D01*
X230964D01*
Y546102D01*
X231212D01*
X231460D01*
X231707D01*
Y545854D01*
X231955D01*
X232202D01*
Y531494D01*
X232450D01*
Y531246D01*
X232697D01*
X232945D01*
X233193D01*
Y530999D01*
X233440D01*
X233688D01*
X233935D01*
Y530751D01*
X234183D01*
X234431D01*
X234678D01*
Y530504D01*
X234926D01*
X235173D01*
X235421D01*
Y530256D01*
X235669D01*
X235916D01*
X236164D01*
Y530008D01*
X236411D01*
X236659D01*
X236907D01*
Y529761D01*
X237154D01*
X237402D01*
X237649D01*
Y529513D01*
X237897D01*
X238144D01*
X238392D01*
Y529266D01*
X238640D01*
X238887D01*
X239135D01*
Y529018D01*
X239382D01*
X239630D01*
X239878D01*
Y528770D01*
X240125D01*
X240373D01*
X240620D01*
Y528523D01*
X240868D01*
X241115D01*
X241363D01*
Y528275D01*
X241611D01*
X241858D01*
X242106D01*
Y528028D01*
X242353D01*
X242601D01*
X242849D01*
Y527780D01*
X243096D01*
X243344D01*
X243591D01*
Y527533D01*
X243839D01*
X244087D01*
X244334D01*
Y527285D01*
X244582D01*
X244829D01*
X245077D01*
Y527037D01*
X245325D01*
X245572D01*
X245820D01*
Y526790D01*
X246067D01*
X246315D01*
X246563D01*
Y773639D01*
X246810D01*
Y773392D01*
X247058D01*
X247305D01*
X247553D01*
Y773144D01*
X247305D01*
Y772896D01*
X247553D01*
Y773144D01*
X247801D01*
X248048D01*
Y772896D01*
X248296D01*
X248543D01*
X248791D01*
Y772649D01*
X249039D01*
X249286D01*
Y772401D01*
X249534D01*
X249781D01*
X250029D01*
Y772154D01*
X250277D01*
X250524D01*
Y771906D01*
X250772D01*
X251019D01*
X251267D01*
Y771659D01*
X251514D01*
X251762D01*
X252010D01*
Y771411D01*
X252257D01*
X252505D01*
Y738976D01*
X252752D01*
X253000D01*
X253248D01*
Y738729D01*
X253495D01*
X253743D01*
X253990D01*
Y738481D01*
X254238D01*
X254485D01*
Y738234D01*
X254733D01*
X254981D01*
X255228D01*
Y737986D01*
X255476D01*
X255723D01*
X255971D01*
Y737738D01*
X256219D01*
X256466D01*
X256714D01*
Y737491D01*
X256961D01*
X257209D01*
X257457D01*
Y737243D01*
X257704D01*
X257952D01*
X258199D01*
Y736996D01*
X258447D01*
X258695D01*
X258942D01*
Y736748D01*
X259190D01*
X259437D01*
X259685D01*
Y736500D01*
X259933D01*
X260180D01*
X260428D01*
Y736253D01*
X260675D01*
X260923D01*
X261171D01*
Y736005D01*
X261418D01*
X261666D01*
X261913D01*
Y735758D01*
X262161D01*
X262409D01*
X262656D01*
Y735510D01*
X262904D01*
X263151D01*
X263399D01*
Y735263D01*
X263647D01*
X263894D01*
X264142D01*
Y735015D01*
X264389D01*
X264637D01*
X264884D01*
Y734767D01*
X265132D01*
X265380D01*
X265627D01*
Y734520D01*
X265875D01*
X266122D01*
X266370D01*
Y734272D01*
X266618D01*
X266865D01*
X267113D01*
Y734025D01*
X267360D01*
X267608D01*
X267855D01*
Y733777D01*
X268103D01*
Y744919D01*
X268351D01*
X268598D01*
X268846D01*
Y744671D01*
X269093D01*
X269341D01*
X269589D01*
Y744423D01*
X269836D01*
X270084D01*
X270331D01*
Y744176D01*
X270579D01*
X270827D01*
X271074D01*
Y743928D01*
X271322D01*
X271569D01*
X271817D01*
Y743681D01*
X272065D01*
X272312D01*
Y743433D01*
X272560D01*
X272807D01*
X273055D01*
Y743186D01*
X273303D01*
X273550D01*
X273798D01*
Y742938D01*
X274045D01*
X274293D01*
X274541D01*
Y742690D01*
X274788D01*
X275036D01*
X275283D01*
Y742443D01*
X275531D01*
X275779D01*
X276026D01*
Y742195D01*
X276274D01*
Y727587D01*
X276521D01*
X276769D01*
X277017D01*
Y727339D01*
X277264D01*
X277512D01*
X277759D01*
Y727092D01*
X278007D01*
X278254D01*
X278502D01*
Y726844D01*
X278750D01*
X278997D01*
X279245D01*
Y726597D01*
X279492D01*
X279740D01*
X279988D01*
Y726349D01*
X280235D01*
X280483D01*
X280730D01*
Y726102D01*
X280978D01*
X281225D01*
Y725854D01*
X281473D01*
X281721D01*
X281968D01*
Y725606D01*
X282216D01*
X282463D01*
X282711D01*
Y725359D01*
X282959D01*
X283206D01*
X283454D01*
Y725111D01*
X283701D01*
X283949D01*
X284197D01*
Y724864D01*
X284444D01*
X284692D01*
X284939D01*
Y724616D01*
X285187D01*
X285435D01*
X285682D01*
Y724368D01*
X285930D01*
X286177D01*
X286425D01*
Y724121D01*
X286673D01*
X286920D01*
X287168D01*
Y723873D01*
X287415D01*
X287663D01*
X287910D01*
Y723626D01*
X288158D01*
X288406D01*
X288653D01*
Y723378D01*
X288901D01*
X289149D01*
X289396D01*
Y723130D01*
X289644D01*
X289891D01*
X290139D01*
Y722883D01*
X290386D01*
X290634D01*
X290882D01*
Y722635D01*
X291129D01*
X291377D01*
X291624D01*
Y722388D01*
X291872D01*
X292120D01*
X292367D01*
Y722140D01*
X292615D01*
X292862D01*
X293110D01*
Y721892D01*
X293358D01*
X293605D01*
Y721645D01*
X293853D01*
X294100D01*
X294348D01*
Y721397D01*
X294596D01*
X294843D01*
X295091D01*
Y721150D01*
X295338D01*
X295586D01*
X295833D01*
Y720902D01*
X296081D01*
X296329D01*
X296576D01*
Y720655D01*
X296824D01*
X297071D01*
X297319D01*
Y720407D01*
X297567D01*
X297814D01*
X298062D01*
Y720159D01*
X298309D01*
X298557D01*
X298805D01*
Y719912D01*
X299052D01*
X299300D01*
X299547D01*
Y719664D01*
X299795D01*
X300043D01*
X300290D01*
Y719417D01*
X300538D01*
X300785D01*
X301033D01*
Y719169D01*
X301280D01*
X301528D01*
X301776D01*
Y718921D01*
X302023D01*
X302271D01*
X302519D01*
Y718674D01*
X302766D01*
X303014D01*
X303261D01*
Y718426D01*
X303509D01*
X303756D01*
X304004D01*
Y718179D01*
X304252D01*
X304499D01*
X304747D01*
Y717931D01*
X304994D01*
X305242D01*
X305490D01*
Y717683D01*
X305737D01*
X305985D01*
X306232D01*
Y717436D01*
X306480D01*
X306728D01*
Y717188D01*
X306975D01*
X307223D01*
X307470D01*
Y716941D01*
X307718D01*
X307966D01*
X308213D01*
Y716693D01*
X308461D01*
X308708D01*
X308956D01*
Y716445D01*
X309203D01*
X309451D01*
X309699D01*
Y716198D01*
X309946D01*
X310194D01*
X310441D01*
Y715950D01*
X310689D01*
X310937D01*
X311184D01*
Y715703D01*
X311432D01*
X311679D01*
X311927D01*
Y715455D01*
X312175D01*
X312422D01*
X312670D01*
Y715208D01*
X312917D01*
X313165D01*
X313412D01*
Y714960D01*
X313660D01*
X313908D01*
X314155D01*
Y714712D01*
X314403D01*
X314650D01*
X314898D01*
Y714465D01*
X315146D01*
X315393D01*
X315641D01*
Y714217D01*
X315888D01*
X316136D01*
X316384D01*
Y713970D01*
X316631D01*
X316879D01*
X317126D01*
Y713722D01*
X317374D01*
X317622D01*
X317869D01*
Y713474D01*
X318117D01*
X318364D01*
X318612D01*
Y713227D01*
X318860D01*
Y704809D01*
X318612D01*
Y705056D01*
X318364D01*
X318117D01*
X317869D01*
Y705304D01*
X317622D01*
X317374D01*
X317126D01*
Y705551D01*
X316879D01*
X316631D01*
X316384D01*
Y705799D01*
X316136D01*
X315888D01*
X315641D01*
Y706047D01*
X315393D01*
X315146D01*
X314898D01*
Y706294D01*
X314650D01*
X314403D01*
X314155D01*
Y706542D01*
X313908D01*
X313660D01*
X313412D01*
Y706789D01*
X313165D01*
X312917D01*
X312670D01*
Y707037D01*
X312422D01*
X312175D01*
X311927D01*
Y707285D01*
X311679D01*
X311432D01*
X311184D01*
Y707532D01*
X310937D01*
X310689D01*
X310441D01*
Y707780D01*
X310194D01*
X309946D01*
X309699D01*
Y708027D01*
X309451D01*
X309203D01*
X308956D01*
Y708275D01*
X308708D01*
X308461D01*
X308213D01*
Y708522D01*
X307966D01*
X307718D01*
X307470D01*
Y708770D01*
X307223D01*
X306975D01*
X306728D01*
Y709018D01*
X306480D01*
X306232D01*
Y709265D01*
X305985D01*
X305737D01*
X305490D01*
Y709513D01*
X305242D01*
X304994D01*
X304747D01*
Y709761D01*
X304499D01*
X304252D01*
X304004D01*
Y710008D01*
X303756D01*
X303509D01*
X303261D01*
Y710256D01*
X303014D01*
X302766D01*
X302519D01*
Y710503D01*
X302271D01*
X302023D01*
X301776D01*
Y710751D01*
X301528D01*
X301280D01*
X301033D01*
Y710999D01*
X300785D01*
X300538D01*
X300290D01*
Y711246D01*
X300043D01*
X299795D01*
X299547D01*
Y711494D01*
X299300D01*
X299052D01*
X298805D01*
Y711741D01*
X298557D01*
X298309D01*
X298062D01*
Y711989D01*
X297814D01*
X297567D01*
X297319D01*
Y712236D01*
X297071D01*
X296824D01*
X296576D01*
Y712484D01*
X296329D01*
X296081D01*
X295833D01*
Y712732D01*
X295586D01*
X295338D01*
X295091D01*
Y712979D01*
X294843D01*
X294596D01*
X294348D01*
Y713227D01*
X294100D01*
X293853D01*
X293605D01*
Y713474D01*
X293358D01*
X293110D01*
Y713722D01*
X292862D01*
X292615D01*
X292367D01*
Y713970D01*
X292120D01*
X291872D01*
X291624D01*
Y714217D01*
X291377D01*
X291129D01*
X290882D01*
Y714465D01*
X290634D01*
X290386D01*
X290139D01*
Y714712D01*
X289891D01*
X289644D01*
X289396D01*
Y714960D01*
X289149D01*
X288901D01*
X288653D01*
Y715208D01*
X288406D01*
X288158D01*
X287910D01*
Y715455D01*
X287663D01*
X287415D01*
X287168D01*
Y715703D01*
X286920D01*
X286673D01*
X286425D01*
Y715950D01*
X286177D01*
X285930D01*
X285682D01*
Y716198D01*
X285435D01*
X285187D01*
X284939D01*
Y716445D01*
X284692D01*
X284444D01*
X284197D01*
Y716693D01*
X283949D01*
X283701D01*
X283454D01*
Y716941D01*
X283206D01*
X282959D01*
X282711D01*
Y717188D01*
X282463D01*
X282216D01*
X281968D01*
Y717436D01*
X281721D01*
X281473D01*
X281225D01*
Y717683D01*
X280978D01*
X280730D01*
Y717931D01*
X280483D01*
X280235D01*
X279988D01*
Y718179D01*
X279740D01*
X279492D01*
X279245D01*
Y718426D01*
X278997D01*
X278750D01*
X278502D01*
Y718674D01*
X278254D01*
X278007D01*
X277759D01*
Y718921D01*
X277512D01*
X277264D01*
X277017D01*
Y719169D01*
X276769D01*
X276521D01*
X276274D01*
Y704809D01*
X276026D01*
X275779D01*
Y705056D01*
X275531D01*
X275283D01*
X275036D01*
Y705304D01*
X274788D01*
X274541D01*
X274293D01*
Y705551D01*
X274045D01*
X273798D01*
X273550D01*
Y705799D01*
X273303D01*
X273055D01*
X272807D01*
Y706047D01*
X272560D01*
X272312D01*
X272065D01*
Y706294D01*
X271817D01*
X271569D01*
X271322D01*
Y706542D01*
X271074D01*
X270827D01*
X270579D01*
Y706789D01*
X270331D01*
X270084D01*
X269836D01*
Y707037D01*
X269589D01*
X269341D01*
X269093D01*
Y707285D01*
X268846D01*
X268598D01*
X268351D01*
Y707532D01*
X268103D01*
Y730063D01*
X267855D01*
X267608D01*
X267360D01*
Y730311D01*
X267113D01*
X266865D01*
X266618D01*
Y730558D01*
X266370D01*
X266122D01*
X265875D01*
Y730806D01*
X265627D01*
X265380D01*
X265132D01*
Y731053D01*
X264884D01*
X264637D01*
X264389D01*
Y731301D01*
X264142D01*
X263894D01*
X263647D01*
Y731549D01*
X263399D01*
X263151D01*
X262904D01*
Y731796D01*
X262656D01*
X262409D01*
X262161D01*
Y732044D01*
X261913D01*
X261666D01*
X261418D01*
Y732291D01*
X261171D01*
X260923D01*
X260675D01*
Y732539D01*
X260428D01*
X260180D01*
X259933D01*
Y732787D01*
X259685D01*
X259437D01*
X259190D01*
Y733034D01*
X258942D01*
X258695D01*
X258447D01*
Y733282D01*
X258199D01*
X257952D01*
X257704D01*
Y733529D01*
X257457D01*
X257209D01*
X256961D01*
Y733777D01*
X256714D01*
X256466D01*
X256219D01*
Y734025D01*
X255971D01*
X255723D01*
X255476D01*
Y734272D01*
X255228D01*
X254981D01*
X254733D01*
Y734520D01*
X254485D01*
X254238D01*
X253990D01*
Y734767D01*
X253743D01*
X253495D01*
X253248D01*
Y735015D01*
X253000D01*
X252752D01*
X252505D01*
Y687230D01*
X252752D01*
X253000D01*
Y686982D01*
X253248D01*
X253495D01*
X253743D01*
Y686734D01*
X253990D01*
X254238D01*
X254485D01*
Y686487D01*
X254733D01*
X254981D01*
Y686239D01*
X255228D01*
X255476D01*
X255723D01*
Y685992D01*
X255971D01*
X256219D01*
X256466D01*
Y685744D01*
X256714D01*
X256961D01*
X257209D01*
Y685496D01*
X257457D01*
X257704D01*
X257952D01*
Y685249D01*
X258199D01*
X258447D01*
X258695D01*
Y685001D01*
X258942D01*
X259190D01*
X259437D01*
Y684754D01*
X259685D01*
X259933D01*
X260180D01*
Y684506D01*
X260428D01*
X260675D01*
X260923D01*
Y684258D01*
X261171D01*
X261418D01*
X261666D01*
Y684011D01*
X261913D01*
X262161D01*
X262409D01*
Y683763D01*
X262656D01*
X262904D01*
X263151D01*
Y683516D01*
X263399D01*
X263647D01*
X263894D01*
Y683268D01*
X264142D01*
X264389D01*
X264637D01*
Y683020D01*
X264884D01*
X265132D01*
X265380D01*
Y682773D01*
X265627D01*
X265875D01*
X266122D01*
Y682525D01*
X266370D01*
X266618D01*
X266865D01*
Y682278D01*
X267113D01*
X267360D01*
X267608D01*
Y682030D01*
X267855D01*
X268103D01*
Y690944D01*
X268351D01*
Y690696D01*
X268598D01*
X268846D01*
Y690448D01*
X269093D01*
X269341D01*
X269589D01*
Y690201D01*
X269836D01*
X270084D01*
X270331D01*
Y689953D01*
X270579D01*
X270827D01*
X271074D01*
Y689706D01*
X271322D01*
X271569D01*
X271817D01*
Y689458D01*
X272065D01*
X272312D01*
X272560D01*
Y689210D01*
X272807D01*
X273055D01*
X273303D01*
Y688963D01*
X273550D01*
X273798D01*
X274045D01*
Y688715D01*
X274293D01*
X274541D01*
X274788D01*
Y688467D01*
X275036D01*
X275283D01*
X275531D01*
Y688220D01*
X275779D01*
X276026D01*
X276274D01*
Y687972D01*
X276521D01*
X276769D01*
X277017D01*
Y687725D01*
X277264D01*
X277512D01*
X277759D01*
Y687477D01*
X278007D01*
X278254D01*
X278502D01*
Y687230D01*
X278750D01*
X278997D01*
X279245D01*
Y686982D01*
X279492D01*
X279740D01*
X279988D01*
Y686734D01*
X280235D01*
X280483D01*
X280730D01*
Y686487D01*
X280978D01*
X281225D01*
Y686239D01*
X281473D01*
X281721D01*
X281968D01*
Y685992D01*
X282216D01*
X282463D01*
X282711D01*
Y685744D01*
X282959D01*
X283206D01*
X283454D01*
Y685496D01*
X283701D01*
X283949D01*
X284197D01*
Y685249D01*
X284444D01*
X284692D01*
X284939D01*
Y685001D01*
X285187D01*
X285435D01*
X285682D01*
Y684754D01*
X285930D01*
X286177D01*
X286425D01*
Y684506D01*
X286673D01*
X286920D01*
X287168D01*
Y684258D01*
X287415D01*
X287663D01*
X287910D01*
Y684011D01*
X288158D01*
X288406D01*
X288653D01*
Y683763D01*
X288901D01*
X289149D01*
X289396D01*
Y683516D01*
X289644D01*
X289891D01*
X290139D01*
Y683268D01*
X290386D01*
X290634D01*
X290882D01*
Y683020D01*
X291129D01*
X291377D01*
X291624D01*
Y682773D01*
X291872D01*
X292120D01*
X292367D01*
Y682525D01*
X292615D01*
X292862D01*
X293110D01*
Y682278D01*
X293358D01*
X293605D01*
Y682030D01*
X293853D01*
X294100D01*
X294348D01*
Y681783D01*
X294596D01*
X294843D01*
X295091D01*
Y681535D01*
X295338D01*
X295586D01*
X295833D01*
Y681287D01*
X296081D01*
X296329D01*
X296576D01*
Y681040D01*
X296824D01*
X297071D01*
X297319D01*
Y680792D01*
X297567D01*
X297814D01*
X298062D01*
Y680545D01*
X298309D01*
X298557D01*
X298805D01*
Y680297D01*
X299052D01*
X299300D01*
X299547D01*
Y680049D01*
X299795D01*
X300043D01*
X300290D01*
Y679802D01*
X300538D01*
X300785D01*
X301033D01*
Y679554D01*
X301280D01*
X301528D01*
X301776D01*
Y679307D01*
X302023D01*
X302271D01*
X302519D01*
Y679059D01*
X302766D01*
X303014D01*
X303261D01*
Y678811D01*
X303509D01*
X303756D01*
X304004D01*
Y678564D01*
X304252D01*
X304499D01*
X304747D01*
Y678316D01*
X304994D01*
X305242D01*
X305490D01*
Y678069D01*
X305737D01*
X305985D01*
X306232D01*
Y677821D01*
X306480D01*
X306728D01*
Y677573D01*
X306975D01*
X307223D01*
X307470D01*
Y677326D01*
X307718D01*
X307966D01*
X308213D01*
Y677078D01*
X308461D01*
X308708D01*
X308956D01*
Y676831D01*
X309203D01*
X309451D01*
X309699D01*
Y676583D01*
X309946D01*
X310194D01*
X310441D01*
Y676336D01*
X310689D01*
X310937D01*
X311184D01*
Y676088D01*
X311432D01*
X311679D01*
X311927D01*
Y675840D01*
X312175D01*
X312422D01*
X312670D01*
Y675593D01*
X312917D01*
X313165D01*
X313412D01*
Y675345D01*
X313660D01*
X313908D01*
X314155D01*
Y675098D01*
X314403D01*
X314650D01*
X314898D01*
Y674850D01*
X315146D01*
X315393D01*
X315641D01*
Y674602D01*
X315888D01*
X316136D01*
X316384D01*
Y674355D01*
X316631D01*
X316879D01*
X317126D01*
Y674107D01*
X317374D01*
X317622D01*
X317869D01*
Y673860D01*
X318117D01*
X318364D01*
X318612D01*
Y673612D01*
X318860D01*
Y635978D01*
X318612D01*
Y636226D01*
X318364D01*
X318117D01*
X317869D01*
Y636473D01*
X317622D01*
X317374D01*
X317126D01*
Y636721D01*
X316879D01*
X316631D01*
X316384D01*
Y636968D01*
X316136D01*
X315888D01*
X315641D01*
Y637216D01*
X315393D01*
X315146D01*
X314898D01*
Y637463D01*
X314650D01*
X314403D01*
X314155D01*
Y637711D01*
X313908D01*
X313660D01*
X313412D01*
Y637959D01*
X313165D01*
X312917D01*
X312670D01*
Y638206D01*
X312422D01*
X312175D01*
X311927D01*
Y638454D01*
X311679D01*
X311432D01*
X311184D01*
Y638702D01*
X310937D01*
X310689D01*
X310441D01*
Y638949D01*
X310194D01*
X309946D01*
X309699D01*
Y639197D01*
X309451D01*
X309203D01*
X308956D01*
Y639444D01*
X308708D01*
X308461D01*
X308213D01*
Y639692D01*
X307966D01*
X307718D01*
X307470D01*
Y639939D01*
X307223D01*
X306975D01*
X306728D01*
Y640187D01*
X306480D01*
X306232D01*
Y640435D01*
X305985D01*
X305737D01*
X305490D01*
Y640682D01*
X305242D01*
X304994D01*
X304747D01*
Y640930D01*
X304499D01*
X304252D01*
X304004D01*
Y641177D01*
X303756D01*
X303509D01*
X303261D01*
Y641425D01*
X303014D01*
X302766D01*
X302519D01*
Y641673D01*
X302271D01*
X302023D01*
X301776D01*
Y641920D01*
X301528D01*
X301280D01*
X301033D01*
Y642168D01*
X300785D01*
X300538D01*
X300290D01*
Y642415D01*
X300043D01*
X299795D01*
X299547D01*
Y642663D01*
X299300D01*
X299052D01*
X298805D01*
Y642911D01*
X298557D01*
X298309D01*
X298062D01*
Y643158D01*
X297814D01*
X297567D01*
X297319D01*
Y643406D01*
X297071D01*
X296824D01*
X296576D01*
Y643653D01*
X296329D01*
X296081D01*
X295833D01*
Y643901D01*
X295586D01*
X295338D01*
X295091D01*
Y644148D01*
X294843D01*
X294596D01*
X294348D01*
Y644396D01*
X294100D01*
X293853D01*
X293605D01*
Y644644D01*
X293358D01*
X293110D01*
Y644891D01*
X292862D01*
X292615D01*
X292367D01*
Y645139D01*
X292120D01*
X291872D01*
X291624D01*
Y645387D01*
X291377D01*
X291129D01*
X290882D01*
Y645634D01*
X290634D01*
X290386D01*
X290139D01*
Y645882D01*
X289891D01*
X289644D01*
X289396D01*
Y646129D01*
X289149D01*
X288901D01*
X288653D01*
Y646377D01*
X288406D01*
X288158D01*
X287910D01*
Y646624D01*
X287663D01*
X287415D01*
X287168D01*
Y646872D01*
X286920D01*
X286673D01*
X286425D01*
Y647120D01*
X286177D01*
X285930D01*
X285682D01*
Y647367D01*
X285435D01*
X285187D01*
X284939D01*
Y647615D01*
X284692D01*
X284444D01*
X284197D01*
Y647862D01*
X283949D01*
X283701D01*
X283454D01*
Y648110D01*
X283206D01*
X282959D01*
X282711D01*
Y648358D01*
X282463D01*
X282216D01*
X281968D01*
Y648605D01*
X281721D01*
X281473D01*
X281225D01*
Y648853D01*
X280978D01*
X280730D01*
Y649100D01*
X280483D01*
X280235D01*
X279988D01*
Y649348D01*
X279740D01*
X279492D01*
X279245D01*
Y649595D01*
X278997D01*
X278750D01*
X278502D01*
Y649843D01*
X278254D01*
X278007D01*
X277759D01*
Y650091D01*
X277512D01*
X277264D01*
X277017D01*
Y650338D01*
X276769D01*
X276521D01*
X276274D01*
Y650586D01*
X276026D01*
X275779D01*
X275531D01*
Y650834D01*
X275283D01*
X275036D01*
X274788D01*
Y651081D01*
X274541D01*
X274293D01*
X274045D01*
Y651329D01*
X273798D01*
X273550D01*
X273303D01*
Y651576D01*
X273055D01*
X272807D01*
X272560D01*
Y651824D01*
X272312D01*
X272065D01*
X271817D01*
Y652072D01*
X271569D01*
X271322D01*
X271074D01*
Y652319D01*
X270827D01*
X270579D01*
X270331D01*
Y652567D01*
X270084D01*
X269836D01*
X269589D01*
Y652814D01*
X269341D01*
X269093D01*
X268846D01*
Y653062D01*
X268598D01*
X268351D01*
Y653309D01*
X268103D01*
Y678069D01*
X267855D01*
Y678316D01*
X267608D01*
X267360D01*
X267113D01*
Y678564D01*
X266865D01*
X266618D01*
X266370D01*
Y678811D01*
X266122D01*
X265875D01*
X265627D01*
Y679059D01*
X265380D01*
X265132D01*
X264884D01*
Y679307D01*
X264637D01*
X264389D01*
X264142D01*
Y679554D01*
X263894D01*
X263647D01*
X263399D01*
Y679802D01*
X263151D01*
X262904D01*
X262656D01*
Y680049D01*
X262409D01*
X262161D01*
X261913D01*
Y680297D01*
X261666D01*
X261418D01*
X261171D01*
Y680545D01*
X260923D01*
X260675D01*
X260428D01*
Y680792D01*
X260180D01*
X259933D01*
X259685D01*
Y681040D01*
X259437D01*
X259190D01*
X258942D01*
Y681287D01*
X258695D01*
X258447D01*
X258199D01*
Y681535D01*
X257952D01*
X257704D01*
X257457D01*
Y681783D01*
X257209D01*
X256961D01*
X256714D01*
Y682030D01*
X256466D01*
X256219D01*
X255971D01*
Y682278D01*
X255723D01*
X255476D01*
X255228D01*
Y682525D01*
X254981D01*
X254733D01*
X254485D01*
Y682773D01*
X254238D01*
X253990D01*
X253743D01*
Y683020D01*
X253495D01*
X253248D01*
X253000D01*
Y683268D01*
X252752D01*
X252505D01*
Y641425D01*
X252752D01*
X253000D01*
Y641177D01*
X253248D01*
X253495D01*
X253743D01*
Y640930D01*
X253990D01*
X254238D01*
X254485D01*
Y640682D01*
X254733D01*
X254981D01*
X255228D01*
Y640435D01*
X255476D01*
X255723D01*
X255971D01*
Y640187D01*
X256219D01*
X256466D01*
X256714D01*
Y639939D01*
X256961D01*
X257209D01*
X257457D01*
Y639692D01*
X257704D01*
X257952D01*
X258199D01*
Y639444D01*
X258447D01*
X258695D01*
X258942D01*
Y639197D01*
X259190D01*
X259437D01*
X259685D01*
Y638949D01*
X259933D01*
X260180D01*
X260428D01*
Y638702D01*
X260675D01*
X260923D01*
X261171D01*
Y638454D01*
X261418D01*
X261666D01*
X261913D01*
Y638206D01*
X262161D01*
X262409D01*
X262656D01*
Y637959D01*
X262904D01*
X263151D01*
X263399D01*
Y637711D01*
X263647D01*
X263894D01*
X264142D01*
Y637463D01*
X264389D01*
X264637D01*
X264884D01*
Y637216D01*
X265132D01*
X265380D01*
X265627D01*
Y636968D01*
X265875D01*
X266122D01*
X266370D01*
Y636721D01*
X266618D01*
X266865D01*
X267113D01*
Y636473D01*
X267360D01*
X267608D01*
X267855D01*
Y636226D01*
X268103D01*
X268351D01*
X268598D01*
Y635978D01*
X268846D01*
X269093D01*
X269341D01*
Y635730D01*
X269589D01*
X269836D01*
X270084D01*
Y635483D01*
X270331D01*
X270579D01*
X270827D01*
Y635235D01*
X271074D01*
X271322D01*
X271569D01*
Y634988D01*
X271817D01*
X272065D01*
X272312D01*
Y634740D01*
X272560D01*
X272807D01*
X273055D01*
Y634492D01*
X273303D01*
X273550D01*
X273798D01*
Y634245D01*
X274045D01*
X274293D01*
X274541D01*
Y633997D01*
X274788D01*
X275036D01*
X275283D01*
Y633750D01*
X275531D01*
X275779D01*
X276026D01*
Y633502D01*
X276274D01*
X276521D01*
X276769D01*
Y633254D01*
X277017D01*
X277264D01*
X277512D01*
Y633007D01*
X277759D01*
X278007D01*
X278254D01*
Y632759D01*
X278502D01*
X278750D01*
X278997D01*
Y632512D01*
X279245D01*
X279492D01*
X279740D01*
Y632264D01*
X279988D01*
X280235D01*
X280483D01*
Y632016D01*
X280730D01*
X280978D01*
X281225D01*
Y631769D01*
X281473D01*
X281721D01*
X281968D01*
Y631521D01*
X282216D01*
X282463D01*
X282711D01*
Y631274D01*
X282959D01*
X283206D01*
X283454D01*
Y631026D01*
X283701D01*
X283949D01*
X284197D01*
Y630779D01*
X284444D01*
X284692D01*
X284939D01*
Y630531D01*
X285187D01*
X285435D01*
X285682D01*
Y630283D01*
X285930D01*
X286177D01*
X286425D01*
Y630036D01*
X286673D01*
X286920D01*
X287168D01*
Y629788D01*
X287415D01*
X287663D01*
X287910D01*
Y629540D01*
X288158D01*
X288406D01*
X288653D01*
Y629293D01*
X288901D01*
X289149D01*
X289396D01*
Y629045D01*
X289644D01*
X289891D01*
X290139D01*
Y628798D01*
X290386D01*
X290634D01*
X290882D01*
Y628550D01*
X291129D01*
X291377D01*
X291624D01*
Y628303D01*
X291872D01*
X292120D01*
X292367D01*
Y628055D01*
X292615D01*
X292862D01*
X293110D01*
Y627807D01*
X293358D01*
X293605D01*
X293853D01*
Y627560D01*
X294100D01*
X294348D01*
X294596D01*
Y627312D01*
X294843D01*
X295091D01*
X295338D01*
Y627065D01*
X295586D01*
X295833D01*
X296081D01*
Y626817D01*
X296329D01*
X296576D01*
X296824D01*
Y626569D01*
X297071D01*
X297319D01*
X297567D01*
Y626322D01*
X297814D01*
X298062D01*
X298309D01*
Y626074D01*
X298557D01*
X298805D01*
X299052D01*
Y625827D01*
X299300D01*
X299547D01*
X299795D01*
Y625579D01*
X300043D01*
X300290D01*
X300538D01*
Y625331D01*
X300785D01*
X301033D01*
X301280D01*
Y625084D01*
X301528D01*
X301776D01*
X302023D01*
Y624836D01*
X302271D01*
X302519D01*
X302766D01*
Y624589D01*
X303014D01*
X303261D01*
X303509D01*
Y624341D01*
X303756D01*
X304004D01*
X304252D01*
Y624094D01*
X304499D01*
X304747D01*
X304994D01*
Y623846D01*
X305242D01*
X305490D01*
X305737D01*
Y623598D01*
X305985D01*
X306232D01*
X306480D01*
Y623351D01*
X306728D01*
X306975D01*
X307223D01*
Y623103D01*
X307470D01*
X307718D01*
X307966D01*
Y622855D01*
X308213D01*
X308461D01*
X308708D01*
Y622608D01*
X308956D01*
X309203D01*
X309451D01*
Y622360D01*
X309699D01*
X309946D01*
X310194D01*
Y622113D01*
X310441D01*
X310689D01*
X310937D01*
Y621865D01*
X311184D01*
X311432D01*
X311679D01*
Y621618D01*
X311927D01*
X312175D01*
X312422D01*
Y621370D01*
X312670D01*
X312917D01*
X313165D01*
Y621122D01*
X313412D01*
X313660D01*
X313908D01*
Y620875D01*
X314155D01*
X314403D01*
X314650D01*
Y620627D01*
X314898D01*
X315146D01*
X315393D01*
Y620380D01*
X315641D01*
X315888D01*
X316136D01*
Y620132D01*
X316384D01*
X316631D01*
X316879D01*
Y619884D01*
X317126D01*
X317374D01*
X317622D01*
Y619637D01*
X317869D01*
X318117D01*
X318364D01*
Y619389D01*
X318612D01*
X318860D01*
X319107D01*
Y619142D01*
X319355D01*
X319602D01*
X319850D01*
Y618894D01*
X320098D01*
X320345D01*
X320593D01*
Y618647D01*
X320840D01*
X321088D01*
X321335D01*
Y618399D01*
X321583D01*
X321831D01*
X322078D01*
Y618151D01*
X322326D01*
X322573D01*
X322821D01*
Y617904D01*
X323069D01*
X323316D01*
X323564D01*
Y617656D01*
X323811D01*
X324059D01*
X324307D01*
Y617408D01*
X324554D01*
X324802D01*
X325049D01*
Y617161D01*
X325297D01*
X325545D01*
X325792D01*
Y616913D01*
X326040D01*
X326287D01*
X326535D01*
Y616666D01*
X326782D01*
X327030D01*
X327278D01*
Y616418D01*
X327525D01*
X327773D01*
X328021D01*
Y616171D01*
X328268D01*
Y606762D01*
X328021D01*
Y607010D01*
X327773D01*
X327525D01*
X327278D01*
Y607257D01*
X327030D01*
X326782D01*
X326535D01*
Y607505D01*
X326287D01*
X326040D01*
X325792D01*
Y607752D01*
X325545D01*
X325297D01*
X325049D01*
Y608000D01*
X324802D01*
X324554D01*
X324307D01*
Y608248D01*
X324059D01*
X323811D01*
X323564D01*
Y608495D01*
X323316D01*
X323069D01*
X322821D01*
Y608743D01*
X322573D01*
X322326D01*
X322078D01*
Y608990D01*
X321831D01*
X321583D01*
X321335D01*
Y609238D01*
X321088D01*
X320840D01*
X320593D01*
Y609486D01*
X320345D01*
X320098D01*
X319850D01*
Y609733D01*
X319602D01*
X319355D01*
X319107D01*
Y609981D01*
X318860D01*
X318612D01*
X318364D01*
Y610228D01*
X318117D01*
X317869D01*
X317622D01*
Y610476D01*
X317374D01*
X317126D01*
X316879D01*
Y610723D01*
X316631D01*
X316384D01*
X316136D01*
Y610971D01*
X315888D01*
X315641D01*
X315393D01*
Y611219D01*
X315146D01*
X314898D01*
X314650D01*
Y611466D01*
X314403D01*
X314155D01*
X313908D01*
Y611714D01*
X313660D01*
X313412D01*
X313165D01*
Y611962D01*
X312917D01*
X312670D01*
X312422D01*
Y612209D01*
X312175D01*
X311927D01*
X311679D01*
Y612457D01*
X311432D01*
X311184D01*
X310937D01*
Y612704D01*
X310689D01*
X310441D01*
X310194D01*
Y612952D01*
X309946D01*
X309699D01*
X309451D01*
Y613200D01*
X309203D01*
X308956D01*
X308708D01*
Y613447D01*
X308461D01*
X308213D01*
X307966D01*
Y613695D01*
X307718D01*
X307470D01*
X307223D01*
Y613942D01*
X306975D01*
X306728D01*
X306480D01*
Y614190D01*
X306232D01*
X305985D01*
X305737D01*
Y614437D01*
X305490D01*
X305242D01*
X304994D01*
Y614685D01*
X304747D01*
X304499D01*
X304252D01*
Y614933D01*
X304004D01*
X303756D01*
X303509D01*
Y615180D01*
X303261D01*
X303014D01*
X302766D01*
Y615428D01*
X302519D01*
X302271D01*
X302023D01*
Y615675D01*
X301776D01*
X301528D01*
X301280D01*
Y615923D01*
X301033D01*
X300785D01*
X300538D01*
Y616171D01*
X300290D01*
X300043D01*
X299795D01*
Y616418D01*
X299547D01*
X299300D01*
X299052D01*
Y616666D01*
X298805D01*
X298557D01*
X298309D01*
Y616913D01*
X298062D01*
X297814D01*
X297567D01*
Y617161D01*
X297319D01*
X297071D01*
X296824D01*
Y617408D01*
X296576D01*
X296329D01*
X296081D01*
Y617656D01*
X295833D01*
X295586D01*
X295338D01*
Y617904D01*
X295091D01*
X294843D01*
X294596D01*
Y618151D01*
X294348D01*
X294100D01*
X293853D01*
Y618399D01*
X293605D01*
X293358D01*
X293110D01*
Y618647D01*
X292862D01*
X292615D01*
X292367D01*
Y618894D01*
X292120D01*
X291872D01*
X291624D01*
Y619142D01*
X291377D01*
X291129D01*
X290882D01*
Y619389D01*
X290634D01*
X290386D01*
X290139D01*
Y619637D01*
X289891D01*
X289644D01*
X289396D01*
Y619884D01*
X289149D01*
X288901D01*
X288653D01*
Y620132D01*
X288406D01*
X288158D01*
X287910D01*
Y620380D01*
X287663D01*
X287415D01*
X287168D01*
Y620627D01*
X286920D01*
X286673D01*
X286425D01*
Y620875D01*
X286177D01*
X285930D01*
X285682D01*
Y621122D01*
X285435D01*
X285187D01*
X284939D01*
Y621370D01*
X284692D01*
X284444D01*
X284197D01*
Y621618D01*
X283949D01*
X283701D01*
X283454D01*
Y621865D01*
X283206D01*
X282959D01*
X282711D01*
Y622113D01*
X282463D01*
X282216D01*
X281968D01*
Y622360D01*
X281721D01*
X281473D01*
X281225D01*
Y622608D01*
X280978D01*
X280730D01*
X280483D01*
Y622855D01*
X280235D01*
X279988D01*
X279740D01*
Y623103D01*
X279492D01*
X279245D01*
X278997D01*
Y623351D01*
X278750D01*
X278502D01*
X278254D01*
Y623598D01*
X278007D01*
X277759D01*
X277512D01*
Y623846D01*
X277264D01*
X277017D01*
X276769D01*
Y624094D01*
X276521D01*
X276274D01*
X276026D01*
Y624341D01*
X275779D01*
X275531D01*
X275283D01*
Y624589D01*
X275036D01*
X274788D01*
X274541D01*
Y624836D01*
X274293D01*
X274045D01*
X273798D01*
Y625084D01*
X273550D01*
X273303D01*
X273055D01*
Y625331D01*
X272807D01*
X272560D01*
X272312D01*
Y625579D01*
X272065D01*
X271817D01*
X271569D01*
Y625827D01*
X271322D01*
X271074D01*
X270827D01*
Y626074D01*
X270579D01*
X270331D01*
X270084D01*
Y626322D01*
X269836D01*
X269589D01*
X269341D01*
Y626569D01*
X269093D01*
X268846D01*
X268598D01*
Y626817D01*
X268351D01*
X268103D01*
X267855D01*
Y627065D01*
X267608D01*
X267360D01*
X267113D01*
Y627312D01*
X266865D01*
X266618D01*
X266370D01*
Y627560D01*
X266122D01*
X265875D01*
X265627D01*
Y627807D01*
X265380D01*
X265132D01*
X264884D01*
Y628055D01*
X264637D01*
X264389D01*
X264142D01*
Y628303D01*
X263894D01*
X263647D01*
X263399D01*
Y628550D01*
X263151D01*
X262904D01*
X262656D01*
Y628798D01*
X262409D01*
X262161D01*
X261913D01*
Y629045D01*
X261666D01*
X261418D01*
X261171D01*
Y629293D01*
X260923D01*
X260675D01*
X260428D01*
Y629540D01*
X260180D01*
X259933D01*
X259685D01*
Y629788D01*
X259437D01*
X259190D01*
X258942D01*
Y630036D01*
X258695D01*
X258447D01*
X258199D01*
Y630283D01*
X257952D01*
X257704D01*
X257457D01*
Y630531D01*
X257209D01*
X256961D01*
X256714D01*
Y630779D01*
X256466D01*
X256219D01*
X255971D01*
Y631026D01*
X255723D01*
X255476D01*
X255228D01*
Y631274D01*
X254981D01*
X254733D01*
X254485D01*
Y631521D01*
X254238D01*
X253990D01*
X253743D01*
Y631769D01*
X253495D01*
X253248D01*
X253000D01*
Y632016D01*
X252752D01*
X252505D01*
Y612209D01*
X252752D01*
X253000D01*
Y611962D01*
X253248D01*
X253495D01*
X253743D01*
Y611714D01*
X253990D01*
X254238D01*
Y611466D01*
X254485D01*
X254733D01*
X254981D01*
Y611219D01*
X255228D01*
X255476D01*
X255723D01*
Y610971D01*
X255971D01*
X256219D01*
X256466D01*
Y610723D01*
X256714D01*
X256961D01*
X257209D01*
Y610476D01*
X257457D01*
X257704D01*
X257952D01*
Y610228D01*
X258199D01*
X258447D01*
X258695D01*
Y609981D01*
X258942D01*
X259190D01*
X259437D01*
Y609733D01*
X259685D01*
X259933D01*
X260180D01*
Y609486D01*
X260428D01*
X260675D01*
X260923D01*
Y609238D01*
X261171D01*
X261418D01*
X261666D01*
Y608990D01*
X261913D01*
X262161D01*
X262409D01*
Y608743D01*
X262656D01*
X262904D01*
X263151D01*
Y608495D01*
X263399D01*
X263647D01*
X263894D01*
Y608248D01*
X264142D01*
X264389D01*
X264637D01*
Y608000D01*
X264884D01*
X265132D01*
X265380D01*
Y607752D01*
X265627D01*
X265875D01*
X266122D01*
Y607505D01*
X266370D01*
X266618D01*
X266865D01*
Y607257D01*
X267113D01*
X267360D01*
X267608D01*
Y607010D01*
X267855D01*
Y613695D01*
X268103D01*
X268351D01*
Y613447D01*
X268598D01*
X268846D01*
X269093D01*
Y613200D01*
X269341D01*
X269589D01*
X269836D01*
Y612952D01*
X270084D01*
X270331D01*
X270579D01*
Y612704D01*
X270827D01*
X271074D01*
X271322D01*
Y612457D01*
X271569D01*
X271817D01*
X272065D01*
Y612209D01*
X272312D01*
X272560D01*
X272807D01*
Y611962D01*
X273055D01*
X273303D01*
X273550D01*
Y611714D01*
X273798D01*
X274045D01*
X274293D01*
Y611466D01*
X274541D01*
X274788D01*
X275036D01*
Y611219D01*
X275283D01*
X275531D01*
X275779D01*
Y610971D01*
X276026D01*
X276274D01*
X276521D01*
Y610723D01*
X276769D01*
X277017D01*
X277264D01*
Y610476D01*
X277512D01*
X277759D01*
X278007D01*
Y610228D01*
X278254D01*
X278502D01*
X278750D01*
Y601810D01*
X278997D01*
X279245D01*
Y601563D01*
X279492D01*
X279740D01*
X279988D01*
Y601315D01*
X280235D01*
X280483D01*
X280730D01*
Y601067D01*
X280978D01*
X281225D01*
Y600820D01*
X281473D01*
X281721D01*
X281968D01*
Y600572D01*
X282216D01*
X282463D01*
X282711D01*
Y600325D01*
X282959D01*
X283206D01*
X283454D01*
Y600077D01*
X283701D01*
X283949D01*
X284197D01*
Y599829D01*
X284444D01*
X284692D01*
X284939D01*
Y599582D01*
X285187D01*
X285435D01*
X285682D01*
Y599334D01*
X285930D01*
X286177D01*
X286425D01*
Y599087D01*
X286673D01*
X286920D01*
X287168D01*
Y598839D01*
X287415D01*
X287663D01*
X287910D01*
Y598591D01*
X288158D01*
X288406D01*
X288653D01*
Y598344D01*
X288901D01*
X289149D01*
X289396D01*
Y598096D01*
X289644D01*
X289891D01*
X290139D01*
Y597849D01*
X290386D01*
X290634D01*
X290882D01*
Y597601D01*
X291129D01*
X291377D01*
X291624D01*
Y597354D01*
X291872D01*
X292120D01*
X292367D01*
Y597106D01*
X292615D01*
X292862D01*
X293110D01*
Y596858D01*
X293358D01*
X293605D01*
Y596611D01*
X293853D01*
X294100D01*
X294348D01*
Y596363D01*
X294596D01*
X294843D01*
X295091D01*
Y596116D01*
X295338D01*
X295586D01*
X295833D01*
Y595868D01*
X296081D01*
X296329D01*
X296576D01*
Y595620D01*
X296824D01*
X297071D01*
X297319D01*
Y595373D01*
X297567D01*
X297814D01*
X298062D01*
Y595125D01*
X298309D01*
X298557D01*
X298805D01*
Y594878D01*
X299052D01*
X299300D01*
X299547D01*
Y594630D01*
X299795D01*
X300043D01*
X300290D01*
Y594382D01*
X300538D01*
X300785D01*
X301033D01*
Y594135D01*
X301280D01*
X301528D01*
X301776D01*
Y593887D01*
X302023D01*
X302271D01*
X302519D01*
Y593640D01*
X302766D01*
X303014D01*
X303261D01*
Y593392D01*
X303509D01*
X303756D01*
X304004D01*
Y593144D01*
X304252D01*
X304499D01*
X304747D01*
Y592897D01*
X304994D01*
X305242D01*
X305490D01*
Y592649D01*
X305737D01*
X305985D01*
X306232D01*
Y592402D01*
X306480D01*
X306728D01*
Y592154D01*
X306975D01*
X307223D01*
X307470D01*
Y591907D01*
X307718D01*
X307966D01*
Y600077D01*
X308213D01*
X308461D01*
Y599829D01*
X308708D01*
X308956D01*
X309203D01*
Y599582D01*
X309451D01*
X309699D01*
X309946D01*
Y599334D01*
X310194D01*
X310441D01*
X310689D01*
Y599087D01*
X310937D01*
X311184D01*
X311432D01*
Y598839D01*
X311679D01*
X311927D01*
X312175D01*
Y598591D01*
X312422D01*
X312670D01*
X312917D01*
Y598344D01*
X313165D01*
X313412D01*
X313660D01*
Y598096D01*
X313908D01*
X314155D01*
X314403D01*
Y597849D01*
X314650D01*
X314898D01*
X315146D01*
Y597601D01*
X315393D01*
X315641D01*
X315888D01*
Y597354D01*
X316136D01*
X316384D01*
X316631D01*
Y597106D01*
X316879D01*
X317126D01*
X317374D01*
Y596858D01*
X317622D01*
X317869D01*
X318117D01*
Y596611D01*
X318364D01*
X318612D01*
Y596363D01*
X318860D01*
Y570614D01*
X318612D01*
X318364D01*
Y570861D01*
X318117D01*
X317869D01*
X317622D01*
Y571109D01*
X317374D01*
X317126D01*
X316879D01*
Y571356D01*
X316631D01*
X316384D01*
X316136D01*
Y571604D01*
X315888D01*
X315641D01*
X315393D01*
Y571852D01*
X315146D01*
X314898D01*
X314650D01*
Y572099D01*
X314403D01*
X314155D01*
X313908D01*
Y572347D01*
X313660D01*
X313412D01*
X313165D01*
Y572594D01*
X312917D01*
X312670D01*
X312422D01*
Y572842D01*
X312175D01*
X311927D01*
X311679D01*
Y573089D01*
X311432D01*
X311184D01*
X310937D01*
Y573337D01*
X310689D01*
X310441D01*
X310194D01*
Y573585D01*
X309946D01*
X309699D01*
X309451D01*
Y573832D01*
X309203D01*
X308956D01*
X308708D01*
Y574080D01*
X308461D01*
X308213D01*
X307966D01*
Y582498D01*
X307718D01*
X307470D01*
Y582746D01*
X307223D01*
X306975D01*
X306728D01*
Y582993D01*
X306480D01*
X306232D01*
Y583241D01*
X305985D01*
X305737D01*
X305490D01*
Y583488D01*
X305242D01*
X304994D01*
X304747D01*
Y583736D01*
X304499D01*
X304252D01*
X304004D01*
Y583983D01*
X303756D01*
X303509D01*
X303261D01*
Y584231D01*
X303014D01*
X302766D01*
X302519D01*
Y584479D01*
X302271D01*
X302023D01*
X301776D01*
Y584726D01*
X301528D01*
X301280D01*
X301033D01*
Y584974D01*
X300785D01*
X300538D01*
X300290D01*
Y585221D01*
X300043D01*
X299795D01*
X299547D01*
Y585469D01*
X299300D01*
X299052D01*
X298805D01*
Y585717D01*
X298557D01*
X298309D01*
X298062D01*
Y585964D01*
X297814D01*
X297567D01*
X297319D01*
Y586212D01*
X297071D01*
X296824D01*
X296576D01*
Y586460D01*
X296329D01*
X296081D01*
X295833D01*
Y586707D01*
X295586D01*
X295338D01*
X295091D01*
Y586955D01*
X294843D01*
X294596D01*
X294348D01*
Y587202D01*
X294100D01*
X293853D01*
X293605D01*
Y587450D01*
X293358D01*
X293110D01*
Y587697D01*
X292862D01*
X292615D01*
X292367D01*
Y587945D01*
X292120D01*
X291872D01*
X291624D01*
Y588193D01*
X291377D01*
X291129D01*
X290882D01*
Y588440D01*
X290634D01*
X290386D01*
X290139D01*
Y588688D01*
X289891D01*
X289644D01*
X289396D01*
Y588935D01*
X289149D01*
X288901D01*
X288653D01*
Y589183D01*
X288406D01*
X288158D01*
X287910D01*
Y589431D01*
X287663D01*
X287415D01*
X287168D01*
Y589678D01*
X286920D01*
X286673D01*
X286425D01*
Y589926D01*
X286177D01*
X285930D01*
X285682D01*
Y590173D01*
X285435D01*
X285187D01*
X284939D01*
Y590421D01*
X284692D01*
X284444D01*
X284197D01*
Y590668D01*
X283949D01*
X283701D01*
X283454D01*
Y590916D01*
X283206D01*
X282959D01*
X282711D01*
Y591164D01*
X282463D01*
X282216D01*
X281968D01*
Y591411D01*
X281721D01*
X281473D01*
X281225D01*
Y591659D01*
X280978D01*
X280730D01*
Y591907D01*
X280483D01*
X280235D01*
X279988D01*
Y592154D01*
X279740D01*
X279492D01*
X279245D01*
Y592402D01*
X278997D01*
X278750D01*
Y584231D01*
X278502D01*
X278254D01*
Y584479D01*
X278007D01*
X277759D01*
X277512D01*
Y584726D01*
X277264D01*
X277017D01*
X276769D01*
Y584974D01*
X276521D01*
X276274D01*
X276026D01*
Y585221D01*
X275779D01*
X275531D01*
X275283D01*
Y585469D01*
X275036D01*
X274788D01*
X274541D01*
Y585717D01*
X274293D01*
X274045D01*
X273798D01*
Y585964D01*
X273550D01*
X273303D01*
X273055D01*
Y586212D01*
X272807D01*
X272560D01*
X272312D01*
Y586460D01*
X272065D01*
X271817D01*
X271569D01*
Y586707D01*
X271322D01*
X271074D01*
X270827D01*
Y586955D01*
X270579D01*
X270331D01*
X270084D01*
Y587202D01*
X269836D01*
X269589D01*
X269341D01*
Y587450D01*
X269093D01*
X268846D01*
X268598D01*
Y587697D01*
X268351D01*
X268103D01*
Y587945D01*
X267855D01*
Y603296D01*
X267608D01*
X267360D01*
X267113D01*
Y603543D01*
X266865D01*
X266618D01*
X266370D01*
Y603791D01*
X266122D01*
X265875D01*
X265627D01*
Y604039D01*
X265380D01*
X265132D01*
X264884D01*
Y604286D01*
X264637D01*
X264389D01*
X264142D01*
Y604534D01*
X263894D01*
X263647D01*
X263399D01*
Y604781D01*
X263151D01*
X262904D01*
X262656D01*
Y605029D01*
X262409D01*
X262161D01*
X261913D01*
Y605276D01*
X261666D01*
X261418D01*
X261171D01*
Y605524D01*
X260923D01*
X260675D01*
X260428D01*
Y605772D01*
X260180D01*
X259933D01*
X259685D01*
Y606019D01*
X259437D01*
X259190D01*
X258942D01*
Y606267D01*
X258695D01*
X258447D01*
X258199D01*
Y606515D01*
X257952D01*
X257704D01*
X257457D01*
Y606762D01*
X257209D01*
X256961D01*
X256714D01*
Y607010D01*
X256466D01*
X256219D01*
X255971D01*
Y607257D01*
X255723D01*
X255476D01*
X255228D01*
Y607505D01*
X254981D01*
X254733D01*
X254485D01*
Y607752D01*
X254238D01*
X253990D01*
X253743D01*
Y608000D01*
X253495D01*
X253248D01*
X253000D01*
Y608248D01*
X252752D01*
X252505D01*
Y567147D01*
X252752D01*
X253000D01*
Y566900D01*
X253248D01*
X253495D01*
X253743D01*
Y566652D01*
X253990D01*
X254238D01*
X254485D01*
Y566404D01*
X254733D01*
X254981D01*
Y566157D01*
X255228D01*
X255476D01*
X255723D01*
Y565909D01*
X255971D01*
X256219D01*
X256466D01*
Y565662D01*
X256714D01*
X256961D01*
X257209D01*
Y565414D01*
X257457D01*
X257704D01*
X257952D01*
Y565167D01*
X258199D01*
X258447D01*
X258695D01*
Y564919D01*
X258942D01*
X259190D01*
X259437D01*
Y564671D01*
X259685D01*
X259933D01*
X260180D01*
Y564424D01*
X260428D01*
X260675D01*
X260923D01*
Y564176D01*
X261171D01*
X261418D01*
X261666D01*
Y563929D01*
X261913D01*
X262161D01*
X262409D01*
Y563681D01*
X262656D01*
X262904D01*
X263151D01*
Y563433D01*
X263399D01*
X263647D01*
X263894D01*
Y563186D01*
X264142D01*
X264389D01*
X264637D01*
Y562938D01*
X264884D01*
X265132D01*
X265380D01*
Y562691D01*
X265627D01*
X265875D01*
X266122D01*
Y562443D01*
X266370D01*
X266618D01*
X266865D01*
Y562195D01*
X267113D01*
X267360D01*
X267608D01*
Y561948D01*
X267855D01*
X268103D01*
Y566157D01*
X268351D01*
X268598D01*
Y566404D01*
X268846D01*
Y566652D01*
X269093D01*
X269341D01*
Y566900D01*
X269589D01*
Y567147D01*
X269836D01*
X270084D01*
Y567395D01*
X270331D01*
Y567643D01*
X270579D01*
X270827D01*
Y567890D01*
X271074D01*
Y568138D01*
X271322D01*
X271569D01*
Y568385D01*
X271817D01*
Y568633D01*
X272065D01*
X272312D01*
Y568880D01*
X272560D01*
Y569128D01*
X272807D01*
X273055D01*
Y569376D01*
X273303D01*
X273550D01*
X273798D01*
X274045D01*
Y569128D01*
X274293D01*
X274541D01*
X274788D01*
Y568880D01*
X275036D01*
X275283D01*
X275531D01*
Y568633D01*
X275779D01*
X276026D01*
X276274D01*
Y568385D01*
X276521D01*
X276769D01*
X277017D01*
Y568138D01*
X277264D01*
X277512D01*
X277759D01*
Y567890D01*
X278007D01*
X278254D01*
X278502D01*
Y567643D01*
X278750D01*
X278997D01*
X279245D01*
Y567395D01*
X279492D01*
X279740D01*
X279988D01*
Y567147D01*
X280235D01*
X280483D01*
X280730D01*
Y566900D01*
X280978D01*
X281225D01*
Y566652D01*
X281473D01*
X281721D01*
X281968D01*
Y566404D01*
X282216D01*
X282463D01*
X282711D01*
Y566157D01*
X282959D01*
X283206D01*
X283454D01*
Y565909D01*
X283701D01*
X283949D01*
X284197D01*
Y565662D01*
X284444D01*
X284692D01*
X284939D01*
Y565414D01*
X285187D01*
X285435D01*
X285682D01*
Y565167D01*
X285930D01*
X286177D01*
X286425D01*
Y564919D01*
X286673D01*
X286920D01*
X287168D01*
Y564671D01*
X287415D01*
X287663D01*
X287910D01*
Y564424D01*
X288158D01*
X288406D01*
X288653D01*
Y564176D01*
X288901D01*
X289149D01*
X289396D01*
Y563929D01*
X289644D01*
X289891D01*
X290139D01*
Y563681D01*
X290386D01*
X290634D01*
X290882D01*
Y563433D01*
X291129D01*
X291377D01*
X291624D01*
Y563186D01*
X291872D01*
X292120D01*
X292367D01*
Y562938D01*
X292615D01*
X292862D01*
X293110D01*
Y562691D01*
X293358D01*
X293605D01*
Y562443D01*
X293853D01*
X294100D01*
X294348D01*
Y562195D01*
X294596D01*
X294843D01*
X295091D01*
Y561948D01*
X295338D01*
X295586D01*
X295833D01*
Y561700D01*
X296081D01*
X296329D01*
X296576D01*
Y561453D01*
X296824D01*
X297071D01*
X297319D01*
Y561205D01*
X297567D01*
X297814D01*
X298062D01*
Y560957D01*
X298309D01*
X298557D01*
X298805D01*
Y560710D01*
X299052D01*
X299300D01*
X299547D01*
Y560462D01*
X299795D01*
X300043D01*
X300290D01*
Y560215D01*
X300538D01*
X300785D01*
X301033D01*
Y559967D01*
X301280D01*
X301528D01*
X301776D01*
Y559720D01*
X302023D01*
X302271D01*
X302519D01*
Y559472D01*
X302766D01*
X303014D01*
X303261D01*
Y559224D01*
X303509D01*
X303756D01*
X304004D01*
Y558977D01*
X304252D01*
X304499D01*
X304747D01*
Y558729D01*
X304994D01*
X305242D01*
X305490D01*
Y558481D01*
X305737D01*
X305985D01*
X306232D01*
Y558234D01*
X306480D01*
X306728D01*
Y557986D01*
X306975D01*
X307223D01*
X307470D01*
Y557739D01*
X307718D01*
X307966D01*
X308213D01*
Y557491D01*
X308461D01*
X308708D01*
X308956D01*
Y557244D01*
X309203D01*
X309451D01*
X309699D01*
Y556996D01*
X309946D01*
X310194D01*
X310441D01*
Y556748D01*
X310689D01*
X310937D01*
X311184D01*
Y556501D01*
X311432D01*
X311679D01*
X311927D01*
Y556253D01*
X312175D01*
X312422D01*
X312670D01*
Y556006D01*
X312917D01*
X313165D01*
X313412D01*
Y555758D01*
X313660D01*
X313908D01*
X314155D01*
Y555510D01*
X314403D01*
Y554520D01*
X314650D01*
Y554272D01*
X314898D01*
Y553777D01*
X315146D01*
Y553530D01*
X315393D01*
Y553282D01*
X315641D01*
Y552787D01*
X315888D01*
Y552539D01*
X316136D01*
Y552292D01*
X316384D01*
Y551796D01*
X316631D01*
Y551549D01*
X316879D01*
Y551301D01*
X317126D01*
Y550806D01*
X317374D01*
Y550559D01*
X317622D01*
Y550311D01*
X317869D01*
Y549816D01*
X318117D01*
Y549568D01*
X318364D01*
Y549321D01*
X318612D01*
Y548825D01*
X318860D01*
Y516143D01*
X318612D01*
Y516391D01*
X318364D01*
X318117D01*
X317869D01*
Y516638D01*
X317622D01*
X317374D01*
X317126D01*
Y516886D01*
X316879D01*
X316631D01*
X316384D01*
Y517134D01*
X316136D01*
X315888D01*
X315641D01*
Y517381D01*
X315393D01*
X315146D01*
X314898D01*
Y517629D01*
X314650D01*
X314403D01*
X314155D01*
Y517876D01*
X313908D01*
X313660D01*
X313412D01*
Y518124D01*
X313165D01*
X312917D01*
X312670D01*
Y518372D01*
X312422D01*
X312175D01*
X311927D01*
Y518619D01*
X311679D01*
X311432D01*
X311184D01*
Y518867D01*
X310937D01*
X310689D01*
X310441D01*
Y519114D01*
X310194D01*
X309946D01*
X309699D01*
Y519362D01*
X309451D01*
X309203D01*
X308956D01*
Y519609D01*
X308708D01*
X308461D01*
X308213D01*
Y519857D01*
X307966D01*
X307718D01*
X307470D01*
Y520105D01*
X307223D01*
X306975D01*
X306728D01*
Y520352D01*
X306480D01*
X306232D01*
Y520600D01*
X305985D01*
X305737D01*
X305490D01*
Y520848D01*
X305242D01*
X304994D01*
X304747D01*
Y521095D01*
X304499D01*
X304252D01*
X304004D01*
Y521343D01*
X303756D01*
X303509D01*
X303261D01*
Y521590D01*
X303014D01*
X302766D01*
X302519D01*
Y521838D01*
X302271D01*
X302023D01*
X301776D01*
Y522085D01*
X301528D01*
X301280D01*
X301033D01*
Y522333D01*
X300785D01*
X300538D01*
X300290D01*
Y522581D01*
X300043D01*
X299795D01*
X299547D01*
Y522828D01*
X299300D01*
X299052D01*
X298805D01*
Y523076D01*
X298557D01*
X298309D01*
X298062D01*
Y523323D01*
X297814D01*
X297567D01*
X297319D01*
Y523571D01*
X297071D01*
X296824D01*
X296576D01*
Y523819D01*
X296329D01*
X296081D01*
X295833D01*
Y524066D01*
X295586D01*
X295338D01*
X295091D01*
Y524314D01*
X294843D01*
X294596D01*
X294348D01*
Y524561D01*
X294100D01*
X293853D01*
X293605D01*
Y524809D01*
X293358D01*
X293110D01*
Y525057D01*
X292862D01*
X292615D01*
X292367D01*
Y525304D01*
X292120D01*
X291872D01*
X291624D01*
Y525552D01*
X291377D01*
X291129D01*
X290882D01*
Y525799D01*
X290634D01*
X290386D01*
X290139D01*
Y526047D01*
X289891D01*
X289644D01*
X289396D01*
Y526295D01*
X289149D01*
X288901D01*
X288653D01*
Y526542D01*
X288406D01*
X288158D01*
X287910D01*
Y526790D01*
X287663D01*
X287415D01*
X287168D01*
Y527037D01*
X286920D01*
X286673D01*
X286425D01*
Y527285D01*
X286177D01*
X285930D01*
X285682D01*
Y527533D01*
X285435D01*
X285187D01*
X284939D01*
Y527780D01*
X284692D01*
X284444D01*
X284197D01*
Y528028D01*
X283949D01*
X283701D01*
X283454D01*
Y528275D01*
X283206D01*
X282959D01*
X282711D01*
Y528523D01*
X282463D01*
X282216D01*
X281968D01*
Y528770D01*
X281721D01*
X281473D01*
X281225D01*
Y529018D01*
X280978D01*
X280730D01*
Y529266D01*
X280483D01*
X280235D01*
X279988D01*
Y529513D01*
X279740D01*
X279492D01*
X279245D01*
Y529761D01*
X278997D01*
X278750D01*
X278502D01*
Y530008D01*
X278254D01*
X278007D01*
X277759D01*
Y530256D01*
X277512D01*
X277264D01*
X277017D01*
Y530504D01*
X276769D01*
X276521D01*
X276274D01*
Y530751D01*
X276026D01*
X275779D01*
X275531D01*
Y530999D01*
X275283D01*
X275036D01*
X274788D01*
Y531246D01*
X274541D01*
X274293D01*
X274045D01*
Y531494D01*
X273798D01*
X273550D01*
X273303D01*
Y531742D01*
X273055D01*
X272807D01*
X272560D01*
Y531989D01*
X272312D01*
X272065D01*
X271817D01*
Y532237D01*
X271569D01*
X271322D01*
X271074D01*
Y532484D01*
X270827D01*
X270579D01*
X270331D01*
Y532732D01*
X270084D01*
X269836D01*
X269589D01*
Y532980D01*
X269341D01*
X269093D01*
X268846D01*
Y533227D01*
X268598D01*
X268351D01*
Y533475D01*
X268103D01*
Y557986D01*
X267855D01*
Y558234D01*
X267608D01*
X267360D01*
X267113D01*
Y558481D01*
X266865D01*
X266618D01*
X266370D01*
Y558729D01*
X266122D01*
X265875D01*
X265627D01*
Y558977D01*
X265380D01*
X265132D01*
X264884D01*
Y559224D01*
X264637D01*
X264389D01*
X264142D01*
Y559472D01*
X263894D01*
X263647D01*
X263399D01*
Y559720D01*
X263151D01*
X262904D01*
X262656D01*
Y559967D01*
X262409D01*
X262161D01*
X261913D01*
Y560215D01*
X261666D01*
X261418D01*
X261171D01*
Y560462D01*
X260923D01*
X260675D01*
X260428D01*
Y560710D01*
X260180D01*
X259933D01*
X259685D01*
Y560957D01*
X259437D01*
X259190D01*
X258942D01*
Y561205D01*
X258695D01*
X258447D01*
X258199D01*
Y561453D01*
X257952D01*
X257704D01*
X257457D01*
Y561700D01*
X257209D01*
X256961D01*
X256714D01*
Y561948D01*
X256466D01*
X256219D01*
X255971D01*
Y562195D01*
X255723D01*
X255476D01*
X255228D01*
Y562443D01*
X254981D01*
X254733D01*
X254485D01*
Y562691D01*
X254238D01*
X253990D01*
X253743D01*
Y562938D01*
X253495D01*
X253248D01*
X253000D01*
Y563186D01*
X252752D01*
X252505D01*
Y517381D01*
X252257D01*
Y517629D01*
X252010D01*
X251762D01*
Y517876D01*
X251514D01*
X251267D01*
X251019D01*
Y518124D01*
X250772D01*
X250524D01*
Y518372D01*
X250277D01*
X250029D01*
X249781D01*
Y518619D01*
X249534D01*
X249286D01*
X249039D01*
Y518867D01*
X248791D01*
X248543D01*
X248296D01*
Y519114D01*
X248048D01*
X247801D01*
Y519362D01*
X247553D01*
X247305D01*
X247058D01*
Y519609D01*
X246810D01*
X246563D01*
X246315D01*
Y519857D01*
X246067D01*
X245820D01*
X245572D01*
Y520105D01*
X245325D01*
X245077D01*
X244829D01*
Y520352D01*
X244582D01*
X244334D01*
X244087D01*
Y520600D01*
X243839D01*
X243591D01*
X243344D01*
Y520848D01*
X243096D01*
X242849D01*
X242601D01*
Y521095D01*
X242353D01*
X242106D01*
X241858D01*
Y521343D01*
X241611D01*
X241363D01*
X241115D01*
Y521590D01*
X240868D01*
X240620D01*
X240373D01*
Y521838D01*
X240125D01*
X239878D01*
X239630D01*
Y522085D01*
X239382D01*
X239135D01*
X238887D01*
Y522333D01*
X238640D01*
X238392D01*
X238144D01*
Y522581D01*
X237897D01*
X237649D01*
X237402D01*
Y522828D01*
X237154D01*
X236907D01*
X236659D01*
Y523076D01*
X236411D01*
X236164D01*
X235916D01*
Y523323D01*
X235669D01*
X235421D01*
X235173D01*
Y523571D01*
X234926D01*
X234678D01*
X234431D01*
Y523819D01*
X234183D01*
X233935D01*
X233688D01*
Y524066D01*
X233440D01*
X233193D01*
X232945D01*
Y524314D01*
X232697D01*
X232450D01*
X232202D01*
Y508716D01*
X231955D01*
Y508963D01*
X231707D01*
X231460D01*
X231212D01*
Y509211D01*
X230964D01*
X230717D01*
X230469D01*
Y509458D01*
X230222D01*
X229974D01*
X229726D01*
Y509706D01*
X229479D01*
X229231D01*
Y509953D01*
X228983D01*
X228736D01*
X228488D01*
Y510201D01*
X228241D01*
X227993D01*
X227746D01*
Y510449D01*
X227498D01*
X227250D01*
X227003D01*
Y510696D01*
X226755D01*
X226508D01*
X226260D01*
Y510944D01*
X226012D01*
X225765D01*
X225517D01*
Y511191D01*
X225270D01*
X225022D01*
X224774D01*
Y511439D01*
X224527D01*
X224279D01*
X224032D01*
Y511687D01*
X223784D01*
X223536D01*
X223289D01*
Y511934D01*
X223041D01*
X222794D01*
X222546D01*
Y512182D01*
X222299D01*
X222051D01*
Y512429D01*
X221803D01*
X221556D01*
X221308D01*
Y512677D01*
X221061D01*
X220813D01*
X220565D01*
Y512924D01*
X220318D01*
X220070D01*
X219823D01*
Y513172D01*
X219575D01*
X219327D01*
X219080D01*
Y513420D01*
X218832D01*
X218585D01*
X218337D01*
Y513667D01*
X218090D01*
X217842D01*
X217594D01*
Y513915D01*
X217347D01*
X217099D01*
X216852D01*
Y514162D01*
X216604D01*
X216356D01*
X216109D01*
Y514410D01*
X215861D01*
X215613D01*
Y514658D01*
X215366D01*
X215118D01*
X214871D01*
Y514905D01*
X214623D01*
X214376D01*
X214128D01*
Y515153D01*
X213880D01*
X213633D01*
X213385D01*
Y515401D01*
X213138D01*
X212890D01*
X212642D01*
Y515648D01*
X212395D01*
X212147D01*
X211900D01*
Y515896D01*
X211652D01*
X211404D01*
X211157D01*
Y516143D01*
X210909D01*
X210662D01*
X210414D01*
Y516391D01*
X210166D01*
X209919D01*
X209671D01*
Y516638D01*
X209424D01*
X209176D01*
X208929D01*
Y516886D01*
X208681D01*
X208433D01*
Y517134D01*
X208186D01*
X207938D01*
X207691D01*
Y554272D01*
X207938D01*
D02*
G37*
G36*
X482000Y79000D02*
X452000D01*
Y99000D01*
X482000D01*
Y79000D01*
D02*
G37*
G36*
X384000D02*
X354000D01*
Y99000D01*
X384000D01*
Y79000D01*
D02*
G37*
%LPC*%
G36*
X276274Y679554D02*
Y658756D01*
X276521D01*
X276769D01*
X277017D01*
Y658509D01*
X277264D01*
X277512D01*
X277759D01*
Y658261D01*
X278007D01*
X278254D01*
X278502D01*
Y658014D01*
X278750D01*
X278997D01*
X279245D01*
Y657766D01*
X279492D01*
X279740D01*
X279988D01*
Y657518D01*
X280235D01*
X280483D01*
X280730D01*
Y657271D01*
X280978D01*
X281225D01*
Y657023D01*
X281473D01*
X281721D01*
X281968D01*
Y656776D01*
X282216D01*
X282463D01*
X282711D01*
Y656528D01*
X282959D01*
X283206D01*
X283454D01*
Y656281D01*
X283701D01*
X283949D01*
X284197D01*
Y656033D01*
X284444D01*
X284692D01*
X284939D01*
Y655785D01*
X285187D01*
X285435D01*
X285682D01*
Y655538D01*
X285930D01*
X286177D01*
X286425D01*
Y655290D01*
X286673D01*
X286920D01*
X287168D01*
Y655043D01*
X287415D01*
X287663D01*
X287910D01*
Y654795D01*
X288158D01*
X288406D01*
X288653D01*
Y654547D01*
X288901D01*
X289149D01*
X289396D01*
Y654300D01*
X289644D01*
X289891D01*
X290139D01*
Y654052D01*
X290386D01*
X290634D01*
X290882D01*
Y653805D01*
X291129D01*
X291377D01*
X291624D01*
Y653557D01*
X291872D01*
X292120D01*
X292367D01*
Y653309D01*
X292615D01*
X292862D01*
X293110D01*
Y653062D01*
X293358D01*
X293605D01*
Y652814D01*
X293853D01*
X294100D01*
X294348D01*
Y652567D01*
X294596D01*
X294843D01*
X295091D01*
Y652319D01*
X295338D01*
X295586D01*
X295833D01*
Y652072D01*
X296081D01*
X296329D01*
X296576D01*
Y651824D01*
X296824D01*
X297071D01*
X297319D01*
Y651576D01*
X297567D01*
X297814D01*
X298062D01*
Y651329D01*
X298309D01*
X298557D01*
X298805D01*
Y651081D01*
X299052D01*
X299300D01*
X299547D01*
Y650834D01*
X299795D01*
X300043D01*
X300290D01*
Y650586D01*
X300538D01*
X300785D01*
X301033D01*
Y650338D01*
X301280D01*
X301528D01*
X301776D01*
Y650091D01*
X302023D01*
X302271D01*
X302519D01*
Y649843D01*
X302766D01*
X303014D01*
X303261D01*
Y649595D01*
X303509D01*
X303756D01*
X304004D01*
Y649348D01*
X304252D01*
X304499D01*
X304747D01*
Y649100D01*
X304994D01*
X305242D01*
X305490D01*
Y648853D01*
X305737D01*
X305985D01*
X306232D01*
Y648605D01*
X306480D01*
X306728D01*
Y648358D01*
X306975D01*
X307223D01*
X307470D01*
Y648110D01*
X307718D01*
X307966D01*
X308213D01*
Y647862D01*
X308461D01*
X308708D01*
X308956D01*
Y647615D01*
X309203D01*
X309451D01*
X309699D01*
Y647367D01*
X309946D01*
X310194D01*
X310441D01*
Y647120D01*
X310689D01*
Y667917D01*
X310441D01*
Y668165D01*
X310194D01*
X309946D01*
X309699D01*
Y668413D01*
X309451D01*
X309203D01*
X308956D01*
Y668660D01*
X308708D01*
X308461D01*
X308213D01*
Y668908D01*
X307966D01*
X307718D01*
X307470D01*
Y669155D01*
X307223D01*
X306975D01*
X306728D01*
Y669403D01*
X306480D01*
X306232D01*
Y669650D01*
X305985D01*
X305737D01*
X305490D01*
Y669898D01*
X305242D01*
X304994D01*
X304747D01*
Y670146D01*
X304499D01*
X304252D01*
X304004D01*
Y670393D01*
X303756D01*
X303509D01*
X303261D01*
Y670641D01*
X303014D01*
X302766D01*
X302519D01*
Y670889D01*
X302271D01*
X302023D01*
X301776D01*
Y671136D01*
X301528D01*
X301280D01*
X301033D01*
Y671384D01*
X300785D01*
X300538D01*
X300290D01*
Y671631D01*
X300043D01*
X299795D01*
X299547D01*
Y671879D01*
X299300D01*
X299052D01*
X298805D01*
Y672126D01*
X298557D01*
X298309D01*
X298062D01*
Y672374D01*
X297814D01*
X297567D01*
X297319D01*
Y672622D01*
X297071D01*
X296824D01*
X296576D01*
Y672869D01*
X296329D01*
X296081D01*
X295833D01*
Y673117D01*
X295586D01*
X295338D01*
X295091D01*
Y673364D01*
X294843D01*
X294596D01*
X294348D01*
Y673612D01*
X294100D01*
X293853D01*
X293605D01*
Y673860D01*
X293358D01*
X293110D01*
Y674107D01*
X292862D01*
X292615D01*
X292367D01*
Y674355D01*
X292120D01*
X291872D01*
X291624D01*
Y674602D01*
X291377D01*
X291129D01*
X290882D01*
Y674850D01*
X290634D01*
X290386D01*
X290139D01*
Y675098D01*
X289891D01*
X289644D01*
X289396D01*
Y675345D01*
X289149D01*
X288901D01*
X288653D01*
Y675593D01*
X288406D01*
X288158D01*
X287910D01*
Y675840D01*
X287663D01*
X287415D01*
X287168D01*
Y676088D01*
X286920D01*
X286673D01*
X286425D01*
Y676336D01*
X286177D01*
X285930D01*
X285682D01*
Y676583D01*
X285435D01*
X285187D01*
X284939D01*
Y676831D01*
X284692D01*
X284444D01*
X284197D01*
Y677078D01*
X283949D01*
X283701D01*
X283454D01*
Y677326D01*
X283206D01*
X282959D01*
X282711D01*
Y677573D01*
X282463D01*
X282216D01*
X281968D01*
Y677821D01*
X281721D01*
X281473D01*
X281225D01*
Y678069D01*
X280978D01*
X280730D01*
Y678316D01*
X280483D01*
X280235D01*
X279988D01*
Y678564D01*
X279740D01*
X279492D01*
X279245D01*
Y678811D01*
X278997D01*
X278750D01*
X278502D01*
Y679059D01*
X278254D01*
X278007D01*
X277759D01*
Y679307D01*
X277512D01*
X277264D01*
X277017D01*
Y679554D01*
X276769D01*
X276521D01*
X276274D01*
D02*
G37*
G36*
Y559720D02*
Y538922D01*
X276521D01*
X276769D01*
X277017D01*
Y538674D01*
X277264D01*
X277512D01*
X277759D01*
Y538427D01*
X278007D01*
X278254D01*
X278502D01*
Y538179D01*
X278750D01*
X278997D01*
X279245D01*
Y537931D01*
X279492D01*
X279740D01*
X279988D01*
Y537684D01*
X280235D01*
X280483D01*
X280730D01*
Y537436D01*
X280978D01*
X281225D01*
Y537189D01*
X281473D01*
X281721D01*
X281968D01*
Y536941D01*
X282216D01*
X282463D01*
X282711D01*
Y536693D01*
X282959D01*
X283206D01*
X283454D01*
Y536446D01*
X283701D01*
X283949D01*
X284197D01*
Y536198D01*
X284444D01*
X284692D01*
X284939D01*
Y535951D01*
X285187D01*
X285435D01*
X285682D01*
Y535703D01*
X285930D01*
X286177D01*
X286425D01*
Y535455D01*
X286673D01*
X286920D01*
X287168D01*
Y535208D01*
X287415D01*
X287663D01*
X287910D01*
Y534960D01*
X288158D01*
X288406D01*
X288653D01*
Y534713D01*
X288901D01*
X289149D01*
X289396D01*
Y534465D01*
X289644D01*
X289891D01*
X290139D01*
Y534217D01*
X290386D01*
X290634D01*
X290882D01*
Y533970D01*
X291129D01*
X291377D01*
X291624D01*
Y533722D01*
X291872D01*
X292120D01*
X292367D01*
Y533475D01*
X292615D01*
X292862D01*
X293110D01*
Y533227D01*
X293358D01*
X293605D01*
Y532980D01*
X293853D01*
X294100D01*
X294348D01*
Y532732D01*
X294596D01*
X294843D01*
X295091D01*
Y532484D01*
X295338D01*
X295586D01*
X295833D01*
Y532237D01*
X296081D01*
X296329D01*
X296576D01*
Y531989D01*
X296824D01*
X297071D01*
X297319D01*
Y531742D01*
X297567D01*
X297814D01*
X298062D01*
Y531494D01*
X298309D01*
X298557D01*
X298805D01*
Y531246D01*
X299052D01*
X299300D01*
X299547D01*
Y530999D01*
X299795D01*
X300043D01*
X300290D01*
Y530751D01*
X300538D01*
X300785D01*
X301033D01*
Y530504D01*
X301280D01*
X301528D01*
X301776D01*
Y530256D01*
X302023D01*
X302271D01*
X302519D01*
Y530008D01*
X302766D01*
X303014D01*
X303261D01*
Y529761D01*
X303509D01*
X303756D01*
X304004D01*
Y529513D01*
X304252D01*
X304499D01*
X304747D01*
Y529266D01*
X304994D01*
X305242D01*
X305490D01*
Y529018D01*
X305737D01*
X305985D01*
X306232D01*
Y528770D01*
X306480D01*
X306728D01*
Y528523D01*
X306975D01*
X307223D01*
X307470D01*
Y528275D01*
X307718D01*
X307966D01*
X308213D01*
Y528028D01*
X308461D01*
X308708D01*
X308956D01*
Y527780D01*
X309203D01*
X309451D01*
X309699D01*
Y527533D01*
X309946D01*
X310194D01*
X310441D01*
Y527285D01*
X310689D01*
Y548083D01*
X310441D01*
Y548330D01*
X310194D01*
X309946D01*
X309699D01*
Y548578D01*
X309451D01*
X309203D01*
X308956D01*
Y548825D01*
X308708D01*
X308461D01*
X308213D01*
Y549073D01*
X307966D01*
X307718D01*
X307470D01*
Y549321D01*
X307223D01*
X306975D01*
X306728D01*
Y549568D01*
X306480D01*
X306232D01*
Y549816D01*
X305985D01*
X305737D01*
X305490D01*
Y550063D01*
X305242D01*
X304994D01*
X304747D01*
Y550311D01*
X304499D01*
X304252D01*
X304004D01*
Y550559D01*
X303756D01*
X303509D01*
X303261D01*
Y550806D01*
X303014D01*
X302766D01*
X302519D01*
Y551054D01*
X302271D01*
X302023D01*
X301776D01*
Y551301D01*
X301528D01*
X301280D01*
X301033D01*
Y551549D01*
X300785D01*
X300538D01*
X300290D01*
Y551796D01*
X300043D01*
X299795D01*
X299547D01*
Y552044D01*
X299300D01*
X299052D01*
X298805D01*
Y552292D01*
X298557D01*
X298309D01*
X298062D01*
Y552539D01*
X297814D01*
X297567D01*
X297319D01*
Y552787D01*
X297071D01*
X296824D01*
X296576D01*
Y553035D01*
X296329D01*
X296081D01*
X295833D01*
Y553282D01*
X295586D01*
X295338D01*
X295091D01*
Y553530D01*
X294843D01*
X294596D01*
X294348D01*
Y553777D01*
X294100D01*
X293853D01*
X293605D01*
Y554025D01*
X293358D01*
X293110D01*
Y554272D01*
X292862D01*
X292615D01*
X292367D01*
Y554520D01*
X292120D01*
X291872D01*
X291624D01*
Y554768D01*
X291377D01*
X291129D01*
X290882D01*
Y555015D01*
X290634D01*
X290386D01*
X290139D01*
Y555263D01*
X289891D01*
X289644D01*
X289396D01*
Y555510D01*
X289149D01*
X288901D01*
X288653D01*
Y555758D01*
X288406D01*
X288158D01*
X287910D01*
Y556006D01*
X287663D01*
X287415D01*
X287168D01*
Y556253D01*
X286920D01*
X286673D01*
X286425D01*
Y556501D01*
X286177D01*
X285930D01*
X285682D01*
Y556748D01*
X285435D01*
X285187D01*
X284939D01*
Y556996D01*
X284692D01*
X284444D01*
X284197D01*
Y557244D01*
X283949D01*
X283701D01*
X283454D01*
Y557491D01*
X283206D01*
X282959D01*
X282711D01*
Y557739D01*
X282463D01*
X282216D01*
X281968D01*
Y557986D01*
X281721D01*
X281473D01*
X281225D01*
Y558234D01*
X280978D01*
X280730D01*
Y558481D01*
X280483D01*
X280235D01*
X279988D01*
Y558729D01*
X279740D01*
X279492D01*
X279245D01*
Y558977D01*
X278997D01*
X278750D01*
X278502D01*
Y559224D01*
X278254D01*
X278007D01*
X277759D01*
Y559472D01*
X277512D01*
X277264D01*
X277017D01*
Y559720D01*
X276769D01*
X276521D01*
X276274D01*
D02*
G37*
G36*
X470807Y93799D02*
X463193D01*
Y84201D01*
X464989D01*
Y90484D01*
X468865Y84201D01*
X468791D01*
X470807D01*
Y93799D01*
D02*
G37*
%LPD*%
G36*
X469011Y87371D02*
X465072Y93799D01*
X469011D01*
Y87371D01*
D02*
G37*
%LPC*%
G36*
X372377Y93757D02*
X365623D01*
Y84243D01*
X372377D01*
Y85866D01*
X367558D01*
Y93757D01*
X372377D01*
D02*
G37*
%LPD*%
D10*
X462250Y628400D02*
G03*
X462250Y628400I-1250J0D01*
G01*
X469250Y493500D02*
G03*
X469250Y493500I-1250J0D01*
G01*
Y473500D02*
G03*
X469250Y473500I-1250J0D01*
G01*
X439250Y473000D02*
G03*
X439250Y473000I-1250J0D01*
G01*
D11*
X168000Y840500D02*
G03*
X158000Y830500I0J-10000D01*
G01*
X380000D02*
G03*
X370000Y840500I-10000J0D01*
G01*
Y503500D02*
G03*
X380000Y513500I0J10000D01*
G01*
X158000D02*
G03*
X168000Y503500I10000J0D01*
G01*
X482000Y123000D02*
G03*
X482000Y123000I-21000J0D01*
G01*
X389000D02*
G03*
X389000Y123000I-21000J0D01*
G01*
X11591Y760850D02*
G03*
X-13271Y760850I-12431J-34849D01*
G01*
Y421151D02*
G03*
X11591Y421151I12431J34849D01*
G01*
X102457Y726460D02*
G03*
X96433Y727467I-5095J-11960D01*
G01*
X108728Y741181D02*
G03*
X95560Y743445I-11366J-26680D01*
G01*
X80712Y697757D02*
G03*
X108728Y694821I16650J23744D01*
G01*
X107160Y737501D02*
G03*
X95778Y739450I-9798J-23000D01*
G01*
X83008Y701032D02*
G03*
X107160Y698501I14354J20469D01*
G01*
X83008Y701032D02*
G03*
X71212Y698223I-4653J-6635D01*
G01*
X74738Y739667D02*
G03*
X80712Y738244I3618J1938D01*
G01*
X80712Y697757D02*
G03*
X74738Y696335I-2356J-3360D01*
G01*
X74738Y739667D02*
G03*
X52160Y734001I-10578J-5666D01*
G01*
Y702001D02*
G03*
X74738Y696335I12000J0D01*
G01*
X56160Y702001D02*
G03*
X71212Y698223I8000J0D01*
G01*
Y737778D02*
G03*
X56160Y734001I-7052J-3777D01*
G01*
X95560Y743445D02*
G03*
X80712Y738244I1802J-28944D01*
G01*
X71212Y737778D02*
G03*
X83008Y734969I7143J3826D01*
G01*
X95778Y739450D02*
G03*
X83008Y734969I1584J-24950D01*
G01*
X52160Y701001D02*
G03*
X64160Y689001I12000J0D01*
G01*
X98160Y679000D02*
G03*
X84160Y693000I-14000J0D01*
G01*
X93090Y683501D02*
G03*
X84160Y689001I-8930J-4500D01*
G01*
X112660Y661867D02*
G03*
X112660Y660135I500J-866D01*
G01*
X96396Y707523D02*
G03*
X102355Y708584I765J12977D01*
G01*
X112660Y521866D02*
G03*
X112660Y520134I500J-866D01*
G01*
X96433Y454534D02*
G03*
X102457Y455540I929J12967D01*
G01*
X83008Y447032D02*
G03*
X71212Y444223I-4653J-6635D01*
G01*
Y483778D02*
G03*
X83008Y480969I7143J3826D01*
G01*
X95560Y438556D02*
G03*
X108728Y440820I1802J28944D01*
G01*
X83008Y447032D02*
G03*
X95778Y442551I14354J20469D01*
G01*
X56160Y448000D02*
G03*
X71212Y444223I8000J0D01*
G01*
X107160Y483501D02*
G03*
X83008Y480969I-9798J-23000D01*
G01*
X108728Y487180D02*
G03*
X80712Y484244I-11366J-26680D01*
G01*
X74738Y485667D02*
G03*
X80712Y484244I3618J1938D01*
G01*
X71212Y483778D02*
G03*
X56160Y480000I-7052J-3777D01*
G01*
X84160Y489000D02*
G03*
X98160Y503000I0J14000D01*
G01*
X84160Y493000D02*
G03*
X93090Y498501I0J10000D01*
G01*
X80712Y443757D02*
G03*
X95560Y438557I16650J23744D01*
G01*
X80712Y443757D02*
G03*
X74738Y442334I-2356J-3360D01*
G01*
X52160Y448000D02*
G03*
X74738Y442334I12000J0D01*
G01*
X64160Y493000D02*
G03*
X52160Y481000I0J-12000D01*
G01*
X74738Y485667D02*
G03*
X52160Y480000I-10578J-5666D01*
G01*
X-100840Y740501D02*
G03*
X-120840Y720501I0J-20000D01*
G01*
Y461500D02*
G03*
X-100840Y441500I20000J0D01*
G01*
X112669Y591860D02*
G03*
X112669Y590128I500J-866D01*
G01*
X476500Y568000D02*
G03*
X476500Y568000I-42500J0D01*
G01*
X438000Y213000D02*
G03*
X438000Y213000I-1000J0D01*
G01*
X398000D02*
G03*
X398000Y213000I-1000J0D01*
G01*
X400000Y469000D02*
G03*
X400000Y469000I-26000J0D01*
G01*
X449000Y90000D02*
G03*
X449000Y90000I-29000J0D01*
G01*
X449001D02*
G03*
X449001Y90000I-29000J0D01*
G01*
X45001Y800000D02*
G03*
X45001Y800000I-29000J0D01*
G01*
X45000D02*
G03*
X45000Y800000I-29000J0D01*
G01*
X449001D02*
G03*
X449001Y800000I-29000J0D01*
G01*
X45001Y90000D02*
G03*
X45001Y90000I-29000J0D01*
G01*
X449000Y800000D02*
G03*
X449000Y800000I-29000J0D01*
G01*
X45000Y90000D02*
G03*
X45000Y90000I-29000J0D01*
G01*
X403250Y755000D02*
X454750D01*
Y748100D02*
Y755000D01*
X403250Y748100D02*
Y755000D01*
X454750Y625000D02*
Y631900D01*
X403250Y625000D02*
Y631900D01*
Y625000D02*
X454750D01*
X139500Y380000D02*
X187000D01*
X139500Y500000D02*
X187000D01*
X168000Y503500D02*
X370000D01*
X380000Y513500D02*
Y830500D01*
X168000Y840500D02*
X370000D01*
X158000Y513500D02*
Y830500D01*
X94160Y606501D02*
Y613501D01*
Y615000D01*
X94139Y568501D02*
Y575500D01*
X101960Y606027D02*
Y615000D01*
X52160Y478362D02*
Y703639D01*
X56160Y448000D02*
Y449639D01*
Y732362D02*
Y734001D01*
X52160Y702001D02*
Y703639D01*
Y732362D02*
Y753001D01*
X33160Y726001D02*
X37160D01*
X-45840Y456000D02*
X-34840D01*
X11591Y757646D02*
Y760850D01*
X-13271Y757646D02*
Y760850D01*
Y421151D02*
Y424355D01*
X11591Y421151D02*
Y424355D01*
X98160Y671001D02*
X100160D01*
X98160Y651001D02*
X100160D01*
X-100840Y441500D02*
Y740501D01*
X-120840Y461500D02*
Y720501D01*
X-100840Y740501D02*
X-76840D01*
Y441500D02*
Y740501D01*
X-100840Y441500D02*
X-76840D01*
Y453500D02*
X-60840D01*
X-76840Y728501D02*
X-60840D01*
Y761001D02*
X-45840D01*
X-60840Y421000D02*
Y761001D01*
Y421000D02*
X-45840D01*
X-45840Y761001D01*
Y726001D02*
X-34840D01*
X33160Y456000D02*
X37160D01*
X94160Y626001D02*
X132160D01*
X94160Y615000D02*
Y631001D01*
X120160Y596197D02*
Y603000D01*
X112669Y591860D02*
X120160Y596197D01*
X112670Y590129D02*
X120160Y585804D01*
Y579001D02*
Y585804D01*
X109178Y601902D02*
X120160Y603000D01*
X109178Y580099D02*
X120160Y579001D01*
X94141Y566991D02*
X101960Y567001D01*
X52160Y613501D02*
X94160D01*
X52160Y631001D02*
X132160D01*
X52160Y640500D02*
X132160D01*
Y613501D02*
Y640500D01*
X101960Y613501D02*
X132160D01*
X94160Y615000D02*
X101960D01*
Y567001D02*
Y575974D01*
X37160Y429000D02*
Y753001D01*
X56160Y702001D02*
Y703639D01*
X37160Y753001D02*
X66160D01*
Y745833D02*
Y753001D01*
Y728501D02*
Y741747D01*
X64160Y728501D02*
X66160D01*
X104160Y671401D02*
Y683501D01*
X52160D02*
X104160D01*
X64160Y707501D02*
X66160D01*
Y683501D02*
Y689001D01*
Y694255D02*
Y707501D01*
X102457Y726461D02*
X108728Y741181D01*
X62212Y487516D02*
X65590Y485566D01*
X52160Y498501D02*
X94160D01*
X66160Y493000D02*
Y498501D01*
Y474500D02*
Y487746D01*
X64160Y474500D02*
X66160D01*
X94160Y556001D02*
X132160D01*
X94139Y568501D02*
X94160Y551001D01*
X52160D02*
X132160D01*
X52160Y568501D02*
X94139D01*
X101960D02*
X132160D01*
Y541501D02*
Y568501D01*
X52160Y541501D02*
X132160D01*
X94160Y498501D02*
Y541501D01*
X104160Y498501D02*
Y510601D01*
X97417Y498501D02*
X104160D01*
X52160Y429000D02*
Y449639D01*
X37160Y429000D02*
X66160D01*
Y436168D01*
Y440254D02*
Y453500D01*
X64160D02*
X66160D01*
X95778Y739450D02*
X96433Y727467D01*
X102355Y708584D02*
X108728Y694821D01*
X72097Y693000D02*
X84160D01*
X64160Y689001D02*
X84160D01*
X94160Y641001D02*
X98160D01*
Y679000D01*
X120160Y649000D02*
Y655804D01*
X112660Y660135D02*
X120160Y655804D01*
X112660Y661867D02*
X120160Y666197D01*
X100160Y651001D02*
X120160Y649000D01*
Y666197D02*
Y673000D01*
X100160Y671001D02*
X120160Y673000D01*
X94160Y641001D02*
Y683501D01*
X52160Y732362D02*
Y734001D01*
X95889Y696544D02*
X96396Y707523D01*
X66160Y739425D02*
X70643Y738687D01*
X66160Y696576D02*
X70643Y697314D01*
X66160Y735473D02*
X77261Y733646D01*
X52160Y689001D02*
Y703000D01*
Y733001D02*
Y747001D01*
X66160Y700528D02*
X77261Y702355D01*
X56861Y703754D02*
X62212Y694485D01*
X65590Y696435D01*
X60631Y705024D02*
X65590Y696435D01*
X60631Y730977D02*
X65590Y739566D01*
X62212Y741516D02*
X65590Y739566D01*
X56861Y732247D02*
X62212Y741516D01*
X66160Y485425D02*
X70643Y484687D01*
X66160Y442576D02*
X70643Y443314D01*
X66160Y446528D02*
X77261Y448355D01*
X66160Y481473D02*
X77261Y479646D01*
X52160Y479000D02*
Y493000D01*
X56861Y478247D02*
X62212Y487516D01*
Y440485D02*
X65590Y442435D01*
X60631Y476977D02*
X65590Y485566D01*
X56861Y449754D02*
X62212Y440485D01*
X60631Y451024D02*
X65590Y442435D01*
X120160Y509001D02*
Y515804D01*
X112660Y521866D02*
X120160Y526197D01*
X112660Y520134D02*
X120160Y515804D01*
X100160Y511001D02*
X120160Y509001D01*
Y526197D02*
Y533000D01*
X100160Y531001D02*
X120160Y533000D01*
X102457Y455540D02*
X108728Y440820D01*
X95560Y438557D02*
X96433Y454534D01*
X98160Y511001D02*
X100160D01*
X98160Y531001D02*
X100160D01*
X107160Y483500D02*
X108728Y487180D01*
X64160Y493000D02*
X84160D01*
X98160Y503000D02*
Y541001D01*
X72097Y489000D02*
X84160D01*
X94160Y541001D02*
X98160D01*
X56160Y478362D02*
Y480000D01*
X125222Y591750D02*
X130460D01*
X138460Y587750D02*
Y594750D01*
X134460Y584750D02*
Y598750D01*
X130460Y581750D02*
Y601750D01*
X395000Y568000D02*
X405000D01*
X400000Y563000D02*
Y573000D01*
X389698Y152000D02*
X444302D01*
X464698D02*
X480500D01*
X353500D02*
X369302D01*
X424000Y209000D02*
X425000Y207000D01*
X423000D02*
X424000Y209000D01*
X423000Y207000D02*
X425000D01*
X424000Y163000D02*
Y207000D01*
Y163000D02*
X439500D01*
X424000Y217000D02*
X425000Y219000D01*
X423000D02*
X424000Y217000D01*
X423000Y219000D02*
X425000D01*
X422000Y217000D02*
X437000Y213000D01*
X439500D01*
X424000Y219000D02*
Y263000D01*
X439500D01*
X409000Y207000D02*
X410000Y209000D01*
X411000Y207000D01*
X409000D02*
X411000D01*
X410000Y163000D02*
Y207000D01*
X394500Y163000D02*
X410000D01*
X409000Y219000D02*
X410000Y217000D01*
X411000Y219000D01*
X409000D02*
X411000D01*
X397000Y213000D02*
X412000Y217000D01*
X394500Y213000D02*
X397000D01*
X410000Y219000D02*
Y263000D01*
X412000Y423000D02*
X422000D01*
Y403000D02*
Y423000D01*
X412000Y403000D02*
X422000D01*
X412000D02*
Y423000D01*
X394500Y263000D02*
X410000D01*
X422000Y413000D02*
X439500D01*
X394500D02*
X412000D01*
X353500Y437000D02*
X480500D01*
Y147000D02*
Y437000D01*
X353500Y147000D02*
X480500D01*
X353500D02*
Y437000D01*
X378104Y480276D02*
X387253Y505413D01*
X194000Y48900D02*
X344000D01*
Y498900D01*
X194000D02*
X344000D01*
X194000Y48900D02*
Y498900D01*
X427000Y476500D02*
Y505500D01*
X421000Y476500D02*
X427000D01*
X421000D02*
Y505500D01*
X427000D01*
X199330Y559011D02*
X187333Y554441D01*
X199330Y549870D01*
X195331Y551584D02*
Y557297D01*
X190189Y570380D02*
X189046Y569809D01*
X187904Y568666D01*
X187333Y567523D01*
Y565238D01*
X187904Y564096D01*
X189046Y562953D01*
X190189Y562382D01*
X191903Y561810D01*
X194760D01*
X196474Y562382D01*
X197616Y562953D01*
X198759Y564096D01*
X199330Y565238D01*
Y567523D01*
X198759Y568666D01*
X197616Y569809D01*
X196474Y570380D01*
X185047Y577750D02*
X186190Y576607D01*
X187904Y575465D01*
X190189Y574322D01*
X193046Y573751D01*
X195331D01*
X198187Y574322D01*
X200473Y575465D01*
X202187Y576607D01*
X203329Y577750D01*
X186190Y576607D02*
X188475Y575465D01*
X190189Y574893D01*
X193046Y574322D01*
X195331D01*
X198187Y574893D01*
X199901Y575465D01*
X202187Y576607D01*
X187333Y580035D02*
X199330D01*
X187333D02*
X199330Y588033D01*
X187333D02*
X199330D01*
X185047Y591347D02*
X186190Y592490D01*
X187904Y593632D01*
X190189Y594775D01*
X193046Y595346D01*
X195331D01*
X198187Y594775D01*
X200473Y593632D01*
X202187Y592490D01*
X203329Y591347D01*
X186190Y592490D02*
X188475Y593632D01*
X190189Y594203D01*
X193046Y594775D01*
X195331D01*
X198187Y594203D01*
X199901Y593632D01*
X202187Y592490D01*
X193958Y759250D02*
Y769533D01*
X187103Y773075D02*
X199100Y777646D01*
X187103Y782216D02*
X199100Y777646D01*
X191102Y786615D02*
X191673Y785473D01*
X192816Y784330D01*
X194530Y783759D01*
X195672D01*
X197386Y784330D01*
X198529Y785473D01*
X199100Y786615D01*
Y788329D01*
X198529Y789472D01*
X197386Y790614D01*
X195672Y791186D01*
X194530D01*
X192816Y790614D01*
X191673Y789472D01*
X191102Y788329D01*
Y786615D01*
X264817Y764392D02*
X275100D01*
X269958Y759250D02*
Y769533D01*
X263103Y773075D02*
X275100Y777646D01*
X263103Y782216D02*
X275100Y777646D01*
X267102Y786615D02*
X267673Y785473D01*
X268816Y784330D01*
X270530Y783759D01*
X271672D01*
X273386Y784330D01*
X274529Y785473D01*
X275100Y786615D01*
Y788329D01*
X274529Y789472D01*
X273386Y790614D01*
X271672Y791186D01*
X270530D01*
X268816Y790614D01*
X267673Y789472D01*
X267102Y788329D01*
Y786615D01*
X351330Y559011D02*
X339333Y554440D01*
X351330Y549870D01*
X347331Y551584D02*
Y557297D01*
X342189Y570380D02*
X341046Y569809D01*
X339904Y568666D01*
X339333Y567523D01*
Y565238D01*
X339904Y564095D01*
X341046Y562953D01*
X342189Y562382D01*
X343903Y561810D01*
X346760D01*
X348474Y562382D01*
X349616Y562953D01*
X350759Y564095D01*
X351330Y565238D01*
Y567523D01*
X350759Y568666D01*
X349616Y569809D01*
X348474Y570380D01*
X337047Y577750D02*
X338190Y576607D01*
X339904Y575465D01*
X342189Y574322D01*
X345046Y573751D01*
X347331D01*
X350187Y574322D01*
X352473Y575465D01*
X354187Y576607D01*
X355329Y577750D01*
X338190Y576607D02*
X340475Y575465D01*
X342189Y574893D01*
X345046Y574322D01*
X347331D01*
X350187Y574893D01*
X351901Y575465D01*
X354187Y576607D01*
X339333Y580035D02*
X351330D01*
Y586891D01*
X337047Y588205D02*
X338190Y589347D01*
X339904Y590490D01*
X342189Y591632D01*
X345046Y592204D01*
X347331D01*
X350187Y591632D01*
X352473Y590490D01*
X354187Y589347D01*
X355329Y588205D01*
X338190Y589347D02*
X340475Y590490D01*
X342189Y591061D01*
X345046Y591632D01*
X347331D01*
X350187Y591061D01*
X351901Y590490D01*
X354187Y589347D01*
X73413Y423030D02*
X88410D01*
Y431600D01*
X73663Y750000D02*
X88660D01*
X73663D02*
X88660Y759998D01*
X73663D02*
X88660D01*
X295287Y436100D02*
Y441242D01*
X294716Y442956D01*
X294144Y443527D01*
X293002Y444098D01*
X291288D01*
X290145Y443527D01*
X289574Y442956D01*
X289003Y441242D01*
Y436100D01*
X301000D01*
X290145Y447355D02*
X289574Y446783D01*
X289003Y447355D01*
X289574Y447926D01*
X290716D01*
X291859Y447355D01*
X292430Y446783D01*
X289003Y359900D02*
X301000D01*
X289003D02*
X301000Y367898D01*
X289003D02*
X301000D01*
X290145Y371783D02*
X289574Y371212D01*
X289003Y371783D01*
X289574Y372355D01*
X290716D01*
X291859Y371783D01*
X292430Y371212D01*
X295287Y251900D02*
Y257042D01*
X294716Y258756D01*
X294144Y259327D01*
X293002Y259898D01*
X291288D01*
X290145Y259327D01*
X289574Y258756D01*
X289003Y257042D01*
Y251900D01*
X301000D01*
X289003Y270010D02*
Y262583D01*
X301000D01*
Y270010D01*
X294716Y262583D02*
Y267154D01*
X289003Y182100D02*
X301000D01*
X289003D02*
X301000Y190098D01*
X289003D02*
X301000D01*
X295287Y105900D02*
Y111042D01*
X294716Y112756D01*
X294144Y113327D01*
X293002Y113898D01*
X291288D01*
X290145Y113327D01*
X289574Y112756D01*
X289003Y111042D01*
Y105900D01*
X301000D01*
D12*
X453843Y442191D02*
Y449809D01*
X457652D01*
X458922Y448539D01*
Y446000D01*
X457652Y444730D01*
X453843D01*
X456382D02*
X458922Y442191D01*
X461461Y449809D02*
Y442191D01*
X466539D01*
X474157D02*
X469078D01*
X474157Y447270D01*
Y448539D01*
X472887Y449809D01*
X470348D01*
X469078Y448539D01*
X450652Y515809D02*
Y508191D01*
X454461D01*
X455730Y509461D01*
Y514539D01*
X454461Y515809D01*
X450652D01*
X463348D02*
X460809Y514539D01*
X458270Y512000D01*
Y509461D01*
X459539Y508191D01*
X462078D01*
X463348Y509461D01*
Y510730D01*
X462078Y512000D01*
X458270D01*
X124191Y469304D02*
X129270D01*
X131809Y471843D01*
X129270Y474383D01*
X124191D01*
X126730Y478191D02*
Y480730D01*
X128000Y482000D01*
X131809D01*
Y478191D01*
X130539Y476922D01*
X129270Y478191D01*
Y482000D01*
X126730Y484539D02*
X131809D01*
X129270D01*
X128000Y485809D01*
X126730Y487078D01*
Y488348D01*
X131809Y492157D02*
Y494696D01*
Y493426D01*
X124191D01*
X125461Y492157D01*
X-101809Y428939D02*
X-103078Y430209D01*
X-105618D01*
X-106887Y428939D01*
Y427670D01*
X-105618Y426400D01*
X-103078D01*
X-101809Y425130D01*
Y423861D01*
X-103078Y422591D01*
X-105618D01*
X-106887Y423861D01*
X-99270Y430209D02*
Y422591D01*
X-96730Y425130D01*
X-94191Y422591D01*
Y430209D01*
X-91652Y422591D02*
X-89113D01*
X-90382D01*
Y430209D01*
X-91652Y428939D01*
X337809Y36191D02*
X342887D01*
Y40000D01*
X340348D01*
X342887D01*
Y43809D01*
X335270Y36191D02*
Y43809D01*
X330191D01*
X327652D02*
X325113D01*
X326382D01*
Y36191D01*
X327652Y37461D01*
X-4649Y589730D02*
Y587191D01*
Y588461D01*
X1699D01*
X2969Y587191D01*
Y585922D01*
X1699Y584652D01*
X2969Y597348D02*
Y592270D01*
X-2110Y597348D01*
X-3379D01*
X-4649Y596078D01*
Y593539D01*
X-3379Y592270D01*
X397158Y504075D02*
X404316Y501469D01*
X403013Y497890D01*
X401386Y497132D01*
X399000Y498000D01*
X398241Y499627D01*
X399544Y503206D01*
X398675Y500820D02*
X395421Y499303D01*
X394552Y496917D02*
X393684Y494531D01*
X394118Y495724D01*
X401276Y493118D01*
X400518Y494745D01*
X463000Y782809D02*
X460461D01*
X461730D01*
Y776461D01*
X460461Y775191D01*
X459191D01*
X457922Y776461D01*
X465539Y775191D02*
X468078D01*
X466809D01*
Y782809D01*
X465539Y781539D01*
X146191Y804478D02*
Y807017D01*
Y805748D01*
X153809D01*
Y804478D01*
Y807017D01*
X147461Y815904D02*
X146191Y814635D01*
Y812096D01*
X147461Y810826D01*
X152539D01*
X153809Y812096D01*
Y814635D01*
X152539Y815904D01*
X153809Y823522D02*
Y818444D01*
X148730Y823522D01*
X147461D01*
X146191Y822252D01*
Y819713D01*
X147461Y818444D01*
X389461Y534000D02*
X388191Y532730D01*
Y530191D01*
X389461Y528922D01*
X394539D01*
X395809Y530191D01*
Y532730D01*
X394539Y534000D01*
X395809Y536539D02*
Y539078D01*
Y537809D01*
X388191D01*
X389461Y536539D01*
X418152Y520309D02*
X423230D01*
X420691D01*
Y512691D01*
X425770Y513961D02*
X427039Y512691D01*
X429578D01*
X430848Y513961D01*
Y519039D01*
X429578Y520309D01*
X427039D01*
X425770Y519039D01*
Y517770D01*
X427039Y516500D01*
X430848D01*
X450652Y469809D02*
Y462191D01*
X454461D01*
X455730Y463461D01*
Y468539D01*
X454461Y469809D01*
X450652D01*
X463348D02*
X458270D01*
Y466000D01*
X460809Y467270D01*
X462078D01*
X463348Y466000D01*
Y463461D01*
X462078Y462191D01*
X459539D01*
X458270Y463461D01*
M02*
